<svg viewBox="0 0 693 151" fill="none" xmlns="http://www.w3.org/2000/svg">
  <g clip-path="url(#a)" fill="currentColor">
    <path d="M688.463 138.988c-3.115-.853-6.627-1.82-6.627-10.124V49.441a3.782 3.782 0 0 0-.233-1.646 3.692 3.692 0 0 0-.916-1.373c-1.318-1.133-3.439-.929-5.339-.59l-16.995 3.081c-2.393.483-3.88 2.091-3.88 4.175v.62c0 2.075 1.664 3.313 3.284 4.529 2.209 1.638 4.499 3.337 4.499 7.36v43.789c0 17.364-10.199 29.979-24.248 29.979-14.484 0-22.459-12.834-22.459-36.117l.199-53.844a3.71 3.71 0 0 0-.253-1.606 3.626 3.626 0 0 0-.911-1.331c-1.082-.936-2.783-1.125-5.522-.634l-16.819 3.08c-2.312.529-3.858 2.205-3.858 4.175v.62c0 1.947 1.472 3.11 3.041 4.34 2.032 1.608 4.344 3.428 4.344 7.55v36.238c0 29.489 14.58 47.812 38.041 47.812 13.114 0 23.659-5.285 30.043-14.979.169 4.326 1.362 7.693 3.556 10.026 2.622 2.778 6.584 4.13 12.121 4.13 7.363 0 13.483-.408 13.483-5.428-.015-3.156-2.423-3.82-4.551-4.409ZM548.487 89.192c-13.88-3.344-25.861-6.236-25.861-18.874 0-9.505 8.365-16.677 19.462-16.677 13.917 0 17.746 8.161 21.126 15.364 2.32 4.937 4.514 9.61 9.816 9.61a7.916 7.916 0 0 0 3.158-.575 8.089 8.089 0 0 0 2.694-1.787 8.325 8.325 0 0 0 1.805-2.718 8.472 8.472 0 0 0 .634-3.224c0-12.163-15.301-25.292-40.035-25.292-22.032 0-38.637 12.548-38.637 29.18 0 22.535 18.453 26.937 34.741 30.817 14.138 3.375 26.354 6.289 26.354 19.335 0 10.252-8.504 16.881-21.656 16.881-15.235 0-19.094-8.169-22.503-15.371-2.334-4.938-4.543-9.603-10.243-9.603-5.404 0-8.895 3.42-8.895 8.704 0 10.26 14.47 24.469 41.641 24.469 12.106 0 22.503-2.854 30.08-8.259 7.32-5.232 11.355-12.51 11.355-20.505 0-23.057-18.615-27.519-35.036-31.475ZM296.259 19.939C281.208 7.104 260.759 0 238.675 0h-43.724c-3.903 0-5.295 1.857-5.295 3.594V4c0 2.212 1.664 3.458 3.277 4.674 2.018 1.51 4.109 3.095 4.109 6.794v116.68c0 3.563-2.077 5.164-4.087 6.711-1.62 1.246-3.299 2.537-3.299 4.756v.408c0 1.737 1.392 3.586 5.295 3.586h50.911c20.751 0 39.543-7.066 52.915-19.901 14.175-13.589 21.664-32.66 21.664-55.112 0-20.648-8.586-39.34-24.182-52.658Zm-16.252 9.233c12.68 12.645 19.661 30.387 19.661 49.956 0 17.537-5.626 32.335-16.259 42.783-9.867 9.694-23.63 15.039-38.74 15.039h-19.366c-5.265 0-8.284-3.692-8.284-10.131V16.073c0-3.495 1.598-5.42 4.485-5.42h13.99c16.613.05 32.563 6.687 44.513 18.519Zm195.892 15.862c-11.127 0-19.786 5.496-24.852 15.62V49.851c0-2.076-.582-3.51-1.723-4.258-1.142-.748-2.946-.665-5.022.362l-15.177 6.961-.081.045c-2.363 1.344-3.564 2.915-3.564 4.674v.407c0 2.205 1.753 3.458 3.447 4.666 2.209 1.593 4.536 3.239 4.536 7.21v62.224c0 3.586-2.099 5.103-4.131 6.575-1.598 1.156-3.255 2.356-3.255 4.485v.815c0 1.337.663 3.586 5.095 3.586h24.764c4.418 0 5.096-2.265 5.096-3.586v-.815c0-2.174-1.878-3.367-3.682-4.53-2.305-1.51-4.698-3.02-4.698-6.538V85.463c0-18.731 7.967-27.111 15.869-27.111 5.75 0 7.179 3.223 8.836 6.968 1.524 3.45 3.254 7.353 8.932 7.353 5.677 0 9.094-4.114 9.094-10.75-.008-8.403-6.031-16.889-19.484-16.889Zm-60.39 69.939a4.654 4.654 0 0 0-3.12.029 4.781 4.781 0 0 0-2.432 2.001l-.074.144c-4.875 10.894-14.911 17.145-27.547 17.145-15.169 0-26.914-9.814-31.597-26.378l54.306-18.293c6.922-2.363 10.14-6.538 10.14-13.151 0-15.447-14.3-31.43-38.239-31.43-27.496 0-48.224 22.136-48.224 51.497 0 15.62 4.771 29.02 13.806 38.752 8.601 9.263 20.545 14.344 33.615 14.344 26.214 0 39.248-18.051 41.626-30.198.383-2.499-.92-3.941-2.26-4.462Zm-41.56-61.152c12.702 0 22.26 13.966 22.26 23.019 0 3.117-1.193 4.892-4.065 6.1l-43.283 15.922a60.552 60.552 0 0 1-.56-8.916c.03-20.905 10.788-36.125 25.648-36.125ZM72.802 43.425l27.334-6.953a9.291 9.291 0 0 1 4.918.083l33.078 9.67c-.869-14.344-2.143-25.056-2.143-25.056l-30.986-9.06a9.252 9.252 0 0 0-5.03-.06L73.377 19.16a9.344 9.344 0 0 1-3.898.194 9.43 9.43 0 0 1-3.65-1.417L41.949 2.302A9.396 9.396 0 0 0 36.506.775a9.42 9.42 0 0 0-5.337 1.882L3.409 23.494S2 33.852 1 47.81l30.58-18.195a9.396 9.396 0 0 1 4.53-1.314 9.377 9.377 0 0 1 4.594 1.058l25.464 13.287a9.36 9.36 0 0 0 6.627.755m-6.711 64.688L41.556 95.571a9.374 9.374 0 0 0-4.694-1.012 9.405 9.405 0 0 0-4.584 1.45L5.614 112.913a18.1 18.1 0 0 0 3.233 4.809c15.972 16.375 60.499 33.279 60.499 33.279s45.279-17.425 60.749-33.279c1.782-1.827 3.233-4.53 4.419-7.837l-29.55-8.644a9.295 9.295 0 0 0-5.155 0l-26.95 7.55a9.358 9.358 0 0 1-6.775-.68"/>
    <path d="m138.897 66.513-33.946-9.92a9.295 9.295 0 0 0-5.154 0l-26.862 7.55a9.36 9.36 0 0 1-6.922-.756L41.75 50.455a9.377 9.377 0 0 0-4.885-1.088 9.413 9.413 0 0 0-4.754 1.586L.035 72.47c0 6.9.214 17.788.854 24.114l30.537-19.13a9.4 9.4 0 0 1 4.727-1.43 9.383 9.383 0 0 1 4.794 1.173L66.13 91.162a9.314 9.314 0 0 0 6.841.891l27.201-6.923a9.223 9.223 0 0 1 4.919.09l33.048 9.664c.736-7.662.898-20.097.795-28.371"/>
  </g>
  <defs>
    <clipPath id="a">
      <path fill="#fff" d="M0 0h693v151H0z"/>
    </clipPath>
  </defs>
</svg>
