<svg viewBox="0 0 170 178" fill="none" xmlns="http://www.w3.org/2000/svg">
<path d="M88.5905 50.5158L121.869 42.33C123.839 41.8419 125.905 41.8756 127.858 42.4278L168.129 53.8132C167.071 36.9261 165.52 24.3141 165.52 24.3141L127.795 13.6486C125.798 13.0785 123.682 13.054 121.672 13.5775L89.2898 21.9499C87.7405 22.3483 86.1251 22.4261 84.5441 22.1784C82.9631 21.9307 81.4505 21.3628 80.1006 20.51L51.0268 2.10311C49.0501 0.857054 46.7405 0.230386 44.3993 0.304902C42.0581 0.379417 39.7939 1.15163 37.9019 2.52082L4.10337 27.0516C4.10337 27.0516 2.39113 39.2459 1.17188 55.6798L38.4039 34.2597C40.0836 33.2966 41.9794 32.7646 43.9191 32.7118C45.8588 32.659 47.7812 33.0872 49.5117 33.9575L80.5131 49.6003C83.0082 50.8457 85.8716 51.1611 88.5817 50.4891" fill="currentColor"/>
<path d="M80.4144 126.641L50.5517 111.905C48.7795 111.033 46.8126 110.623 44.8363 110.713C42.8601 110.804 40.9397 111.391 39.2557 112.42L6.79297 132.321C7.78658 134.407 9.11584 136.319 10.7287 137.982C30.174 157.26 84.386 177.16 84.386 177.16C84.386 177.16 139.512 156.647 158.348 137.982C160.518 135.831 162.284 132.649 163.727 128.757L127.75 118.58C125.698 118.008 123.527 118.008 121.475 118.58L88.6624 127.468C85.9071 128.212 82.972 127.927 80.4144 126.668" fill="currentColor"/>
<path d="M169.064 77.6952L127.735 66.0164C125.683 65.4444 123.511 65.4444 121.459 66.0164L88.7545 74.9044C85.9325 75.667 82.9244 75.3498 80.3273 74.0156L50.7873 58.7905C48.9542 57.849 46.9016 57.4072 44.8396 57.5103C42.7777 57.6133 40.7804 58.2575 39.0521 59.377L0 84.7077C0 92.8313 0.260019 105.648 1.03998 113.096L38.2183 90.5739C39.9558 89.5249 41.9399 88.9451 43.9736 88.8921C46.0072 88.8391 48.0195 89.3146 49.8102 90.2716L80.4708 106.714C83.0173 108.083 85.9886 108.458 88.7994 107.763L121.916 99.6129C123.887 99.1235 125.954 99.1603 127.905 99.7195L168.141 111.096C169.037 102.075 169.234 87.4364 169.109 77.6952" fill="currentColor"/>
</svg>
