<svg width="40" height="43" viewBox="0 0 40 43" fill="none" xmlns="http://www.w3.org/2000/svg">
<g clip-path="url(#clip0_1081_3838)">
<path d="M20.9623 12.0401L28.8325 10.0778C29.2985 9.96078 29.7869 9.96886 30.2488 10.1012L39.7729 12.8306C39.5227 8.78234 39.1559 5.75895 39.1559 5.75895L30.234 3.20217C29.7617 3.06552 29.2613 3.05964 28.7859 3.18513L21.1277 5.19219C20.7613 5.28771 20.3792 5.30635 20.0053 5.24697C19.6314 5.18758 19.2737 5.05144 18.9545 4.84703L12.0786 0.434452C11.6111 0.135744 11.0649 -0.0144833 10.5112 0.00337983C9.95753 0.0212429 9.42205 0.206361 8.9746 0.534587L0.981375 6.41518C0.981375 6.41518 0.576435 9.33846 0.288086 13.278L9.09332 8.14314C9.49058 7.91225 9.93891 7.78472 10.3976 7.77207C10.8564 7.75942 11.311 7.86206 11.7203 8.07071L19.052 11.8207C19.6421 12.1192 20.3193 12.1948 20.9602 12.0337" fill="white"/>
<path d="M19.0294 30.2889L11.967 26.7563C11.5478 26.5474 11.0827 26.4491 10.6153 26.4707C10.1479 26.4923 9.69374 26.6331 9.29548 26.8799L1.61816 31.6504C1.85315 32.1506 2.16751 32.609 2.54894 33.0077C7.14769 37.6291 19.9686 42.3996 19.9686 42.3996C19.9686 42.3996 33.0059 37.482 37.4604 33.0077C37.9735 32.492 38.3912 31.7293 38.7326 30.796L30.2241 28.3565C29.7388 28.2193 29.2253 28.2193 28.74 28.3565L20.98 30.4871C20.3284 30.6655 19.6342 30.5973 19.0294 30.2953" fill="white"/>
<path d="M39.9938 18.5557L30.2196 15.756C29.7343 15.6189 29.2207 15.6189 28.7354 15.756L21.0009 17.8867C20.3335 18.0695 19.6221 17.9934 19.0079 17.6736L12.0218 14.0238C11.5882 13.7981 11.1028 13.6922 10.6152 13.7169C10.1275 13.7416 9.65517 13.896 9.24642 14.1644L0.0107422 20.2368C0.0107422 22.1842 0.0722357 25.2566 0.256694 27.0421L9.04922 21.643C9.46014 21.3916 9.92939 21.2526 10.4103 21.2399C10.8913 21.2271 11.3672 21.3411 11.7907 21.5706L19.0418 25.5123C19.644 25.8404 20.3467 25.9302 21.0115 25.7637L28.8436 23.8099C29.3096 23.6926 29.7983 23.7014 30.2599 23.8354L39.7754 26.5627C39.9874 24.4001 40.0341 20.8909 40.0044 18.5557" fill="white"/>
</g>
<defs>
<clipPath id="clip0_1081_3838">
<rect width="40" height="42.4" fill="white"/>
</clipPath>
</defs>
</svg>
