
<svg viewBox="0 0 848 30" version="1.1" xmlns="http://www.w3.org/2000/svg" xmlns:xlink="http://www.w3.org/1999/xlink">
    <g stroke="none" stroke-width="1" fill="none" fill-rule="evenodd">
        <line x1="0" y1="17.2334" x2="287.189" y2="17.2334" stroke="url(#sep03_paint_0)" stroke-width="2"></line>
        <line x1="848" y1="19.2334" x2="558.549" y2="19.2334" stroke="url(#sep03_paint_1)" stroke-width="2"></line>
        <path d="M430.139,19.3247 L442.619,22.0397 C442.312,18.2843 441.869,15.4909 441.869,15.4909 L430.1,12.9326 L418.457,15.2486 L406.897,9.62256 L395.294,16.1001 C395.294,16.1001 394.8,18.808 394.446,22.453 L406.771,17.0016 L418.457,21.5373 L430.139,19.3247 Z"  fill="currentColor" fill-rule="nonzero"></path>
        <path d="M332.601,4.08562073e-14 L339.708,4.23487 L346.86,2.49369 L354.086,4.41685 C354.086,4.41685 356.152,20.2792 352.815,23.3975 C349.477,26.5159 339.708,29.9417 339.708,29.9417 C339.708,29.9417 330.095,26.6167 326.649,23.3975 C324.053312,20.9727234 324.701906,11.6911457 325.180036,7.25826457 L325.228749,6.8174668 C325.364255,5.62026534 325.475,4.87429 325.475,4.87429 L325.475,4.87429 L332.601,4.08562073e-14 Z M339.957,7.9372 C338.876,7.91031 337.815,8.2114 336.932,8.79534 C336.043,9.42068 335.37,10.2754 334.995,11.2542 C334.524,12.4637 334.299,13.7443 334.329,15.0309 C334.323,15.9004 334.425,16.7677 334.634,17.6151 C334.814,18.3538 335.102,19.0655 335.492,19.7297 C335.943,20.4296 336.577,21.0109 337.335,21.4189 C338.14,21.8327 339.048,22.0405 339.967,22.0213 C340.897,22.039 341.816,21.8314 342.634,21.4189 C343.394,21.0337 344.024,20.4592 344.456,19.7592 C344.898,19.0339 345.124,18.2112 345.111,17.3766 C345.13,16.5282 344.911,15.69 344.477,14.9448 C344.066,14.2602 343.457,13.6984 342.718,13.3245 C341.924,12.9325 341.036,12.7353 340.138,12.7516 C339.247,12.7312 338.368,12.9432 337.598,13.3638 C336.902,13.7536 336.351,14.3338 336.019,15.026 C335.962,15.1459 335.92,15.2712 335.893,15.3997 L335.893,15.3997 L335.871,14.7284 C335.871,13.1417 336.222,11.8566 336.924,10.873 C337.235,10.4073 337.671,10.0259 338.189,9.76695 C338.707,9.50804 339.288,9.38073 339.875,9.39774 C340.625,9.35008 341.368,9.56447 341.958,9.99928 C342.549,10.4341 342.945,11.0583 343.071,11.7508 L343.071,11.7508 L344.848,11.7508 C344.712,10.6733 344.149,9.68252 343.268,8.97483 C342.4,8.28309 341.296,7.9372 339.957,7.9372 Z M339.79156,14.1953301 L340.02,14.1998 C340.467,14.1788 340.914,14.2458 341.332,14.3966 C341.75,14.5474 342.129,14.7786 342.444,15.0751 C343.031,15.7132 343.351,16.5277 343.345,17.3686 C343.339,18.2095 343.008,19.02 342.413,19.651 C341.928,20.0815 341.32,20.3715 340.663,20.4859 C340.005,20.6003 339.326,20.5342 338.708,20.2956 C338.09,20.057 337.559,19.6562 337.18,19.1416 C336.801,18.627 336.59,18.0208 336.572,17.3963 C336.55,16.9689 336.624,16.542 336.79,16.1432 C336.955,15.7444 337.209,15.3826 337.534,15.0812 C337.859,14.7799 338.249,14.5457 338.677,14.3938 C339.105,14.242 339.563,14.1759 340.02,14.1998 Z"  fill="currentColor" fill-rule="nonzero"></path>
        <polygon fill="currentColor" fill-rule="nonzero" points="521.582 6.20728 509.18 2.13672 500.087 10.6388 491.283 10.8194 481.817 16.831 481.817 27.4155 521.582 27.4155"></polygon>
    </g>
    <defs>
      <linearGradient id="sep03_paint_0" x1="8.69285e-08" y1="19.2277" x2="287.189" y2="19.2277" gradientUnits="userSpaceOnUse">
      <stop stop-color="currentColor"/>
      <stop offset="1" stop-color="currentColor" stop-opacity="0"/>
      </linearGradient>
      <linearGradient id="sep03_paint_1" x1="848" y1="17.2391" x2="558.549" y2="17.2391" gradientUnits="userSpaceOnUse">
      <stop stop-color="currentColor"/>
      <stop offset="1" stop-color="currentColor" stop-opacity="0"/>
      </linearGradient>
    </defs>
</svg>
