<svg viewBox="0 0 708 22" fill="none" xmlns="http://www.w3.org/2000/svg">
  <g fill-rule="evenodd">
    <path stroke="url(#sep02_paint_0)" stroke-width="2" d="M0 10h387"/>
    <path stroke="url(#sep02_paint_1)" stroke-width="2" d="M709 10H449"/>
    <path d="M418 0c6.075 0 11 4.925 11 11s-4.925 11-11 11-11-4.925-11-11 4.925-11 11-11Zm.227 15.032c-.607 0-1.11.382-1.11 1.058 0 .66.503 1.024 1.11 1.024.607 0 1.093-.364 1.093-1.024 0-.676-.486-1.058-1.093-1.058Zm-.85-10.043.04 1.3.06 1.6.086 1.84.039.706.053.876.058.848.064.802.069.736c.052.312.642.312.694 0l.063-.582.06-.626.081-1.002.074-1.045.085-1.403.098-1.966.053-1.339.023-.762c.018-.868-1.7-.833-1.7.017Z" fill="currentColor" fill-rule="nonzero"/>
  </g>
  <defs>
    <linearGradient id="sep02_paint_0" x1="-1" y1="11.994" x2="386" y2="11.994" gradientUnits="userSpaceOnUse">
      <stop stop-color="currentColor"/>
      <stop offset="1" stop-color="currentColor" stop-opacity="0"/>
    </linearGradient>
    <linearGradient id="sep02_paint_1" x1="708" y1="10.006" x2="448" y2="10.006" gradientUnits="userSpaceOnUse">
      <stop stop-color="currentColor"/>
      <stop offset="1" stop-color="currentColor" stop-opacity="0"/>
    </linearGradient>
  </defs>
</svg>
