<svg viewBox="0 0 706 68" fill="none" xmlns="http://www.w3.org/2000/svg">
<path d="M-0.000396729 33.7348L33.145 10.6883C42.856 3.95462 54.4274 0.342285 66.2865 0.342285C78.1456 0.342285 89.7172 3.95462 99.4282 10.6883C109.143 17.414 120.713 21.0213 132.57 21.0213C144.427 21.0213 155.997 17.414 165.711 10.6883C175.423 3.95462 186.994 0.342285 198.853 0.342285C210.712 0.342285 222.284 3.95462 231.995 10.6883C253.626 25.7017 279.412 33.7497 305.836 33.7348H328.719" fill="url(#sep04_paint_0)"/>
<path d="M706 33.735L672.77 56.7818C663.035 63.5156 651.434 67.128 639.545 67.128C627.655 67.128 616.054 63.5156 606.319 56.7818C596.58 50.056 584.98 46.4487 573.093 46.4487C561.206 46.4487 549.606 50.056 539.867 56.7818C530.132 63.5156 518.531 67.128 506.641 67.128C494.752 67.128 483.151 63.5156 473.416 56.7818C451.73 41.7682 425.878 33.7201 399.387 33.7349L376.446 33.7349" fill="url(#sep04_paint_1)"/>
<path d="M353.377 28.8604L359.596 27.3086C359.964 27.2161 360.35 27.2225 360.715 27.3272L368.241 29.4855C368.043 26.2842 367.753 23.8934 367.753 23.8934L360.703 21.8715C360.33 21.7634 359.935 21.7588 359.559 21.858L353.508 23.4452C353.218 23.5207 352.916 23.5355 352.621 23.4885C352.326 23.4415 352.043 23.3339 351.791 23.1722L346.358 19.6828C345.988 19.4466 345.557 19.3278 345.119 19.3419C344.682 19.3561 344.258 19.5025 343.905 19.762L337.589 24.4123C337.589 24.4123 337.269 26.724 337.041 29.8394L343.999 25.7788C344.313 25.5962 344.667 25.4953 345.029 25.4853C345.392 25.4753 345.751 25.5565 346.074 25.7215L351.868 28.6869C352.334 28.923 352.869 28.9828 353.376 28.8554" fill="currentColor"/>
<path d="M351.848 43.2816L346.267 40.4893C345.936 40.3242 345.568 40.2465 345.199 40.2635C344.83 40.2806 344.471 40.3919 344.156 40.587L338.09 44.3577C338.276 44.753 338.524 45.1153 338.825 45.4305C342.459 49.0833 352.59 52.854 352.59 52.854C352.59 52.854 362.892 48.9671 366.411 45.4305C366.817 45.0229 367.147 44.42 367.417 43.6824L360.693 41.7541C360.31 41.6457 359.904 41.6457 359.521 41.7541L353.389 43.4382C352.874 43.5792 352.326 43.5252 351.848 43.2866" fill="currentColor"/>
<path d="M368.414 34.0099L360.691 31.7968C360.307 31.6884 359.901 31.6884 359.518 31.7968L353.406 33.4811C352.879 33.6256 352.317 33.5655 351.831 33.3126L346.311 30.4275C345.969 30.2491 345.585 30.1654 345.2 30.1849C344.814 30.2044 344.441 30.3265 344.118 30.5387L336.82 35.3388C336.82 36.8782 336.869 39.3069 337.015 40.7183L343.962 36.4504C344.287 36.2516 344.658 36.1417 345.038 36.1317C345.418 36.1216 345.794 36.2118 346.128 36.3931L351.858 39.509C352.334 39.7684 352.889 39.8393 353.415 39.7077L359.603 38.1632C359.971 38.0705 360.358 38.0775 360.722 38.1835L368.241 40.3393C368.409 38.6298 368.446 35.8558 368.422 34.0099" fill="currentColor"/>
<defs>
<linearGradient id="sep04_paint_0" x1="164.359" y1="-59.9179" x2="164.364" y2="33.7349" gradientUnits="userSpaceOnUse">
<stop stop-color="currentColor"/>
<stop offset="1" stop-color="currentColor" stop-opacity="0"/>
</linearGradient>
<linearGradient id="sep04_paint_1" x1="541.223" y1="127.389" x2="541.219" y2="33.7349" gradientUnits="userSpaceOnUse">
<stop stop-color="currentColor"/>
<stop offset="1" stop-color="currentColor" stop-opacity="0"/>
</linearGradient>
</defs>
</svg>
