<svg width="848" height="30" viewBox="0 0 848 30" fill="none" xmlns="http://www.w3.org/2000/svg">
<line x1="-8.74228e-08" y1="17.2334" x2="287.189" y2="17.2334" stroke="url(#sep03_paint_0)" stroke-width="2"/>
<line x1="848" y1="19.2334" x2="558.549" y2="19.2334" stroke="url(#sep03_paint_1)" stroke-width="2"/>
<path d="M430.139 19.3247L442.619 22.0397C442.312 18.2843 441.869 15.4909 441.869 15.4909L430.1 12.9326L418.457 15.2486L406.897 9.62256L395.294 16.1001C395.294 16.1001 394.8 18.808 394.446 22.453L406.771 17.0016L418.457 21.5373L430.139 19.3247Z" fill="currentColor"/>
<path d="M325.475 4.87429C325.475 4.87429 323.203 20.1784 326.649 23.3975C330.095 26.6167 339.708 29.9417 339.708 29.9417C339.708 29.9417 349.477 26.5159 352.815 23.3975C356.152 20.2792 354.086 4.41685 354.086 4.41685L346.86 2.49369L339.708 4.23487L332.601 0L325.475 4.87429Z" fill="currentColor"/>
<path d="M334.329 15.0309C334.299 13.7443 334.524 12.4637 334.995 11.2542C335.37 10.2754 336.043 9.42068 336.932 8.79534C337.815 8.2114 338.876 7.91031 339.957 7.9372C341.296 7.9372 342.4 8.28309 343.268 8.97483C344.149 9.68252 344.712 10.6733 344.848 11.7508H343.071C342.945 11.0583 342.549 10.4341 341.958 9.99928C341.368 9.56447 340.625 9.35008 339.875 9.39774C339.288 9.38073 338.707 9.50804 338.189 9.76695C337.671 10.0259 337.235 10.4073 336.924 10.873C336.222 11.8566 335.871 13.1417 335.871 14.7284L335.893 15.3997C335.92 15.2712 335.962 15.1459 336.019 15.026C336.351 14.3338 336.902 13.7536 337.598 13.3638C338.368 12.9432 339.247 12.7312 340.138 12.7516C341.036 12.7353 341.924 12.9325 342.718 13.3245C343.457 13.6984 344.066 14.2602 344.477 14.9448C344.911 15.69 345.13 16.5282 345.111 17.3766C345.124 18.2112 344.898 19.0339 344.456 19.7592C344.024 20.4592 343.394 21.0337 342.634 21.4189C341.816 21.8314 340.897 22.039 339.967 22.0213C339.048 22.0405 338.14 21.8327 337.335 21.4189C336.577 21.0109 335.943 20.4296 335.492 19.7297C335.102 19.0655 334.814 18.3538 334.634 17.6151C334.425 16.7677 334.323 15.9004 334.329 15.0309ZM340.02 14.1998C339.563 14.1759 339.105 14.242 338.677 14.3938C338.249 14.5457 337.859 14.7799 337.534 15.0812C337.209 15.3826 336.955 15.7444 336.79 16.1432C336.624 16.542 336.55 16.9689 336.572 17.3963C336.59 18.0208 336.801 18.627 337.18 19.1416C337.559 19.6562 338.09 20.057 338.708 20.2956C339.326 20.5342 340.005 20.6003 340.663 20.4859C341.32 20.3715 341.928 20.0815 342.413 19.651C343.008 19.02 343.339 18.2095 343.345 17.3686C343.351 16.5277 343.031 15.7132 342.444 15.0751C342.129 14.7786 341.75 14.5474 341.332 14.3966C340.914 14.2458 340.467 14.1788 340.02 14.1998Z" fill="#2F212A"/>
<path d="M521.582 6.20728L509.18 2.13672L500.087 10.6388L491.283 10.8194L481.817 16.831V27.4155H521.582V6.20728Z" fill="currentColor"/>
<defs>
<linearGradient id="sep03_paint_0" x1="8.69285e-08" y1="19.2277" x2="287.189" y2="19.2277" gradientUnits="userSpaceOnUse">
<stop stop-color="currentColor"/>
<stop offset="1" stop-color="currentColor" stop-opacity="0"/>
</linearGradient>
<linearGradient id="sep03_paint_1" x1="848" y1="17.2391" x2="558.549" y2="17.2391" gradientUnits="userSpaceOnUse">
<stop stop-color="currentColor"/>
<stop offset="1" stop-color="currentColor" stop-opacity="0"/>
</linearGradient>
</defs>
</svg>
