<svg width="40" height="40" viewBox="0 0 40 40" fill="none" xmlns="http://www.w3.org/2000/svg">
<path fill-rule="evenodd" clip-rule="evenodd" d="M1.5 19.986C1.5 9.77646 9.77646 1.5 19.986 1.5C30.1955 1.5 38.472 9.77646 38.472 19.986C38.472 30.1955 30.1955 38.472 19.986 38.472C9.77646 38.472 1.5 30.1955 1.5 19.986ZM19.986 0C8.94803 0 0 8.94803 0 19.986C0 31.0239 8.94803 39.972 19.986 39.972C31.0239 39.972 39.972 31.0239 39.972 19.986C39.972 8.94803 31.0239 0 19.986 0ZM25.5298 15.5049C25.8227 15.212 25.8227 14.7372 25.5298 14.4443C25.2369 14.1514 24.7621 14.1514 24.4692 14.4443L19.9883 18.9252L15.5074 14.4443C15.2145 14.1514 14.7396 14.1514 14.4467 14.4443C14.1538 14.7372 14.1538 15.212 14.4467 15.5049L18.9276 19.9858L14.4467 24.4667C14.1538 24.7596 14.1538 25.2345 14.4467 25.5274C14.7396 25.8203 15.2145 25.8203 15.5074 25.5274L19.9883 21.0465L24.4692 25.5274C24.7621 25.8203 25.2369 25.8203 25.5298 25.5274C25.8227 25.2345 25.8227 24.7596 25.5298 24.4667L21.0489 19.9858L25.5298 15.5049Z" fill="#313131"/>
</svg>
