<svg width="130" height="40" fill="none" xmlns="http://www.w3.org/2000/svg"><path d="M0 6a6 6 0 0 1 6-6h118a6 6 0 0 1 6 6v28a6 6 0 0 1-6 6H6a6 6 0 0 1-6-6V6Z" fill="#fff"/><path fill-rule="evenodd" clip-rule="evenodd" d="M25.769 20.58a4.949 4.949 0 0 1 2.357-4.151 5.066 5.066 0 0 0-3.992-2.158c-1.679-.176-3.307 1.005-4.163 1.005-.872 0-2.19-.988-3.608-.958a5.315 5.315 0 0 0-4.473 2.727c-1.934 3.349-.491 8.27 1.361 10.976.927 1.326 2.01 2.806 3.428 2.754 1.387-.058 1.905-.885 3.58-.885 1.658 0 2.144.885 3.59.851 1.489-.024 2.426-1.33 3.32-2.669a10.96 10.96 0 0 0 1.52-3.092 4.782 4.782 0 0 1-2.92-4.4ZM23.038 12.49A4.873 4.873 0 0 0 24.152 9a4.958 4.958 0 0 0-3.207 1.66A4.636 4.636 0 0 0 19.8 14.02a4.1 4.1 0 0 0 3.237-1.53Z" fill="#000"/><path d="M41.557 13.78V8.794h1.44c.396 0 .729.057.999.171.27.108.489.27.657.486.174.21.297.468.369.774.078.3.117.642.117 1.026 0 .396-.042.735-.126 1.017a2.39 2.39 0 0 1-.306.693c-.126.186-.27.333-.432.441a2.151 2.151 0 0 1-.477.252c-.162.054-.315.09-.459.108a4.473 4.473 0 0 1-.36.018h-1.422Zm-.855-5.706V14.5h2.205c.534 0 .996-.075 1.386-.225.39-.15.711-.366.963-.648.252-.288.438-.639.558-1.053.12-.42.18-.9.18-1.44 0-1.032-.267-1.8-.801-2.304-.534-.504-1.296-.756-2.286-.756h-2.205Zm9.622 3.654H47.65c.012-.18.05-.348.117-.504.066-.162.156-.303.27-.423.114-.12.249-.213.405-.279.162-.072.342-.108.54-.108.192 0 .366.036.522.108.162.066.3.159.414.279.12.114.213.252.279.414.072.162.114.333.126.513Zm.738 1.296h-.756c-.066.306-.204.534-.414.684-.204.15-.468.225-.792.225-.252 0-.471-.042-.657-.126a1.314 1.314 0 0 1-.46-.333 1.363 1.363 0 0 1-.26-.486 1.887 1.887 0 0 1-.072-.585h3.483a3.57 3.57 0 0 0-.081-.891 2.46 2.46 0 0 0-.342-.864 1.94 1.94 0 0 0-.657-.648c-.27-.174-.612-.261-1.026-.261-.318 0-.612.06-.882.18-.264.12-.495.288-.693.504a2.365 2.365 0 0 0-.45.765 2.8 2.8 0 0 0-.162.972c.012.354.063.681.153.981.096.3.237.558.423.774.186.216.414.384.684.504.276.12.6.18.972.18.528 0 .966-.132 1.314-.396.348-.264.573-.657.675-1.179Zm1.513.009h-.765c.012.288.072.534.18.738.108.198.252.36.432.486.18.12.387.207.62.261a3.485 3.485 0 0 0 1.44.009c.24-.042.454-.12.64-.234.192-.114.345-.264.459-.45.12-.186.18-.42.18-.702a1.068 1.068 0 0 0-.477-.927 1.676 1.676 0 0 0-.486-.243 5.438 5.438 0 0 0-.558-.153c-.18-.042-.36-.081-.54-.117a3.937 3.937 0 0 1-.486-.144 1.303 1.303 0 0 1-.36-.216.452.452 0 0 1-.135-.333c0-.12.03-.216.09-.288a.585.585 0 0 1 .234-.18c.096-.048.2-.081.315-.099.12-.018.237-.027.35-.027.127 0 .25.015.37.045.126.024.24.066.342.126a.75.75 0 0 1 .369.612h.765a1.675 1.675 0 0 0-.18-.702 1.155 1.155 0 0 0-.414-.45 1.538 1.538 0 0 0-.585-.234 3.452 3.452 0 0 0-.73-.072c-.203 0-.41.027-.62.081-.204.048-.39.126-.558.234a1.304 1.304 0 0 0-.405.405 1.14 1.14 0 0 0-.153.603c0 .3.075.534.225.702.15.168.336.3.558.396.228.09.474.162.738.216.264.048.507.105.729.171.228.06.417.141.567.243a.51.51 0 0 1 .225.45.583.583 0 0 1-.108.36.695.695 0 0 1-.28.207 1.322 1.322 0 0 1-.36.099 2.8 2.8 0 0 1-.377.027c-.156 0-.31-.015-.46-.045a1.415 1.415 0 0 1-.395-.144.885.885 0 0 1-.28-.279.888.888 0 0 1-.116-.432Zm7.37-1.692h.793a1.801 1.801 0 0 0-.216-.711 1.558 1.558 0 0 0-.441-.504 1.697 1.697 0 0 0-.612-.288 2.644 2.644 0 0 0-.738-.099c-.366 0-.687.066-.963.198a1.898 1.898 0 0 0-.693.531c-.18.222-.315.486-.405.792-.09.3-.135.624-.135.972s.045.669.135.963c.096.288.234.537.414.747.186.21.414.372.684.486.276.114.59.171.945.171.594 0 1.062-.156 1.404-.468.348-.312.564-.756.648-1.332h-.783c-.048.36-.18.639-.396.837-.21.198-.504.297-.882.297-.24 0-.447-.048-.621-.144a1.226 1.226 0 0 1-.423-.378 1.822 1.822 0 0 1-.243-.549 2.741 2.741 0 0 1-.072-.63c0-.234.024-.459.072-.675.048-.222.126-.417.234-.585.114-.168.264-.303.45-.405.186-.102.417-.153.693-.153.324 0 .582.081.774.243.192.162.318.39.378.684Zm5.978 3.141c-.132.078-.315.117-.55.117a.686.686 0 0 1-.476-.162c-.114-.114-.171-.297-.171-.549-.21.252-.456.435-.738.549a2.448 2.448 0 0 1-.9.162c-.21 0-.411-.024-.603-.072a1.394 1.394 0 0 1-.486-.225 1.13 1.13 0 0 1-.333-.396 1.422 1.422 0 0 1-.117-.603c0-.264.045-.48.135-.648.09-.168.207-.303.35-.405.15-.108.319-.189.505-.243.192-.054.387-.099.585-.135.21-.042.408-.072.594-.09a4.3 4.3 0 0 0 .504-.09.913.913 0 0 0 .342-.171c.084-.078.126-.189.126-.333a.736.736 0 0 0-.1-.405.607.607 0 0 0-.242-.234.946.946 0 0 0-.333-.108 2.424 2.424 0 0 0-.36-.027c-.324 0-.594.063-.81.189-.216.12-.333.351-.351.693h-.765c.012-.288.072-.531.18-.729.108-.198.252-.357.432-.477.18-.126.384-.216.612-.27.234-.054.483-.081.747-.081.21 0 .417.015.62.045.21.03.4.093.568.189.168.09.303.219.405.387.102.168.153.387.153.657v2.394c0 .18.009.312.027.396.024.084.096.126.216.126a.758.758 0 0 0 .234-.045v.594Zm-1.242-2.385a1 1 0 0 1-.378.162c-.156.03-.321.057-.495.081a8.096 8.096 0 0 0-.513.072 1.78 1.78 0 0 0-.468.126.87.87 0 0 0-.342.261c-.084.108-.126.258-.126.45a.68.68 0 0 0 .072.324c.054.084.12.153.198.207.084.054.18.093.288.117.108.024.222.036.342.036.252 0 .468-.033.648-.099.18-.072.327-.159.44-.261.115-.108.199-.222.253-.342a.896.896 0 0 0 .08-.351v-.783Zm2.107-2.25V14.5h.765v-2.07c0-.3.03-.564.09-.792.06-.234.156-.432.288-.594.132-.162.306-.285.522-.369.216-.084.477-.126.783-.126v-.81c-.414-.012-.756.072-1.026.252s-.498.459-.684.837h-.018v-.981h-.72Zm6.963 4.257V9.847h-.72v.666h-.009a1.335 1.335 0 0 0-.576-.576 1.686 1.686 0 0 0-.81-.198c-.402 0-.74.078-1.017.234-.276.15-.498.345-.666.585a2.269 2.269 0 0 0-.36.792 3.48 3.48 0 0 0-.108.846c0 .318.042.621.126.909.09.282.222.531.396.747.174.21.39.378.648.504s.561.189.91.189c.3 0 .581-.066.845-.198.27-.138.471-.351.603-.639h.018v.306c0 .258-.027.495-.08.711a1.394 1.394 0 0 1-.244.549 1.142 1.142 0 0 1-.432.36c-.174.09-.387.135-.639.135-.126 0-.258-.015-.396-.045a1.394 1.394 0 0 1-.387-.126 1.026 1.026 0 0 1-.297-.234.58.58 0 0 1-.126-.351h-.765c.012.252.078.465.198.639.12.174.27.315.45.423.186.108.39.186.612.234.228.048.45.072.666.072.744 0 1.29-.189 1.638-.567.348-.378.522-.948.522-1.71Zm-2.142-.225c-.252 0-.462-.051-.63-.153a1.271 1.271 0 0 1-.405-.414 1.845 1.845 0 0 1-.216-.576 3.205 3.205 0 0 1-.063-.63c0-.222.024-.435.072-.639.054-.204.135-.384.243-.54.114-.156.258-.279.432-.369.174-.096.384-.144.63-.144.24 0 .444.048.612.144.168.096.303.225.405.387.108.156.186.333.234.531.048.198.072.399.072.603 0 .216-.027.432-.08.648a1.868 1.868 0 0 1-.235.585 1.299 1.299 0 0 1-.432.414 1.244 1.244 0 0 1-.639.153Zm7.598.603c-.132.078-.315.117-.549.117a.686.686 0 0 1-.477-.162c-.114-.114-.171-.297-.171-.549-.21.252-.456.435-.738.549a2.448 2.448 0 0 1-.9.162c-.21 0-.411-.024-.603-.072a1.394 1.394 0 0 1-.486-.225 1.13 1.13 0 0 1-.333-.396 1.422 1.422 0 0 1-.117-.603c0-.264.045-.48.135-.648.09-.168.207-.303.351-.405.15-.108.318-.189.504-.243.192-.054.387-.099.585-.135.21-.042.408-.072.594-.09a4.3 4.3 0 0 0 .504-.09.913.913 0 0 0 .342-.171c.084-.078.126-.189.126-.333a.736.736 0 0 0-.099-.405.607.607 0 0 0-.243-.234.946.946 0 0 0-.333-.108 2.424 2.424 0 0 0-.36-.027c-.324 0-.594.063-.81.189-.216.12-.333.351-.351.693h-.765c.012-.288.072-.531.18-.729.108-.198.252-.357.432-.477.18-.126.384-.216.612-.27.234-.054.483-.081.747-.081.21 0 .417.015.621.045.21.03.399.093.567.189.168.09.303.219.405.387.102.168.153.387.153.657v2.394c0 .18.009.312.027.396.024.084.096.126.216.126a.758.758 0 0 0 .234-.045v.594Zm-1.242-2.385a1 1 0 0 1-.378.162c-.156.03-.321.057-.495.081a8.096 8.096 0 0 0-.513.072 1.78 1.78 0 0 0-.468.126.87.87 0 0 0-.342.261c-.084.108-.126.258-.126.45a.68.68 0 0 0 .072.324c.054.084.12.153.198.207.084.054.18.093.288.117.108.024.222.036.342.036.252 0 .468-.033.648-.099.18-.072.327-.159.441-.261.114-.108.198-.222.252-.342a.896.896 0 0 0 .081-.351v-.783Zm4.864-4.023V14.5h.765V8.074h-.765Zm6.252 6.408c-.132.078-.315.117-.549.117a.686.686 0 0 1-.477-.162c-.114-.114-.171-.297-.171-.549-.21.252-.456.435-.738.549a2.448 2.448 0 0 1-.9.162c-.21 0-.411-.024-.603-.072a1.394 1.394 0 0 1-.486-.225 1.13 1.13 0 0 1-.333-.396 1.422 1.422 0 0 1-.117-.603c0-.264.045-.48.135-.648.09-.168.207-.303.351-.405.15-.108.318-.189.504-.243.192-.054.387-.099.585-.135.21-.042.408-.072.594-.09a4.3 4.3 0 0 0 .504-.09.913.913 0 0 0 .342-.171c.084-.078.126-.189.126-.333a.736.736 0 0 0-.099-.405.607.607 0 0 0-.243-.234.946.946 0 0 0-.333-.108 2.424 2.424 0 0 0-.36-.027c-.324 0-.594.063-.81.189-.216.12-.333.351-.351.693h-.765c.012-.288.072-.531.18-.729.108-.198.252-.357.432-.477.18-.126.384-.216.612-.27.234-.054.483-.081.747-.081.21 0 .417.015.621.045.21.03.399.093.567.189.168.09.303.219.405.387.102.168.153.387.153.657v2.394c0 .18.009.312.027.396.024.084.096.126.216.126a.758.758 0 0 0 .234-.045v.594Zm-1.242-2.385a1 1 0 0 1-.378.162c-.156.03-.321.057-.495.081a8.096 8.096 0 0 0-.513.072 1.78 1.78 0 0 0-.468.126.87.87 0 0 0-.342.261c-.084.108-.126.258-.126.45a.68.68 0 0 0 .072.324c.054.084.12.153.198.207.084.054.18.093.288.117.108.024.222.036.342.036.252 0 .468-.033.648-.099.18-.072.327-.159.441-.261.114-.108.198-.222.252-.342a.896.896 0 0 0 .081-.351v-.783Zm8.94 2.385c-.131.078-.314.117-.548.117a.686.686 0 0 1-.477-.162c-.114-.114-.171-.297-.171-.549-.21.252-.456.435-.738.549a2.448 2.448 0 0 1-.9.162c-.21 0-.411-.024-.603-.072a1.394 1.394 0 0 1-.486-.225 1.13 1.13 0 0 1-.333-.396 1.422 1.422 0 0 1-.117-.603c0-.264.045-.48.135-.648.09-.168.207-.303.35-.405.15-.108.319-.189.505-.243.192-.054.387-.099.585-.135.21-.042.408-.072.594-.09a4.3 4.3 0 0 0 .504-.09.913.913 0 0 0 .342-.171c.084-.078.126-.189.126-.333a.736.736 0 0 0-.1-.405.607.607 0 0 0-.242-.234.946.946 0 0 0-.333-.108 2.424 2.424 0 0 0-.36-.027c-.324 0-.594.063-.81.189-.216.12-.333.351-.351.693h-.765c.012-.288.072-.531.18-.729.108-.198.252-.357.432-.477.18-.126.384-.216.612-.27.234-.054.483-.081.747-.081.21 0 .417.015.62.045.21.03.4.093.568.189.168.09.303.219.405.387.102.168.153.387.153.657v2.394c0 .18.009.312.027.396.024.084.096.126.216.126a.758.758 0 0 0 .234-.045v.594Zm-1.241-2.385a1 1 0 0 1-.378.162c-.156.03-.321.057-.495.081a8.096 8.096 0 0 0-.513.072 1.78 1.78 0 0 0-.468.126.87.87 0 0 0-.342.261c-.084.108-.126.258-.126.45a.68.68 0 0 0 .072.324c.054.084.12.153.198.207.084.054.18.093.288.117.108.024.222.036.342.036.252 0 .468-.033.648-.099.18-.072.327-.159.44-.261.115-.108.199-.222.253-.342a.896.896 0 0 0 .08-.351v-.783Zm2.16-2.25v6.426h.766v-2.394h.018c.084.138.186.255.306.351.126.09.258.162.396.216.138.054.276.093.414.117.144.024.273.036.387.036.354 0 .663-.063.927-.189.27-.126.492-.297.666-.513.18-.222.312-.48.396-.774a3.18 3.18 0 0 0 .135-.936c0-.33-.045-.642-.135-.936a2.269 2.269 0 0 0-.405-.774 1.84 1.84 0 0 0-.666-.54 2.07 2.07 0 0 0-.936-.198c-.324 0-.621.06-.891.18-.27.114-.468.3-.594.558h-.018v-.63h-.765Zm3.601 2.286c0 .228-.024.45-.072.666a1.762 1.762 0 0 1-.234.576 1.218 1.218 0 0 1-.432.405c-.174.102-.393.153-.657.153s-.49-.048-.675-.144a1.4 1.4 0 0 1-.46-.396 1.692 1.692 0 0 1-.251-.558 2.859 2.859 0 0 1-.009-1.305c.054-.21.138-.396.252-.558.114-.168.26-.303.44-.405.18-.102.4-.153.658-.153.246 0 .459.048.639.144.186.096.336.225.45.387.12.162.207.348.261.558.06.204.09.414.09.63Zm1.915-2.286v6.426h.765v-2.394h.018c.084.138.186.255.306.351.126.09.258.162.396.216.138.054.276.093.414.117.144.024.273.036.387.036.354 0 .663-.063.927-.189.27-.126.492-.297.666-.513.18-.222.312-.48.396-.774a3.18 3.18 0 0 0 .135-.936c0-.33-.045-.642-.135-.936a2.269 2.269 0 0 0-.405-.774 1.84 1.84 0 0 0-.666-.54 2.07 2.07 0 0 0-.936-.198c-.324 0-.621.06-.891.18-.27.114-.468.3-.594.558h-.018v-.63h-.765Zm3.6 2.286c0 .228-.024.45-.072.666a1.762 1.762 0 0 1-.234.576 1.218 1.218 0 0 1-.432.405c-.174.102-.393.153-.657.153s-.489-.048-.675-.144a1.4 1.4 0 0 1-.459-.396 1.692 1.692 0 0 1-.252-.558 2.859 2.859 0 0 1-.009-1.305c.054-.21.138-.396.252-.558.114-.168.261-.303.441-.405.18-.102.399-.153.657-.153.246 0 .459.048.639.144.186.096.336.225.45.387.12.162.207.348.261.558.06.204.09.414.09.63Z" fill="#666"/><path d="M56.92 21.977c2.298 0 3.812 1.816 3.812 4.622 0 2.813-1.505 4.62-3.778 4.62a3.07 3.07 0 0 1-2.849-1.583h-.042v4.484h-1.859V22.071h1.799v1.506h.034a3.212 3.212 0 0 1 2.883-1.6Zm9.965 0c2.298 0 3.812 1.816 3.812 4.622 0 2.813-1.506 4.62-3.778 4.62a3.07 3.07 0 0 1-2.849-1.583h-.043v4.484H62.17V22.071h1.799v1.506h.034a3.212 3.212 0 0 1 2.883-1.6ZM80.227 18.5c2.624 0 4.422 1.472 4.483 3.614h-1.876c-.112-1.239-1.137-1.987-2.634-1.987-1.497 0-2.521.757-2.521 1.858 0 .878.654 1.395 2.255 1.79l1.368.336c2.548.603 3.606 1.626 3.606 3.443 0 2.323-1.85 3.778-4.794 3.778-2.754 0-4.613-1.42-4.733-3.667h1.902c.138 1.232 1.334 2.04 2.969 2.04 1.566 0 2.693-.808 2.693-1.919 0-.964-.68-1.54-2.289-1.936l-1.61-.388c-2.28-.55-3.338-1.617-3.338-3.348 0-2.142 1.867-3.614 4.519-3.614Zm15.705 3.46c2.625 0 4.295 1.79 4.295 4.639 0 2.856-1.662 4.638-4.295 4.638s-4.294-1.782-4.294-4.638c0-2.849 1.677-4.639 4.294-4.639Zm15.048 0c2.505 0 4.081 1.72 4.081 4.466v.637h-6.395v.112a2.357 2.357 0 0 0 2.436 2.564 2.047 2.047 0 0 0 2.09-1.273h1.765c-.25 1.643-1.851 2.771-3.898 2.771-2.634 0-4.269-1.764-4.269-4.595 0-2.84 1.644-4.682 4.19-4.682Zm-22.061-2.031v2.142h1.722v1.472h-1.722v4.991c0 .776.345 1.137 1.102 1.137.204-.004.408-.018.61-.043v1.463c-.34.063-.685.092-1.031.086-1.833 0-2.548-.689-2.548-2.445v-5.189h-1.317v-1.472h1.317V19.93h1.867Zm-42.353-1.222 4.484 12.418h-2.04l-1.135-3.356h-4.733l-1.137 3.356H40l4.483-12.418h2.083Zm59.186 3.27c.214-.001.428.022.637.069v1.738a2.604 2.604 0 0 0-.835-.112 1.874 1.874 0 0 0-1.937 2.083v5.37h-1.858v-9.054h1.772v1.541h.043a2.16 2.16 0 0 1 2.178-1.635Zm-9.82 1.514c-1.506 0-2.4 1.162-2.4 3.108 0 1.962.894 3.106 2.4 3.106 1.505 0 2.401-1.144 2.401-3.106 0-1.954-.895-3.108-2.401-3.108Zm-39.502.07c-1.42 0-2.375 1.23-2.375 3.038 0 1.824.955 3.046 2.375 3.046 1.445 0 2.392-1.197 2.392-3.046 0-1.833-.947-3.038-2.392-3.038Zm9.964 0c-1.42 0-2.375 1.23-2.375 3.038 0 1.824.956 3.046 2.375 3.046 1.446 0 2.393-1.197 2.393-3.046 0-1.833-.947-3.038-2.393-3.038Zm-20.86-2.788h-.051l-1.851 5.447h3.752l-1.85-5.447Zm65.446 2.693a2.29 2.29 0 0 0-2.305 2.298h4.526a2.178 2.178 0 0 0-2.221-2.298Z" fill="#000"/><path d="M6 1h118v-2H6v2Zm123 5v28h2V6h-2Zm-5 33H6v2h118v-2ZM1 34V6h-2v28h2Zm5 5a5 5 0 0 1-5-5h-2a7 7 0 0 0 7 7v-2Zm123-5a5 5 0 0 1-5 5v2a7 7 0 0 0 7-7h-2Zm-5-33a5 5 0 0 1 5 5h2a7 7 0 0 0-7-7v2ZM6-1a7 7 0 0 0-7 7h2a5 5 0 0 1 5-5v-2Z" fill="#A6A6A6"/></svg>