<svg width="125" height="40" fill="none" xmlns="http://www.w3.org/2000/svg"><path d="M0 6.731A5.77 5.77 0 0 1 5.77.961H119.23A5.77 5.77 0 0 1 125 6.732v26.923a5.77 5.77 0 0 1-5.769 5.77H5.769A5.77 5.77 0 0 1 0 33.653V6.731Z" fill="#313131"/><path fill-rule="evenodd" clip-rule="evenodd" d="M9.571 7.988c-.28.296-.444.755-.444 1.35v21.248c0 .596.164 1.054.444 1.35l.071.07 11.903-11.903v-.281L9.642 7.919l-.07.07Z" fill="#00D7FE"/><mask id="a" style="mask-type:alpha" maskUnits="userSpaceOnUse" x="21" y="15" width="11" height="10"><path d="m25.511 24.072-3.966-3.97v-.28l3.968-3.968 4.79 2.72c1.343.764 1.343 2.012 0 2.775l-4.7 2.67-.092.053Z" fill="#fff"/></mask><g mask="url(#a)"><path fill-rule="evenodd" clip-rule="evenodd" d="m25.511 24.072-3.966-3.97v-.28l3.968-3.968 4.79 2.72c1.343.764 1.343 2.012 0 2.775l-4.7 2.67-.092.053Z" fill="url(#b)"/></g><mask id="c" style="mask-type:alpha" maskUnits="userSpaceOnUse" x="9" y="19" width="17" height="14"><path d="m25.604 24.02-4.058-4.057L9.572 31.937c.444.468 1.174.526 1.997.059l14.035-7.975Z" fill="#fff"/></mask><g mask="url(#c)"><path fill-rule="evenodd" clip-rule="evenodd" d="m25.604 24.02-4.058-4.057L9.572 31.937c.444.468 1.174.526 1.997.059l14.035-7.975Z" fill="url(#d)"/></g><mask id="e" style="mask-type:alpha" maskUnits="userSpaceOnUse" x="9" y="7" width="17" height="13"><path d="M25.604 15.905 11.569 7.93c-.823-.467-1.554-.41-1.997.059l11.974 11.974 4.058-4.058Z" fill="#fff"/></mask><g mask="url(#e)"><path fill-rule="evenodd" clip-rule="evenodd" d="M25.604 15.905 11.569 7.93c-.823-.467-1.554-.41-1.997.059l11.974 11.974 4.058-4.058Z" fill="url(#f)"/></g><path fill-rule="evenodd" clip-rule="evenodd" d="M100.398 30.494h1.794v-12.02h-1.794v12.02Zm16.16-7.69-2.056 5.211h-.062l-2.135-5.212h-1.932l3.201 7.284-1.825 4.052h1.872l4.933-11.336h-1.996Zm-10.175 6.325c-.588 0-1.407-.294-1.407-1.02 0-.929 1.021-1.284 1.902-1.284.789 0 1.159.17 1.639.402a2.175 2.175 0 0 1-2.134 1.901Zm.217-6.588c-1.299 0-2.645.572-3.201 1.84l1.592.665c.34-.665.974-.882 1.639-.882.928 0 1.872.557 1.887 1.547v.123c-.325-.185-1.02-.463-1.871-.463-1.717 0-3.465.943-3.465 2.706 0 1.608 1.408 2.645 2.985 2.645 1.207 0 1.871-.542 2.289-1.176h.062v.928h1.732v-4.608c0-2.135-1.593-3.325-3.649-3.325Zm-11.089 1.726H92.96v-4.12h2.552c1.342 0 2.103 1.11 2.103 2.06 0 .931-.761 2.06-2.103 2.06Zm-.046-5.793h-4.299v12.02h1.793V25.94h2.506c1.989 0 3.943-1.44 3.943-3.734 0-2.293-1.954-3.732-3.943-3.732ZM72.022 29.13c-1.24 0-2.277-1.037-2.277-2.462 0-1.44 1.037-2.494 2.277-2.494 1.224 0 2.183 1.053 2.183 2.494 0 1.425-.96 2.462-2.183 2.462Zm2.06-5.653h-.062c-.403-.48-1.177-.914-2.153-.914-2.045 0-3.92 1.796-3.92 4.105 0 2.292 1.875 4.074 3.92 4.074.976 0 1.75-.434 2.153-.93h.061v.589c0 1.565-.835 2.402-2.183 2.402-1.1 0-1.782-.79-2.06-1.457l-1.565.65c.449 1.085 1.642 2.417 3.625 2.417 2.106 0 3.888-1.24 3.888-4.26V22.81h-1.705v.667Zm2.944 7.017h1.797V18.473h-1.797v12.02Zm4.445-3.965c-.046-1.58 1.224-2.386 2.137-2.386.714 0 1.318.356 1.519.867l-3.656 1.518Zm5.577-1.364c-.34-.913-1.38-2.602-3.501-2.602-2.107 0-3.857 1.657-3.857 4.09 0 2.292 1.735 4.089 4.058 4.089 1.875 0 2.96-1.146 3.408-1.813L85.762 28c-.464.682-1.1 1.131-2.014 1.131-.914 0-1.565-.418-1.983-1.238l5.468-2.262-.185-.465Zm-43.566-1.347v1.734h4.151c-.124.977-.449 1.689-.944 2.185-.605.604-1.55 1.27-3.207 1.27-2.555 0-4.554-2.06-4.554-4.616 0-2.557 1.999-4.616 4.554-4.616 1.38 0 2.386.542 3.13 1.24l1.223-1.225c-1.038-.991-2.416-1.75-4.353-1.75-3.5 0-6.444 2.85-6.444 6.351s2.943 6.351 6.444 6.351c1.89 0 3.315-.62 4.43-1.782 1.146-1.146 1.503-2.757 1.503-4.058 0-.403-.03-.774-.093-1.084h-5.84Zm10.653 5.312c-1.24 0-2.308-1.022-2.308-2.477 0-1.473 1.069-2.48 2.308-2.48 1.239 0 2.308 1.007 2.308 2.48 0 1.455-1.07 2.477-2.308 2.477Zm0-6.567c-2.262 0-4.106 1.72-4.106 4.09 0 2.353 1.844 4.089 4.106 4.089 2.262 0 4.105-1.736 4.105-4.09 0-2.37-1.843-4.089-4.105-4.089Zm8.955 6.567c-1.24 0-2.309-1.022-2.309-2.477 0-1.473 1.07-2.48 2.309-2.48 1.24 0 2.308 1.007 2.308 2.48 0 1.455-1.069 2.477-2.308 2.477Zm0-6.567c-2.262 0-4.105 1.72-4.105 4.09 0 2.353 1.843 4.089 4.105 4.089 2.262 0 4.105-1.736 4.105-4.09 0-2.37-1.843-4.089-4.105-4.089Z" fill="#fff"/><path d="M39.417 13.54h-1.285l.009-.664h1.276c.44 0 .806-.092 1.099-.275.293-.186.512-.445.659-.778.15-.335.224-.726.224-1.174v-.376c0-.352-.042-.665-.127-.938a1.9 1.9 0 0 0-.372-.698 1.571 1.571 0 0 0-.6-.435 2.062 2.062 0 0 0-.807-.148h-1.386v-.667h1.386c.403 0 .77.067 1.103.203.332.132.618.325.858.578.242.251.428.555.557.913.13.355.195.755.195 1.2v.368c0 .445-.065.846-.195 1.204a2.454 2.454 0 0 1-1.44 1.487c-.341.133-.726.2-1.154.2Zm-.85-6.153v6.152h-.815V7.387h.816Zm8.513 5.489v.663h-3.258v-.663h3.258Zm-3.093-5.49v6.153h-.815V7.387h.815Zm2.662 2.646v.663h-2.827v-.663h2.827Zm.389-2.645v.667h-3.216v-.667h3.216Zm4.072 4.597a.995.995 0 0 0-.068-.38.725.725 0 0 0-.228-.304 1.794 1.794 0 0 0-.448-.258 6.248 6.248 0 0 0-.718-.25 6.622 6.622 0 0 1-.824-.3 2.88 2.88 0 0 1-.63-.384 1.518 1.518 0 0 1-.402-.494 1.409 1.409 0 0 1-.139-.638 1.497 1.497 0 0 1 .57-1.192 2.05 2.05 0 0 1 .664-.355 2.73 2.73 0 0 1 .858-.127c.462 0 .853.089 1.174.266.324.175.57.405.74.69.169.28.253.582.253.903h-.81c0-.23-.05-.435-.149-.612a1.019 1.019 0 0 0-.448-.423c-.2-.104-.453-.156-.76-.156-.29 0-.53.044-.719.13a.95.95 0 0 0-.422.356.97.97 0 0 0-.135.511c0 .13.026.248.08.355a.949.949 0 0 0 .258.292c.118.09.267.173.448.249.183.076.401.15.654.22.35.098.651.208.905.33.253.12.462.257.625.41.166.148.289.319.368.51.081.19.122.403.122.643 0 .25-.05.477-.152.68a1.48 1.48 0 0 1-.435.52 2.105 2.105 0 0 1-.68.333 3.15 3.15 0 0 1-.88.115c-.284 0-.564-.04-.84-.119a2.506 2.506 0 0 1-.748-.355 1.86 1.86 0 0 1-.537-.583 1.618 1.618 0 0 1-.198-.811h.811c0 .211.04.393.122.545.082.15.194.273.334.372.144.098.306.172.486.22.183.045.374.067.57.067.285 0 .526-.04.723-.118a.959.959 0 0 0 .448-.338.873.873 0 0 0 .157-.52Zm5.313-.401h.812a2.589 2.589 0 0 1-.334 1.043c-.18.307-.435.551-.765.731-.33.178-.74.267-1.234.267-.36 0-.689-.068-.984-.203a2.187 2.187 0 0 1-.757-.575 2.688 2.688 0 0 1-.49-.9 3.843 3.843 0 0 1-.169-1.175v-.612c0-.431.056-.822.17-1.17.115-.353.28-.654.494-.905.216-.25.477-.444.781-.579a2.502 2.502 0 0 1 1.027-.203c.465 0 .858.088 1.179.262.321.175.57.417.748.727.18.307.291.663.334 1.069h-.812a2.262 2.262 0 0 0-.22-.74 1.143 1.143 0 0 0-.456-.481c-.197-.113-.455-.17-.773-.17-.273 0-.514.053-.722.157a1.455 1.455 0 0 0-.52.444 2.065 2.065 0 0 0-.313.689c-.07.267-.106.564-.106.891v.621c0 .302.031.585.093.85.065.264.162.497.292.697.13.2.294.358.494.473.2.113.437.17.71.17.347 0 .623-.056.828-.166.206-.11.361-.267.465-.473.107-.205.183-.452.228-.74Zm3.94-3.651-2.036 5.607h-.832l2.345-6.152h.537l-.013.545Zm1.708 5.607-2.04-5.607-.014-.545h.537l2.354 6.152h-.837Zm-.106-2.277v.667H58.51v-.668h3.456Zm1.507-3.875h2.037c.462 0 .852.07 1.17.211.321.14.565.35.731.625.17.274.254.61.254 1.01 0 .282-.058.54-.174.774a1.646 1.646 0 0 1-.49.591c-.21.16-.464.28-.76.36l-.228.088h-1.915l-.008-.663h1.445c.293 0 .537-.051.731-.152a1.07 1.07 0 0 0 .44-.419c.098-.175.148-.367.148-.579a1.32 1.32 0 0 0-.14-.62.93.93 0 0 0-.44-.41c-.197-.1-.452-.149-.764-.149h-1.221v5.485h-.816V7.387Zm3.596 6.152-1.496-2.789.85-.004 1.516 2.742v.051h-.87Zm6.024-3.063v2.252c-.076.112-.198.24-.364.38a2.27 2.27 0 0 1-.688.364c-.29.1-.665.152-1.124.152-.375 0-.72-.065-1.036-.195a2.335 2.335 0 0 1-.815-.575 2.692 2.692 0 0 1-.533-.92 3.81 3.81 0 0 1-.186-1.234v-.478c0-.46.054-.869.161-1.23.11-.36.27-.666.482-.917a2.02 2.02 0 0 1 .777-.574c.307-.133.66-.199 1.057-.199.47 0 .863.082 1.178.245.319.16.567.383.744.668.18.284.296.608.347.972h-.816a1.711 1.711 0 0 0-.22-.609 1.174 1.174 0 0 0-.46-.44c-.2-.112-.458-.168-.773-.168-.285 0-.531.052-.74.156-.208.104-.38.254-.515.448-.136.194-.237.43-.305.706a4.099 4.099 0 0 0-.097.934v.486c0 .355.041.671.123.95.084.28.204.517.359.714a1.552 1.552 0 0 0 1.272.596c.29 0 .525-.024.705-.072.18-.05.322-.11.423-.177.101-.07.179-.137.232-.199v-1.377h-1.424v-.66h2.236Zm3.37-2.544-2.037 5.607h-.832l2.345-6.152h.537l-.013.545Zm1.707 5.607-2.041-5.607-.013-.545h.537l2.354 6.152h-.837Zm-.106-2.277v.667h-3.456v-.668h3.456Zm7.125 1.614v.663h-3.076v-.663h3.076Zm-2.916-5.49v6.153h-.815V7.387h.815Zm5.952.546-2.036 5.607h-.833L87.7 7.387h.537l-.013.545Zm1.707 5.607-2.04-5.607-.013-.545h.536l2.354 6.152h-.837Zm-.105-2.277v.667h-3.457v-.668h3.457Zm5.67-3.33-2.036 5.607h-.832l2.345-6.152h.537l-.013.545Zm1.708 5.607-2.04-5.607-.014-.545h.537l2.354 6.152h-.837Zm-.106-2.277v.667h-3.456v-.668h3.456Zm3.776-.136H99.23v-.663h1.644c.318 0 .576-.05.773-.152a.945.945 0 0 0 .431-.423c.093-.18.14-.386.14-.617 0-.211-.047-.41-.14-.596a1.025 1.025 0 0 0-.431-.447c-.197-.116-.455-.174-.773-.174h-1.453v5.485h-.816V7.387h2.269c.465 0 .858.08 1.179.24.321.161.565.384.731.668.166.282.249.604.249.968 0 .394-.083.73-.249 1.01-.166.279-.41.491-.731.638-.321.144-.714.215-1.179.215Zm5.2 0h-1.644v-.663h1.644c.318 0 .576-.05.773-.152a.95.95 0 0 0 .431-.423c.093-.18.14-.386.14-.617 0-.211-.047-.41-.14-.596a1.03 1.03 0 0 0-.431-.447c-.197-.116-.455-.174-.773-.174h-1.454v5.485h-.815V7.387h2.269c.465 0 .858.08 1.179.24.321.161.565.384.731.668.166.282.249.604.249.968 0 .394-.083.73-.249 1.01-.166.279-.41.491-.731.638-.321.144-.714.215-1.179.215Z" fill="#fff"/><defs><linearGradient id="b" x1="29.43" y1="19.962" x2="21.545" y2="19.962" gradientUnits="userSpaceOnUse"><stop stop-color="#FFBC00"/><stop offset="1" stop-color="#FFDA03"/></linearGradient><linearGradient id="d" x1="23.399" y1="23.781" x2="13.107" y2="32.264" gradientUnits="userSpaceOnUse"><stop stop-color="#E22652"/><stop offset="1" stop-color="#FF3A44"/></linearGradient><linearGradient id="f" x1="11.385" y1="9.43" x2="18.247" y2="15.464" gradientUnits="userSpaceOnUse"><stop stop-color="#0ED574"/><stop offset="1" stop-color="#07F076"/></linearGradient></defs></svg>