<svg xmlns="http://www.w3.org/2000/svg" width="130" height="40" fill="none"><path fill="#fff" d="M0 6a6 6 0 0 1 6-6h118a6 6 0 0 1 6 6v28a6 6 0 0 1-6 6H6a6 6 0 0 1-6-6V6Z"/><path fill="#00D7FE" fill-rule="evenodd" d="M9.435 7.547c-.291.308-.462.785-.462 1.404V31.05c0 .62.17 1.096.462 1.404l.074.072 12.379-12.379v-.292L9.508 7.475l-.073.072Z" clip-rule="evenodd"/><mask id="a" width="12" height="10" x="21" y="15" maskUnits="userSpaceOnUse" style="mask-type:alpha"><path fill="#fff" d="m26.013 24.274-4.125-4.128v-.292l4.127-4.127 4.982 2.83c1.396.794 1.396 2.092 0 2.885l-4.89 2.778-.094.054Z"/></mask><g mask="url(#a)"><path fill="url(#b)" fill-rule="evenodd" d="m26.013 24.274-4.125-4.128v-.292l4.127-4.127 4.982 2.83c1.396.794 1.396 2.092 0 2.885l-4.89 2.778-.094.054Z" clip-rule="evenodd"/></g><mask id="c" width="18" height="13" x="9" y="20" maskUnits="userSpaceOnUse" style="mask-type:alpha"><path fill="#fff" d="M26.108 24.22 21.888 20 9.435 32.453c.46.487 1.22.547 2.077.061l14.596-8.294Z"/></mask><g mask="url(#c)"><path fill="url(#d)" fill-rule="evenodd" d="M26.108 24.22 21.888 20 9.435 32.453c.46.487 1.22.547 2.077.061l14.596-8.294Z" clip-rule="evenodd"/></g><mask id="e" width="18" height="13" x="9" y="7" maskUnits="userSpaceOnUse" style="mask-type:alpha"><path fill="#fff" d="M26.108 15.78 11.512 7.486c-.856-.486-1.616-.426-2.077.061L21.888 20l4.22-4.22Z"/></mask><g mask="url(#e)"><path fill="url(#f)" fill-rule="evenodd" d="M26.108 15.78 11.512 7.486c-.856-.486-1.616-.426-2.077.061L21.888 20l4.22-4.22Z" clip-rule="evenodd"/></g><path fill="#000" fill-rule="evenodd" d="M103.894 30.953h1.866V18.452h-1.866v12.501Zm16.807-7.998-2.139 5.42h-.064l-2.22-5.42h-2.01l3.329 7.575-1.898 4.214h1.947l5.13-11.789h-2.075Zm-10.582 6.578c-.612 0-1.464-.305-1.464-1.061 0-.965 1.062-1.335 1.978-1.335.821 0 1.206.177 1.705.418a2.262 2.262 0 0 1-2.219 1.978Zm.225-6.851c-1.351 0-2.75.595-3.329 1.914l1.656.691c.354-.691 1.013-.917 1.705-.917.965 0 1.946.579 1.962 1.609v.128c-.338-.193-1.061-.482-1.946-.482-1.785 0-3.603.981-3.603 2.814 0 1.673 1.464 2.751 3.104 2.751 1.255 0 1.946-.563 2.381-1.223h.064v.965h1.801V26.14c0-2.22-1.656-3.458-3.795-3.458Zm-11.532 1.795h-2.654v-4.285h2.654c1.395 0 2.187 1.155 2.187 2.142 0 .969-.792 2.143-2.187 2.143Zm-.048-6.025h-4.471v12.501h1.865v-4.736h2.606c2.068 0 4.101-1.498 4.101-3.883s-2.033-3.882-4.101-3.882ZM74.383 29.535c-1.289 0-2.368-1.079-2.368-2.561 0-1.498 1.079-2.594 2.368-2.594 1.273 0 2.271 1.096 2.271 2.594 0 1.482-.998 2.561-2.271 2.561Zm2.142-5.88h-.064c-.419-.499-1.224-.95-2.239-.95-2.127 0-4.076 1.868-4.076 4.269 0 2.384 1.949 4.237 4.076 4.237 1.015 0 1.82-.451 2.239-.967h.064v.612c0 1.628-.869 2.498-2.271 2.498-1.144 0-1.853-.822-2.143-1.515l-1.627.677c.467 1.128 1.708 2.513 3.77 2.513 2.191 0 4.044-1.289 4.044-4.43v-7.637h-1.773v.693Zm3.062 7.298h1.869V18.451h-1.869v12.502Zm4.623-4.124c-.048-1.643 1.273-2.481 2.223-2.481.742 0 1.37.37 1.579.902l-3.802 1.579Zm5.8-1.418c-.354-.95-1.434-2.706-3.641-2.706-2.191 0-4.011 1.723-4.011 4.253 0 2.384 1.804 4.253 4.22 4.253 1.95 0 3.078-1.192 3.545-1.885l-1.45-.967c-.483.709-1.144 1.176-2.095 1.176-.95 0-1.627-.435-2.062-1.288l5.687-2.352-.193-.484ZM44.702 24.01v1.804h4.317c-.129 1.015-.467 1.756-.982 2.272-.629.628-1.612 1.32-3.335 1.32-2.658 0-4.737-2.142-4.737-4.8 0-2.659 2.079-4.801 4.737-4.801 1.434 0 2.481.564 3.254 1.289l1.273-1.273C48.149 18.79 46.716 18 44.702 18 41.061 18 38 20.965 38 24.606s3.061 6.605 6.702 6.605c1.965 0 3.447-.644 4.607-1.853 1.192-1.192 1.563-2.867 1.563-4.221 0-.419-.032-.805-.097-1.127h-6.073Zm11.079 5.525c-1.289 0-2.401-1.063-2.401-2.577 0-1.531 1.112-2.578 2.401-2.578 1.288 0 2.4 1.047 2.4 2.578 0 1.514-1.112 2.577-2.4 2.577Zm0-6.83c-2.353 0-4.27 1.788-4.27 4.253 0 2.448 1.917 4.253 4.27 4.253 2.352 0 4.269-1.805 4.269-4.253 0-2.465-1.917-4.253-4.269-4.253Zm9.313 6.83c-1.289 0-2.401-1.063-2.401-2.577 0-1.531 1.112-2.578 2.401-2.578 1.289 0 2.4 1.047 2.4 2.578 0 1.514-1.111 2.577-2.4 2.577Zm0-6.83c-2.352 0-4.269 1.788-4.269 4.253 0 2.448 1.917 4.253 4.269 4.253 2.352 0 4.269-1.805 4.269-4.253 0-2.465-1.917-4.253-4.269-4.253Z" clip-rule="evenodd"/><path fill="#666" d="M40.474 14h-1.336l.009-.69h1.327c.457 0 .838-.095 1.143-.286a1.78 1.78 0 0 0 .685-.808c.156-.349.233-.756.233-1.222v-.391c0-.366-.044-.691-.132-.976a1.975 1.975 0 0 0-.386-.725 1.63 1.63 0 0 0-.624-.452 2.145 2.145 0 0 0-.84-.154h-1.441v-.694h1.441c.42 0 .802.07 1.147.21.346.138.643.339.892.603.252.26.446.577.58.949.135.369.203.785.203 1.248v.382c0 .463-.068.88-.203 1.253a2.554 2.554 0 0 1-1.499 1.547 3.292 3.292 0 0 1-1.199.206Zm-.883-6.398V14h-.848V7.602h.848Zm8.853 5.708V14h-3.388v-.69h3.388Zm-3.217-5.708V14h-.848V7.602h.848Zm2.769 2.75v.69h-2.94v-.69h2.94Zm.404-2.75v.694h-3.344v-.694H48.4Zm4.234 4.78c0-.149-.023-.28-.07-.395a.752.752 0 0 0-.237-.316 1.862 1.862 0 0 0-.466-.268 6.493 6.493 0 0 0-.747-.26 6.873 6.873 0 0 1-.857-.312 2.986 2.986 0 0 1-.655-.4 1.565 1.565 0 0 1-.417-.514 1.464 1.464 0 0 1-.145-.663 1.557 1.557 0 0 1 .593-1.24 2.13 2.13 0 0 1 .69-.368 2.84 2.84 0 0 1 .892-.132c.48 0 .888.092 1.222.277.337.181.593.42.769.716.175.293.263.606.263.94h-.843c0-.24-.052-.452-.154-.637a1.06 1.06 0 0 0-.466-.44c-.208-.108-.472-.162-.791-.162-.302 0-.55.045-.747.136a.987.987 0 0 0-.44.37c-.093.155-.14.332-.14.531 0 .135.028.258.083.37a.985.985 0 0 0 .268.302c.123.094.279.18.466.26.19.079.418.155.681.228.364.103.677.217.94.343.264.126.481.268.651.426.173.156.3.333.382.532.085.196.128.419.128.668 0 .26-.053.497-.158.707a1.538 1.538 0 0 1-.453.541c-.196.15-.432.265-.707.347a3.25 3.25 0 0 1-.915.119 3.17 3.17 0 0 1-.874-.123 2.604 2.604 0 0 1-.778-.37 1.934 1.934 0 0 1-.558-.606 1.683 1.683 0 0 1-.207-.844h.844c0 .22.043.41.128.567.085.156.2.285.347.387.15.103.318.179.505.229.19.046.388.07.593.07.296 0 .547-.041.752-.123.205-.082.36-.2.466-.352a.908.908 0 0 0 .162-.54Zm5.527-.417h.843c-.043.405-.16.766-.347 1.086a2.03 2.03 0 0 1-.795.76c-.343.185-.77.277-1.283.277-.375 0-.717-.07-1.024-.211a2.278 2.278 0 0 1-.787-.598c-.22-.26-.39-.572-.51-.936a3.995 3.995 0 0 1-.175-1.221v-.638c0-.448.058-.854.175-1.217.12-.366.292-.68.514-.94.226-.261.497-.462.814-.602a2.592 2.592 0 0 1 1.067-.211c.484 0 .892.09 1.227.272.333.182.593.434.777.756.188.32.304.69.348 1.112h-.844a2.352 2.352 0 0 0-.229-.77 1.188 1.188 0 0 0-.474-.5c-.206-.117-.474-.176-.805-.176a1.66 1.66 0 0 0-.751.163 1.513 1.513 0 0 0-.54.461c-.144.2-.253.438-.326.716a3.64 3.64 0 0 0-.11.928v.646c0 .313.033.607.097.883.067.275.168.517.303.725a1.5 1.5 0 0 0 .514.492c.208.117.454.176.739.176.36 0 .647-.057.861-.171.214-.115.375-.279.483-.493.112-.213.19-.47.238-.769Zm4.098-3.797L60.14 14h-.866l2.439-6.398h.558l-.013.566ZM64.034 14l-2.122-5.832-.014-.566h.559L64.904 14h-.87Zm-.11-2.369v.695H60.33v-.695h3.594Zm1.567-4.03h2.118c.48 0 .887.074 1.218.22.334.147.587.364.76.65.176.285.264.635.264 1.051a1.729 1.729 0 0 1-.69 1.419c-.22.167-.484.292-.791.374l-.238.092h-1.99l-.01-.69h1.504c.305 0 .558-.052.76-.158.202-.108.355-.253.457-.435.103-.182.154-.382.154-.602a1.37 1.37 0 0 0-.145-.646.968.968 0 0 0-.457-.426c-.205-.103-.47-.154-.796-.154h-1.27V14h-.848V7.602ZM69.231 14l-1.556-2.9.884-.005 1.577 2.852V14h-.905Zm6.265-3.186v2.342a2.08 2.08 0 0 1-.378.396 2.37 2.37 0 0 1-.716.378c-.302.105-.692.158-1.17.158-.39 0-.748-.067-1.076-.202a2.43 2.43 0 0 1-.848-.598 2.802 2.802 0 0 1-.554-.958 3.964 3.964 0 0 1-.193-1.283v-.497c0-.477.055-.904.167-1.279.114-.375.28-.692.5-.953a2.1 2.1 0 0 1 .81-.598 2.76 2.76 0 0 1 1.098-.206c.49 0 .898.085 1.226.255.331.167.589.398.773.694.188.296.308.633.36 1.01h-.847a1.78 1.78 0 0 0-.229-.632 1.222 1.222 0 0 0-.479-.457c-.208-.117-.476-.176-.804-.176a1.7 1.7 0 0 0-.77.163 1.415 1.415 0 0 0-.535.465c-.14.203-.246.447-.317.734-.067.287-.1.611-.1.971v.506c0 .369.042.699.127.989.088.29.212.537.373.742a1.612 1.612 0 0 0 1.323.62c.302 0 .546-.025.734-.075a1.57 1.57 0 0 0 .44-.184c.105-.074.185-.142.241-.207V11.5h-1.481v-.685h2.325ZM79 8.168 76.882 14h-.865l2.439-6.398h.558L79 8.168ZM80.776 14l-2.123-5.832-.013-.566h.558L81.646 14h-.87Zm-.11-2.369v.695h-3.595v-.695h3.595Zm7.41 1.68V14h-3.2v-.69h3.2ZM85.044 7.6V14h-.849V7.602h.849Zm6.19.567L89.115 14h-.865l2.439-6.398h.558l-.013.566ZM93.009 14l-2.123-5.832-.013-.566h.558L93.88 14h-.87Zm-.11-2.369v.695h-3.595v-.695H92.9Zm5.898-3.463L96.68 14h-.866l2.44-6.398h.557l-.013.566ZM100.572 14 98.45 8.168l-.013-.566h.558L101.443 14h-.871Zm-.109-2.369v.695h-3.595v-.695h3.595Zm3.926-.14h-1.709v-.69h1.709c.331 0 .6-.053.805-.158a.988.988 0 0 0 .448-.44c.097-.187.145-.401.145-.641 0-.22-.048-.427-.145-.62a1.073 1.073 0 0 0-.448-.466c-.205-.12-.474-.18-.805-.18h-1.511V14h-.848V7.602h2.359c.484 0 .893.083 1.226.25.334.167.588.398.761.694.173.293.259.629.259 1.007 0 .41-.086.76-.259 1.05a1.66 1.66 0 0 1-.761.664c-.333.149-.742.224-1.226.224Zm5.408 0h-1.709v-.69h1.709c.331 0 .599-.053.804-.158a.99.99 0 0 0 .449-.44c.096-.187.145-.401.145-.641 0-.22-.049-.427-.145-.62a1.075 1.075 0 0 0-.449-.466c-.205-.12-.473-.18-.804-.18h-1.512V14h-.848V7.602h2.36c.484 0 .892.083 1.226.25.334.167.588.398.76.694.173.293.26.629.26 1.007 0 .41-.087.76-.26 1.05-.172.29-.426.511-.76.664-.334.149-.742.224-1.226.224Z"/><path fill="#A6A6A6" d="M6 1h118v-2H6v2Zm123 5v28h2V6h-2Zm-5 33H6v2h118v-2ZM1 34V6h-2v28h2Zm5 5a5 5 0 0 1-5-5h-2a7 7 0 0 0 7 7v-2Zm123-5a5 5 0 0 1-5 5v2a7 7 0 0 0 7-7h-2Zm-5-33a5 5 0 0 1 5 5h2a7 7 0 0 0-7-7v2ZM6-1a7 7 0 0 0-7 7h2a5 5 0 0 1 5-5v-2Z"/><defs><linearGradient id="b" x1="30.088" x2="21.888" y1="20" y2="20" gradientUnits="userSpaceOnUse"><stop stop-color="#FFBC00"/><stop offset="1" stop-color="#FFDA03"/></linearGradient><linearGradient id="d" x1="23.814" x2="13.111" y1="23.971" y2="32.793" gradientUnits="userSpaceOnUse"><stop stop-color="#E22652"/><stop offset="1" stop-color="#FF3A44"/></linearGradient><linearGradient id="f" x1="11.32" x2="18.456" y1="9.046" y2="15.321" gradientUnits="userSpaceOnUse"><stop stop-color="#0ED574"/><stop offset="1" stop-color="#07F076"/></linearGradient></defs></svg>