<svg width="21" height="21" viewBox="0 0 21 21" fill="none" xmlns="http://www.w3.org/2000/svg">
<path fill-rule="evenodd" clip-rule="evenodd" d="M1.5 10.25C1.5 5.41751 5.41751 1.5 10.25 1.5C15.0825 1.5 19 5.41751 19 10.25C19 15.0825 15.0825 19 10.25 19C5.41751 19 1.5 15.0825 1.5 10.25ZM10.25 0C4.58908 0 0 4.58908 0 10.25C0 15.9109 4.58908 20.5 10.25 20.5C15.9109 20.5 20.5 15.9109 20.5 10.25C20.5 4.58908 15.9109 0 10.25 0ZM11 6.75C11 6.33579 10.6642 6 10.25 6C9.83579 6 9.5 6.33579 9.5 6.75V9.5H6.75C6.33579 9.5 6 9.83579 6 10.25C6 10.6642 6.33579 11 6.75 11H9.5V13.75C9.5 14.1642 9.83579 14.5 10.25 14.5C10.6642 14.5 11 14.1642 11 13.75V11H13.75C14.1642 11 14.5 10.6642 14.5 10.25C14.5 9.83579 14.1642 9.5 13.75 9.5H11V6.75Z" fill="#313131"/>
</svg>
