<svg width="130" height="40" viewBox="0 0 130 40" fill="none" xmlns="http://www.w3.org/2000/svg">
<path d="M0 6C0 2.68629 2.68629 0 6 0H124C127.314 0 130 2.68629 130 6V34C130 37.3137 127.314 40 124 40H6C2.68629 40 0 37.3137 0 34V6Z" fill="white"/>
<path fill-rule="evenodd" clip-rule="evenodd" d="M25.7689 20.5804C25.7907 18.8839 26.6801 17.3169 28.1254 16.4283C27.2095 15.1202 25.7304 14.3206 24.1343 14.2706C22.455 14.0944 20.8271 15.2754 19.9714 15.2754C19.0991 15.2754 17.7816 14.2881 16.3629 14.3173C14.4962 14.3776 12.7981 15.4132 11.89 17.0452C9.95595 20.3936 11.3985 25.3146 13.2512 28.0213C14.1781 29.3466 15.2613 30.8271 16.6788 30.7746C18.0658 30.717 18.5839 29.8901 20.2582 29.8901C21.9169 29.8901 22.403 30.7746 23.8492 30.7412C25.3376 30.717 26.2753 29.4099 27.1697 28.072C27.8357 27.1277 28.3481 26.084 28.6881 24.9795C26.9204 24.2319 25.7709 22.4997 25.7689 20.5804Z" fill="black"/>
<path fill-rule="evenodd" clip-rule="evenodd" d="M23.0372 12.4906C23.8488 11.5164 24.2486 10.2642 24.1518 9C22.9119 9.13022 21.7667 9.72278 20.9442 10.6596C20.132 11.5839 19.7206 12.7932 19.8005 14.021C21.0569 14.0339 22.2499 13.4699 23.0372 12.4906Z" fill="black"/>
<path d="M41.557 13.78V8.794H42.997C43.393 8.794 43.726 8.851 43.996 8.965C44.266 9.073 44.485 9.235 44.653 9.451C44.827 9.661 44.95 9.919 45.022 10.225C45.1 10.525 45.139 10.867 45.139 11.251C45.139 11.647 45.097 11.986 45.013 12.268C44.935 12.544 44.833 12.775 44.707 12.961C44.581 13.147 44.437 13.294 44.275 13.402C44.119 13.51 43.96 13.594 43.798 13.654C43.636 13.708 43.483 13.744 43.339 13.762C43.195 13.774 43.075 13.78 42.979 13.78H41.557ZM40.702 8.074V14.5H42.907C43.441 14.5 43.903 14.425 44.293 14.275C44.683 14.125 45.004 13.909 45.256 13.627C45.508 13.339 45.694 12.988 45.814 12.574C45.934 12.154 45.994 11.674 45.994 11.134C45.994 10.102 45.727 9.334 45.193 8.83C44.659 8.326 43.897 8.074 42.907 8.074H40.702ZM47.6509 12.178C47.6509 11.896 47.6869 11.647 47.7589 11.431C47.8369 11.209 47.9419 11.023 48.0739 10.873C48.2059 10.723 48.3589 10.609 48.5329 10.531C48.7129 10.453 48.9019 10.414 49.0999 10.414C49.2979 10.414 49.4839 10.453 49.6579 10.531C49.8379 10.609 49.9939 10.723 50.1259 10.873C50.2579 11.023 50.3599 11.209 50.4319 11.431C50.5099 11.647 50.5489 11.896 50.5489 12.178C50.5489 12.46 50.5099 12.712 50.4319 12.934C50.3599 13.15 50.2579 13.333 50.1259 13.483C49.9939 13.627 49.8379 13.738 49.6579 13.816C49.4839 13.894 49.2979 13.933 49.0999 13.933C48.9019 13.933 48.7129 13.894 48.5329 13.816C48.3589 13.738 48.2059 13.627 48.0739 13.483C47.9419 13.333 47.8369 13.15 47.7589 12.934C47.6869 12.712 47.6509 12.46 47.6509 12.178ZM46.8409 12.178C46.8409 12.52 46.8889 12.838 46.9849 13.132C47.0809 13.426 47.2249 13.684 47.4169 13.906C47.6089 14.122 47.8459 14.293 48.1279 14.419C48.4099 14.539 48.7339 14.599 49.0999 14.599C49.4719 14.599 49.7959 14.539 50.0719 14.419C50.3539 14.293 50.5909 14.122 50.7829 13.906C50.9749 13.684 51.1189 13.426 51.2149 13.132C51.3109 12.838 51.3589 12.52 51.3589 12.178C51.3589 11.836 51.3109 11.518 51.2149 11.224C51.1189 10.924 50.9749 10.666 50.7829 10.45C50.5909 10.228 50.3539 10.054 50.0719 9.928C49.7959 9.802 49.4719 9.739 49.0999 9.739C48.7339 9.739 48.4099 9.802 48.1279 9.928C47.8459 10.054 47.6089 10.228 47.4169 10.45C47.2249 10.666 47.0809 10.924 46.9849 11.224C46.8889 11.518 46.8409 11.836 46.8409 12.178ZM57.0489 14.5L58.5339 9.847H57.7419L56.6979 13.654H56.6799L55.7079 9.847H54.8709L53.9349 13.654H53.9169L52.8639 9.847H52.0179L53.5119 14.5H54.3399L55.2759 10.801H55.2939L56.2389 14.5H57.0489ZM59.4412 9.847V14.5H60.2062V11.872C60.2062 11.662 60.2332 11.47 60.2872 11.296C60.3472 11.116 60.4342 10.96 60.5482 10.828C60.6622 10.696 60.8032 10.594 60.9712 10.522C61.1452 10.45 61.3492 10.414 61.5832 10.414C61.8772 10.414 62.1082 10.498 62.2762 10.666C62.4442 10.834 62.5282 11.062 62.5282 11.35V14.5H63.2932V11.44C63.2932 11.188 63.2662 10.96 63.2122 10.756C63.1642 10.546 63.0772 10.366 62.9512 10.216C62.8252 10.066 62.6602 9.949 62.4562 9.865C62.2522 9.781 61.9972 9.739 61.6912 9.739C61.0012 9.739 60.4972 10.021 60.1792 10.585H60.1612V9.847H59.4412ZM64.6672 8.074V14.5H65.4322V8.074H64.6672ZM67.3553 12.178C67.3553 11.896 67.3913 11.647 67.4633 11.431C67.5413 11.209 67.6463 11.023 67.7783 10.873C67.9103 10.723 68.0633 10.609 68.2373 10.531C68.4173 10.453 68.6063 10.414 68.8043 10.414C69.0023 10.414 69.1883 10.453 69.3623 10.531C69.5423 10.609 69.6983 10.723 69.8303 10.873C69.9623 11.023 70.0643 11.209 70.1363 11.431C70.2143 11.647 70.2533 11.896 70.2533 12.178C70.2533 12.46 70.2143 12.712 70.1363 12.934C70.0643 13.15 69.9623 13.333 69.8303 13.483C69.6983 13.627 69.5423 13.738 69.3623 13.816C69.1883 13.894 69.0023 13.933 68.8043 13.933C68.6063 13.933 68.4173 13.894 68.2373 13.816C68.0633 13.738 67.9103 13.627 67.7783 13.483C67.6463 13.333 67.5413 13.15 67.4633 12.934C67.3913 12.712 67.3553 12.46 67.3553 12.178ZM66.5453 12.178C66.5453 12.52 66.5933 12.838 66.6893 13.132C66.7853 13.426 66.9293 13.684 67.1213 13.906C67.3133 14.122 67.5503 14.293 67.8323 14.419C68.1143 14.539 68.4383 14.599 68.8043 14.599C69.1763 14.599 69.5003 14.539 69.7763 14.419C70.0583 14.293 70.2953 14.122 70.4873 13.906C70.6793 13.684 70.8233 13.426 70.9193 13.132C71.0153 12.838 71.0633 12.52 71.0633 12.178C71.0633 11.836 71.0153 11.518 70.9193 11.224C70.8233 10.924 70.6793 10.666 70.4873 10.45C70.2953 10.228 70.0583 10.054 69.7763 9.928C69.5003 9.802 69.1763 9.739 68.8043 9.739C68.4383 9.739 68.1143 9.802 67.8323 9.928C67.5503 10.054 67.3133 10.228 67.1213 10.45C66.9293 10.666 66.7853 10.924 66.6893 11.224C66.5933 11.518 66.5453 11.836 66.5453 12.178ZM76.2673 14.482C76.1353 14.56 75.9523 14.599 75.7183 14.599C75.5203 14.599 75.3613 14.545 75.2413 14.437C75.1273 14.323 75.0703 14.14 75.0703 13.888C74.8603 14.14 74.6143 14.323 74.3323 14.437C74.0563 14.545 73.7563 14.599 73.4323 14.599C73.2223 14.599 73.0213 14.575 72.8293 14.527C72.6433 14.479 72.4813 14.404 72.3433 14.302C72.2053 14.2 72.0943 14.068 72.0103 13.906C71.9323 13.738 71.8933 13.537 71.8933 13.303C71.8933 13.039 71.9383 12.823 72.0283 12.655C72.1183 12.487 72.2353 12.352 72.3793 12.25C72.5293 12.142 72.6973 12.061 72.8833 12.007C73.0753 11.953 73.2703 11.908 73.4683 11.872C73.6783 11.83 73.8763 11.8 74.0623 11.782C74.2543 11.758 74.4223 11.728 74.5663 11.692C74.7103 11.65 74.8243 11.593 74.9083 11.521C74.9923 11.443 75.0343 11.332 75.0343 11.188C75.0343 11.02 75.0013 10.885 74.9353 10.783C74.8753 10.681 74.7943 10.603 74.6923 10.549C74.5963 10.495 74.4853 10.459 74.3593 10.441C74.2393 10.423 74.1193 10.414 73.9993 10.414C73.6753 10.414 73.4053 10.477 73.1893 10.603C72.9733 10.723 72.8563 10.954 72.8383 11.296H72.0733C72.0853 11.008 72.1453 10.765 72.2533 10.567C72.3613 10.369 72.5053 10.21 72.6853 10.09C72.8653 9.964 73.0693 9.874 73.2973 9.82C73.5313 9.766 73.7803 9.739 74.0443 9.739C74.2543 9.739 74.4613 9.754 74.6653 9.784C74.8753 9.814 75.0643 9.877 75.2323 9.973C75.4003 10.063 75.5353 10.192 75.6373 10.36C75.7393 10.528 75.7903 10.747 75.7903 11.017V13.411C75.7903 13.591 75.7993 13.723 75.8173 13.807C75.8413 13.891 75.9133 13.933 76.0333 13.933C76.0993 13.933 76.1773 13.918 76.2673 13.888V14.482ZM75.0253 12.097C74.9293 12.169 74.8033 12.223 74.6473 12.259C74.4913 12.289 74.3263 12.316 74.1523 12.34C73.9843 12.358 73.8133 12.382 73.6393 12.412C73.4653 12.436 73.3093 12.478 73.1713 12.538C73.0333 12.598 72.9193 12.685 72.8293 12.799C72.7453 12.907 72.7033 13.057 72.7033 13.249C72.7033 13.375 72.7273 13.483 72.7753 13.573C72.8293 13.657 72.8953 13.726 72.9733 13.78C73.0573 13.834 73.1533 13.873 73.2613 13.897C73.3693 13.921 73.4833 13.933 73.6033 13.933C73.8553 13.933 74.0713 13.9 74.2513 13.834C74.4313 13.762 74.5783 13.675 74.6923 13.573C74.8063 13.465 74.8903 13.351 74.9443 13.231C74.9983 13.105 75.0253 12.988 75.0253 12.88V12.097ZM77.7172 12.214C77.7172 11.986 77.7412 11.764 77.7892 11.548C77.8372 11.332 77.9152 11.14 78.0232 10.972C78.1312 10.804 78.2752 10.669 78.4552 10.567C78.6352 10.465 78.8542 10.414 79.1122 10.414C79.3762 10.414 79.6012 10.465 79.7872 10.567C79.9732 10.663 80.1232 10.792 80.2372 10.954C80.3572 11.116 80.4442 11.305 80.4982 11.521C80.5522 11.731 80.5792 11.95 80.5792 12.178C80.5792 12.394 80.5522 12.607 80.4982 12.817C80.4502 13.027 80.3692 13.216 80.2552 13.384C80.1412 13.546 79.9942 13.678 79.8142 13.78C79.6342 13.882 79.4152 13.933 79.1572 13.933C78.9112 13.933 78.6952 13.885 78.5092 13.789C78.3292 13.693 78.1792 13.564 78.0592 13.402C77.9452 13.24 77.8582 13.057 77.7982 12.853C77.7442 12.643 77.7172 12.43 77.7172 12.214ZM81.3172 14.5V8.074H80.5522V10.468H80.5342C80.4502 10.33 80.3452 10.216 80.2192 10.126C80.0992 10.03 79.9702 9.955 79.8322 9.901C79.6942 9.841 79.5562 9.799 79.4182 9.775C79.2802 9.751 79.1512 9.739 79.0312 9.739C78.6772 9.739 78.3652 9.805 78.0952 9.937C77.8312 10.063 77.6092 10.237 77.4292 10.459C77.2552 10.675 77.1232 10.93 77.0332 11.224C76.9492 11.518 76.9072 11.83 76.9072 12.16C76.9072 12.49 76.9522 12.802 77.0422 13.096C77.1322 13.39 77.2642 13.648 77.4382 13.87C77.6182 14.092 77.8402 14.269 78.1042 14.401C78.3742 14.533 78.6892 14.599 79.0492 14.599C79.3732 14.599 79.6702 14.542 79.9402 14.428C80.2102 14.314 80.4082 14.128 80.5342 13.87H80.5522V14.5H81.3172ZM86.4211 9.847V8.452H85.6561V9.847H84.8641V10.522H85.6561V13.483C85.6561 13.699 85.6771 13.873 85.7191 14.005C85.7611 14.137 85.8241 14.239 85.9081 14.311C85.9981 14.383 86.1121 14.434 86.2501 14.464C86.3941 14.488 86.5651 14.5 86.7631 14.5H87.3481V13.825H86.9971C86.8771 13.825 86.7781 13.822 86.7001 13.816C86.6281 13.804 86.5711 13.783 86.5291 13.753C86.4871 13.723 86.4571 13.681 86.4391 13.627C86.4271 13.573 86.4211 13.501 86.4211 13.411V10.522H87.3481V9.847H86.4211ZM88.378 8.074V14.5H89.143V11.872C89.143 11.662 89.17 11.47 89.224 11.296C89.284 11.116 89.371 10.96 89.485 10.828C89.599 10.696 89.74 10.594 89.908 10.522C90.082 10.45 90.286 10.414 90.52 10.414C90.814 10.414 91.045 10.498 91.213 10.666C91.381 10.834 91.465 11.062 91.465 11.35V14.5H92.23V11.44C92.23 11.188 92.203 10.96 92.149 10.756C92.101 10.546 92.014 10.366 91.888 10.216C91.762 10.066 91.597 9.949 91.393 9.865C91.189 9.781 90.934 9.739 90.628 9.739C90.49 9.739 90.346 9.754 90.196 9.784C90.052 9.814 89.911 9.862 89.773 9.928C89.641 9.988 89.521 10.069 89.413 10.171C89.305 10.267 89.221 10.387 89.161 10.531H89.143V8.074H88.378ZM96.7899 11.728H94.1169C94.1289 11.548 94.1679 11.38 94.2339 11.224C94.2999 11.062 94.3899 10.921 94.5039 10.801C94.6179 10.681 94.7529 10.588 94.9089 10.522C95.0709 10.45 95.2509 10.414 95.4489 10.414C95.6409 10.414 95.8149 10.45 95.9709 10.522C96.1329 10.588 96.2709 10.681 96.3849 10.801C96.5049 10.915 96.5979 11.053 96.6639 11.215C96.7359 11.377 96.7779 11.548 96.7899 11.728ZM97.5279 13.024H96.7719C96.7059 13.33 96.5679 13.558 96.3579 13.708C96.1539 13.858 95.8899 13.933 95.5659 13.933C95.3139 13.933 95.0949 13.891 94.9089 13.807C94.7229 13.723 94.5699 13.612 94.4499 13.474C94.3299 13.33 94.2429 13.168 94.1889 12.988C94.1349 12.802 94.1109 12.607 94.1169 12.403H97.5999C97.6119 12.121 97.5849 11.824 97.5189 11.512C97.4589 11.2 97.3449 10.912 97.1769 10.648C97.0149 10.384 96.7959 10.168 96.5199 10C96.2499 9.826 95.9079 9.739 95.4939 9.739C95.1759 9.739 94.8819 9.799 94.6119 9.919C94.3479 10.039 94.1169 10.207 93.9189 10.423C93.7269 10.639 93.5769 10.894 93.4689 11.188C93.3609 11.482 93.3069 11.806 93.3069 12.16C93.3189 12.514 93.3699 12.841 93.4599 13.141C93.5559 13.441 93.6969 13.699 93.8829 13.915C94.0689 14.131 94.2969 14.299 94.5669 14.419C94.8429 14.539 95.1669 14.599 95.5389 14.599C96.0669 14.599 96.5049 14.467 96.8529 14.203C97.2009 13.939 97.4259 13.546 97.5279 13.024ZM105.38 14.482C105.248 14.56 105.065 14.599 104.831 14.599C104.633 14.599 104.474 14.545 104.354 14.437C104.24 14.323 104.183 14.14 104.183 13.888C103.973 14.14 103.727 14.323 103.445 14.437C103.169 14.545 102.869 14.599 102.545 14.599C102.335 14.599 102.134 14.575 101.942 14.527C101.756 14.479 101.594 14.404 101.456 14.302C101.318 14.2 101.207 14.068 101.123 13.906C101.045 13.738 101.006 13.537 101.006 13.303C101.006 13.039 101.051 12.823 101.141 12.655C101.231 12.487 101.348 12.352 101.492 12.25C101.642 12.142 101.81 12.061 101.996 12.007C102.188 11.953 102.383 11.908 102.581 11.872C102.791 11.83 102.989 11.8 103.175 11.782C103.367 11.758 103.535 11.728 103.679 11.692C103.823 11.65 103.937 11.593 104.021 11.521C104.105 11.443 104.147 11.332 104.147 11.188C104.147 11.02 104.114 10.885 104.048 10.783C103.988 10.681 103.907 10.603 103.805 10.549C103.709 10.495 103.598 10.459 103.472 10.441C103.352 10.423 103.232 10.414 103.112 10.414C102.788 10.414 102.518 10.477 102.302 10.603C102.086 10.723 101.969 10.954 101.951 11.296H101.186C101.198 11.008 101.258 10.765 101.366 10.567C101.474 10.369 101.618 10.21 101.798 10.09C101.978 9.964 102.182 9.874 102.41 9.82C102.644 9.766 102.893 9.739 103.157 9.739C103.367 9.739 103.574 9.754 103.778 9.784C103.988 9.814 104.177 9.877 104.345 9.973C104.513 10.063 104.648 10.192 104.75 10.36C104.852 10.528 104.903 10.747 104.903 11.017V13.411C104.903 13.591 104.912 13.723 104.93 13.807C104.954 13.891 105.026 13.933 105.146 13.933C105.212 13.933 105.29 13.918 105.38 13.888V14.482ZM104.138 12.097C104.042 12.169 103.916 12.223 103.76 12.259C103.604 12.289 103.439 12.316 103.265 12.34C103.097 12.358 102.926 12.382 102.752 12.412C102.578 12.436 102.422 12.478 102.284 12.538C102.146 12.598 102.032 12.685 101.942 12.799C101.858 12.907 101.816 13.057 101.816 13.249C101.816 13.375 101.84 13.483 101.888 13.573C101.942 13.657 102.008 13.726 102.086 13.78C102.17 13.834 102.266 13.873 102.374 13.897C102.482 13.921 102.596 13.933 102.716 13.933C102.968 13.933 103.184 13.9 103.364 13.834C103.544 13.762 103.691 13.675 103.805 13.573C103.919 13.465 104.003 13.351 104.057 13.231C104.111 13.105 104.138 12.988 104.138 12.88V12.097ZM106.299 9.847V16.273H107.064V13.879H107.082C107.166 14.017 107.268 14.134 107.388 14.23C107.514 14.32 107.646 14.392 107.784 14.446C107.922 14.5 108.06 14.539 108.198 14.563C108.342 14.587 108.471 14.599 108.585 14.599C108.939 14.599 109.248 14.536 109.512 14.41C109.782 14.284 110.004 14.113 110.178 13.897C110.358 13.675 110.49 13.417 110.574 13.123C110.664 12.829 110.709 12.517 110.709 12.187C110.709 11.857 110.664 11.545 110.574 11.251C110.484 10.957 110.349 10.699 110.169 10.477C109.995 10.249 109.773 10.069 109.503 9.937C109.239 9.805 108.927 9.739 108.567 9.739C108.243 9.739 107.946 9.799 107.676 9.919C107.406 10.033 107.208 10.219 107.082 10.477H107.064V9.847H106.299ZM109.899 12.133C109.899 12.361 109.875 12.583 109.827 12.799C109.779 13.015 109.701 13.207 109.593 13.375C109.485 13.543 109.341 13.678 109.161 13.78C108.987 13.882 108.768 13.933 108.504 13.933C108.24 13.933 108.015 13.885 107.829 13.789C107.643 13.687 107.49 13.555 107.37 13.393C107.256 13.231 107.172 13.045 107.118 12.835C107.064 12.619 107.037 12.397 107.037 12.169C107.037 11.953 107.061 11.74 107.109 11.53C107.163 11.32 107.247 11.134 107.361 10.972C107.475 10.804 107.622 10.669 107.802 10.567C107.982 10.465 108.201 10.414 108.459 10.414C108.705 10.414 108.918 10.462 109.098 10.558C109.284 10.654 109.434 10.783 109.548 10.945C109.668 11.107 109.755 11.293 109.809 11.503C109.869 11.707 109.899 11.917 109.899 12.133ZM111.814 9.847V16.273H112.579V13.879H112.597C112.681 14.017 112.783 14.134 112.903 14.23C113.029 14.32 113.161 14.392 113.299 14.446C113.437 14.5 113.575 14.539 113.713 14.563C113.857 14.587 113.986 14.599 114.1 14.599C114.454 14.599 114.763 14.536 115.027 14.41C115.297 14.284 115.519 14.113 115.693 13.897C115.873 13.675 116.005 13.417 116.089 13.123C116.179 12.829 116.224 12.517 116.224 12.187C116.224 11.857 116.179 11.545 116.089 11.251C115.999 10.957 115.864 10.699 115.684 10.477C115.51 10.249 115.288 10.069 115.018 9.937C114.754 9.805 114.442 9.739 114.082 9.739C113.758 9.739 113.461 9.799 113.191 9.919C112.921 10.033 112.723 10.219 112.597 10.477H112.579V9.847H111.814ZM115.414 12.133C115.414 12.361 115.39 12.583 115.342 12.799C115.294 13.015 115.216 13.207 115.108 13.375C115 13.543 114.856 13.678 114.676 13.78C114.502 13.882 114.283 13.933 114.019 13.933C113.755 13.933 113.53 13.885 113.344 13.789C113.158 13.687 113.005 13.555 112.885 13.393C112.771 13.231 112.687 13.045 112.633 12.835C112.579 12.619 112.552 12.397 112.552 12.169C112.552 11.953 112.576 11.74 112.624 11.53C112.678 11.32 112.762 11.134 112.876 10.972C112.99 10.804 113.137 10.669 113.317 10.567C113.497 10.465 113.716 10.414 113.974 10.414C114.22 10.414 114.433 10.462 114.613 10.558C114.799 10.654 114.949 10.783 115.063 10.945C115.183 11.107 115.27 11.293 115.324 11.503C115.384 11.707 115.414 11.917 115.414 12.133Z" fill="#666666"/>
<path d="M56.9199 21.9766C59.2177 21.9766 60.7324 23.793 60.7324 26.5987C60.7324 29.4122 59.2266 31.2198 56.9541 31.2198C55.7795 31.2812 54.6731 30.666 54.1055 29.6358H54.0625V34.1202H52.2041V22.0713H54.0029V23.5772H54.0371C54.6299 22.5534 55.7375 21.9385 56.9199 21.9766ZM66.8847 21.9766C69.1826 21.9766 70.6973 23.793 70.6973 26.5987C70.6973 29.4122 69.1914 31.2198 66.9189 31.2198C65.7443 31.2812 64.6379 30.666 64.0703 29.6358H64.0273V34.1202H62.1689V22.0713H63.9677V23.5772H64.0019C64.5947 22.5534 65.7023 21.9385 66.8847 21.9766ZM80.2266 18.5C82.8506 18.5 84.6494 19.9717 84.71 22.1143H82.834C82.7217 20.875 81.6972 20.127 80.2002 20.127C78.7031 20.127 77.6787 20.8838 77.6787 21.9854C77.6787 22.8633 78.333 23.3799 79.9336 23.7754L81.3017 24.1113C83.8496 24.7138 84.9082 25.7373 84.9082 27.5537C84.9082 29.8769 83.0576 31.332 80.1142 31.332C77.3603 31.332 75.501 29.9111 75.3808 27.665L77.2832 27.6651C77.4209 28.8965 78.6172 29.7051 80.2519 29.7051C81.8184 29.7051 82.9453 28.8965 82.9453 27.7861C82.9453 26.8223 82.2656 26.2451 80.6562 25.8496L79.0469 25.4619C76.7666 24.9111 75.708 23.8447 75.708 22.1143C75.708 19.9717 77.5752 18.5 80.2266 18.5ZM95.9317 21.96C98.5567 21.96 100.227 23.75 100.227 26.5987C100.227 29.4551 98.5655 31.2374 95.9317 31.2374C93.2988 31.2374 91.6377 29.4551 91.6377 26.5987C91.6377 23.7501 93.3155 21.96 95.9317 21.96ZM110.98 21.96C113.485 21.96 115.061 23.6807 115.061 26.4258V27.0625H108.666V27.1749C108.606 27.8489 108.839 28.5161 109.305 29.0067C109.771 29.4974 110.425 29.7642 111.102 29.7393C112.003 29.8238 112.854 29.3059 113.192 28.4659L114.957 28.4659C114.707 30.1094 113.106 31.2374 111.059 31.2374C108.425 31.2374 106.79 29.4727 106.79 26.6416C106.79 23.8018 108.434 21.96 110.98 21.96ZM88.9189 19.9288V22.0713H90.6406V23.543H88.9189V28.5342C88.9189 29.3096 89.2637 29.6709 90.0205 29.6709C90.2249 29.6674 90.429 29.653 90.6318 29.6279V31.0908C90.2916 31.1544 89.9457 31.1832 89.5996 31.1768C87.7666 31.1768 87.0518 30.4883 87.0518 28.7324V23.543H85.7354V22.0713H87.0517V19.9288H88.9189ZM46.5664 18.7071L51.0498 31.1251H49.0107L47.875 27.7686H43.1416L42.0049 31.1251H40L44.4834 18.7071H46.5664ZM105.752 21.9766C105.966 21.9759 106.18 21.9991 106.389 22.0459V23.7842C106.118 23.7016 105.836 23.6637 105.554 23.6719C105.007 23.6498 104.479 23.8675 104.106 24.268C103.734 24.6684 103.555 25.2116 103.617 25.7549V31.125H101.759V22.0713H103.531V23.6123H103.574C103.821 22.6203 104.73 21.9376 105.752 21.9766ZM95.9317 23.4913C94.4258 23.4913 93.5313 24.6534 93.5313 26.5987C93.5313 28.5606 94.4258 29.7051 95.9317 29.7051C97.4375 29.7051 98.333 28.5606 98.333 26.5987C98.333 24.6446 97.4375 23.4913 95.9317 23.4913ZM56.4297 23.5606C55.0098 23.5606 54.0547 24.7911 54.0547 26.5987C54.0547 28.4229 55.0098 29.6446 56.4297 29.6446C57.875 29.6446 58.8223 28.4483 58.8223 26.5987C58.8223 24.7657 57.875 23.5606 56.4297 23.5606ZM66.3945 23.5606C64.9746 23.5606 64.0195 24.7911 64.0195 26.5987C64.0195 28.4229 64.9746 29.6446 66.3945 29.6446C67.8398 29.6446 68.7871 28.4483 68.7871 26.5987C68.7871 24.7657 67.8398 23.5606 66.3945 23.5606ZM45.5342 20.7725H45.4825L43.6318 26.2198H47.3838L45.5342 20.7725ZM110.98 23.4659C110.369 23.4622 109.782 23.7029 109.349 24.1344C108.916 24.5659 108.673 25.1525 108.675 25.7637H113.201C113.235 25.1581 113.014 24.5658 112.593 24.1296C112.171 23.6934 111.587 23.4528 110.98 23.4659Z" fill="black"/>
<path d="M6 1H124V-1H6V1ZM129 6V34H131V6H129ZM124 39H6V41H124V39ZM1 34V6H-1V34H1ZM6 39C3.23858 39 1 36.7614 1 34H-1C-1 37.866 2.13401 41 6 41V39ZM129 34C129 36.7614 126.761 39 124 39V41C127.866 41 131 37.866 131 34H129ZM124 1C126.761 1 129 3.23858 129 6H131C131 2.13401 127.866 -1 124 -1V1ZM6 -1C2.13401 -1 -1 2.13401 -1 6H1C1 3.23858 3.23858 1 6 1V-1Z" fill="#A6A6A6"/>
</svg>
