<svg width="130" height="40" viewBox="0 0 130 40" fill="none" xmlns="http://www.w3.org/2000/svg">
<path d="M0 6C0 2.68629 2.68629 0 6 0H124C127.314 0 130 2.68629 130 6V34C130 37.3137 127.314 40 124 40H6C2.68629 40 0 37.3137 0 34V6Z" fill="white"/>
<path fill-rule="evenodd" clip-rule="evenodd" d="M25.7689 20.5804C25.7907 18.8839 26.6801 17.3169 28.1254 16.4284C27.2095 15.1203 25.7304 14.3206 24.1343 14.2707C22.455 14.0944 20.8271 15.2755 19.9714 15.2755C19.0991 15.2755 17.7816 14.2882 16.3629 14.3174C14.4962 14.3777 12.7981 15.4133 11.89 17.0452C9.95595 20.3937 11.3985 25.3147 13.2512 28.0213C14.1781 29.3467 15.2613 30.8271 16.6788 30.7746C18.0658 30.7171 18.5839 29.8901 20.2582 29.8901C21.9169 29.8901 22.403 30.7746 23.8492 30.7412C25.3376 30.7171 26.2753 29.41 27.1697 28.0721C27.8357 27.1277 28.3481 26.084 28.6881 24.9796C26.9204 24.2319 25.7709 22.4998 25.7689 20.5804Z" fill="black"/>
<path fill-rule="evenodd" clip-rule="evenodd" d="M23.0372 12.4906C23.8488 11.5164 24.2486 10.2642 24.1518 9C22.9119 9.13022 21.7667 9.72278 20.9442 10.6596C20.132 11.5839 19.7206 12.7932 19.8005 14.021C21.0569 14.0339 22.2499 13.4699 23.0372 12.4906Z" fill="black"/>
<path d="M42.16 8.794V14.5H43.015V8.794H45.157V8.074H40.018V8.794H42.16ZM49.155 11.728H46.482C46.494 11.548 46.533 11.38 46.599 11.224C46.665 11.062 46.755 10.921 46.869 10.801C46.983 10.681 47.118 10.588 47.274 10.522C47.436 10.45 47.616 10.414 47.814 10.414C48.006 10.414 48.18 10.45 48.336 10.522C48.498 10.588 48.636 10.681 48.75 10.801C48.87 10.915 48.963 11.053 49.029 11.215C49.101 11.377 49.143 11.548 49.155 11.728ZM49.893 13.024H49.137C49.071 13.33 48.933 13.558 48.723 13.708C48.519 13.858 48.255 13.933 47.931 13.933C47.679 13.933 47.46 13.891 47.274 13.807C47.088 13.723 46.935 13.612 46.815 13.474C46.695 13.33 46.608 13.168 46.554 12.988C46.5 12.802 46.476 12.607 46.482 12.403H49.965C49.977 12.121 49.95 11.824 49.884 11.512C49.824 11.2 49.71 10.912 49.542 10.648C49.38 10.384 49.161 10.168 48.885 10C48.615 9.826 48.273 9.739 47.859 9.739C47.541 9.739 47.247 9.799 46.977 9.919C46.713 10.039 46.482 10.207 46.284 10.423C46.092 10.639 45.942 10.894 45.834 11.188C45.726 11.482 45.672 11.806 45.672 12.16C45.684 12.514 45.735 12.841 45.825 13.141C45.921 13.441 46.062 13.699 46.248 13.915C46.434 14.131 46.662 14.299 46.932 14.419C47.208 14.539 47.532 14.599 47.904 14.599C48.432 14.599 48.87 14.467 49.218 14.203C49.566 13.939 49.791 13.546 49.893 13.024ZM49.065 7.57L47.796 9.028H47.22L48.084 7.57H49.065ZM50.983 8.074V14.5H51.748V8.074H50.983ZM56.3441 11.728H53.6711C53.6831 11.548 53.7221 11.38 53.7881 11.224C53.8541 11.062 53.9441 10.921 54.0581 10.801C54.1721 10.681 54.3071 10.588 54.4631 10.522C54.6251 10.45 54.8051 10.414 55.0031 10.414C55.1951 10.414 55.3691 10.45 55.5251 10.522C55.6871 10.588 55.8251 10.681 55.9391 10.801C56.0591 10.915 56.1521 11.053 56.2181 11.215C56.2901 11.377 56.3321 11.548 56.3441 11.728ZM57.0821 13.024H56.3261C56.2601 13.33 56.1221 13.558 55.9121 13.708C55.7081 13.858 55.4441 13.933 55.1201 13.933C54.8681 13.933 54.6491 13.891 54.4631 13.807C54.2771 13.723 54.1241 13.612 54.0041 13.474C53.8841 13.33 53.7971 13.168 53.7431 12.988C53.6891 12.802 53.6651 12.607 53.6711 12.403H57.1541C57.1661 12.121 57.1391 11.824 57.0731 11.512C57.0131 11.2 56.8991 10.912 56.7311 10.648C56.5691 10.384 56.3501 10.168 56.0741 10C55.8041 9.826 55.4621 9.739 55.0481 9.739C54.7301 9.739 54.4361 9.799 54.1661 9.919C53.9021 10.039 53.6711 10.207 53.4731 10.423C53.2811 10.639 53.1311 10.894 53.0231 11.188C52.9151 11.482 52.8611 11.806 52.8611 12.16C52.8731 12.514 52.9241 12.841 53.0141 13.141C53.1101 13.441 53.2511 13.699 53.4371 13.915C53.6231 14.131 53.8511 14.299 54.1211 14.419C54.3971 14.539 54.7211 14.599 55.0931 14.599C55.6211 14.599 56.0591 14.467 56.4071 14.203C56.7551 13.939 56.9801 13.546 57.0821 13.024ZM56.2541 7.57L54.9851 9.028H54.4091L55.2731 7.57H56.2541ZM61.2861 11.341H62.0781C62.0481 11.065 61.9761 10.828 61.8621 10.63C61.7481 10.426 61.6011 10.258 61.4211 10.126C61.2471 9.994 61.0431 9.898 60.8091 9.838C60.5811 9.772 60.3351 9.739 60.0711 9.739C59.7051 9.739 59.3841 9.805 59.1081 9.937C58.8321 10.063 58.6011 10.24 58.4151 10.468C58.2351 10.69 58.1001 10.954 58.0101 11.26C57.9201 11.56 57.8751 11.884 57.8751 12.232C57.8751 12.58 57.9201 12.901 58.0101 13.195C58.1061 13.483 58.2441 13.732 58.4241 13.942C58.6101 14.152 58.8381 14.314 59.1081 14.428C59.3841 14.542 59.6991 14.599 60.0531 14.599C60.6471 14.599 61.1151 14.443 61.4571 14.131C61.8051 13.819 62.0211 13.375 62.1051 12.799H61.3221C61.2741 13.159 61.1421 13.438 60.9261 13.636C60.7161 13.834 60.4221 13.933 60.0441 13.933C59.8041 13.933 59.5971 13.885 59.4231 13.789C59.2491 13.693 59.1081 13.567 59.0001 13.411C58.8921 13.249 58.8111 13.066 58.7571 12.862C58.7091 12.658 58.6851 12.448 58.6851 12.232C58.6851 11.998 58.7091 11.773 58.7571 11.557C58.8051 11.335 58.8831 11.14 58.9911 10.972C59.1051 10.804 59.2551 10.669 59.4411 10.567C59.6271 10.465 59.8581 10.414 60.1341 10.414C60.4581 10.414 60.7161 10.495 60.9081 10.657C61.1001 10.819 61.2261 11.047 61.2861 11.341ZM63.141 8.074V14.5H63.906V11.872C63.906 11.662 63.933 11.47 63.987 11.296C64.047 11.116 64.134 10.96 64.248 10.828C64.362 10.696 64.503 10.594 64.671 10.522C64.845 10.45 65.049 10.414 65.283 10.414C65.577 10.414 65.808 10.498 65.976 10.666C66.144 10.834 66.228 11.062 66.228 11.35V14.5H66.993V11.44C66.993 11.188 66.966 10.96 66.912 10.756C66.864 10.546 66.777 10.366 66.651 10.216C66.525 10.066 66.36 9.949 66.156 9.865C65.952 9.781 65.697 9.739 65.391 9.739C65.253 9.739 65.109 9.754 64.959 9.784C64.815 9.814 64.674 9.862 64.536 9.928C64.404 9.988 64.284 10.069 64.176 10.171C64.068 10.267 63.984 10.387 63.924 10.531H63.906V8.074H63.141ZM72.444 14.482C72.312 14.56 72.129 14.599 71.895 14.599C71.697 14.599 71.538 14.545 71.418 14.437C71.304 14.323 71.247 14.14 71.247 13.888C71.037 14.14 70.791 14.323 70.509 14.437C70.233 14.545 69.933 14.599 69.609 14.599C69.399 14.599 69.198 14.575 69.006 14.527C68.82 14.479 68.658 14.404 68.52 14.302C68.382 14.2 68.271 14.068 68.187 13.906C68.109 13.738 68.07 13.537 68.07 13.303C68.07 13.039 68.115 12.823 68.205 12.655C68.295 12.487 68.412 12.352 68.556 12.25C68.706 12.142 68.874 12.061 69.06 12.007C69.252 11.953 69.447 11.908 69.645 11.872C69.855 11.83 70.053 11.8 70.239 11.782C70.431 11.758 70.599 11.728 70.743 11.692C70.887 11.65 71.001 11.593 71.085 11.521C71.169 11.443 71.211 11.332 71.211 11.188C71.211 11.02 71.178 10.885 71.112 10.783C71.052 10.681 70.971 10.603 70.869 10.549C70.773 10.495 70.662 10.459 70.536 10.441C70.416 10.423 70.296 10.414 70.176 10.414C69.852 10.414 69.582 10.477 69.366 10.603C69.15 10.723 69.033 10.954 69.015 11.296H68.25C68.262 11.008 68.322 10.765 68.43 10.567C68.538 10.369 68.682 10.21 68.862 10.09C69.042 9.964 69.246 9.874 69.474 9.82C69.708 9.766 69.957 9.739 70.221 9.739C70.431 9.739 70.638 9.754 70.842 9.784C71.052 9.814 71.241 9.877 71.409 9.973C71.577 10.063 71.712 10.192 71.814 10.36C71.916 10.528 71.967 10.747 71.967 11.017V13.411C71.967 13.591 71.976 13.723 71.994 13.807C72.018 13.891 72.09 13.933 72.21 13.933C72.276 13.933 72.354 13.918 72.444 13.888V14.482ZM71.202 12.097C71.106 12.169 70.98 12.223 70.824 12.259C70.668 12.289 70.503 12.316 70.329 12.34C70.161 12.358 69.99 12.382 69.816 12.412C69.642 12.436 69.486 12.478 69.348 12.538C69.21 12.598 69.096 12.685 69.006 12.799C68.922 12.907 68.88 13.057 68.88 13.249C68.88 13.375 68.904 13.483 68.952 13.573C69.006 13.657 69.072 13.726 69.15 13.78C69.234 13.834 69.33 13.873 69.438 13.897C69.546 13.921 69.66 13.933 69.78 13.933C70.032 13.933 70.248 13.9 70.428 13.834C70.608 13.762 70.755 13.675 70.869 13.573C70.983 13.465 71.067 13.351 71.121 13.231C71.175 13.105 71.202 12.988 71.202 12.88V12.097ZM73.309 9.847V14.5H74.074V12.43C74.074 12.13 74.104 11.866 74.164 11.638C74.224 11.404 74.32 11.206 74.452 11.044C74.584 10.882 74.758 10.759 74.974 10.675C75.19 10.591 75.451 10.549 75.757 10.549V9.739C75.343 9.727 75.001 9.811 74.731 9.991C74.461 10.171 74.233 10.45 74.047 10.828H74.029V9.847H73.309ZM80.2722 14.104V9.847H79.5522V10.513H79.5432C79.4052 10.255 79.2132 10.063 78.9672 9.937C78.7212 9.805 78.4512 9.739 78.1572 9.739C77.7552 9.739 77.4162 9.817 77.1402 9.973C76.8642 10.123 76.6422 10.318 76.4742 10.558C76.3062 10.792 76.1862 11.056 76.1142 11.35C76.0422 11.638 76.0062 11.92 76.0062 12.196C76.0062 12.514 76.0482 12.817 76.1322 13.105C76.2222 13.387 76.3542 13.636 76.5282 13.852C76.7022 14.062 76.9182 14.23 77.1762 14.356C77.4342 14.482 77.7372 14.545 78.0852 14.545C78.3852 14.545 78.6672 14.479 78.9312 14.347C79.2012 14.209 79.4022 13.996 79.5342 13.708H79.5522V14.014C79.5522 14.272 79.5252 14.509 79.4712 14.725C79.4232 14.941 79.3422 15.124 79.2282 15.274C79.1142 15.43 78.9702 15.55 78.7962 15.634C78.6222 15.724 78.4092 15.769 78.1572 15.769C78.0312 15.769 77.8992 15.754 77.7612 15.724C77.6232 15.7 77.4942 15.658 77.3742 15.598C77.2602 15.538 77.1612 15.46 77.0772 15.364C76.9992 15.268 76.9572 15.151 76.9512 15.013H76.1862C76.1982 15.265 76.2642 15.478 76.3842 15.652C76.5042 15.826 76.6542 15.967 76.8342 16.075C77.0202 16.183 77.2242 16.261 77.4462 16.309C77.6742 16.357 77.8962 16.381 78.1122 16.381C78.8562 16.381 79.4022 16.192 79.7502 15.814C80.0982 15.436 80.2722 14.866 80.2722 14.104ZM78.1302 13.879C77.8782 13.879 77.6682 13.828 77.5002 13.726C77.3322 13.618 77.1972 13.48 77.0952 13.312C76.9932 13.138 76.9212 12.946 76.8792 12.736C76.8372 12.526 76.8162 12.316 76.8162 12.106C76.8162 11.884 76.8402 11.671 76.8882 11.467C76.9422 11.263 77.0232 11.083 77.1312 10.927C77.2452 10.771 77.3892 10.648 77.5632 10.558C77.7372 10.462 77.9472 10.414 78.1932 10.414C78.4332 10.414 78.6372 10.462 78.8052 10.558C78.9732 10.654 79.1082 10.783 79.2102 10.945C79.3182 11.101 79.3962 11.278 79.4442 11.476C79.4922 11.674 79.5162 11.875 79.5162 12.079C79.5162 12.295 79.4892 12.511 79.4352 12.727C79.3872 12.943 79.3092 13.138 79.2012 13.312C79.0932 13.48 78.9492 13.618 78.7692 13.726C78.5952 13.828 78.3822 13.879 78.1302 13.879ZM84.8372 11.728H82.1642C82.1762 11.548 82.2152 11.38 82.2812 11.224C82.3472 11.062 82.4372 10.921 82.5512 10.801C82.6652 10.681 82.8002 10.588 82.9562 10.522C83.1182 10.45 83.2982 10.414 83.4962 10.414C83.6882 10.414 83.8622 10.45 84.0182 10.522C84.1802 10.588 84.3182 10.681 84.4322 10.801C84.5522 10.915 84.6452 11.053 84.7112 11.215C84.7832 11.377 84.8252 11.548 84.8372 11.728ZM85.5752 13.024H84.8192C84.7532 13.33 84.6152 13.558 84.4052 13.708C84.2012 13.858 83.9372 13.933 83.6132 13.933C83.3612 13.933 83.1422 13.891 82.9562 13.807C82.7702 13.723 82.6172 13.612 82.4972 13.474C82.3772 13.33 82.2902 13.168 82.2362 12.988C82.1822 12.802 82.1582 12.607 82.1642 12.403H85.6472C85.6592 12.121 85.6322 11.824 85.5662 11.512C85.5062 11.2 85.3922 10.912 85.2242 10.648C85.0622 10.384 84.8432 10.168 84.5672 10C84.2972 9.826 83.9552 9.739 83.5412 9.739C83.2232 9.739 82.9292 9.799 82.6592 9.919C82.3952 10.039 82.1642 10.207 81.9662 10.423C81.7742 10.639 81.6242 10.894 81.5162 11.188C81.4082 11.482 81.3542 11.806 81.3542 12.16C81.3662 12.514 81.4172 12.841 81.5072 13.141C81.6032 13.441 81.7442 13.699 81.9302 13.915C82.1162 14.131 82.3442 14.299 82.6142 14.419C82.8902 14.539 83.2142 14.599 83.5862 14.599C84.1142 14.599 84.5522 14.467 84.9002 14.203C85.2482 13.939 85.4732 13.546 85.5752 13.024ZM86.2421 13.915V14.5H90.1661V13.825H87.1961L90.0401 10.369V9.847H86.4221V10.522H89.0501L86.2421 13.915ZM93.8542 8.074V14.5H94.6192V8.074H93.8542ZM96.3534 8.074V10.396H96.9654V8.074H96.3534ZM102.791 14.482C102.659 14.56 102.476 14.599 102.242 14.599C102.044 14.599 101.885 14.545 101.765 14.437C101.651 14.323 101.594 14.14 101.594 13.888C101.384 14.14 101.138 14.323 100.856 14.437C100.58 14.545 100.28 14.599 99.9562 14.599C99.7462 14.599 99.5452 14.575 99.3532 14.527C99.1672 14.479 99.0052 14.404 98.8672 14.302C98.7292 14.2 98.6182 14.068 98.5342 13.906C98.4562 13.738 98.4172 13.537 98.4172 13.303C98.4172 13.039 98.4622 12.823 98.5522 12.655C98.6422 12.487 98.7592 12.352 98.9032 12.25C99.0532 12.142 99.2212 12.061 99.4072 12.007C99.5992 11.953 99.7942 11.908 99.9922 11.872C100.202 11.83 100.4 11.8 100.586 11.782C100.778 11.758 100.946 11.728 101.09 11.692C101.234 11.65 101.348 11.593 101.432 11.521C101.516 11.443 101.558 11.332 101.558 11.188C101.558 11.02 101.525 10.885 101.459 10.783C101.399 10.681 101.318 10.603 101.216 10.549C101.12 10.495 101.009 10.459 100.883 10.441C100.763 10.423 100.643 10.414 100.523 10.414C100.199 10.414 99.9292 10.477 99.7132 10.603C99.4972 10.723 99.3802 10.954 99.3622 11.296H98.5972C98.6092 11.008 98.6692 10.765 98.7772 10.567C98.8852 10.369 99.0292 10.21 99.2092 10.09C99.3892 9.964 99.5932 9.874 99.8212 9.82C100.055 9.766 100.304 9.739 100.568 9.739C100.778 9.739 100.985 9.754 101.189 9.784C101.399 9.814 101.588 9.877 101.756 9.973C101.924 10.063 102.059 10.192 102.161 10.36C102.263 10.528 102.314 10.747 102.314 11.017V13.411C102.314 13.591 102.323 13.723 102.341 13.807C102.365 13.891 102.437 13.933 102.557 13.933C102.623 13.933 102.701 13.918 102.791 13.888V14.482ZM101.549 12.097C101.453 12.169 101.327 12.223 101.171 12.259C101.015 12.289 100.85 12.316 100.676 12.34C100.508 12.358 100.337 12.382 100.163 12.412C99.9892 12.436 99.8332 12.478 99.6952 12.538C99.5572 12.598 99.4432 12.685 99.3532 12.799C99.2692 12.907 99.2272 13.057 99.2272 13.249C99.2272 13.375 99.2512 13.483 99.2992 13.573C99.3532 13.657 99.4192 13.726 99.4972 13.78C99.5812 13.834 99.6772 13.873 99.7852 13.897C99.8932 13.921 100.007 13.933 100.127 13.933C100.379 13.933 100.595 13.9 100.775 13.834C100.955 13.762 101.102 13.675 101.216 13.573C101.33 13.465 101.414 13.351 101.468 13.231C101.522 13.105 101.549 12.988 101.549 12.88V12.097ZM103.71 9.847V16.273H104.475V13.879H104.493C104.577 14.017 104.679 14.134 104.799 14.23C104.925 14.32 105.057 14.392 105.195 14.446C105.333 14.5 105.471 14.539 105.609 14.563C105.753 14.587 105.882 14.599 105.996 14.599C106.35 14.599 106.659 14.536 106.923 14.41C107.193 14.284 107.415 14.113 107.589 13.897C107.769 13.675 107.901 13.417 107.985 13.123C108.075 12.829 108.12 12.517 108.12 12.187C108.12 11.857 108.075 11.545 107.985 11.251C107.895 10.957 107.76 10.699 107.58 10.477C107.406 10.249 107.184 10.069 106.914 9.937C106.65 9.805 106.338 9.739 105.978 9.739C105.654 9.739 105.357 9.799 105.087 9.919C104.817 10.033 104.619 10.219 104.493 10.477H104.475V9.847H103.71ZM107.31 12.133C107.31 12.361 107.286 12.583 107.238 12.799C107.19 13.015 107.112 13.207 107.004 13.375C106.896 13.543 106.752 13.678 106.572 13.78C106.398 13.882 106.179 13.933 105.915 13.933C105.651 13.933 105.426 13.885 105.24 13.789C105.054 13.687 104.901 13.555 104.781 13.393C104.667 13.231 104.583 13.045 104.529 12.835C104.475 12.619 104.448 12.397 104.448 12.169C104.448 11.953 104.472 11.74 104.52 11.53C104.574 11.32 104.658 11.134 104.772 10.972C104.886 10.804 105.033 10.669 105.213 10.567C105.393 10.465 105.612 10.414 105.87 10.414C106.116 10.414 106.329 10.462 106.509 10.558C106.695 10.654 106.845 10.783 106.959 10.945C107.079 11.107 107.166 11.293 107.22 11.503C107.28 11.707 107.31 11.917 107.31 12.133ZM109.225 9.847V16.273H109.99V13.879H110.008C110.092 14.017 110.194 14.134 110.314 14.23C110.44 14.32 110.572 14.392 110.71 14.446C110.848 14.5 110.986 14.539 111.124 14.563C111.268 14.587 111.397 14.599 111.511 14.599C111.865 14.599 112.174 14.536 112.438 14.41C112.708 14.284 112.93 14.113 113.104 13.897C113.284 13.675 113.416 13.417 113.5 13.123C113.59 12.829 113.635 12.517 113.635 12.187C113.635 11.857 113.59 11.545 113.5 11.251C113.41 10.957 113.275 10.699 113.095 10.477C112.921 10.249 112.699 10.069 112.429 9.937C112.165 9.805 111.853 9.739 111.493 9.739C111.169 9.739 110.872 9.799 110.602 9.919C110.332 10.033 110.134 10.219 110.008 10.477H109.99V9.847H109.225ZM112.825 12.133C112.825 12.361 112.801 12.583 112.753 12.799C112.705 13.015 112.627 13.207 112.519 13.375C112.411 13.543 112.267 13.678 112.087 13.78C111.913 13.882 111.694 13.933 111.43 13.933C111.166 13.933 110.941 13.885 110.755 13.789C110.569 13.687 110.416 13.555 110.296 13.393C110.182 13.231 110.098 13.045 110.044 12.835C109.99 12.619 109.963 12.397 109.963 12.169C109.963 11.953 109.987 11.74 110.035 11.53C110.089 11.32 110.173 11.134 110.287 10.972C110.401 10.804 110.548 10.669 110.728 10.567C110.908 10.465 111.127 10.414 111.385 10.414C111.631 10.414 111.844 10.462 112.024 10.558C112.21 10.654 112.36 10.783 112.474 10.945C112.594 11.107 112.681 11.293 112.735 11.503C112.795 11.707 112.825 11.917 112.825 12.133Z" fill="#666666"/>
<path d="M56.9199 21.9766C59.2177 21.9766 60.7324 23.793 60.7324 26.5987C60.7324 29.4122 59.2266 31.2198 56.9541 31.2198C55.7795 31.2812 54.6731 30.666 54.1055 29.6358H54.0625V34.1202H52.2041V22.0713H54.0029V23.5772H54.0371C54.6299 22.5534 55.7375 21.9385 56.9199 21.9766ZM66.8847 21.9766C69.1826 21.9766 70.6973 23.793 70.6973 26.5987C70.6973 29.4122 69.1914 31.2198 66.9189 31.2198C65.7443 31.2812 64.6379 30.666 64.0703 29.6358H64.0273V34.1202H62.1689V22.0713H63.9677V23.5772H64.0019C64.5947 22.5534 65.7023 21.9385 66.8847 21.9766ZM80.2266 18.5C82.8506 18.5 84.6494 19.9717 84.71 22.1143H82.834C82.7217 20.875 81.6972 20.127 80.2002 20.127C78.7031 20.127 77.6787 20.8838 77.6787 21.9854C77.6787 22.8633 78.333 23.3799 79.9336 23.7754L81.3017 24.1113C83.8496 24.7138 84.9082 25.7373 84.9082 27.5537C84.9082 29.8769 83.0576 31.332 80.1142 31.332C77.3603 31.332 75.501 29.9111 75.3808 27.665L77.2832 27.6651C77.4209 28.8965 78.6172 29.7051 80.2519 29.7051C81.8184 29.7051 82.9453 28.8965 82.9453 27.7861C82.9453 26.8223 82.2656 26.2451 80.6562 25.8496L79.0469 25.4619C76.7666 24.9111 75.708 23.8447 75.708 22.1143C75.708 19.9717 77.5752 18.5 80.2266 18.5ZM95.9317 21.96C98.5567 21.96 100.227 23.75 100.227 26.5987C100.227 29.4551 98.5655 31.2374 95.9317 31.2374C93.2988 31.2374 91.6377 29.4551 91.6377 26.5987C91.6377 23.7501 93.3155 21.96 95.9317 21.96ZM110.98 21.96C113.485 21.96 115.061 23.6807 115.061 26.4258V27.0625H108.666V27.1749C108.606 27.8489 108.839 28.5161 109.305 29.0067C109.771 29.4974 110.425 29.7642 111.102 29.7393C112.003 29.8238 112.854 29.3059 113.192 28.4659L114.957 28.4659C114.707 30.1094 113.106 31.2374 111.059 31.2374C108.425 31.2374 106.79 29.4727 106.79 26.6416C106.79 23.8018 108.434 21.96 110.98 21.96ZM88.9189 19.9288V22.0713H90.6406V23.543H88.9189V28.5342C88.9189 29.3096 89.2637 29.6709 90.0205 29.6709C90.2249 29.6674 90.429 29.653 90.6318 29.6279V31.0908C90.2916 31.1544 89.9457 31.1832 89.5996 31.1768C87.7666 31.1768 87.0518 30.4883 87.0518 28.7324V23.543H85.7354V22.0713H87.0517V19.9288H88.9189ZM46.5664 18.7071L51.0498 31.1251H49.0107L47.875 27.7686H43.1416L42.0049 31.1251H40L44.4834 18.7071H46.5664ZM105.752 21.9766C105.966 21.9759 106.18 21.9991 106.389 22.0459V23.7842C106.118 23.7016 105.836 23.6637 105.554 23.6719C105.007 23.6498 104.479 23.8675 104.106 24.268C103.734 24.6684 103.555 25.2116 103.617 25.7549V31.125H101.759V22.0713H103.531V23.6123H103.574C103.821 22.6203 104.73 21.9376 105.752 21.9766ZM95.9317 23.4913C94.4258 23.4913 93.5313 24.6534 93.5313 26.5987C93.5313 28.5606 94.4258 29.7051 95.9317 29.7051C97.4375 29.7051 98.333 28.5606 98.333 26.5987C98.333 24.6446 97.4375 23.4913 95.9317 23.4913ZM56.4297 23.5606C55.0098 23.5606 54.0547 24.7911 54.0547 26.5987C54.0547 28.4229 55.0098 29.6446 56.4297 29.6446C57.875 29.6446 58.8223 28.4483 58.8223 26.5987C58.8223 24.7657 57.875 23.5606 56.4297 23.5606ZM66.3945 23.5606C64.9746 23.5606 64.0195 24.7911 64.0195 26.5987C64.0195 28.4229 64.9746 29.6446 66.3945 29.6446C67.8398 29.6446 68.7871 28.4483 68.7871 26.5987C68.7871 24.7657 67.8398 23.5606 66.3945 23.5606ZM45.5342 20.7725H45.4825L43.6318 26.2198H47.3838L45.5342 20.7725ZM110.98 23.4659C110.369 23.4622 109.782 23.7029 109.349 24.1344C108.916 24.5659 108.673 25.1525 108.675 25.7637H113.201C113.235 25.1581 113.014 24.5658 112.593 24.1296C112.171 23.6934 111.587 23.4528 110.98 23.4659Z" fill="black"/>
<path d="M6 1H124V-1H6V1ZM129 6V34H131V6H129ZM124 39H6V41H124V39ZM1 34V6H-1V34H1ZM6 39C3.23858 39 1 36.7614 1 34H-1C-1 37.866 2.13401 41 6 41V39ZM129 34C129 36.7614 126.761 39 124 39V41C127.866 41 131 37.866 131 34H129ZM124 1C126.761 1 129 3.23858 129 6H131C131 2.13401 127.866 -1 124 -1V1ZM6 -1C2.13401 -1 -1 2.13401 -1 6H1C1 3.23858 3.23858 1 6 1V-1Z" fill="#A6A6A6"/>
</svg>
