<svg width="130" height="40" viewBox="0 0 130 40" fill="none" xmlns="http://www.w3.org/2000/svg">
<path d="M0 6C0 2.68629 2.68629 0 6 0H124C127.314 0 130 2.68629 130 6V34C130 37.3137 127.314 40 124 40H6C2.68629 40 0 37.3137 0 34V6Z" fill="white"/>
<path fill-rule="evenodd" clip-rule="evenodd" d="M9.43502 7.5471C9.14402 7.8551 8.97302 8.3321 8.97302 8.9511V31.0491C8.97302 31.6681 9.14402 32.1451 9.43502 32.4531L9.50902 32.5251L21.888 20.1461V19.8541L9.50902 7.4751L9.43502 7.5471Z" fill="#00D7FE"/>
<mask id="mask0_1648_7039" style="mask-type:alpha" maskUnits="userSpaceOnUse" x="21" y="15" width="12" height="10">
<path d="M26.013 24.2741L21.888 20.1461V19.8541L26.015 15.7271L30.997 18.5571C32.393 19.3511 32.393 20.6491 30.997 21.4421L26.108 24.2201L26.013 24.2741Z" fill="white"/>
</mask>
<g mask="url(#mask0_1648_7039)">
<path fill-rule="evenodd" clip-rule="evenodd" d="M26.013 24.2741L21.888 20.1461V19.8541L26.015 15.7271L30.997 18.5571C32.393 19.3511 32.393 20.6491 30.997 21.4421L26.108 24.2201L26.013 24.2741Z" fill="url(#paint0_linear_1648_7039)"/>
</g>
<mask id="mask1_1648_7039" style="mask-type:alpha" maskUnits="userSpaceOnUse" x="9" y="20" width="18" height="13">
<path d="M26.108 24.22L21.888 20L9.435 32.453C9.896 32.94 10.656 33 11.512 32.514L26.108 24.22Z" fill="white"/>
</mask>
<g mask="url(#mask1_1648_7039)">
<path fill-rule="evenodd" clip-rule="evenodd" d="M26.108 24.22L21.888 20L9.435 32.453C9.896 32.94 10.656 33 11.512 32.514L26.108 24.22Z" fill="url(#paint1_linear_1648_7039)"/>
</g>
<mask id="mask2_1648_7039" style="mask-type:alpha" maskUnits="userSpaceOnUse" x="9" y="7" width="18" height="13">
<path d="M26.108 15.7801L11.512 7.48605C10.656 7.00005 9.896 7.06005 9.435 7.54705L21.888 20.0001L26.108 15.7801Z" fill="white"/>
</mask>
<g mask="url(#mask2_1648_7039)">
<path fill-rule="evenodd" clip-rule="evenodd" d="M26.108 15.7801L11.512 7.48605C10.656 7.00005 9.896 7.06005 9.435 7.54705L21.888 20.0001L26.108 15.7801Z" fill="url(#paint2_linear_1648_7039)"/>
</g>
<path fill-rule="evenodd" clip-rule="evenodd" d="M103.894 30.953H105.76V18.452H103.894V30.953ZM120.701 22.955L118.562 28.375H118.498L116.278 22.955H114.268L117.597 30.53L115.699 34.744H117.646L122.776 22.955H120.701ZM110.119 29.533C109.507 29.533 108.655 29.228 108.655 28.472C108.655 27.507 109.717 27.137 110.633 27.137C111.454 27.137 111.839 27.314 112.338 27.555C112.193 28.713 111.196 29.533 110.119 29.533ZM110.344 22.682C108.993 22.682 107.594 23.277 107.015 24.596L108.671 25.287C109.025 24.596 109.684 24.37 110.376 24.37C111.341 24.37 112.322 24.949 112.338 25.979V26.107C112 25.914 111.277 25.625 110.392 25.625C108.607 25.625 106.789 26.606 106.789 28.439C106.789 30.112 108.253 31.19 109.893 31.19C111.148 31.19 111.839 30.627 112.274 29.967H112.338V30.932H114.139V26.14C114.139 23.92 112.483 22.682 110.344 22.682ZM98.812 24.477H96.158V20.192H98.812C100.207 20.192 100.999 21.347 100.999 22.334C100.999 23.303 100.207 24.477 98.812 24.477ZM98.764 18.452H94.293V30.953H96.158V26.217H98.764C100.832 26.217 102.865 24.719 102.865 22.334C102.865 19.949 100.832 18.452 98.764 18.452ZM74.383 29.535C73.094 29.535 72.015 28.456 72.015 26.974C72.015 25.476 73.094 24.38 74.383 24.38C75.656 24.38 76.654 25.476 76.654 26.974C76.654 28.456 75.656 29.535 74.383 29.535ZM76.525 23.655H76.461C76.042 23.156 75.237 22.705 74.222 22.705C72.095 22.705 70.146 24.573 70.146 26.974C70.146 29.358 72.095 31.211 74.222 31.211C75.237 31.211 76.042 30.76 76.461 30.244H76.525V30.856C76.525 32.484 75.656 33.354 74.254 33.354C73.11 33.354 72.401 32.532 72.111 31.839L70.484 32.516C70.951 33.644 72.192 35.029 74.254 35.029C76.445 35.029 78.298 33.74 78.298 30.599V22.962H76.525V23.655ZM79.587 30.953H81.456V18.451H79.587V30.953ZM84.21 26.829C84.162 25.186 85.483 24.348 86.433 24.348C87.175 24.348 87.803 24.718 88.012 25.25L84.21 26.829ZM90.01 25.411C89.656 24.461 88.576 22.705 86.369 22.705C84.178 22.705 82.358 24.428 82.358 26.958C82.358 29.342 84.162 31.211 86.578 31.211C88.528 31.211 89.656 30.019 90.123 29.326L88.673 28.359C88.19 29.068 87.529 29.535 86.578 29.535C85.628 29.535 84.951 29.1 84.516 28.247L90.203 25.895L90.01 25.411ZM44.702 24.01V25.814H49.019C48.89 26.829 48.552 27.57 48.037 28.086C47.408 28.714 46.425 29.406 44.702 29.406C42.044 29.406 39.965 27.264 39.965 24.606C39.965 21.947 42.044 19.805 44.702 19.805C46.136 19.805 47.183 20.369 47.956 21.094L49.229 19.821C48.149 18.79 46.716 18 44.702 18C41.061 18 38 20.965 38 24.606C38 28.247 41.061 31.211 44.702 31.211C46.667 31.211 48.149 30.567 49.309 29.358C50.501 28.166 50.872 26.491 50.872 25.137C50.872 24.718 50.84 24.332 50.775 24.01H44.702ZM55.781 29.535C54.492 29.535 53.38 28.472 53.38 26.958C53.38 25.427 54.492 24.38 55.781 24.38C57.069 24.38 58.181 25.427 58.181 26.958C58.181 28.472 57.069 29.535 55.781 29.535ZM55.781 22.705C53.428 22.705 51.511 24.493 51.511 26.958C51.511 29.406 53.428 31.211 55.781 31.211C58.133 31.211 60.05 29.406 60.05 26.958C60.05 24.493 58.133 22.705 55.781 22.705ZM65.094 29.535C63.805 29.535 62.693 28.472 62.693 26.958C62.693 25.427 63.805 24.38 65.094 24.38C66.383 24.38 67.494 25.427 67.494 26.958C67.494 28.472 66.383 29.535 65.094 29.535ZM65.094 22.705C62.742 22.705 60.825 24.493 60.825 26.958C60.825 29.406 62.742 31.211 65.094 31.211C67.446 31.211 69.363 29.406 69.363 26.958C69.363 24.493 67.446 22.705 65.094 22.705Z" fill="black"/>
<path d="M40.4741 14H39.1382L39.147 13.3101H40.4741C40.9312 13.3101 41.312 13.2148 41.6167 13.0244C41.9214 12.8311 42.1499 12.5615 42.3022 12.2158C42.4575 11.8672 42.5352 11.46 42.5352 10.9941V10.603C42.5352 10.2368 42.4912 9.91162 42.4033 9.62744C42.3154 9.34033 42.1865 9.09863 42.0166 8.90234C41.8467 8.70312 41.6387 8.55225 41.3926 8.44971C41.1494 8.34717 40.8696 8.2959 40.5532 8.2959H39.1118V7.60156H40.5532C40.9722 7.60156 41.3545 7.67188 41.7002 7.8125C42.0459 7.9502 42.3433 8.15088 42.5923 8.41455C42.8442 8.67529 43.0376 8.9917 43.1724 9.36377C43.3071 9.73291 43.3745 10.1489 43.3745 10.6118V10.9941C43.3745 11.457 43.3071 11.8745 43.1724 12.2466C43.0376 12.6157 42.8428 12.9307 42.5879 13.1914C42.3359 13.4521 42.0312 13.6528 41.6738 13.7935C41.3193 13.9312 40.9194 14 40.4741 14ZM39.5908 7.60156V14H38.7427V7.60156H39.5908ZM49.3052 10.5986V11.0029C49.3052 11.4834 49.2451 11.9141 49.125 12.2949C49.0049 12.6758 48.8321 12.9995 48.6065 13.2661C48.3809 13.5327 48.1099 13.7363 47.7935 13.877C47.48 14.0176 47.1284 14.0879 46.7388 14.0879C46.3609 14.0879 46.0137 14.0176 45.6973 13.877C45.3838 13.7363 45.1113 13.5327 44.8799 13.2661C44.6514 12.9995 44.4741 12.6758 44.3482 12.2949C44.2222 11.9141 44.1592 11.4834 44.1592 11.0029V10.5986C44.1592 10.1182 44.2207 9.68896 44.3438 9.31104C44.4697 8.93018 44.647 8.60645 44.8755 8.33984C45.104 8.07031 45.375 7.86523 45.6885 7.72461C46.0049 7.58398 46.3521 7.51367 46.73 7.51367C47.1196 7.51367 47.4712 7.58398 47.7847 7.72461C48.1011 7.86523 48.3721 8.07031 48.5977 8.33984C48.8262 8.60645 49.0005 8.93018 49.1206 9.31104C49.2437 9.68896 49.3052 10.1182 49.3052 10.5986ZM48.4658 11.0029V10.5898C48.4658 10.209 48.4263 9.87207 48.3472 9.5791C48.271 9.28613 48.1582 9.04004 48.0088 8.84082C47.8594 8.6416 47.6763 8.49072 47.4595 8.38818C47.2456 8.28564 47.0025 8.23438 46.73 8.23438C46.4663 8.23438 46.2276 8.28564 46.0137 8.38818C45.8028 8.49072 45.6211 8.6416 45.4688 8.84082C45.3194 9.04004 45.2036 9.28613 45.1216 9.5791C45.0396 9.87207 44.9986 10.209 44.9986 10.5898V11.0029C44.9986 11.3867 45.0396 11.7266 45.1216 12.0225C45.2036 12.3154 45.3208 12.563 45.4732 12.7651C45.6284 12.9644 45.8115 13.1152 46.0225 13.2178C46.2363 13.3203 46.4751 13.3716 46.7388 13.3716C47.0142 13.3716 47.2588 13.3203 47.4727 13.2178C47.6865 13.1152 47.8667 12.9644 48.0132 12.7651C48.1626 12.563 48.2754 12.3154 48.3516 12.0225C48.4278 11.7266 48.4658 11.3867 48.4658 11.0029ZM51.9883 12.0664L53.2583 7.60156H53.8736L53.5176 9.3374L52.1509 14H51.5401L51.9883 12.0664ZM50.6744 7.60156L51.6851 11.9785L51.9883 14H51.3819L49.8306 7.60156H50.6744ZM55.5171 11.9741L56.5059 7.60156H57.354L55.8072 14H55.2007L55.5171 11.9741ZM53.9659 7.60156L55.2007 12.0664L55.649 14H55.0381L53.7198 9.3374L53.3594 7.60156H53.9659ZM62.9463 7.60156V14H62.0938L58.8726 9.06494V14H58.0245V7.60156H58.8726L62.107 12.5498V7.60156H62.9463ZM68.0596 13.3101V14H64.8604V13.3101H68.0596ZM65.0274 7.60156V14H64.1793V7.60156H65.0274ZM73.3971 10.5986V11.0029C73.3971 11.4834 73.337 11.9141 73.2169 12.2949C73.0968 12.6758 72.9239 12.9995 72.6983 13.2661C72.4728 13.5327 72.2018 13.7363 71.8854 13.877C71.5719 14.0176 71.2203 14.0879 70.8307 14.0879C70.4527 14.0879 70.1056 14.0176 69.7892 13.877C69.4757 13.7363 69.2032 13.5327 68.9718 13.2661C68.7433 12.9995 68.566 12.6758 68.44 12.2949C68.3141 11.9141 68.2511 11.4834 68.2511 11.0029V10.5986C68.2511 10.1182 68.3126 9.68896 68.4356 9.31104C68.5616 8.93018 68.7389 8.60645 68.9674 8.33984C69.1959 8.07031 69.4669 7.86523 69.7804 7.72461C70.0968 7.58398 70.4439 7.51367 70.8219 7.51367C71.2115 7.51367 71.5631 7.58398 71.8766 7.72461C72.193 7.86523 72.464 8.07031 72.6896 8.33984C72.9181 8.60645 73.0924 8.93018 73.2125 9.31104C73.3355 9.68896 73.3971 10.1182 73.3971 10.5986ZM72.5577 11.0029V10.5898C72.5577 10.209 72.5182 9.87207 72.4391 9.5791C72.3629 9.28613 72.2501 9.04004 72.1007 8.84082C71.9513 8.6416 71.7682 8.49072 71.5514 8.38818C71.3375 8.28564 71.0943 8.23438 70.8219 8.23438C70.5582 8.23438 70.3194 8.28564 70.1056 8.38818C69.8946 8.49072 69.713 8.6416 69.5606 8.84082C69.4112 9.04004 69.2955 9.28613 69.2135 9.5791C69.1314 9.87207 69.0904 10.209 69.0904 10.5898V11.0029C69.0904 11.3867 69.1314 11.7266 69.2135 12.0225C69.2955 12.3154 69.4127 12.563 69.565 12.7651C69.7203 12.9644 69.9034 13.1152 70.1144 13.2178C70.3282 13.3203 70.567 13.3716 70.8307 13.3716C71.1061 13.3716 71.3507 13.3203 71.5646 13.2178C71.7784 13.1152 71.9586 12.9644 72.1051 12.7651C72.2545 12.563 72.3673 12.3154 72.4435 12.0225C72.5196 11.7266 72.5577 11.3867 72.5577 11.0029ZM76.6691 8.16846L74.5509 14H73.6852L76.1241 7.60156H76.6822L76.6691 8.16846ZM78.4445 14L76.3219 8.16846L76.3087 7.60156H76.8668L79.3146 14H78.4445ZM78.3346 11.6313V12.3257H74.7399V11.6313H78.3346ZM81.6329 14H80.297L80.3058 13.3101H81.6329C82.09 13.3101 82.4708 13.2148 82.7755 13.0244C83.0802 12.8311 83.3087 12.5615 83.4611 12.2158C83.6163 11.8672 83.694 11.46 83.694 10.9941V10.603C83.694 10.2368 83.65 9.91162 83.5621 9.62744C83.4743 9.34033 83.3454 9.09863 83.1754 8.90234C83.0055 8.70312 82.7975 8.55225 82.5514 8.44971C82.3082 8.34717 82.0285 8.2959 81.7121 8.2959H80.2706V7.60156H81.7121C82.131 7.60156 82.5133 7.67188 82.859 7.8125C83.2047 7.9502 83.5021 8.15088 83.7511 8.41455C84.0031 8.67529 84.1964 8.9917 84.3312 9.36377C84.466 9.73291 84.5333 10.1489 84.5333 10.6118V10.9941C84.5333 11.457 84.466 11.8745 84.3312 12.2466C84.1964 12.6157 84.0016 12.9307 83.7467 13.1914C83.4948 13.4521 83.1901 13.6528 82.8327 13.7935C82.4782 13.9312 82.0783 14 81.6329 14ZM80.7496 7.60156V14H79.9015V7.60156H80.7496ZM89.6887 7.60156V14H88.8537V7.60156H89.6887ZM91.7453 7.60156V8.2959H86.8014V7.60156H91.7453ZM96.6037 10.3525V11.0425H93.1408V10.3525H96.6037ZM93.2727 7.60156V14H92.4245V7.60156H93.2727ZM97.342 7.60156V14H96.4982V7.60156H97.342ZM102.644 13.3101V14H99.2561V13.3101H102.644ZM99.4275 7.60156V14H98.5793V7.60156H99.4275ZM102.196 10.3525V11.0425H99.2561V10.3525H102.196ZM102.6 7.60156V8.2959H99.2561V7.60156H102.6ZM107.756 8.16846L105.637 14H104.772L107.211 7.60156H107.769L107.756 8.16846ZM109.531 14L107.408 8.16846L107.395 7.60156H107.953L110.401 14H109.531ZM109.421 11.6313V12.3257H105.826V11.6313H109.421ZM113.348 11.4907H111.638V10.8008H113.348C113.679 10.8008 113.947 10.748 114.152 10.6426C114.357 10.5371 114.507 10.3906 114.6 10.2031C114.697 10.0156 114.745 9.80176 114.745 9.56152C114.745 9.3418 114.697 9.13525 114.6 8.94189C114.507 8.74854 114.357 8.59326 114.152 8.47607C113.947 8.35596 113.679 8.2959 113.348 8.2959H111.836V14H110.988V7.60156H113.348C113.831 7.60156 114.24 7.68506 114.574 7.85205C114.908 8.01904 115.161 8.25049 115.334 8.54639C115.507 8.83936 115.594 9.1748 115.594 9.55273C115.594 9.96289 115.507 10.313 115.334 10.603C115.161 10.8931 114.908 11.1143 114.574 11.2666C114.24 11.416 113.831 11.4907 113.348 11.4907ZM118.756 11.4907H117.046V10.8008H118.756C119.087 10.8008 119.355 10.748 119.56 10.6426C119.765 10.5371 119.914 10.3906 120.008 10.2031C120.105 10.0156 120.153 9.80176 120.153 9.56152C120.153 9.3418 120.105 9.13525 120.008 8.94189C119.914 8.74854 119.765 8.59326 119.56 8.47607C119.355 8.35596 119.087 8.2959 118.756 8.2959H117.244V14H116.396V7.60156H118.756C119.239 7.60156 119.648 7.68506 119.982 7.85205C120.316 8.01904 120.569 8.25049 120.742 8.54639C120.915 8.83936 121.001 9.1748 121.001 9.55273C121.001 9.96289 120.915 10.313 120.742 10.603C120.569 10.8931 120.316 11.1143 119.982 11.2666C119.648 11.416 119.239 11.4907 118.756 11.4907Z" fill="#666666"/>
<path d="M6 1H124V-1H6V1ZM129 6V34H131V6H129ZM124 39H6V41H124V39ZM1 34V6H-1V34H1ZM6 39C3.23858 39 1 36.7614 1 34H-1C-1 37.866 2.13401 41 6 41V39ZM129 34C129 36.7614 126.761 39 124 39V41C127.866 41 131 37.866 131 34H129ZM124 1C126.761 1 129 3.23858 129 6H131C131 2.13401 127.866 -1 124 -1V1ZM6 -1C2.13401 -1 -1 2.13401 -1 6H1C1 3.23858 3.23858 1 6 1V-1Z" fill="#A6A6A6"/>
<defs>
<linearGradient id="paint0_linear_1648_7039" x1="30.0888" y1="20.0004" x2="21.888" y2="20.0004" gradientUnits="userSpaceOnUse">
<stop stop-color="#FFBC00"/>
<stop offset="1" stop-color="#FFDA03"/>
</linearGradient>
<linearGradient id="paint1_linear_1648_7039" x1="23.8146" y1="23.9708" x2="13.1111" y2="32.7933" gradientUnits="userSpaceOnUse">
<stop stop-color="#E22652"/>
<stop offset="1" stop-color="#FF3A44"/>
</linearGradient>
<linearGradient id="paint2_linear_1648_7039" x1="11.3207" y1="9.04621" x2="18.4569" y2="15.3211" gradientUnits="userSpaceOnUse">
<stop stop-color="#0ED574"/>
<stop offset="1" stop-color="#07F076"/>
</linearGradient>
</defs>
</svg>
