<svg width="130" height="40" viewBox="0 0 130 40" fill="none" xmlns="http://www.w3.org/2000/svg">
<path d="M0 6C0 2.68629 2.68629 0 6 0H124C127.314 0 130 2.68629 130 6V34C130 37.3137 127.314 40 124 40H6C2.68629 40 0 37.3137 0 34V6Z" fill="#313131"/>
<path fill-rule="evenodd" clip-rule="evenodd" d="M9.43502 7.54698C9.14402 7.85498 8.97302 8.33198 8.97302 8.95098V31.049C8.97302 31.668 9.14402 32.145 9.43502 32.453L9.50902 32.525L21.888 20.146V19.854L9.50902 7.47498L9.43502 7.54698Z" fill="#00D7FE"/>
<mask id="mask0_1693_7767" style="mask-type:alpha" maskUnits="userSpaceOnUse" x="21" y="15" width="12" height="10">
<path d="M26.013 24.274L21.888 20.146V19.854L26.015 15.727L30.997 18.557C32.393 19.351 32.393 20.649 30.997 21.442L26.108 24.22L26.013 24.274Z" fill="white"/>
</mask>
<g mask="url(#mask0_1693_7767)">
<path fill-rule="evenodd" clip-rule="evenodd" d="M26.013 24.274L21.888 20.146V19.854L26.015 15.727L30.997 18.557C32.393 19.351 32.393 20.649 30.997 21.442L26.108 24.22L26.013 24.274Z" fill="url(#paint0_linear_1693_7767)"/>
</g>
<mask id="mask1_1693_7767" style="mask-type:alpha" maskUnits="userSpaceOnUse" x="9" y="20" width="18" height="13">
<path d="M26.108 24.22L21.888 20L9.435 32.453C9.896 32.94 10.656 33 11.512 32.514L26.108 24.22Z" fill="white"/>
</mask>
<g mask="url(#mask1_1693_7767)">
<path fill-rule="evenodd" clip-rule="evenodd" d="M26.108 24.22L21.888 20L9.435 32.453C9.896 32.94 10.656 33 11.512 32.514L26.108 24.22Z" fill="url(#paint1_linear_1693_7767)"/>
</g>
<mask id="mask2_1693_7767" style="mask-type:alpha" maskUnits="userSpaceOnUse" x="9" y="7" width="18" height="13">
<path d="M26.108 15.78L11.512 7.48599C10.656 6.99999 9.896 7.05999 9.435 7.54699L21.888 20L26.108 15.78Z" fill="white"/>
</mask>
<g mask="url(#mask2_1693_7767)">
<path fill-rule="evenodd" clip-rule="evenodd" d="M26.108 15.78L11.512 7.48599C10.656 6.99999 9.896 7.05999 9.435 7.54699L21.888 20L26.108 15.78Z" fill="url(#paint2_linear_1693_7767)"/>
</g>
<path fill-rule="evenodd" clip-rule="evenodd" d="M103.894 30.953H105.76V18.452H103.894V30.953ZM120.701 22.955L118.562 28.375H118.498L116.278 22.955H114.268L117.597 30.53L115.699 34.744H117.646L122.776 22.955H120.701ZM110.119 29.533C109.507 29.533 108.655 29.228 108.655 28.472C108.655 27.507 109.717 27.137 110.633 27.137C111.454 27.137 111.839 27.314 112.338 27.555C112.193 28.713 111.196 29.533 110.119 29.533ZM110.344 22.682C108.993 22.682 107.594 23.277 107.015 24.596L108.671 25.287C109.025 24.596 109.684 24.37 110.376 24.37C111.341 24.37 112.322 24.949 112.338 25.979V26.107C112 25.914 111.277 25.625 110.392 25.625C108.607 25.625 106.789 26.606 106.789 28.439C106.789 30.112 108.253 31.19 109.893 31.19C111.148 31.19 111.839 30.627 112.274 29.967H112.338V30.932H114.139V26.14C114.139 23.92 112.483 22.682 110.344 22.682ZM98.812 24.477H96.158V20.192H98.812C100.207 20.192 100.999 21.347 100.999 22.334C100.999 23.303 100.207 24.477 98.812 24.477ZM98.764 18.452H94.293V30.953H96.158V26.217H98.764C100.832 26.217 102.865 24.719 102.865 22.334C102.865 19.949 100.832 18.452 98.764 18.452ZM74.383 29.535C73.094 29.535 72.015 28.456 72.015 26.974C72.015 25.476 73.094 24.38 74.383 24.38C75.656 24.38 76.654 25.476 76.654 26.974C76.654 28.456 75.656 29.535 74.383 29.535ZM76.525 23.655H76.461C76.042 23.156 75.237 22.705 74.222 22.705C72.095 22.705 70.146 24.573 70.146 26.974C70.146 29.358 72.095 31.211 74.222 31.211C75.237 31.211 76.042 30.76 76.461 30.244H76.525V30.856C76.525 32.484 75.656 33.354 74.254 33.354C73.11 33.354 72.401 32.532 72.111 31.839L70.484 32.516C70.951 33.644 72.192 35.029 74.254 35.029C76.445 35.029 78.298 33.74 78.298 30.599V22.962H76.525V23.655ZM79.587 30.953H81.456V18.451H79.587V30.953ZM84.21 26.829C84.162 25.186 85.483 24.348 86.433 24.348C87.175 24.348 87.803 24.718 88.012 25.25L84.21 26.829ZM90.01 25.411C89.656 24.461 88.576 22.705 86.369 22.705C84.178 22.705 82.358 24.428 82.358 26.958C82.358 29.342 84.162 31.211 86.578 31.211C88.528 31.211 89.656 30.019 90.123 29.326L88.673 28.359C88.19 29.068 87.529 29.535 86.578 29.535C85.628 29.535 84.951 29.1 84.516 28.247L90.203 25.895L90.01 25.411ZM44.702 24.01V25.814H49.019C48.89 26.829 48.552 27.57 48.037 28.086C47.408 28.714 46.425 29.406 44.702 29.406C42.044 29.406 39.965 27.264 39.965 24.606C39.965 21.947 42.044 19.805 44.702 19.805C46.136 19.805 47.183 20.369 47.956 21.094L49.229 19.821C48.149 18.79 46.716 18 44.702 18C41.061 18 38 20.965 38 24.606C38 28.247 41.061 31.211 44.702 31.211C46.667 31.211 48.149 30.567 49.309 29.358C50.501 28.166 50.872 26.491 50.872 25.137C50.872 24.718 50.84 24.332 50.775 24.01H44.702ZM55.781 29.535C54.492 29.535 53.38 28.472 53.38 26.958C53.38 25.427 54.492 24.38 55.781 24.38C57.069 24.38 58.181 25.427 58.181 26.958C58.181 28.472 57.069 29.535 55.781 29.535ZM55.781 22.705C53.428 22.705 51.511 24.493 51.511 26.958C51.511 29.406 53.428 31.211 55.781 31.211C58.133 31.211 60.05 29.406 60.05 26.958C60.05 24.493 58.133 22.705 55.781 22.705ZM65.094 29.535C63.805 29.535 62.693 28.472 62.693 26.958C62.693 25.427 63.805 24.38 65.094 24.38C66.383 24.38 67.494 25.427 67.494 26.958C67.494 28.472 66.383 29.535 65.094 29.535ZM65.094 22.705C62.742 22.705 60.825 24.493 60.825 26.958C60.825 29.406 62.742 31.211 65.094 31.211C67.446 31.211 69.363 29.406 69.363 26.958C69.363 24.493 67.446 22.705 65.094 22.705Z" fill="white"/>
<path d="M41.1069 7.60156V14H40.272V7.60156H41.1069ZM43.1636 7.60156V8.2959H38.2197V7.60156H43.1636ZM47.9077 13.3101V14H44.5196V13.3101H47.9077ZM44.6909 7.60156V14H43.8428V7.60156H44.6909ZM47.4595 10.3525V11.0425H44.5196V10.3525H47.4595ZM47.8638 7.60156V8.2959H44.5196V7.60156H47.8638ZM45.3721 7.12695L46.2246 5.83496H47.2046L46.0269 7.12695H45.3721ZM52.5684 13.3101V14H49.3692V13.3101H52.5684ZM49.5362 7.60156V14H48.688V7.60156H49.5362ZM57.3345 13.3101V14H53.9463V13.3101H57.3345ZM54.1177 7.60156V14H53.2696V7.60156H54.1177ZM56.8863 10.3525V11.0425H53.9463V10.3525H56.8863ZM57.2906 7.60156V8.2959H53.9463V7.60156H57.2906ZM54.7989 7.12695L55.6514 5.83496H56.6314L55.4537 7.12695H54.7989ZM61.9776 11.9653H62.8214C62.7774 12.3696 62.6617 12.7314 62.4742 13.0508C62.2867 13.3701 62.0216 13.6235 61.6788 13.811C61.336 13.9956 60.9083 14.0879 60.3956 14.0879C60.0206 14.0879 59.6793 14.0176 59.3717 13.877C59.067 13.7363 58.8048 13.5371 58.585 13.2793C58.3653 13.0186 58.1954 12.7065 58.0753 12.3433C57.9581 11.9771 57.8995 11.5698 57.8995 11.1216V10.4844C57.8995 10.0361 57.9581 9.63037 58.0753 9.26709C58.1954 8.90088 58.3668 8.5874 58.5894 8.32666C58.815 8.06592 59.086 7.86523 59.4024 7.72461C59.7188 7.58398 60.0748 7.51367 60.4703 7.51367C60.9537 7.51367 61.3624 7.60449 61.6964 7.78613C62.0304 7.96777 62.2896 8.21973 62.4742 8.54199C62.6617 8.86133 62.7774 9.23193 62.8214 9.65381H61.9776C61.9366 9.35498 61.8604 9.09863 61.7491 8.88477C61.6378 8.66797 61.4796 8.50098 61.2745 8.38379C61.0694 8.2666 60.8013 8.20801 60.4703 8.20801C60.1861 8.20801 59.9356 8.26221 59.7188 8.37061C59.505 8.479 59.3248 8.63281 59.1783 8.83203C59.0347 9.03125 58.9263 9.27002 58.8531 9.54834C58.7799 9.82666 58.7432 10.1357 58.7432 10.4756V11.1216C58.7432 11.4351 58.7755 11.7295 58.8399 12.0049C58.9073 12.2803 59.0084 12.522 59.1431 12.73C59.2779 12.938 59.4493 13.1021 59.6573 13.2222C59.8653 13.3394 60.1114 13.3979 60.3956 13.3979C60.7559 13.3979 61.043 13.3408 61.2569 13.2266C61.4708 13.1123 61.6319 12.9482 61.7403 12.7344C61.8516 12.5205 61.9307 12.2642 61.9776 11.9653ZM67.8863 10.3525V11.0425H64.4234V10.3525H67.8863ZM64.5553 7.60156V14H63.7071V7.60156H64.5553ZM68.6246 7.60156V14H67.7809V7.60156H68.6246ZM72.3097 8.16846L70.1915 14H69.3258L71.7648 7.60156H72.3229L72.3097 8.16846ZM74.0851 14L71.9625 8.16846L71.9493 7.60156H72.5074L74.9552 14H74.0851ZM73.9752 11.6313V12.3257H70.3805V11.6313H73.9752ZM75.5421 7.60156H77.6603C78.1408 7.60156 78.5465 7.6748 78.8776 7.82129C79.2116 7.96777 79.465 8.18457 79.6378 8.47168C79.8136 8.75586 79.9015 9.10596 79.9015 9.52197C79.9015 9.81494 79.8414 10.083 79.7213 10.3262C79.6041 10.5664 79.4342 10.7715 79.2116 10.9414C78.9918 11.1084 78.7282 11.2329 78.4205 11.3149L78.1832 11.4072H76.1925L76.1837 10.7173H77.6867C77.9913 10.7173 78.2448 10.6646 78.4469 10.5591C78.6491 10.4507 78.8014 10.3057 78.9039 10.124C79.0065 9.94238 79.0578 9.7417 79.0578 9.52197C79.0578 9.27588 79.0094 9.06055 78.9127 8.87598C78.8161 8.69141 78.6637 8.54932 78.4557 8.44971C78.2506 8.34717 77.9855 8.2959 77.6603 8.2959H76.3903V14H75.5421V7.60156ZM79.2819 14L77.7262 11.0996L78.6095 11.0952L80.1871 13.9473V14H79.2819ZM85.5465 10.814V13.1562C85.4674 13.2734 85.3415 13.4053 85.1686 13.5518C84.9958 13.6953 84.757 13.8213 84.4523 13.9297C84.1505 14.0352 83.7609 14.0879 83.2834 14.0879C82.8937 14.0879 82.5348 14.0205 82.2067 13.8857C81.8815 13.748 81.5988 13.5488 81.3586 13.2881C81.1213 13.0244 80.9367 12.7051 80.8048 12.3301C80.6759 11.9521 80.6115 11.5244 80.6115 11.0469V10.5503C80.6115 10.0728 80.6671 9.64648 80.7785 9.27148C80.8927 8.89648 81.0597 8.57861 81.2795 8.31787C81.4992 8.0542 81.7687 7.85498 82.088 7.72021C82.4074 7.58252 82.7736 7.51367 83.1867 7.51367C83.6759 7.51367 84.0846 7.59863 84.4128 7.76855C84.7438 7.93555 85.0016 8.16699 85.1862 8.46289C85.3737 8.75879 85.4938 9.0957 85.5465 9.47363H84.6984C84.6603 9.24219 84.5841 9.03125 84.4699 8.84082C84.3586 8.65039 84.1989 8.49805 83.9909 8.38379C83.7829 8.2666 83.5148 8.20801 83.1867 8.20801C82.8908 8.20801 82.6344 8.26221 82.4176 8.37061C82.2008 8.479 82.0221 8.63428 81.8815 8.83643C81.7409 9.03857 81.6354 9.2832 81.5651 9.57031C81.4977 9.85742 81.464 10.1812 81.464 10.5415V11.0469C81.464 11.416 81.5065 11.7456 81.5915 12.0356C81.6794 12.3257 81.8039 12.5732 81.965 12.7783C82.1261 12.9805 82.318 13.1343 82.5407 13.2397C82.7663 13.3452 83.0153 13.3979 83.2878 13.3979C83.5895 13.3979 83.8341 13.373 84.0216 13.3232C84.2091 13.2705 84.3556 13.209 84.4611 13.1387C84.5666 13.0654 84.6471 12.9966 84.7028 12.9321V11.4995H83.2218V10.814H85.5465ZM90.7477 13.3101V14H87.3596V13.3101H90.7477ZM87.5309 7.60156V14H86.6828V7.60156H87.5309ZM90.2995 10.3525V11.0425H87.3596V10.3525H90.2995ZM90.7038 7.60156V8.2959H87.3596V7.60156H90.7038ZM95.8215 13.3101V14H91.4885V13.3101H95.8215ZM95.6809 8.2168L91.6906 14H91.1677V13.3672L95.1535 7.60156H95.6809V8.2168ZM95.3205 7.60156V8.2959H91.2248V7.60156H95.3205ZM102.497 13.3101V14H99.2981V13.3101H102.497ZM99.4651 7.60156V14H98.6169V7.60156H99.4651ZM103.572 7.25V7.7334L103.48 9.35059H102.913L102.917 7.80811V7.25H103.572ZM106.343 8.16846L104.225 14H103.359L105.798 7.60156H106.356L106.343 8.16846ZM108.118 14L105.996 8.16846L105.983 7.60156H106.541L108.989 14H108.118ZM108.009 11.6313V12.3257H104.414V11.6313H108.009ZM111.935 11.4907H110.226V10.8008H111.935C112.266 10.8008 112.534 10.748 112.74 10.6426C112.945 10.5371 113.094 10.3906 113.188 10.2031C113.284 10.0156 113.333 9.80176 113.333 9.56152C113.333 9.3418 113.284 9.13525 113.188 8.94189C113.094 8.74854 112.945 8.59326 112.74 8.47607C112.534 8.35596 112.266 8.2959 111.935 8.2959H110.424V14H109.575V7.60156H111.935C112.419 7.60156 112.827 7.68506 113.161 7.85205C113.495 8.01904 113.749 8.25049 113.922 8.54639C114.095 8.83936 114.181 9.1748 114.181 9.55273C114.181 9.96289 114.095 10.313 113.922 10.603C113.749 10.8931 113.495 11.1143 113.161 11.2666C112.827 11.416 112.419 11.4907 111.935 11.4907ZM117.343 11.4907H115.634V10.8008H117.343C117.674 10.8008 117.942 10.748 118.147 10.6426C118.352 10.5371 118.502 10.3906 118.596 10.2031C118.692 10.0156 118.741 9.80176 118.741 9.56152C118.741 9.3418 118.692 9.13525 118.596 8.94189C118.502 8.74854 118.352 8.59326 118.147 8.47607C117.942 8.35596 117.674 8.2959 117.343 8.2959H115.831V14H114.983V7.60156H117.343C117.826 7.60156 118.235 7.68506 118.569 7.85205C118.903 8.01904 119.157 8.25049 119.329 8.54639C119.502 8.83936 119.589 9.1748 119.589 9.55273C119.589 9.96289 119.502 10.313 119.329 10.603C119.157 10.8931 118.903 11.1143 118.569 11.2666C118.235 11.416 117.826 11.4907 117.343 11.4907Z" fill="white"/>
<defs>
<linearGradient id="paint0_linear_1693_7767" x1="30.0888" y1="20.0003" x2="21.888" y2="20.0003" gradientUnits="userSpaceOnUse">
<stop stop-color="#FFBC00"/>
<stop offset="1" stop-color="#FFDA03"/>
</linearGradient>
<linearGradient id="paint1_linear_1693_7767" x1="23.8146" y1="23.9708" x2="13.1111" y2="32.7933" gradientUnits="userSpaceOnUse">
<stop stop-color="#E22652"/>
<stop offset="1" stop-color="#FF3A44"/>
</linearGradient>
<linearGradient id="paint2_linear_1693_7767" x1="11.3207" y1="9.04615" x2="18.4569" y2="15.3211" gradientUnits="userSpaceOnUse">
<stop stop-color="#0ED574"/>
<stop offset="1" stop-color="#07F076"/>
</linearGradient>
</defs>
</svg>
