<svg width="125" height="39" fill="none" xmlns="http://www.w3.org/2000/svg"><path d="M0 5.77A5.77 5.77 0 0 1 5.77 0H119.23A5.77 5.77 0 0 1 125 5.77v26.922a5.77 5.77 0 0 1-5.769 5.77H5.769A5.77 5.77 0 0 1 0 32.692V5.77Z" fill="#313131"/><path fill-rule="evenodd" clip-rule="evenodd" d="M25.277 19.558a4.758 4.758 0 0 1 2.266-3.992 4.87 4.87 0 0 0-3.838-2.075c-1.614-.17-3.18.966-4.002.966-.84 0-2.106-.95-3.47-.921a5.11 5.11 0 0 0-4.301 2.623c-1.86 3.22-.473 7.951 1.309 10.554.891 1.274 1.933 2.697 3.296 2.647 1.333-.055 1.831-.85 3.441-.85 1.595 0 2.063.85 3.453.818 1.431-.023 2.333-1.28 3.193-2.566a10.542 10.542 0 0 0 1.46-2.974 4.598 4.598 0 0 1-2.807-4.23ZM22.651 11.78a4.685 4.685 0 0 0 1.072-3.357 4.767 4.767 0 0 0-3.085 1.596 4.458 4.458 0 0 0-1.1 3.232 3.941 3.941 0 0 0 3.113-1.472Z" fill="#fff"/><path d="M40.458 12.365V7.571h1.385c.38 0 .7.055.96.165.26.103.47.26.632.467.167.202.286.45.355.744.075.289.112.617.112.987 0 .38-.04.706-.12.978a2.296 2.296 0 0 1-.295.666c-.121.179-.26.32-.416.424-.15.104-.302.184-.458.242a2.308 2.308 0 0 1-.441.104 4.316 4.316 0 0 1-.347.017h-1.367Zm-.822-5.486v6.179h2.12c.514 0 .958-.072 1.333-.217.375-.144.684-.352.926-.623a2.62 2.62 0 0 0 .536-1.012c.116-.404.173-.866.173-1.385 0-.992-.256-1.73-.77-2.215-.513-.485-1.246-.727-2.198-.727h-2.12Zm9.252 3.513h-2.57c.011-.173.049-.334.112-.484.064-.156.15-.292.26-.407.11-.115.24-.205.39-.268.155-.07.328-.104.518-.104.185 0 .352.034.502.104.156.063.289.152.398.268.116.11.205.242.269.398.069.156.11.32.12.493Zm.71 1.246h-.727c-.064.295-.197.514-.399.658-.196.144-.45.216-.761.216-.242 0-.453-.04-.632-.12a1.264 1.264 0 0 1-.441-.32 1.311 1.311 0 0 1-.251-.468 1.814 1.814 0 0 1-.07-.563h3.35a3.428 3.428 0 0 0-.078-.857 2.364 2.364 0 0 0-.33-.83 1.866 1.866 0 0 0-.63-.623c-.26-.168-.59-.251-.987-.251-.306 0-.589.057-.848.173a2.042 2.042 0 0 0-.667.484 2.276 2.276 0 0 0-.433.736 2.693 2.693 0 0 0-.155.935c.011.34.06.654.147.943.092.288.228.536.407.744.178.208.398.37.657.485.266.115.577.173.935.173.508 0 .929-.127 1.263-.381.335-.254.551-.632.65-1.134Zm1.454.009h-.735c.011.277.069.514.173.71.103.19.242.346.415.467.173.115.372.199.597.25.225.053.462.079.71.079.225 0 .45-.023.675-.07.23-.04.435-.115.614-.224.185-.11.332-.254.442-.433.115-.179.173-.404.173-.675a1.027 1.027 0 0 0-.459-.891 1.615 1.615 0 0 0-.467-.234 5.233 5.233 0 0 0-.537-.147c-.173-.04-.346-.078-.52-.113a3.792 3.792 0 0 1-.466-.138 1.253 1.253 0 0 1-.346-.208.435.435 0 0 1-.13-.32c0-.115.028-.208.086-.277a.562.562 0 0 1 .225-.173c.092-.046.194-.078.303-.095.115-.018.228-.026.338-.026.12 0 .239.014.354.043.121.023.231.063.33.121a.72.72 0 0 1 .354.589h.736a1.61 1.61 0 0 0-.174-.675 1.11 1.11 0 0 0-.398-.433 1.48 1.48 0 0 0-.562-.225 3.32 3.32 0 0 0-.701-.07 2.39 2.39 0 0 0-.597.079 1.707 1.707 0 0 0-.537.225 1.256 1.256 0 0 0-.39.389 1.096 1.096 0 0 0-.146.58c0 .288.072.513.216.675.144.161.323.288.537.38.219.087.456.156.71.208.253.046.487.101.7.165.22.057.401.135.545.233a.49.49 0 0 1 .217.433.56.56 0 0 1-.104.346.67.67 0 0 1-.268.2c-.104.045-.22.077-.347.095a2.693 2.693 0 0 1-.363.025 2.25 2.25 0 0 1-.441-.043 1.36 1.36 0 0 1-.381-.138.85.85 0 0 1-.268-.269.854.854 0 0 1-.113-.415Zm7.088-1.627h.761a1.73 1.73 0 0 0-.208-.684 1.498 1.498 0 0 0-.423-.484 1.632 1.632 0 0 0-.589-.277 2.542 2.542 0 0 0-.71-.095c-.351 0-.66.063-.925.19a1.825 1.825 0 0 0-.667.51 2.161 2.161 0 0 0-.39.762c-.086.289-.13.6-.13.935 0 .334.044.643.13.926.093.277.226.516.399.718a1.8 1.8 0 0 0 .657.467c.266.11.569.165.91.165.57 0 1.02-.15 1.35-.45.334-.3.541-.727.622-1.281h-.753c-.046.346-.173.614-.38.805-.202.19-.485.285-.848.285-.231 0-.43-.046-.598-.138a1.178 1.178 0 0 1-.406-.364 1.752 1.752 0 0 1-.234-.527 2.633 2.633 0 0 1-.07-.606c0-.225.024-.442.07-.65.046-.213.121-.4.225-.562.11-.161.254-.291.433-.39.178-.097.4-.146.666-.146.312 0 .56.078.744.233.185.156.306.375.364.658Zm5.747 3.02c-.127.075-.303.113-.528.113a.66.66 0 0 1-.459-.156c-.11-.11-.164-.286-.164-.528a1.79 1.79 0 0 1-.71.528 2.353 2.353 0 0 1-.865.156c-.202 0-.395-.023-.58-.07a1.341 1.341 0 0 1-.467-.216 1.087 1.087 0 0 1-.32-.38 1.368 1.368 0 0 1-.113-.58c0-.254.043-.462.13-.623.086-.162.199-.292.337-.39.145-.104.306-.182.485-.233a6.12 6.12 0 0 1 .563-.13c.201-.04.392-.07.57-.087.185-.023.347-.052.485-.086a.878.878 0 0 0 .33-.165c.08-.075.12-.181.12-.32a.707.707 0 0 0-.095-.39.584.584 0 0 0-.234-.224.91.91 0 0 0-.32-.104 2.33 2.33 0 0 0-.346-.026c-.312 0-.571.06-.779.181-.208.116-.32.338-.337.667h-.736c.012-.277.07-.51.173-.701.104-.19.242-.343.416-.459.173-.12.369-.207.588-.26.225-.051.465-.077.718-.077.202 0 .401.014.597.043.202.029.384.09.546.182.161.086.291.21.389.372.098.161.147.372.147.632v2.302c0 .173.009.3.026.38.023.081.092.121.208.121a.73.73 0 0 0 .225-.043v.571Zm-1.194-2.293a.96.96 0 0 1-.364.156c-.15.029-.309.055-.476.078-.161.017-.326.04-.493.069a1.712 1.712 0 0 0-.45.121.837.837 0 0 0-.329.251c-.08.104-.121.248-.121.433 0 .12.023.225.07.311.051.081.114.147.19.2.08.051.173.089.276.112.104.023.214.034.33.034.242 0 .45-.031.622-.095.173-.069.315-.153.424-.25.11-.105.19-.214.243-.33a.862.862 0 0 0 .078-.337v-.753Zm2.026-2.163v4.474h.735v-1.99c0-.29.029-.543.087-.762.057-.225.15-.416.277-.571.127-.156.294-.274.502-.355a2.08 2.08 0 0 1 .752-.121v-.78c-.398-.01-.727.07-.986.243-.26.173-.479.441-.658.805h-.017v-.943h-.692Zm6.695 4.093V8.584h-.692v.64h-.01a1.284 1.284 0 0 0-.553-.554 1.621 1.621 0 0 0-.779-.19c-.386 0-.712.075-.978.225a1.837 1.837 0 0 0-.64.562 2.18 2.18 0 0 0-.346.762c-.07.277-.104.548-.104.813 0 .306.04.597.121.874a2.2 2.2 0 0 0 .38.719c.168.201.376.363.624.484s.54.182.874.182c.288 0 .56-.064.813-.19.26-.133.453-.338.58-.615h.018v.294c0 .248-.026.476-.078.684a1.34 1.34 0 0 1-.234.528 1.1 1.1 0 0 1-.415.346c-.168.087-.372.13-.615.13a1.79 1.79 0 0 1-.38-.043 1.337 1.337 0 0 1-.373-.122.985.985 0 0 1-.285-.225.558.558 0 0 1-.121-.337h-.736c.012.242.075.447.19.614.116.168.26.303.433.407.179.104.375.179.589.225.219.046.432.07.64.07.715 0 1.24-.183 1.575-.546.335-.363.502-.912.502-1.644Zm-2.06-.216c-.242 0-.444-.05-.605-.148a1.224 1.224 0 0 1-.39-.398 1.774 1.774 0 0 1-.208-.553 3.082 3.082 0 0 1-.06-.606c0-.214.023-.419.069-.615.052-.196.13-.369.234-.519.11-.15.248-.268.415-.355.167-.092.37-.138.606-.138.23 0 .427.046.588.138.162.093.292.217.39.372.104.15.179.32.225.51.046.191.069.385.069.58 0 .208-.026.416-.078.624a1.799 1.799 0 0 1-.225.562 1.25 1.25 0 0 1-.415.398 1.196 1.196 0 0 1-.615.147Zm7.306.58c-.127.074-.303.112-.528.112a.66.66 0 0 1-.459-.156c-.11-.11-.164-.286-.164-.528a1.791 1.791 0 0 1-.71.528 2.353 2.353 0 0 1-.865.156c-.202 0-.395-.023-.58-.07a1.341 1.341 0 0 1-.467-.216 1.087 1.087 0 0 1-.32-.38 1.368 1.368 0 0 1-.113-.58c0-.254.044-.462.13-.623.087-.162.2-.292.338-.39a1.57 1.57 0 0 1 .484-.233 6.12 6.12 0 0 1 .563-.13c.202-.04.392-.07.57-.087.185-.023.347-.052.485-.086a.878.878 0 0 0 .33-.165c.08-.075.12-.181.12-.32a.708.708 0 0 0-.095-.39.584.584 0 0 0-.233-.224.91.91 0 0 0-.32-.104 2.33 2.33 0 0 0-.347-.026c-.311 0-.57.06-.779.181-.207.116-.32.338-.337.667h-.736c.012-.277.07-.51.173-.701.104-.19.243-.343.416-.459.173-.12.369-.207.588-.26.225-.051.465-.077.718-.077.202 0 .401.014.598.043.202.029.383.09.545.182.161.086.291.21.39.372.097.161.146.372.146.632v2.302c0 .173.009.3.026.38.023.081.093.121.208.121a.73.73 0 0 0 .225-.043v.571Zm-1.194-2.294a.96.96 0 0 1-.364.156c-.15.029-.308.055-.476.078-.161.017-.326.04-.493.069a1.712 1.712 0 0 0-.45.121.836.836 0 0 0-.329.251c-.08.104-.12.248-.12.433 0 .12.022.225.068.311.052.081.116.147.19.2.081.051.174.089.278.112.104.023.213.034.329.034.242 0 .45-.031.623-.095.173-.069.314-.153.424-.25.11-.105.19-.214.242-.33a.862.862 0 0 0 .078-.337v-.753Zm4.677-3.868v6.179h.735v-6.18h-.735Zm6.011 6.161c-.127.075-.303.113-.528.113a.66.66 0 0 1-.458-.156c-.11-.11-.165-.286-.165-.528a1.791 1.791 0 0 1-.71.528 2.353 2.353 0 0 1-.865.156c-.202 0-.395-.023-.58-.07a1.34 1.34 0 0 1-.467-.216 1.086 1.086 0 0 1-.32-.38 1.368 1.368 0 0 1-.113-.58c0-.254.044-.462.13-.623.087-.162.2-.292.338-.39a1.57 1.57 0 0 1 .484-.233 6.12 6.12 0 0 1 .563-.13c.202-.04.392-.07.571-.087.185-.023.346-.052.485-.086a.879.879 0 0 0 .328-.165c.081-.075.122-.181.122-.32a.708.708 0 0 0-.095-.39.584.584 0 0 0-.234-.224.91.91 0 0 0-.32-.104 2.33 2.33 0 0 0-.346-.026c-.312 0-.572.06-.78.181-.207.116-.32.338-.337.667h-.735c.011-.277.069-.51.173-.701.103-.19.242-.343.415-.459.173-.12.37-.207.589-.26.224-.051.464-.077.718-.077.202 0 .4.014.597.043.202.029.383.09.545.182.162.086.291.21.39.372.098.161.147.372.147.632v2.302c0 .173.008.3.026.38.023.081.092.121.207.121a.73.73 0 0 0 .225-.043v.571Zm-1.194-2.293a.959.959 0 0 1-.363.156 9.1 9.1 0 0 1-.476.078c-.162.017-.326.04-.494.069a1.712 1.712 0 0 0-.45.121.836.836 0 0 0-.329.251c-.08.104-.12.248-.12.433 0 .12.022.225.069.311.052.081.115.147.19.2.08.051.173.089.277.112.104.023.213.034.329.034.242 0 .45-.031.623-.095.173-.069.314-.153.424-.25.11-.105.19-.214.242-.33a.86.86 0 0 0 .078-.337v-.753Zm8.597 2.293c-.127.075-.303.113-.528.113a.66.66 0 0 1-.459-.156c-.11-.11-.164-.286-.164-.528a1.79 1.79 0 0 1-.71.528 2.353 2.353 0 0 1-.865.156c-.202 0-.395-.023-.58-.07a1.341 1.341 0 0 1-.467-.216 1.087 1.087 0 0 1-.32-.38 1.368 1.368 0 0 1-.113-.58c0-.254.043-.462.13-.623.087-.162.2-.292.338-.39.144-.104.305-.182.484-.233a6.12 6.12 0 0 1 .563-.13c.202-.04.392-.07.57-.087.185-.023.347-.052.485-.086a.878.878 0 0 0 .33-.165c.08-.075.12-.181.12-.32a.707.707 0 0 0-.095-.39.584.584 0 0 0-.233-.224.91.91 0 0 0-.32-.104 2.33 2.33 0 0 0-.347-.026c-.311 0-.57.06-.779.181-.207.116-.32.338-.337.667h-.736c.012-.277.07-.51.173-.701.104-.19.243-.343.416-.459.173-.12.369-.207.588-.26.225-.051.465-.077.719-.077.201 0 .4.014.597.043.202.029.383.09.545.182.161.086.291.21.39.372.097.161.146.372.146.632v2.302c0 .173.009.3.026.38.023.081.093.121.208.121a.73.73 0 0 0 .225-.043v.571Zm-1.194-2.293a.96.96 0 0 1-.364.156c-.15.029-.308.055-.476.078-.161.017-.326.04-.493.069a1.712 1.712 0 0 0-.45.121.837.837 0 0 0-.329.251c-.08.104-.12.248-.12.433 0 .12.022.225.068.311.052.081.116.147.19.2.082.051.174.089.278.112.103.023.213.034.329.034.242 0 .45-.031.623-.095.173-.069.314-.153.424-.25.11-.105.19-.214.242-.33a.862.862 0 0 0 .078-.337v-.753Zm2.078-2.163v6.178h.735V12.46h.017c.081.133.18.246.295.338.12.086.248.156.38.208.133.052.266.09.399.112.138.023.262.035.372.035.34 0 .637-.06.891-.182.26-.121.473-.286.64-.493.174-.214.3-.462.381-.744.087-.283.13-.583.13-.9 0-.318-.043-.618-.13-.9a2.18 2.18 0 0 0-.39-.745 1.77 1.77 0 0 0-.64-.519 1.99 1.99 0 0 0-.9-.19c-.311 0-.597.057-.856.173-.26.11-.45.288-.572.536h-.017v-.605h-.735Zm3.461 2.198c0 .219-.023.432-.069.64a1.697 1.697 0 0 1-.225.554 1.172 1.172 0 0 1-.415.39 1.233 1.233 0 0 1-.632.146 1.4 1.4 0 0 1-.65-.138 1.345 1.345 0 0 1-.44-.38 1.627 1.627 0 0 1-.243-.537 2.747 2.747 0 0 1-.009-1.255c.052-.202.133-.38.243-.537a1.25 1.25 0 0 1 .424-.39c.173-.097.383-.146.632-.146.236 0 .44.046.614.138.179.093.323.217.433.372.115.156.199.335.25.537.058.196.087.398.087.606Zm1.841-2.198v6.178h.736V12.46h.017c.081.133.179.246.295.338.121.086.248.156.38.208a2.082 2.082 0 0 0 .771.147c.34 0 .637-.06.891-.182a1.76 1.76 0 0 0 .64-.493c.173-.214.3-.462.381-.744.087-.283.13-.583.13-.9 0-.318-.043-.618-.13-.9a2.173 2.173 0 0 0-.389-.745 1.774 1.774 0 0 0-.641-.519 1.991 1.991 0 0 0-.9-.19c-.311 0-.597.057-.856.173-.26.11-.45.288-.572.536h-.017v-.605h-.736Zm3.462 2.198c0 .219-.023.432-.069.64a1.688 1.688 0 0 1-.225.554 1.167 1.167 0 0 1-.416.39c-.167.097-.377.146-.631.146a1.4 1.4 0 0 1-.649-.138 1.353 1.353 0 0 1-.442-.38 1.64 1.64 0 0 1-.242-.537 2.759 2.759 0 0 1-.009-1.255c.052-.202.133-.38.243-.537.109-.161.251-.291.424-.39a1.26 1.26 0 0 1 .631-.146c.237 0 .442.046.615.138.179.093.323.217.433.372.115.156.199.335.251.537.057.196.086.398.086.606ZM55.23 20.9c2.21 0 3.666 1.747 3.666 4.445 0 2.705-1.448 4.443-3.633 4.443a2.951 2.951 0 0 1-2.74-1.523h-.04v4.312h-1.787V20.992h1.73v1.447h.032a3.088 3.088 0 0 1 2.772-1.538Zm9.582 0c2.21 0 3.666 1.747 3.666 4.445 0 2.705-1.448 4.443-3.633 4.443a2.951 2.951 0 0 1-2.74-1.523h-.04v4.312h-1.788V20.992h1.73v1.447h.033a3.088 3.088 0 0 1 2.772-1.538Zm12.828-3.342c2.523 0 4.253 1.415 4.311 3.475h-1.803c-.108-1.192-1.093-1.911-2.533-1.911s-2.424.728-2.424 1.787c0 .844.629 1.34 2.168 1.721l1.315.323c2.45.58 3.468 1.564 3.468 3.31 0 2.234-1.78 3.633-4.61 3.633-2.648 0-4.435-1.366-4.551-3.526h1.83c.132 1.184 1.282 1.962 2.854 1.962 1.506 0 2.59-.778 2.59-1.845 0-.927-.654-1.482-2.201-1.862l-1.548-.373c-2.192-.53-3.21-1.555-3.21-3.22 0-2.06 1.795-3.474 4.344-3.474Zm15.101 3.327c2.525 0 4.13 1.72 4.13 4.46 0 2.746-1.597 4.46-4.13 4.46-2.531 0-4.128-1.714-4.128-4.46 0-2.74 1.613-4.46 4.128-4.46Zm14.47 0c2.409 0 3.924 1.654 3.924 4.294v.612h-6.149v.108a2.269 2.269 0 0 0 2.342 2.466 1.968 1.968 0 0 0 2.01-1.225h1.697c-.24 1.58-1.779 2.665-3.748 2.665-2.533 0-4.105-1.697-4.105-4.419 0-2.73 1.581-4.501 4.029-4.501ZM85.998 18.93v2.06h1.656v1.416h-1.656v4.799c0 .745.332 1.093 1.06 1.093a5.58 5.58 0 0 0 .587-.041v1.406c-.327.061-.66.089-.992.083-1.763 0-2.45-.662-2.45-2.35v-4.99h-1.266v-1.415h1.266v-2.06h1.795Zm-40.723-1.174 4.31 11.94h-1.96l-1.092-3.227h-4.551l-1.093 3.227H38.96l4.31-11.94h2.004Zm56.909 3.143c.206 0 .411.022.612.067v1.672a2.5 2.5 0 0 0-.803-.108 1.8 1.8 0 0 0-1.862 2.003v5.163h-1.787v-8.705h1.705v1.481h.041a2.077 2.077 0 0 1 2.094-1.572Zm-9.443 1.457c-1.448 0-2.308 1.117-2.308 2.988 0 1.886.86 2.987 2.308 2.987s2.31-1.1 2.31-2.987c0-1.88-.862-2.988-2.31-2.988Zm-37.982.067c-1.366 0-2.284 1.183-2.284 2.92 0 1.755.918 2.93 2.284 2.93 1.39 0 2.3-1.15 2.3-2.93 0-1.762-.91-2.92-2.3-2.92Zm9.581 0c-1.365 0-2.283 1.183-2.283 2.92 0 1.755.918 2.93 2.283 2.93 1.39 0 2.3-1.15 2.3-2.93 0-1.762-.91-2.92-2.3-2.92Zm-20.058-2.681h-.05l-1.779 5.238h3.608l-1.779-5.238Zm62.929 2.59a2.203 2.203 0 0 0-2.217 2.209h4.353a2.097 2.097 0 0 0-2.136-2.21Z" fill="#fff"/></svg>