<svg width="101" height="32" xmlns="http://www.w3.org/2000/svg"><g fill="#000" fill-rule="nonzero"><path d="M59.865 16.04l-3.217 2.216c-7.365-8.05-14.79-12.46-22.28-13.23-7.45-.715-12.785.035-16 2.25-2.414 1.664-2.88 3.567-1.403 5.71.221.323.507.68.856 1.072.883 1.052 1.454 1.766 1.712 2.14 1.293 1.877 1.797 4.1 1.511 6.668-.232 2.532-1.608 4.666-4.127 6.403-2.949 2.03-5.783 2.68-8.503 1.945-2.667-.772-4.757-2.257-6.272-4.454C-.074 23.543-.57 20.01.652 16.164c1.223-3.847 4.113-7.341 8.67-10.481C16.452.77 24.868-.957 34.57.5c9.792 1.474 18.224 6.654 25.295 15.539z"/><path d="M100.777 16.04l-3.217 2.216c-7.365-8.05-14.792-12.46-22.28-13.23-7.45-.715-12.785.035-16.002 2.25-2.412 1.664-2.879 3.567-1.402 5.71.222.323.507.68.856 1.072.883 1.052 1.454 1.766 1.713 2.14 1.293 1.877 1.796 4.1 1.511 6.668-.232 2.532-1.608 4.666-4.128 6.403-2.948 2.03-5.782 2.68-8.503 1.945-2.666-.772-4.757-2.257-6.27-4.454-2.218-3.217-2.714-6.75-1.49-10.596 1.222-3.847 4.112-7.341 8.668-10.481C57.363.77 65.78-.957 75.481.5c9.793 1.474 18.225 6.654 25.296 15.539z"/></g></svg>
