<svg width="101" height="101" viewBox="0 0 101 101" fill="none" xmlns="http://www.w3.org/2000/svg">
<path d="M44.9112 3.15005C47.9055 -0.144983 53.0945 -0.144981 56.0888 3.15005V3.15005C58.2644 5.54411 61.728 6.28474 64.6909 4.98617V4.98617C68.7533 3.20567 73.4856 5.35853 74.8833 9.56802V9.56802C75.9033 12.6397 78.7749 14.7601 82.0113 14.7902V14.7902C86.4476 14.8315 89.8913 18.7333 89.4721 23.15V23.15C89.1656 26.3799 90.9287 29.4987 93.8756 30.856V30.856C97.9218 32.7196 99.5017 37.6706 97.3254 41.5576V41.5576C95.7361 44.3962 96.0992 47.9566 98.2424 50.4041V50.4041C101.185 53.7647 100.651 58.929 97.0738 61.6038V61.6038C94.4715 63.5493 93.3904 66.9624 94.3576 70.0642V70.0642C95.6806 74.3068 93.1172 78.8333 88.7809 79.8058V79.8058C85.6195 80.5149 83.2492 83.1964 82.8842 86.4158V86.4158C82.3848 90.821 78.2057 93.9207 73.8624 93.031V93.031C70.6934 92.3819 67.4515 93.8444 65.8197 96.6374V96.6374C63.5788 100.473 58.5049 101.577 54.8986 98.9835V98.9835C52.2707 97.0935 48.7293 97.0935 46.1014 98.9835V98.9835C42.4951 101.577 37.4212 100.473 35.1803 96.6374V96.6374C33.5485 93.8444 30.3066 92.3819 27.1376 93.031V93.031C22.7943 93.9207 18.6152 90.821 18.1158 86.4158V86.4158C17.7508 83.1964 15.3805 80.5149 12.2191 79.8058V79.8058C7.88279 78.8333 5.31936 74.3068 6.64236 70.0642V70.0642C7.60964 66.9624 6.52848 63.5493 3.92624 61.6038V61.6038C0.348673 58.929 -0.185115 53.7647 2.75763 50.4041V50.4041C4.90083 47.9566 5.26392 44.3962 3.67461 41.5576V41.5576C1.49831 37.6706 3.07815 32.7196 7.12438 30.856V30.856C10.0713 29.4987 11.8344 26.3799 11.5279 23.15V23.15C11.1087 18.7333 14.5524 14.8315 18.9887 14.7902V14.7902C22.2251 14.7601 25.0967 12.6397 26.1167 9.56802V9.56802C27.5144 5.35853 32.2467 3.20567 36.3091 4.98617V4.98617C39.272 6.28474 42.7356 5.54411 44.9112 3.15005V3.15005Z" fill="#FECD4C"/>
</svg>
