<svg width="230" height="230" fill="none" xmlns="http://www.w3.org/2000/svg"><path d="M125.863 93.298a.772.772 0 0 0-.757.925.776.776 0 0 0 1.055.563.77.77 0 0 0 .478-.714.773.773 0 0 0-.776-.774Zm0-9.39a.772.772 0 0 0-.757.925.775.775 0 0 0 1.055.563.77.77 0 0 0 .478-.715.773.773 0 0 0-.776-.774Zm0 18.782a.771.771 0 0 0-.757.926.78.78 0 0 0 .608.607.776.776 0 0 0 .866-1.056.777.777 0 0 0-.717-.477Zm3.22 15.392a.773.773 0 1 0 .002-1.547.773.773 0 0 0-.002 1.547Zm0-20.33a.775.775 0 0 0-.759.924.777.777 0 0 0 1.055.564.772.772 0 0 0 .42-1.011.778.778 0 0 0-.716-.48v.003Zm0 29.722a.773.773 0 1 0 .002-1.547.773.773 0 0 0-.002 1.547Zm-3.22-15.392a.78.78 0 0 0-.714.479.776.776 0 0 0 .565 1.054.776.776 0 0 0 .925-.759.767.767 0 0 0-.228-.548.775.775 0 0 0-.548-.226Zm0 9.391a.771.771 0 0 0-.757.926.773.773 0 0 0 1.402.277.771.771 0 0 0-.645-1.203Zm6.44-26.628a.774.774 0 1 0 0-1.547.774.774 0 0 0 0 1.547Zm-.363-12.393a1.464 1.464 0 0 0-.241.105 24.488 24.488 0 0 0-2.946-2.83l-3.567-2.702c.073-.581.109-1.167.109-1.753 0-4.68-2.208-8.214-5.139-8.214H89.978c-2.929 0-5.139 3.527-5.139 8.214s2.21 8.215 5.14 8.215h.615c-6.394 5.421-4.88 16.921-4.808 17.44a1.35 1.35 0 0 0 1.337 1.163h24.272c.193.001.383-.041.559-.121a1.344 1.344 0 0 0 .778-1.415c-.017-.12-1.595-12.045 5.093-15.86a1.77 1.77 0 0 1 1.877 0c1.139.657 1.875 2.254 1.875 4.058v34.392c0 1.642-.777 2.699-1.497 2.993-.105.043-.215.07-.328.08h-.202a1.39 1.39 0 0 1-.822-.465c-1.426-1.458-1.983-4.228-1.983-9.876v-19.07a1.348 1.348 0 0 0-2.287-.923 1.35 1.35 0 0 0-.412.924v19.069c0 4.527.311 7.959 1.682 10.341H95.286a1.422 1.422 0 0 1-.821-.465c-1.426-1.458-1.981-4.228-1.981-9.876V105.09a1.35 1.35 0 1 0-2.7 0v10.786c0 5.524.46 9.42 2.75 11.764.494.518 1.11.904 1.791 1.122.194.102.41.155.63.155h2.467v4.713a1.35 1.35 0 0 0 1.349 1.35h.011v34.563a1.35 1.35 0 0 0 1.349 1.35h9.946a1.351 1.351 0 0 0 1.35-1.35v-27.344l3.184 1.835v25.509a1.351 1.351 0 0 0 1.351 1.35h10.966a1.353 1.353 0 0 0 1.35-1.35V134.98h3.021a1.35 1.35 0 0 0 1.351-1.35v-13.373a3.951 3.951 0 0 0 1.843-.601c1.193-.705 2.666-2.221 2.895-4.17.228-1.948 2.349-15.523 2.717-17.87.874-1.17 3.678-5.391 1.972-9.335-1.405-4.185-4.076-5.563-6.087-5.974a8.459 8.459 0 0 0-4.05.145Zm-22.032 16.94H88.352c-.21-3.11-.243-11.591 5.204-14.696a1.346 1.346 0 0 0 .68-1.208h20.63c-5.095 4.308-5.17 12.486-4.958 15.905Zm10.241-18.603c-.985 0-2.438-2.145-2.438-5.508s1.444-5.509 2.438-5.509c.994 0 2.44 2.146 2.44 5.509 0 3.362-1.439 5.5-2.435 5.5l-.005.008Zm7.732 22.671a1.35 1.35 0 0 0-.235 1.418c-.002.104.009.207.033.308l.629 2.725a.755.755 0 0 0 .079.329l1.564 6.852v17.187h-3.654a.774.774 0 1 0-.894-1.266.777.777 0 0 0-.27.883c.056.156.16.291.298.383h-5.572a.772.772 0 0 0 .308-.869.77.77 0 0 0-.741-.549.775.775 0 0 0-.433 1.418h-5.574a.77.77 0 0 0 .307-.867.779.779 0 0 0-.74-.548.771.771 0 0 0-.73 1.032.767.767 0 0 0 .297.383h-5.573a.774.774 0 1 0-1.174-.869.77.77 0 0 0 .308.869h-5.571a.772.772 0 0 0-.414-1.412v-1.95H119.671a3.798 3.798 0 0 0 1.431-.286 4.48 4.48 0 0 0 1.632-1.173.772.772 0 0 0 .668-.929 6.796 6.796 0 0 0 .877-3.399V88.749c0-2.346-.874-4.45-2.332-5.75 1.023-.572 1.877-1.63 2.464-3.02 2.446 1.418 8.673 5.867 10.723 15.321l-7.253 8.16ZM90.984 58.374l5.257 1.748a1.34 1.34 0 0 0 .634.053l3.792-.594 1.766 4.706a1.358 1.358 0 0 0 .7.788 1.355 1.355 0 0 0 1.511-.242 1.354 1.354 0 0 0 .315-1.496l-1.568-4.183 14.089-2.206c.143-.023.282-.07.41-.138l9.611-2.882.657 2.21-2.714.821c-2.793.835-3.997 3.335-3.087 6.368a1.354 1.354 0 0 0 1.293.963 1.347 1.347 0 0 0 1.188-.71c.17-.316.208-.685.105-1.028-.48-1.597-.049-2.61 1.277-3.007l2.714-.821.493 1.654a10.624 10.624 0 0 1-2.105 9.989 1.36 1.36 0 0 0-.346.992 1.337 1.337 0 0 0 .47.94 1.347 1.347 0 0 0 1.928-.178 13.308 13.308 0 0 0 3.195-9.344 6.287 6.287 0 0 0 4.316-6.437l.986-.297a1.349 1.349 0 0 0 .683-2.163 1.359 1.359 0 0 0-.929-.485c-.18-.015-.36.006-.531.062l-.986.297a6.298 6.298 0 0 0-6.67-3.111c-2.15-6.555-5.121-10.602-9.059-12.351-4.166-1.852-8.786-.884-12.755.307-6.433 1.93-9.093 6.644-9.873 8.387-.465.049-.939.111-1.423.187-7.426 1.163-11.291 3.16-11.489 5.937-.2 2.727 3.227 4.367 6.145 5.264Zm17.414-17.19c4.955-1.486 8.214-1.613 10.884-.425 3.174 1.41 5.645 4.868 7.534 10.554l-9.295 2.793-5.029-3.925-.012-.008c-.205-.165-4.365-3.251-11.6-3.332 1.088-1.75 3.347-4.404 7.521-5.656h-.003Zm19.91 47.95a.773.773 0 1 0 1.547 0 .773.773 0 0 0-1.547 0Zm-25.58 30.343c.359 0 .702-.143.955-.396l4.789-4.789a1.353 1.353 0 0 0 .293-1.471 1.353 1.353 0 0 0-.293-.438l-4.789-4.789a1.351 1.351 0 0 0-1.909 0l-4.787 4.789a1.345 1.345 0 0 0-.293 1.471c.068.164.167.313.293.438l4.787 4.789a1.358 1.358 0 0 0 .956.396h-.002Zm55.887 76.317h-14.644l-.069-3.286a1.35 1.35 0 0 0-1.285-1.263c-.09-2.004-.716-5.504-3.816-7.12l-.02-.01a6.782 6.782 0 0 0-.687-.345l-.985-.365.205-.478s.535-1.112-.527-1.666a1.348 1.348 0 0 0-1.768.631l-.482.978a16.075 16.075 0 0 1-1.15-.299l.219-.299a1.357 1.357 0 0 0 .095-1.523 1.37 1.37 0 0 0-.361-.397 1.379 1.379 0 0 0-.487-.225 1.368 1.368 0 0 0-1.038.175 1.358 1.358 0 0 0-.386.373l-.443.606c-1.208-1.088-2.024-2.893-1.995-6.079a1.34 1.34 0 0 0-.395-.967 1.346 1.346 0 0 0-.968-.394l-10.95.115h-.153l-.075.011-.058.012-.069.018-.059.018-.062.023-.061.024-.058.028-.059.031-.052.033-.058.038-.049.038-.053.041-.047.044-.046.045-.045.051-.039.046c-.015.018-.028.037-.041.055-.013.019-.025.033-.035.05l-.036.061-.03.052-.027.061c-.009.02-.02.039-.028.061l-.02.059c0 .021-.017.044-.023.067-.005.019-.01.038-.013.058a.611.611 0 0 0-.017.074v.057c0 .018-.008.053-.01.077v.017l-.783 11.915a1.35 1.35 0 0 0 1.258 1.436h.091a1.352 1.352 0 0 0 1.345-1.263l.695-10.659 8.379-.089c.231 3.488 1.478 5.586 3.062 6.9l-.593.809a1.342 1.342 0 0 0-.095 1.522 1.356 1.356 0 0 0 1.384.64 1.344 1.344 0 0 0 .888-.566l.755-1.03c.515.207 1.042.38 1.579.52l-.328.67c-.086.16-.138.335-.154.515a1.35 1.35 0 0 0 2.575.678l.631-1.279.24.058 1.291.54c1.02.646 1.702 1.739 2.068 3.309.106.462.18.931.221 1.403H115.48a1.354 1.354 0 0 0-1.339 1.183l-.419 3.374h-2.078l.437-2.878a1.347 1.347 0 0 0-1.314-1.679H99.472l.633-14.6 8.676-.089c.172 2.709.966 4.779 2.408 6.302a1.354 1.354 0 0 0 1.881.025 1.353 1.353 0 0 0 .081-1.88c-1.173-1.238-1.732-3.136-1.707-5.797a1.36 1.36 0 0 0-.396-.968 1.342 1.342 0 0 0-.968-.394l-11.283.115a1.352 1.352 0 0 0-1.334 1.291l-.698 16.242c-.005.125.007.251.038.372-.11.171-.18.364-.206.566l-.13 1.038-.156 2.336H74.258a1.396 1.396 0 1 0 0 2.793h84.359a1.396 1.396 0 0 0 0-2.793h-.002Z" fill="#000"/></svg>
