<svg width="230" height="230" fill="none" xmlns="http://www.w3.org/2000/svg"><path d="M125.985 116.955a.754.754 0 1 0-.003-1.509.754.754 0 0 0 .003 1.509Zm0-18.311a.753.753 0 0 0 .741-.904.752.752 0 0 0-.594-.593.756.756 0 1 0-.147 1.497Zm0 9.155a.753.753 0 1 0-.29-1.45.755.755 0 0 0-.244 1.23c.142.141.334.22.534.22Zm0 18.312a.76.76 0 0 0 .738-.902.755.755 0 1 0-1.436.437.76.76 0 0 0 .698.465Zm0 9.155a.753.753 0 1 0-.29-1.45.755.755 0 0 0-.244 1.23c.07.07.153.126.245.163.092.038.19.058.289.057Zm3.143 4.816a.755.755 0 1 0-.289-1.451.758.758 0 0 0-.408.985.75.75 0 0 0 .697.466Zm3.139 4.34a.752.752 0 0 0 .738-.902.75.75 0 0 0-.593-.592.754.754 0 1 0-.149 1.494h.004Zm-6.277 0a.754.754 0 1 0-.005 0h.005Zm3.138-40.963a.754.754 0 0 0 .743-.902.754.754 0 0 0-1.03-.552.759.759 0 0 0-.002 1.396c.092.038.19.058.289.058Zm0 54.934a.753.753 0 1 0 0-1.507.753.753 0 0 0 0 1.507Zm0-27.467a.753.753 0 1 0 0-1.507.753.753 0 0 0 0 1.507Zm0-9.156a.76.76 0 0 0 .743-.902.755.755 0 1 0-.743.902Zm-6.277-9.155a.759.759 0 0 0 .743-.902.755.755 0 1 0-.748.902h.005Zm-3.138-13.965a.759.759 0 0 0 .698-.467.76.76 0 0 0-.164-.823.757.757 0 0 0-1.29.536.753.753 0 0 0 .751.748l.005.006Zm-3.14 3.306a.749.749 0 0 0-.42.127.752.752 0 0 0 .272 1.37.753.753 0 0 0 .776-.323.745.745 0 0 0 .126-.42.751.751 0 0 0-.467-.704.77.77 0 0 0-.292-.057l.005.007Zm3.14 5.85a.751.751 0 0 0 .695-.467.753.753 0 0 0-1.324-.706.753.753 0 0 0-.127.419.753.753 0 0 0 .751.747l.005.007Zm12.554 64.091a.76.76 0 0 0 .699-.467.758.758 0 0 0-1.328-.707.756.756 0 0 0-.126.42.754.754 0 0 0 .751.748l.004.006Zm0-9.155a.76.76 0 0 0 .699-.467.761.761 0 0 0-.165-.824.752.752 0 0 0-1.163.116.758.758 0 0 0-.126.42.757.757 0 0 0 .751.748l.004.007Zm-9.421-31.816a.753.753 0 1 0 0-1.507.753.753 0 0 0 0 1.507Zm9.417 4.34a.75.75 0 0 0 .737-.902.752.752 0 0 0-1.366-.27.75.75 0 0 0 .094.952.756.756 0 0 0 .535.22Zm0 45.78a.751.751 0 0 0 .695-.466.76.76 0 0 0-.164-.822.758.758 0 0 0-.822-.162.75.75 0 0 0 .291 1.447v.003Zm-9.417-40.964a.753.753 0 0 0 .739-.902.76.76 0 0 0-.592-.592.757.757 0 0 0-.774.321.751.751 0 0 0 .093.952.753.753 0 0 0 .534.221Zm0-18.312a.748.748 0 0 0 .699-.465.753.753 0 0 0-.551-1.032.753.753 0 0 0-.902.743.75.75 0 0 0 .754.754Zm0-18.311a.757.757 0 1 0 0-1.513.757.757 0 0 0 0 1.513Zm6.282 9.156a.754.754 0 0 0 .743-.902.756.756 0 1 0-.743.902Zm12.555-9.156a.757.757 0 1 0-.005 0h.005Zm3.134 31.807a.753.753 0 1 0 0-1.507.753.753 0 0 0 0 1.507Zm-3.139-22.651a.757.757 0 1 0 0-1.513.757.757 0 0 0 0 1.513Zm0 9.155a.748.748 0 0 0 .699-.465.753.753 0 0 0-.551-1.032.753.753 0 0 0-.902.743.75.75 0 0 0 .754.754Zm-9.415 4.341a.76.76 0 0 0 .695-.467.751.751 0 0 0-.986-.984.753.753 0 0 0-.244 1.23.759.759 0 0 0 .535.221Zm9.415 4.815a.753.753 0 1 0 0-1.507.753.753 0 0 0 0 1.507Zm3.139-4.815a.753.753 0 1 0-.001-1.507.753.753 0 0 0 .001 1.507Zm3.138-22.652a.754.754 0 0 0 .743-.902.754.754 0 0 0-1.369-.274.752.752 0 0 0-.071.709.766.766 0 0 0 .163.246.761.761 0 0 0 .534.221Zm-3.138 13.496a.754.754 0 1 0-.003-1.509.754.754 0 0 0 .003 1.509Zm6.276-18.311a.752.752 0 0 0 .7-.466.76.76 0 0 0-.164-.824.76.76 0 0 0-.824-.164.757.757 0 0 0 .288 1.454Zm0 9.155a.753.753 0 1 0 0-1.507.753.753 0 0 0 0 1.507Zm-6.276 0a.753.753 0 1 0 0-1.507.753.753 0 0 0 0 1.507Zm0-9.155a.753.753 0 0 0 .741-.904.752.752 0 0 0-.594-.593.756.756 0 1 0-.147 1.497Zm-3.139 41.438a.753.753 0 0 0 .739-.902.76.76 0 0 0-.592-.592.757.757 0 0 0-.774.321.751.751 0 0 0 .093.952.753.753 0 0 0 .534.221Zm-6.278 0a.759.759 0 0 0 .697-.466.756.756 0 0 0-.549-1.028.756.756 0 0 0-.845 1.028.753.753 0 0 0 .697.466Zm0-9.156a.751.751 0 0 0 .697-.466.753.753 0 0 0-1.324-.707.761.761 0 0 0-.069.707.75.75 0 0 0 .696.466Zm3.14-32.282a.756.756 0 1 0 0-1.511.756.756 0 0 0 0 1.51Zm-6.277 9.155a.75.75 0 0 0 .737-.902.752.752 0 0 0-1.366-.27.75.75 0 0 0 .095.952c.141.141.333.22.534.22Zm0 9.156a.751.751 0 0 0 .695-.467.76.76 0 0 0-.164-.821.758.758 0 0 0-.822-.162.75.75 0 0 0-.243 1.229.751.751 0 0 0 .534.221Zm3.137-4.34a.76.76 0 0 0 .7-.466.757.757 0 0 0-1.326-.71.755.755 0 0 0 .626 1.176Zm0 9.155a.75.75 0 0 0 .7-.465.761.761 0 0 0-.164-.825.748.748 0 0 0-.824-.163.751.751 0 0 0-.466.699.755.755 0 0 0 .754.754Zm3.14-4.815a.749.749 0 0 0 .695-.467.753.753 0 0 0-1.324-.706.753.753 0 0 0 .629 1.173Zm0-9.156a.748.748 0 0 0 .695-.466.757.757 0 0 0-.164-.821.752.752 0 0 0-1.16.115.75.75 0 0 0 .095.952c.142.141.334.22.534.22Zm-3.14-4.34a.76.76 0 0 0 .7-.465.76.76 0 0 0-.55-1.032.76.76 0 0 0-.776.321.76.76 0 0 0 .093.955.757.757 0 0 0 .533.221Zm3.14 22.652a.757.757 0 0 0 .738-.902.76.76 0 0 0-.593-.592.757.757 0 0 0-.774.321.753.753 0 0 0 .629 1.173Zm0 9.155a.748.748 0 0 0 .695-.466.757.757 0 0 0-.164-.821.752.752 0 0 0-1.16.115.75.75 0 0 0 .095.952c.07.07.153.126.245.163.092.038.19.058.289.057Zm0 9.156a.749.749 0 0 0 .695-.467.753.753 0 0 0-1.324-.706.753.753 0 0 0 .629 1.173Zm-47.081 30.774a.755.755 0 1 0-.002 1.511.755.755 0 0 0 .002-1.511Zm28.249 4.342a.753.753 0 1 0 0 1.507.753.753 0 0 0 0-1.507Zm0 9.156a.753.753 0 1 0 0 1.507.753.753 0 0 0 0-1.507Zm-3.14-22.654a.757.757 0 1 0 0 1.513.757.757 0 0 0 0-1.513Zm0-9.155a.753.753 0 1 0 .754.754.754.754 0 0 0-.754-.746v-.008Zm6.278 36.622a.76.76 0 0 0-.7.466.757.757 0 0 0 1.326.71.755.755 0 0 0-.626-1.176Zm-3.138-32.282a.754.754 0 0 0-.743.902.756.756 0 1 0 .743-.902Zm0 9.156a.753.753 0 0 0-.743.902.758.758 0 0 0 1.03.552.755.755 0 0 0-.287-1.454Zm-3.14 13.964a.759.759 0 0 0-.743.902.755.755 0 0 0 1.497-.146.751.751 0 0 0-.754-.749v-.007Zm-3.137-13.964a.759.759 0 0 0-.7.465.76.76 0 0 0 .163.824.761.761 0 0 0 1.163-.113.76.76 0 0 0-.093-.955.753.753 0 0 0-.533-.221Zm0 9.157a.751.751 0 0 0-.697.466.753.753 0 0 0 1.323.707.754.754 0 0 0-.626-1.173Zm0 9.156a.751.751 0 0 0-.697.465.757.757 0 0 0 .163.822.76.76 0 0 0 .822.163.754.754 0 0 0-.288-1.45Zm0-27.469a.76.76 0 0 0-.704.46.759.759 0 0 0 .542 1.036.76.76 0 0 0 .779-.316.756.756 0 0 0-.617-1.18Zm9.415 23.127a.75.75 0 0 0-.7.465.76.76 0 0 0 .163.824.752.752 0 0 0 .824.165.755.755 0 0 0-.287-1.454Zm-6.278-9.156a.757.757 0 1 0 0 1.513.757.757 0 0 0 0-1.513Zm0 18.311a.759.759 0 0 0-.743.902.755.755 0 1 0 .743-.902Zm9.417-13.964a.753.753 0 1 0 .754.754.741.741 0 0 0-.219-.536.74.74 0 0 0-.535-.223v.005Zm18.832 10.664a.753.753 0 1 0-.755-.754.752.752 0 0 0 .755.749v.005Zm3.138 4.815a.76.76 0 0 0 .7-.466.76.76 0 0 0-.164-.824.752.752 0 0 0-1.163.116.75.75 0 0 0 .096.95c.141.14.332.219.531.219v.005Zm-6.277-9.156a.748.748 0 0 0 .699-.465.753.753 0 0 0-.551-1.032.753.753 0 1 0-.148 1.492v.005Zm0 9.156a.757.757 0 1 0-.754-.754.753.753 0 0 0 .754.749v.005Zm-3.894-14.725a.754.754 0 0 0 .902.743.756.756 0 1 0-.902-.748v.005Zm-2.384 13.215a.759.759 0 0 0-.743.902.755.755 0 0 0 1.498-.146.746.746 0 0 0-.465-.702.76.76 0 0 0-.29-.059v.005Zm3.14-4.813a.753.753 0 1 0 .754.754.77.77 0 0 0-.219-.537.764.764 0 0 0-.535-.222v.005Zm-15.694-22.654a.76.76 0 0 0-.7.466.76.76 0 0 0 .164.824.76.76 0 0 0 1.163-.115.76.76 0 0 0-.627-1.18v.005Zm0-9.155a.753.753 0 1 0 .754.754.756.756 0 0 0-.754-.751v-.003Zm0 18.311a.76.76 0 0 0-.7.466.76.76 0 0 0 .164.824.76.76 0 0 0 1.163-.116.754.754 0 0 0 .07-.71.75.75 0 0 0-.697-.469v.005Zm3.139 13.498a.753.753 0 1 0 .754.754.754.754 0 0 0-.754-.759v.005Zm0-27.469a.757.757 0 1 0 .535.219.74.74 0 0 0-.245-.165.74.74 0 0 0-.29-.059v.005Zm-15.694 4.815a.754.754 0 0 0-.743.903.756.756 0 1 0 1.277-.685.753.753 0 0 0-.534-.223v.005Zm15.694 4.341a.748.748 0 0 0-.699.465.752.752 0 0 0 .163.824.757.757 0 0 0 .823.165.748.748 0 0 0 .467-.699.754.754 0 0 0-.754-.76v.005Zm-37.664 9.157a.753.753 0 0 0-.533 1.287.75.75 0 0 0 .822.164.755.755 0 0 0 .41-.987.759.759 0 0 0-.409-.411.74.74 0 0 0-.29-.058v.005Zm6.277 9.156a.753.753 0 1 0 .755.754.757.757 0 0 0-.465-.702.759.759 0 0 0-.29-.057v.005Zm-3.14-4.342a.756.756 0 1 0 .7.465.74.74 0 0 0-.409-.412.743.743 0 0 0-.29-.058v.005Zm0 9.155a.757.757 0 1 0 .537.218.761.761 0 0 0-.536-.223v.005Zm6.278 0a.757.757 0 1 0 .29 1.454.755.755 0 0 0 .41-.989.762.762 0 0 0-.41-.412.761.761 0 0 0-.29-.058v.005Zm31.387-25.957a.751.751 0 0 0 .743-.902.754.754 0 0 0-1.03-.552.759.759 0 0 0-.408.987.755.755 0 0 0 .7.462l-.005.005Zm-34.525 2.826a.757.757 0 1 0-.004 1.513.757.757 0 0 0 .004-1.513Zm0 9.157a.753.753 0 0 0-.533 1.287.75.75 0 0 0 1.16-.114.754.754 0 0 0-.627-1.173Zm34.53-2.832a.754.754 0 0 0 .743-.902.756.756 0 1 0-.743.902Zm0 9.155a.76.76 0 0 0 .743-.902.755.755 0 1 0-.743.902Zm-40.802 2.833a.753.753 0 0 0-.147 1.493.752.752 0 0 0 .68-1.275.762.762 0 0 0-.538-.218h.005Zm-9.417 4.813a.757.757 0 1 0 .286.056.78.78 0 0 0-.29-.056h.004Zm18.832-9.155a.755.755 0 1 0 .286.056.744.744 0 0 0-.29-.056h.004Zm-12.555 0a.755.755 0 1 0 .286.056.744.744 0 0 0-.29-.056h.004Zm-3.137 4.342a.753.753 0 0 0-.148 1.493.752.752 0 0 0 .844-1.029.752.752 0 0 0-.701-.464h.005Zm28.247-13.498a.76.76 0 0 0-.7.466.76.76 0 0 0 .164.824.756.756 0 1 0 .531-1.29h.005Zm-25.114 18.311a.757.757 0 1 0 .289 1.454.755.755 0 0 0-.29-1.454Zm21.971-23.126a.756.756 0 1 0-.004 1.511.756.756 0 0 0 .004-1.511Zm0 9.157a.753.753 0 1 0 0 1.507.753.753 0 0 0 0-1.507Zm0 9.156a.753.753 0 1 0 0 1.507.753.753 0 0 0 0-1.507Zm0-27.469a.757.757 0 1 0 0 1.513.757.757 0 0 0 0-1.513Zm-3.139 4.815a.755.755 0 1 0 .001 1.51.755.755 0 0 0-.001-1.51Zm6.277 18.312a.751.751 0 0 0-.743.902.758.758 0 0 0 1.03.552.759.759 0 0 0 .467-.699.75.75 0 0 0-.221-.533.752.752 0 0 0-.533-.222Zm-12.555-9.156a.756.756 0 1 0 0 1.513.756.756 0 0 0 0-1.513Zm12.555 18.311a.754.754 0 0 0-.743.902.756.756 0 1 0 .743-.902Zm-9.42-23.126a.753.753 0 0 0-.743.902.758.758 0 0 0 1.03.552.755.755 0 0 0-.287-1.454Zm0 9.157a.753.753 0 1 0 0 1.507.753.753 0 0 0 0-1.507Zm0 9.156a.753.753 0 1 0 0 1.507.753.753 0 0 0 0-1.507Zm3.138 4.813a.755.755 0 1 0 .005 0h-.005Zm0-9.155a.754.754 0 0 0-.535 1.29.76.76 0 0 0 1.163-.115.754.754 0 0 0-.623-1.175h-.005Zm0-9.156a.758.758 0 0 0-.741.904.756.756 0 1 0 .746-.904h-.005Zm88.139 20.247h-19.502l-13.454-24.065-.723-1.791c.243-.01.479-.087.681-.223l.87-.585 2.52 2.279c.127.114.274.203.434.261l11.139 4.046a1.317 1.317 0 0 0 1.716-.867l.948-3.214a1.311 1.311 0 0 0-.821-1.613 12.89 12.89 0 0 0 .393-1.888c.391-3.06-.538-5.508-2.685-7.088l.265-.253a1.367 1.367 0 0 0 .065-1.913 1.307 1.307 0 0 0-1.002-.394c-.333.02-.648.161-.885.396l-.587.562a6.408 6.408 0 0 1-.728-.79 1.313 1.313 0 0 0-.821-2.353c-.117 0-.234.016-.347.048-.492-1.541-.727-3.565-.727-6.169a1.318 1.318 0 0 0-1.032-1.29l-10.689-2.39a1.279 1.279 0 0 0-.248-.023h-.064a1.3 1.3 0 0 0-.504.125l-.028.013a.392.392 0 0 0-.053.029l.145.276-.164-.266-.041.025-.045.029-.062.045-.012.01a1.293 1.293 0 0 0-.175.164c-.082.095-.15.202-.202.317l-3.354 7.598-.476-1.178a1.307 1.307 0 0 0-.485-.597 1.302 1.302 0 0 0-.736-.224h-.07l5.395-13.178.057 2.9a1.32 1.32 0 0 0 1.03 1.288l10.779 2.428a1.312 1.312 0 0 0 1.61-1.288l-.057-17.523a1.317 1.317 0 0 0-.897-1.251l-15.793-5.328a1.32 1.32 0 0 0-1.571.601v-8.002l7.229-6.9a1.318 1.318 0 0 0 .288-1.508l-1.254-2.726 10.238-9.108a6.35 6.35 0 0 0 1.904-6.433l-4.087-14.857.351-1.342.446-.115a3.909 3.909 0 0 0 1.877.514c.36.001.718-.06 1.057-.18l5.75-2.033c1.263-.447 2.119-1.623 2.413-3.312.245-1.416.064-3.09-.511-4.711-.575-1.622-1.478-3.038-2.568-3.984-.926-.81-1.927-1.239-2.891-1.239a3.19 3.19 0 0 0-1.068.184l-5.75 2.032c-.094.033-.186.071-.276.114a1.312 1.312 0 0 0-.121-1.15c-1.15-1.837-3.199-3.69-5.215-3.69a3.037 3.037 0 0 0-1.02.172c-.767.271-1.819.776-2.936 1.315-1.002.48-2.04.977-2.671 1.2-1.014.359-1.792 1.221-2.206 2.434l-4.037 2.083c-1.784-3.238-3.921-5.377-6.525-6.534a12.325 12.325 0 0 0-5.093-1.017c-2.696 0-5.39.705-7.436 1.314-6.351 1.904-8.968 6.592-9.711 8.244-.471.05-.941.112-1.401.183-7.296 1.15-11.093 3.105-11.286 5.83-.106 1.479.857 3.575 6.037 5.165l5.168 1.72a1.34 1.34 0 0 0 .621.051l3.733-.585 2.882 7.68c1.695 4.295 3.5 6.326 4.512 7.198l-1.033 4.672a15.423 15.423 0 0 1-1.873-1.233 1.313 1.313 0 0 0-.798-.268h-1.173a11.707 11.707 0 0 0-11.229 8.503c0 .033-.015.066-.023.097l-1.904 9.563a1.313 1.313 0 0 0 1.314 1.582h.67l-2.528 15.713c-.03.181-.021.366.026.543l6.534 24.972h-2.588a1.33 1.33 0 0 0-.821.286l-5.242 4.163a20.824 20.824 0 0 0-.128-1.697c-.478-4.009-2.443-9.56-9.094-13.24-2.148-1.19-4.345-1.793-6.53-1.793a12.043 12.043 0 0 0-6.535 1.96 13.575 13.575 0 0 0-4.6 5.042 12.355 12.355 0 0 0-1.303 3.795l-.493-.328a1.133 1.133 0 0 0-.237-.128l-.24-.092a54.806 54.806 0 0 0-1.463-6.253h.202a5.34 5.34 0 0 0 2.92-.822c2.572-1.642 3.053-5.129 3.073-5.276a1.77 1.77 0 0 0-1.171-1.673 8.943 8.943 0 0 0-1.817-.184c-1.16 0-2.83.219-4.185 1.252a5.268 5.268 0 0 0-1.105 1.15 15.06 15.06 0 0 0-.142-.297c.741-.423 1.408-1.142 1.988-2.146.906-1.567 1.103-2.957.585-4.127-.319-.718-.89-1.314-1.705-1.764.821-.454 1.386-1.045 1.705-1.765.518-1.169.32-2.558-.585-4.126-.905-1.569-2.01-2.434-3.285-2.572a3.806 3.806 0 0 0-.355-.018 3.884 3.884 0 0 0-2.026.612c.015-.932-.212-1.724-.675-2.358-.754-1.033-2.055-1.557-3.867-1.557-1.813 0-3.112.524-3.868 1.557-.463.634-.688 1.426-.675 2.358a3.88 3.88 0 0 0-2.027-.612c-.117 0-.235 0-.353.018-1.272.138-2.376 1.003-3.286 2.572-.91 1.568-1.102 2.957-.583 4.126.317.72.888 1.315 1.703 1.765-.821.455-1.386 1.046-1.703 1.764-.52 1.17-.329 2.56.584 4.127.914 1.567 2.01 2.435 3.286 2.571.117.013.236.019.353.018a3.882 3.882 0 0 0 2.031-.614c-.013.933.214 1.723.675 2.357.756 1.034 2.057 1.558 3.867 1.558s3.114-.524 3.868-1.558c.463-.634.69-1.426.675-2.357.26.158.535.29.821.394 2 3.812 3.132 8.14 3.743 11.247-.32-.028-.644-.043-.968-.043-1.38.008-2.75.245-4.053.702a15.615 15.615 0 0 0-6.696 4.629c-1.722 2.026-2.829 4.362-3.2 6.753a11.54 11.54 0 0 0-.137 1.495 47.445 47.445 0 0 0-2.464-6.891 44.962 44.962 0 0 0-7.909-12.043 1.385 1.385 0 0 0-.722-.431 1.326 1.326 0 0 0-.572.001 1.327 1.327 0 0 0-.882.683 1.319 1.319 0 0 0-.143.553 1.317 1.317 0 0 0 .348.948 42.348 42.348 0 0 1 7.393 11.172 27.977 27.977 0 0 0-3.836-4.952c-4.346-4.436-8.379-5.175-8.543-5.204a1.251 1.251 0 0 0-.228-.02 1.314 1.314 0 1 0-.234 2.62 9.76 9.76 0 0 1 2.17.8c1.224.595 3.097 1.732 5.072 3.779 2.24 2.32 4.147 5.305 5.668 8.871a44.445 44.445 0 0 1 1.76 4.978 8.362 8.362 0 0 0-2.028 2.686c-.779 1.554-.821 3.271-.118 5.116-1.807-.706-3.501-1.063-5.059-1.063a9.118 9.118 0 0 0-1.941.202c-2.425.529-4.33 2.055-5.66 4.538-1.845 3.44-2.243 6.709-1.18 9.719.68 1.927 1.929 3.675 3.715 5.206h-2.277a1.321 1.321 0 0 0-.965.418 1.316 1.316 0 0 0-.35.992 1.353 1.353 0 0 0 1.366 1.23h10.797l20.148.049c.161.069.335.105.51.106l118.403.164c.744 0 1.339-.941 1.314-1.686a1.311 1.311 0 0 0-1.319-1.261h-.005ZM171.202 57.884a.524.524 0 0 1 .18-.029c.314 0 .736.212 1.16.583.736.644 1.398 1.692 1.817 2.877.419 1.184.565 2.416.398 3.38-.117.676-.383 1.164-.694 1.274l-2.914 1.032.044-.119.025-.07c.033-.092.062-.186.09-.281a6.767 6.767 0 0 0-.2-4.065c-.04-.11-.081-.216-.123-.328l-.04-.097c-.033-.074-.064-.148-.097-.22l-.047-.102a5.06 5.06 0 0 0-.114-.228l-.036-.071a4.696 4.696 0 0 0-.164-.286l-.038-.062c-.043-.073-.089-.143-.133-.214l-.059-.087c-.043-.062-.085-.125-.13-.186l-.057-.078c-.061-.081-.124-.165-.193-.247-.069-.082-.133-.164-.202-.233l-.06-.066-.153-.164-.071-.07c-.054-.053-.11-.104-.164-.155l-.053-.048a7.692 7.692 0 0 0-.226-.189l-.05-.036a5.614 5.614 0 0 0-.185-.138l-.078-.053-.164-.111-.074-.046-.09-.053 2.895-1.014Zm-5.619 3.275.085-.045.023-.011a1.01 1.01 0 0 1 .493-.135h.017c.218.004.433.057.629.153.067.032.132.067.195.105.672.4 1.27 1.193 1.599 2.121.297.788.35 1.647.149 2.464-.092.329-.328.904-.837 1.086-.04.014-.079.03-.117.048l-.04.02c-.022.011-.046.023-.067.036l-.038.023.165.261-.186-.256-.048.032-.026.02-1.089.27a7.169 7.169 0 0 0-1.206-4.612l-.748-1.09 1.047-.49ZM72.515 137.04a.87.87 0 0 1-.072 0c-.77 0-1.847-1.183-2.364-1.753-.378-.416-.628-.69-.938-.869a1.28 1.28 0 0 0-1.278 0l-.135.079a1.279 1.279 0 0 0-.64 1.107c0 .358.112.711.285 1.247.243.765.752 2.357.296 2.985-.24.328-.88.507-1.807.507-.929 0-1.563-.18-1.808-.507-.458-.628.051-2.22.296-2.985.164-.536.284-.889.284-1.247a1.282 1.282 0 0 0-.64-1.109l-.135-.077a1.28 1.28 0 0 0-1.278 0c-.31.18-.56.455-.938.87-.518.569-1.594 1.752-2.368 1.752a.794.794 0 0 1-.069 0c-.404-.043-.88-.508-1.34-1.306-.46-.799-.626-1.443-.462-1.808.314-.709 1.949-1.064 2.734-1.235.549-.12.912-.199 1.222-.378a1.281 1.281 0 0 0 .64-1.109v-.154a1.277 1.277 0 0 0-.64-1.107c-.31-.18-.673-.258-1.224-.378-.783-.165-2.418-.528-2.732-1.236-.164-.371 0-1.015.462-1.815.461-.8.936-1.262 1.34-1.306a.456.456 0 0 1 .074 0c.77 0 1.844 1.181 2.363 1.753.378.415.627.69.938.869.195.109.415.166.639.164.251.001.497-.073.706-.212a1.285 1.285 0 0 0 .708-1.15c0-.358-.113-.711-.284-1.247-.245-.765-.754-2.357-.297-2.985.24-.328.88-.507 1.807-.507.927 0 1.562.18 1.807.507.457.628-.052 2.22-.297 2.987-.165.534-.283.887-.283 1.245a1.285 1.285 0 0 0 .64 1.109l.134.077a1.28 1.28 0 0 0 1.278 0c.31-.179.56-.453.938-.869.518-.57 1.594-1.753 2.366-1.753h.072c.403.043.88.508 1.34 1.306.462.799.625 1.444.46 1.816-.313.708-1.946 1.064-2.733 1.235-.549.118-.91.197-1.22.378a1.28 1.28 0 0 0-.64 1.107v.165a1.286 1.286 0 0 0 .64 1.107c.31.179.673.258 1.222.378.785.164 2.418.525 2.732 1.235.164.37 0 1.015-.46 1.807s-.937 1.267-1.34 1.31Zm83.64-80.472c1.003-.48 2.04-.978 2.674-1.203a.404.404 0 0 1 .132-.018c.588 0 1.941.777 2.98 2.443a1.309 1.309 0 0 0 1.122.623h.121c-.316.379-.565.81-.734 1.274l-.031.014a4.531 4.531 0 0 0-3.131-.23 1.316 1.316 0 0 0-.165.057l-1.314.57a1.319 1.319 0 0 0 .025-1.643 5.86 5.86 0 0 0-2.049-1.699l.37-.188Zm2.766 10.35-.238 2.489-4.552 1.184a8.44 8.44 0 0 0-1.31-3.627l3.615-1.643c.267.106.53.197.767.277 1.138.391 1.539.585 1.718 1.316v.004Zm-5.533-7.796.062-.033a1.03 1.03 0 0 1 .165-.08 1.03 1.03 0 0 1 .346-.058c.575 0 1.241.416 1.78 1.113a1.312 1.312 0 0 0 .959.509l-.644.278a2.24 2.24 0 0 0-1.52 1.848c-.024.193-.024.39 0 .583l-3.796 1.725a3.187 3.187 0 0 0-1.416-.348c-.304 0-.605.05-.891.15l-.174.063a39.006 39.006 0 0 0-1.004-2.602l6.133-3.148Zm-1.883 12.732a1.298 1.298 0 0 0-.082.39c-.09.286-.195.38-.22.39l-.672.239-1.493-5.472.277-.099h.02c.117 0 .357.107.629.347.503.438.958 1.161 1.249 1.984.264.708.364 1.466.292 2.218v.003Zm-23.708-15.66c1.868-.56 4.316-1.203 6.672-1.203a9.758 9.758 0 0 1 4.023.785c3.122 1.39 5.553 4.787 7.411 10.384l-9.146 2.744-4.956-3.87c-.174-.13-4.285-3.198-11.406-3.273 1.074-1.72 3.3-4.336 7.402-5.566Zm-2.255 24.798-2.68-7.138 13.858-2.17c.139-.024.275-.07.4-.135l5.189-1.556h.014l.043-.018 4.288-1.286 2.169 7.94c.425 3.027-.47 6.101-2.397 8.225-1.724 1.903-3.551 2.33-3.564 2.333a1.313 1.313 0 0 0 .266 2.612c.088 0 .175-.008.26-.026.108-.021 2.647-.555 4.994-3.144 2.507-2.765 3.615-6.572 3.041-10.462a1.015 1.015 0 0 0-.033-.155l-.164-.594.854-.302c.754-.267 1.361-.874 1.72-1.719l2.928-.756 1.891 1.019 3.494 13.246-8.523 6.93-.657-1.576a1.317 1.317 0 0 0-1.531-.726c-2.363.615-4.916.744-6.642.744-1.214 0-2.016-.064-2.047-.067h-.114c-.289 0-.57.096-.8.271a17.012 17.012 0 0 1-5.421 2.496 14.42 14.42 0 0 1-3.636.48c-1.26 0-2.514-.19-3.718-.566l1.333-6.014a1.314 1.314 0 0 0-.672-1.453c-.02-.005-2.1-1.252-4.143-6.433Zm-13.073 28.421.38-1.9a.74.74 0 0 0 .582.279.758.758 0 0 0 .754-.754.755.755 0 0 0-.754-.754.73.73 0 0 0-.355.092l.985-4.894a9.086 9.086 0 0 1 6.079-6.143c.555-.214.969-.37 1.666-.329.304-.034.609-.052.915-.054h.723c2.48 1.807 5.191 2.846 8.073 3.077a.75.75 0 0 0 1.189.461.752.752 0 0 0 .278-.413 16.95 16.95 0 0 0 4.054-.555 19.995 19.995 0 0 0 5.934-2.652c.268.015.638.031 1.09.04.657.052 1.15.205 1.779 0v-.017a29.928 29.928 0 0 0 5.137-.557l3.526 7.662a.766.766 0 0 0-.672.054.753.753 0 0 0-.364.7.75.75 0 0 0 .457.643.753.753 0 0 0 1.012-.452l.938 2.037-6.951 6.632a1.411 1.411 0 0 0-.218.275v-.033a.766.766 0 0 0-.637-.75.76.76 0 0 0-.846.503.764.764 0 0 0 .354.918.765.765 0 0 0 .965-.196 1.205 1.205 0 0 0-.023.24v7.94a.758.758 0 0 0-.834-.205.753.753 0 0 0-.487.706.76.76 0 0 0 .487.707.757.757 0 0 0 .834-.205v6.008l-.8 1.932a.75.75 0 0 0-.518.713.742.742 0 0 0 .084.339l-6.366 15.454-21.232-.218c-.067 0-.132.005-.198.016h-.305v-1.551a.75.75 0 0 0 .818.15.753.753 0 0 0 0-1.387.752.752 0 0 0-.818.15l.013-8.05a.752.752 0 0 0 .813.134.754.754 0 1 0-.813-1.247l.015-8.03c.136.12.311.186.493.186a.756.756 0 0 0 .754-.754.756.756 0 0 0-1.247-.57l.013-8.006a.748.748 0 0 0 .824.091.758.758 0 0 0 .402-.567.743.743 0 0 0-.232-.655.75.75 0 0 0-.992-.032l.008-4.875a1.305 1.305 0 0 0-.382-.934 1.305 1.305 0 0 0-.933-.388l-5.451-.012Zm-35.584 30.927c.789-.604 1.861-.733 2.62-.733h.216c-.257.771-.756 1.84-1.643 2.412a2.849 2.849 0 0 1-1.56.424 4.46 4.46 0 0 1-.747-.067c.151-.906.528-1.584 1.114-2.036Zm51.758 54.502-.21.603H75.899l8.82-18.904a.756.756 0 1 0 .62-1.33l.984-2.116 12.365-5.493c.102-.046.197-.104.285-.173l11.392-9.035a.754.754 0 0 0 .642-.51l2.45-1.945h20.248l2.159 10.266a.752.752 0 0 0-.866-.053.753.753 0 0 0 .74 1.313.75.75 0 0 0 .323-.32l.844 4.017-1.411 4.043a1.027 1.027 0 0 0-.097-.01.756.756 0 0 0-.726.551.755.755 0 0 0 .338.847l-5.904 16.922a.748.748 0 0 0-.711.953c.041.148.127.28.246.377l.003-.003Zm2.586.603 3.495-10.008a.757.757 0 1 0 .351-1.006l3.463-9.921 11.324 20.935h-18.633Zm22.489-37.603c.081-.096.147-.202.197-.316l3.779-8.558 8.581 1.919c.072 2.686.422 4.835 1.067 6.552l-1.743 1.162a1.317 1.317 0 0 0-.563 1.355c.034.171.102.332.199.476a1.318 1.318 0 0 0 1.356.563c.17-.035.332-.102.475-.2l1.52-1.015c.304.413.645.798 1.017 1.15l-.731.7a1.314 1.314 0 0 0-.039 1.866 1.299 1.299 0 0 0 .924.409 1.316 1.316 0 0 0 .942-.369l1.02-.978.307.215c1.388.986 1.962 2.542 1.706 4.632-.057.46-.147.916-.268 1.363l-17.975-6.543-1.771-4.383Zm-87.851-30.541a3.818 3.818 0 0 0-3.747 4.565 3.816 3.816 0 0 0 3.001 3.001 3.824 3.824 0 0 0 3.921-1.624c.42-.629.644-1.367.644-2.123a3.825 3.825 0 0 0-3.82-3.819Z" fill="#000"/></svg>
