<svg width="230" height="230" fill="none" xmlns="http://www.w3.org/2000/svg"><path d="M165.012 196.184H140.39a1.387 1.387 0 0 0 .735-1.088l.279-2.597.925-.235.928-.214 1.58 2.169a1.335 1.335 0 0 0 1.541.46 1.37 1.37 0 0 0 .856-1.14l.281-2.609.493-.128 1.337-.342 1.601 2.196a1.334 1.334 0 0 0 1.55.462 1.367 1.367 0 0 0 .856-1.14l.281-2.616 1.824-.466 1.602 2.2a1.34 1.34 0 0 0 1.552.46 1.36 1.36 0 0 0 .587-.451c.151-.201.243-.439.267-.69l.281-2.617.84-.215c.278-.066.528-.219.715-.435a1.345 1.345 0 0 0 .133-1.535l-.418-.716a1.336 1.336 0 0 0-1.478-.619l-.104.026a13.924 13.924 0 0 0-.838-2.04 10.74 10.74 0 0 0-1.21-1.878l-.012-.013-.013-.013a2.896 2.896 0 0 1-.439-.493l-.01-.017-.014-.015a7.12 7.12 0 0 0-5.165-2.275l.123-.583a1.338 1.338 0 0 0-.188-1.003 1.326 1.326 0 0 0-1.118-.605 1.336 1.336 0 0 0-1.303 1.058l-.245 1.161c-.501-.009-1-.052-1.495-.128l.117-.291a1.368 1.368 0 0 0-.684-1.761 1.333 1.333 0 0 0-1.772.723l-.151.378c-1.612-1.086-2.756-3.076-3.49-6.069a1.33 1.33 0 0 0-1.116-1.004 1.339 1.339 0 0 0-.527.033l-11.413 3.031-.037.012h-.015l-.064.021-.056.021-.064.03-.063.033-.052.029-.051.033.138.204-.155-.192-.039.028-.064.052-.033.03c-.018.015-.034.033-.061.059l-.031.033-.049.059-.031.039a.563.563 0 0 0-.043.063l-.03.046-.031.056-.03.057c0 .017-.014.035-.026.059-.011.025-.016.04-.023.059l-.02.063c-.008.029-.013.039-.018.059-.005.02-.008.038-.011.056l.241.049-.244-.033a.275.275 0 0 0-.01.056c0 .02 0 .04-.008.061l.244.025h-.249v.3l2.027 14.679a1.33 1.33 0 0 0 1.547 1.13 1.359 1.359 0 0 0 1.09-1.536l-1.863-13.471 9.004-2.402c.986 3.186 2.573 5.421 4.7 6.645l-.609 1.515a1.365 1.365 0 0 0 .683 1.756 1.335 1.335 0 0 0 1.775-.723l.644-1.6c.642.137 1.294.222 1.95.255l-.214 1.014a1.328 1.328 0 0 0 1.298 1.642 1.339 1.339 0 0 0 1.304-1.058l.339-1.605h.509c1.912.035 3.432 1.114 4.515 3.209.253.495.47 1.009.647 1.536l-25.615 6.542a1.328 1.328 0 0 0-.957.94l-.233.859c-.097.334-.062.694.097 1.004.154.295.414.521.728.632l.905 1.244h-31.582c.063-.157.096-.324.095-.493v-.838a1.328 1.328 0 0 0-1.219-1.329l-.348-.03c.01-.054.016-.109.018-.164.123-2.826-1.025-5.206-3.322-6.884a10.694 10.694 0 0 0-2.729-1.422l-2.112-5.712 2.832-5.049a1.341 1.341 0 0 0-.276-1.643l-9.923-8.832a1.326 1.326 0 0 0-.887-.337 1.516 1.516 0 0 0-.932.329l-3.72 4.656s-2.488 3.085-2.557 3.159l-.013.015-.012.018-.07.245a1.33 1.33 0 0 0 1.526 1.708 1.33 1.33 0 0 0 .774-.461l5.158-6.416 8.075 7.188-2.607 4.651a1.325 1.325 0 0 0-.09 1.114l2.555 6.9a1.325 1.325 0 0 0 .944.834c.2.049 4.915 1.236 4.716 5.816v.057l-9.573-.821-6.998-14.387a5.563 5.563 0 0 0-10.24.635 5.662 5.662 0 0 0 .25 4.271l1.085 2.334.503-.806a.828.828 0 0 1 .713-.396c.128 0 .254.029.368.085l.669.329a.877.877 0 0 1 .481.585.84.84 0 0 1-.483.954l-1.252.549-.079.03-.263.087 2.11 4.526 1.224 2.438.29-.464a.844.844 0 0 1 .714-.396c.127 0 .253.029.368.086l.668.328a.888.888 0 0 1 .482.585.84.84 0 0 1-.483.953l-1.221.536.416.821c.011.023.024.046.038.069H62.874a1.327 1.327 0 0 0-1.24.842 1.343 1.343 0 0 0 1.24 1.833h102.138a1.334 1.334 0 0 0 0-2.667v-.009Zm-90.466-16.017-1.252.551a.848.848 0 0 1-.763-.046.84.84 0 0 1-.288-1.168l.555-.889a.828.828 0 0 1 .713-.396.824.824 0 0 1 .368.085l.697.339a.844.844 0 0 1 .473.771.837.837 0 0 1-.503.753Zm3.779 8.719-1.252.549a.821.821 0 0 1-.338.07.831.831 0 0 1-.736-.432.838.838 0 0 1 .023-.852l.555-.889a.828.828 0 0 1 .713-.396c.127 0 .253.029.368.085l.696.34a.84.84 0 0 1-.03 1.525Zm.184-5.305-1.252.549a.83.83 0 0 1-.764-.045.835.835 0 0 1-.413-.746.838.838 0 0 1 .127-.423l.554-.889a.846.846 0 0 1 1.081-.31l.698.338a.84.84 0 0 1 .33 1.223.835.835 0 0 1-.361.303Zm3.778 8.717-1.252.551a.837.837 0 0 1-.972-.221.83.83 0 0 1-.077-.985l.553-.889a.845.845 0 0 1 1.081-.312l.698.34a.839.839 0 0 1-.03 1.524v-.008Zm52.785 3.886.23-2.136 1.832-.465 1.594 2.188c.125.173.291.314.483.409l-4.139.004ZM97.687 58.427a1.327 1.327 0 0 0 1.496 1.012c.538-.08 1.076-.145 1.601-.19.135 1.583.541 4.257 1.758 6.08a1.336 1.336 0 0 0 .848.567 1.329 1.329 0 0 0 1-.2 1.334 1.334 0 0 0 .368-1.85c-.862-1.29-1.184-3.376-1.304-4.665 2.973.108 5.313.843 7.578 1.552 2.156.677 4.191 1.315 6.532 1.315 1.39-.005 2.771-.23 4.089-.67a26.771 26.771 0 0 0 6.877-3.295l-1.416 1.857a1.35 1.35 0 0 0-.251 1.046 6.403 6.403 0 0 1-.45 3.753 1.336 1.336 0 0 0 1.217 1.877 1.335 1.335 0 0 0 1.218-.79 9.002 9.002 0 0 0 .783-3.693 9.18 9.18 0 0 0-.056-1.022l2.098-2.753a1.328 1.328 0 0 0 .194-1.262l-.493-1.359c.266-.266.528-.544.779-.821h.048l.072-.122c.16-.273.377-.509.637-.69l.041-.028.027-.04c.069-.11.149-.214.238-.31l.044-.055.012-.022c.067-.126.147-.246.238-.356l.023-.03.015-.036c.08-.208.184-.406.31-.59l.271-.388h-.059c.922-1.616 1.178-2.78 1.206-2.917a1.325 1.325 0 0 0-.634-1.42l-3.496-2.038c-1.783-4.55-4.559-7.608-8.255-9.09a14.55 14.55 0 0 0-5.359-1.004h-.521a21.141 21.141 0 0 0-7.84 1.819c-7.748 3.02-10.468 8.528-11.385 12.618-.147.67-.26 1.345-.335 2.026h-.013l-.013.233c-.01.174-.027.353-.046.532v.035a9.076 9.076 0 0 1-.104 1.582l-.044.284h.089c.004 1.182.128 2.36.368 3.518Zm16.677-10.948a1.333 1.333 0 0 1 2.204.399c.068.164.103.34.103.517a1.351 1.351 0 0 1-.404.953c-.873.889-1.022 2.6-.457 5.234a1.334 1.334 0 0 1-2.4 1.038 1.344 1.344 0 0 1-.206-.477c-.491-2.282-.905-5.56 1.16-7.664Zm-12.803 2.007a1.335 1.335 0 0 1 1.838-.42 1.33 1.33 0 0 1 .42 1.838c-.373.593-.432 1.837-.176 3.696a1.332 1.332 0 0 1-1.145 1.46 1.333 1.333 0 0 1-1.497-1.096c-.241-1.753-.396-3.958.56-5.478Zm-28.37 63.871c.048.26.138.511.264.743-.058.11-.1.227-.128.348-.02.084-.462 2.091.245 5.032 1.09 4.551 3.471 6.407 8.214 6.407a24.483 24.483 0 0 0 2.877-.187c.826.215 1.675.326 2.528.329.24 0 .48-.01.708-.028l1.699-.078c.02 1.629.493 3.334 1.424 5.074a5.358 5.358 0 0 0 1.512 1.777l-3.542 15.19-.822 1.695c-.103.293-4.304 9.036-4.304 9.036-.02.065-.046.128-.074.189l-.052.14.039.056a1.337 1.337 0 0 0 .429 1.33l10.396 8.885a1.345 1.345 0 0 0 1.129.292 1.32 1.32 0 0 0 .93-.708l8.012-16.387.016-.025.034-.064v-.044c.074-.403 1.047-5.276 1.596-8.024l9.942-.15 7.117 8.266 2.198 16.167a1.34 1.34 0 0 0 1.121 1.14c.19.029.383.016.566-.036l13.106-3.736a1.332 1.332 0 0 0 .946-1.515l-3.81-21.066a1.332 1.332 0 0 0-.384-.724l-13.909-13.462a8.571 8.571 0 0 0 3.779-5.234c.425-1.789.176-4.621-1.349-6.724.925-.883 1.546-2.399 1.891-4.613.26.283.538.55.831.798 3.674 3.121 7.835 4.837 13.094 5.421.218.025.437.038.657.038a7.133 7.133 0 0 0 3.051-.728c1.243.439 4.107 1.469 5.929 2.31.475.219.992.331 1.514.329a4.66 4.66 0 0 0 2.475-.767c2.612-1.643 4.338-5.488 4.398-9.78 0-.055-.003-.11-.009-.165-.338-3.034-2.415-4.319-3.463-4.779.01-.12.018-.238.023-.355.056-1.376-.271-2.396-.971-3.032a2.51 2.51 0 0 0-1.72-.638 4.02 4.02 0 0 0-1.298.237 48.83 48.83 0 0 0-5.388 2.242c-2.088-1.845-4.456-3.147-5.821-3.818a8.47 8.47 0 0 0 .559-5.585c-.515-2.062-1.462-3.257-2.167-3.894a5.57 5.57 0 0 0-.557-.444 16.991 16.991 0 0 0-.023-4.233l-.015-.12a5.749 5.749 0 0 0-.066-.43l-.064-.283a11.34 11.34 0 0 1-.093-.412 12.142 12.142 0 0 1-.184-1.088v-.056a2.838 2.838 0 0 1-.068-.328l-.072-.482-.092.092a10.565 10.565 0 0 0-.981-2.172V80.505a3.052 3.052 0 0 1-.353-.603l-.016-.033-.025-.028c-.205-.235-.404-.473-.605-.713l-.102-.121-.016-.013a2.933 2.933 0 0 1-.444-.46l-.172-.22-.046.045a6.296 6.296 0 0 0-3.751-1.697l1.04-4.744a1.328 1.328 0 0 0-.732-1.492c-.117-.056-2.895-1.352-7.505-2.313a48.098 48.098 0 0 0-18.397-.217c-2.571-.439-5.75-.657-9.725-.657-.78 0-1.604.008-2.452.025-4.25.082-7.32.14-9.692 1.705-1.413.933-2.452 2.292-3.355 4.393l-.417.077a1.296 1.296 0 0 0-1.049 1.134l-.742 7.1c-.018.166-.002.333.046.493l-1.315 9.451c-1.734 1.213-2.589 3.122-3 4.518-.656 2.213-1.328 6.941-1.397 11.257l-.12-.12.011.61c.016.98-.02 1.962-.107 2.939l-.011.115.353.353c.07.754.16 1.436.273 2.068Zm51.845-2.135c-.35 3.356-1.17 4.079-1.331 4.189a.428.428 0 0 1-.09.047 1.334 1.334 0 0 0-.447-.077 1.332 1.332 0 0 0-.711 2.465c1.851 1.163 2.32 3.952 1.947 5.52a5.917 5.917 0 0 1-3.818 4.186l-19.266 3.804a25.902 25.902 0 0 1-3.099.216 11.95 11.95 0 0 1-1.98-.148 10.631 10.631 0 0 1-1.58-.493 2.81 2.81 0 0 1-1.283-1.201c-.757-1.423-1.13-2.776-1.11-4.025 1.823-.2 3.471-.329 4.928-.455 4.382-.36 7.548-.619 10.073-2.136 2.326-1.401 3.961-3.839 5.283-7.886 1.244.159 2.473.419 3.675.778a1.333 1.333 0 0 0 .846-2.529 24.51 24.51 0 0 0-3.916-.856c.164-1.441.512-4.557.933-8.362 1.264.163 2.517.404 3.752.72a1.335 1.335 0 0 0 1.659-1.126 1.334 1.334 0 0 0-1.002-1.46 33.864 33.864 0 0 0-4.128-.797c.447-4.068.839-7.7 1.168-10.803 1.399.208 2.786.492 4.155.85.09.3.19.59.3.868.751 1.893 1.52 3.309 2.29 4.212-.114.233-.21.473-.289.72-.493 1.531-.394 3.361.291 5.443a9.94 9.94 0 0 0 1.007 2.199l-.043.268.212.035-.054.24c.19.058.365.158.513.292.088.099.182.196.287.296.555.675 1.132 2.083.828 5.006Zm6.987-31.747.056.02a4.583 4.583 0 0 1 1.63 1.08v.05l.077.067c.286.25.523.55.698.887l.048.09.074.024c.449.725.782 1.516.985 2.344.078.3.147.603.211.925l-.048.102.028.09c.066.215.11.435.133.657.021.128.035.257.043.386v.194l.067.071.008.01c.098.92.109 1.847.033 2.77a12.96 12.96 0 0 0-1.107-.046 12.756 12.756 0 0 0-8.032 2.78 1.333 1.333 0 0 0 1.664 2.083 10.096 10.096 0 0 1 6.36-2.202 8.997 8.997 0 0 1 1.866.18c.196.076 1.403.642 1.986 2.976.445 1.786-.126 3.332-.562 4.168-.215-.013-.442-.02-.676-.02a13.179 13.179 0 0 0-5.972 1.435 1.345 1.345 0 0 0-.427.317 1.352 1.352 0 0 0-.336.987 1.339 1.339 0 0 0 1.98 1.068 10.707 10.707 0 0 1 4.782-1.137c.264-.003.528.01.791.038.059.008.119.013.179.013h.074c1.099.471 5.981 2.717 8.406 6.271a3.96 3.96 0 0 1 .657 2.592c-.01.063-.018.123-.029.186a9.834 9.834 0 0 1-.307 1.207 6.886 6.886 0 0 1-.493 1.001 7.048 7.048 0 0 1-2.062 2.19 1.498 1.498 0 0 1-.164.054 1.293 1.293 0 0 0-.777.466 4.298 4.298 0 0 1-1.745.396c-.123 0-.246-.006-.368-.019-4.709-.524-8.415-2.052-11.664-4.807-1.118-.947-1.704-2.023-1.744-3.196a3.705 3.705 0 0 1 .27-1.529.582.582 0 0 0 .034-.077l.023-.05c0-.021.017-.044.023-.065l.03-.096a1.33 1.33 0 0 0-.333-1.345 1.336 1.336 0 0 0-1.348-.324 1.093 1.093 0 0 1-.553-.121 1.801 1.801 0 0 1-.378-.263 5.459 5.459 0 0 0-.248-.255c-.398-.463-.746-1.15-1.037-2.032-.859-2.606-.328-3.894-.026-4.364a1.327 1.327 0 0 0 .669-1.256 1.336 1.336 0 0 0-.848-1.144c-.165-.121-.986-.848-2.136-3.757a8.716 8.716 0 0 1-.506-4.296 1.336 1.336 0 0 0-2.058-1.358 1.334 1.334 0 0 0-.562.852 9.975 9.975 0 0 0-.12 2.057 43.081 43.081 0 0 0-3.411-.646c.329-3.15.572-5.607.725-7.306v-.02c.139-1.513.081-3.038-.174-4.537 3.206.178 6.382.717 9.467 1.607-.2.121-.394.248-.583.383a1.333 1.333 0 0 0 1.546 2.173 6.243 6.243 0 0 1 3.641-1.186 5.276 5.276 0 0 1 1.57.212v-.005Zm-17.541-9.698c3.084-.002 6.159.31 9.179.93 2.046.415 4.056.993 6.01 1.728l-.797 3.63a44.63 44.63 0 0 0-13.342-2.495c-.779-1.554-1.956-2.78-3.585-3.725a50.164 50.164 0 0 1 2.535-.068ZM81.011 82.835l1.432-.342a1.293 1.293 0 0 0 .986-1.1l.174-1.453 4.843 3.974-8.378 5.812.943-6.891Zm1.028 8.654 8.482-5.876 6.172 5.073-8.426 6.096-6.228-5.293Zm11.853 13.449-12.78.205 7.029-5.093 5.751 4.888Zm-8.214-26.626 10.922-.054-5.954 4.13-4.968-4.076Zm-6.067 14.652c.016-.039.031-.078.044-.12l6.465 5.49-8.058 5.833 1.55-11.203Zm-1.43 20.942a1.293 1.293 0 0 0 .987-1.101l.606-5.068 14.427-.227-.591 5.64a1.292 1.292 0 0 0 1.281 1.423h.054l3.31-.136a1.285 1.285 0 0 0 1.225-1.134l.836-6.989a1.283 1.283 0 0 0-.32-1.012 1.295 1.295 0 0 0-.97-.43l-1.212.01-7.518-6.384 9.261-6.708a1.289 1.289 0 0 0 .06-2.04l-6.9-5.664 4.54-3.146-.089.841a1.288 1.288 0 0 0 1.282 1.423h.054l3.309-.138a1.282 1.282 0 0 0 1.225-1.133l.836-6.99a1.283 1.283 0 0 0-.758-1.329 1.315 1.315 0 0 0-.531-.113l-3.4.025a1.289 1.289 0 0 0-1.273 1.15l-.105.994-13.704.07.164-1.341a1.296 1.296 0 0 0-.398-1.093 1.406 1.406 0 0 0-.225-.164c.526-.912 1.103-1.558 1.8-2.018 1.662-1.099 4.118-1.197 8.315-1.28.822-.014 1.633-.022 2.394-.022 3.841 0 6.889.202 9.317.616.099.045.204.078.312.098 4.299.789 6.653 2.275 7.636 4.824.034.09.08.177.136.258.45 1.325.593 2.957.44 4.997a541.67 541.67 0 0 1-.821 8.214 1.27 1.27 0 0 0-.077.316c-.017.119-.017.24 0 .358-.375 3.553-.84 7.86-1.383 12.798a1.268 1.268 0 0 0-.084.36c-.013.104-.013.21 0 .315-.605 5.476-1.085 9.731-1.127 10.102-1.234 4.334-2.557 6.598-4.562 7.812-2.006 1.214-4.784 1.45-8.962 1.794-1.68.138-3.585.294-5.75.547a1.303 1.303 0 0 0-.61.056l-2.857.129h-.032a6.233 6.233 0 0 1-.533.022 7.567 7.567 0 0 1-1.876-.245 1.336 1.336 0 0 0-.29-.125c-3.492-1.035-6.507-4.311-7.502-8.155a1.282 1.282 0 0 0-.112-.281v-.02a1.312 1.312 0 0 0-.087-.507l.853-.199Z" fill="#000"/></svg>
