<?xml version="1.0" standalone="no"?>
<!DOCTYPE svg PUBLIC "-//W3C//DTD SVG 20010904//EN"
 "http://www.w3.org/TR/2001/REC-SVG-20010904/DTD/svg10.dtd">
<svg version="1.0" xmlns="http://www.w3.org/2000/svg"
 width="316.000000pt" height="316.000000pt" viewBox="0 0 316.000000 316.000000"
 preserveAspectRatio="xMidYMid meet">
<metadata>
Created by potrace 1.14, written by Peter Selinger 2001-2017
</metadata>
<g transform="translate(0.000000,316.000000) scale(0.100000,-0.100000)"
fill="#000000" stroke="none">
<path d="M871 1994 c-250 -52 -465 -198 -550 -374 -32 -67 -36 -84 -36 -155 0
-96 24 -158 88 -223 54 -56 117 -85 190 -88 80 -4 146 26 218 96 49 48 58 63
65 106 17 111 1 171 -70 259 -49 59 -59 83 -52 120 11 57 81 104 193 130 53
12 291 13 348 1 96 -21 204 -64 250 -99 19 -15 19 -16 -9 -44 -16 -15 -45 -62
-65 -103 -32 -67 -36 -84 -36 -155 0 -67 4 -89 27 -136 100 -202 332 -235 482
-68 37 41 47 60 53 102 9 64 9 62 0 115 -8 48 -23 75 -79 143 -24 29 -40 61
-44 88 -6 39 -4 44 33 79 34 32 103 66 168 81 50 12 313 3 376 -12 143 -35
293 -125 437 -262 l87 -83 43 30 42 29 -47 56 c-220 257 -511 388 -838 378
-132 -4 -149 -6 -250 -36 -79 -24 -161 -62 -221 -102 l-42 -28 -83 45 c-159
85 -322 124 -514 124 -55 -1 -129 -7 -164 -14z"/>
</g>
</svg>
