<svg width="188" height="41" viewBox="0 0 188 41" fill="none" xmlns="http://www.w3.org/2000/svg">
<path d="M186.774 37.5785C185.93 37.3479 184.978 37.0866 184.978 34.8413V13.3678C184.991 13.2165 184.969 13.0642 184.915 12.9227C184.861 12.7812 184.776 12.6541 184.667 12.5513C184.31 12.2452 183.735 12.3003 183.22 12.3921L178.615 13.2249C177.966 13.3556 177.563 13.7904 177.563 14.3537V14.5211C177.563 15.0824 178.014 15.4172 178.453 15.7458C179.052 16.1888 179.672 16.648 179.672 17.736V29.575C179.672 34.2697 176.908 37.6806 173.101 37.6806C169.176 37.6806 167.015 34.2105 167.015 27.9155L167.069 13.3576C167.078 13.2095 167.055 13.0611 167 12.9236C166.945 12.786 166.861 12.663 166.753 12.5636C166.46 12.3105 165.999 12.2595 165.257 12.3921L160.699 13.2249C160.072 13.3678 159.653 13.821 159.653 14.3537V14.5211C159.653 15.0477 160.052 15.3621 160.477 15.6948C161.028 16.1296 161.655 16.6215 161.655 17.736V27.5338C161.655 35.5067 165.606 40.4607 171.964 40.4607C175.518 40.4607 178.375 39.0319 180.105 36.411C180.151 37.5806 180.474 38.4909 181.069 39.1217C181.779 39.8728 182.853 40.2382 184.354 40.2382C186.349 40.2382 188.007 40.128 188.007 38.7706C188.003 37.9174 187.351 37.7378 186.774 37.5785Z" fill="#1D1D1B"/>
<path d="M148.845 24.1147C145.083 23.2105 141.837 22.4287 141.837 19.0117C141.837 16.4418 144.103 14.5027 147.111 14.5027C150.882 14.5027 151.92 16.7092 152.836 18.6565C153.464 19.9915 154.059 21.255 155.496 21.255C155.788 21.2621 156.079 21.2092 156.352 21.0995C156.624 20.9899 156.872 20.8256 157.082 20.6164C157.291 20.4072 157.457 20.1573 157.571 19.8814C157.684 19.6054 157.743 19.309 157.743 19.0097C157.743 15.7213 153.596 12.1716 146.893 12.1716C140.923 12.1716 136.423 15.5641 136.423 20.0609C136.423 26.1539 141.424 27.3439 145.838 28.3931C149.669 29.3055 152.979 30.0934 152.979 33.6206C152.979 36.3926 150.675 38.1847 147.111 38.1847C142.982 38.1847 141.936 35.9761 141.012 34.0288C140.38 32.6939 139.781 31.4324 138.237 31.4324C136.772 31.4324 135.826 32.3571 135.826 33.7859C135.826 36.5599 139.747 40.4015 147.111 40.4015C150.391 40.4015 153.209 39.6299 155.262 38.1684C157.246 36.7538 158.339 34.7861 158.339 32.6245C158.339 26.3907 153.295 25.1843 148.845 24.1147Z" fill="#1D1D1B"/>
<path d="M80.4855 5.39082C76.4067 1.92078 70.8652 0 64.8807 0H53.0314C51.9738 0 51.5967 0.502138 51.5967 0.971614V1.08185C51.5967 1.67992 52.0477 2.01671 52.4847 2.34534C53.0314 2.75358 53.5982 3.18223 53.5982 4.18242V35.7292C53.5982 36.6927 53.0354 37.1254 52.4907 37.5438C52.0516 37.8806 51.5967 38.2297 51.5967 38.8298V38.94C51.5967 39.4095 51.9738 39.9096 53.0314 39.9096H66.8283C72.4516 39.9096 77.5441 37.999 81.1679 34.529C85.0092 30.8548 87.0387 25.6987 87.0387 19.6282C87.0387 14.0455 84.7119 8.9915 80.4855 5.39082ZM76.0814 7.88721C79.5176 11.3062 81.4094 16.1031 81.4094 21.3939C81.4094 26.1356 79.8848 30.1363 77.0033 32.9613C74.3293 35.5822 70.5998 37.0274 66.505 37.0274H61.2569C59.8301 37.0274 59.0119 36.0293 59.0119 34.2881V4.34573C59.0119 3.40065 59.445 2.88013 60.2272 2.88013H64.0186C68.5206 2.89404 72.8429 4.68818 76.0814 7.88721Z" fill="#1D1D1B"/>
<path d="M129.172 12.1755C126.157 12.1755 123.81 13.6615 122.437 16.3988V13.4778C122.437 12.9165 122.28 12.5287 121.97 12.3266C121.661 12.1245 121.172 12.147 120.609 12.4246L116.497 14.3066L116.475 14.3188C115.834 14.6821 115.509 15.1067 115.509 15.5823V15.6925C115.509 16.2886 115.984 16.6274 116.443 16.954C117.041 17.3847 117.672 17.8297 117.672 18.9033V35.7269C117.672 36.6965 117.103 37.1068 116.552 37.5048C116.119 37.8171 115.67 38.1417 115.67 38.7173V38.9377C115.67 39.299 115.85 39.9073 117.051 39.9073H123.762C124.959 39.9073 125.143 39.295 125.143 38.9377V38.7173C125.143 38.1294 124.634 37.8069 124.145 37.4926C123.521 37.0843 122.872 36.6761 122.872 35.7249V23.1062C122.872 18.042 125.031 15.7762 127.172 15.7762C128.731 15.7762 129.118 16.6478 129.567 17.6602C129.98 18.5931 130.449 19.6484 131.988 19.6484C133.526 19.6484 134.452 18.5359 134.452 16.7417C134.45 14.4698 132.818 12.1755 129.172 12.1755Z" fill="#1D1D1B"/>
<path d="M112.803 31.0856C112.528 30.9912 112.231 30.994 111.958 31.0936C111.685 31.1932 111.453 31.3838 111.298 31.6347L111.279 31.6735C109.957 34.619 107.238 36.3091 103.813 36.3091C99.7026 36.3091 96.5198 33.6555 95.2507 29.1771L109.967 24.2313C111.843 23.5924 112.715 22.4636 112.715 20.6755C112.715 16.4992 108.84 12.178 102.353 12.178C94.9015 12.178 89.2842 18.1628 89.2842 26.101C89.2842 30.3243 90.5773 33.9474 93.0257 36.5785C95.3565 39.0831 98.5932 40.4568 102.135 40.4568C109.239 40.4568 112.771 35.5763 113.416 32.292C113.519 31.6164 113.166 31.2265 112.803 31.0856ZM101.54 14.5519C104.983 14.5519 107.573 18.3281 107.573 20.7755C107.573 21.6185 107.25 22.0982 106.471 22.4248L94.7418 26.7297C94.6318 25.9312 94.5811 25.1254 94.5902 24.319C94.5982 18.667 97.5136 14.5519 101.54 14.5519Z" fill="#1D1D1B"/>
<path d="M19.9317 11.7408L27.339 9.86083C27.7775 9.74874 28.2372 9.75648 28.672 9.88328L37.6357 12.498C37.4003 8.61976 37.055 5.72331 37.055 5.72331L28.658 3.27387C28.2134 3.14296 27.7425 3.13732 27.2951 3.25755L20.0873 5.18034C19.7425 5.27185 19.3829 5.28971 19.031 5.23282C18.6791 5.17593 18.3424 5.0455 18.042 4.84967L11.5706 0.622349C11.1306 0.336181 10.6165 0.192261 10.0954 0.209375C9.57427 0.226488 9.0703 0.403834 8.64917 0.71828L1.12614 6.35199C1.12614 6.35199 0.74502 9.15254 0.473633 12.9267L8.7609 8.0074C9.13479 7.78621 9.55675 7.66403 9.9885 7.65191C10.4203 7.63979 10.8481 7.73812 11.2333 7.93801L18.1338 11.5305C18.6891 11.8165 19.3265 11.889 19.9297 11.7346" fill="#1D1D1B"/>
<path d="M18.1126 29.224L11.4656 25.8397C11.0711 25.6395 10.6333 25.5453 10.1935 25.566C9.75358 25.5868 9.32611 25.7217 8.95129 25.9581L1.72559 30.5283C1.94675 31.0074 2.24262 31.4466 2.60161 31.8286C6.92984 36.2559 18.9966 40.8262 18.9966 40.8262C18.9966 40.8262 31.2669 36.1151 35.4594 31.8286C35.9423 31.3346 36.3355 30.6038 36.6567 29.7098L28.6488 27.3726C28.1921 27.2412 27.7087 27.2412 27.252 27.3726L19.9485 29.4138C19.3352 29.5847 18.6819 29.5194 18.1126 29.2301" fill="#1D1D1B"/>
<path d="M37.8439 17.9833L28.6447 15.3011C28.1879 15.1697 27.7046 15.1697 27.2478 15.3011L19.9683 17.3423C19.3401 17.5175 18.6706 17.4446 18.0925 17.1382L11.5174 13.6416C11.1093 13.4254 10.6525 13.3239 10.1935 13.3476C9.73455 13.3713 9.28999 13.5192 8.90528 13.7763L0.212891 19.5938C0.212891 21.4594 0.270767 24.4028 0.444375 26.1134L8.71969 20.941C9.10643 20.7001 9.54808 20.5669 10.0007 20.5547C10.4534 20.5426 10.9013 20.6518 11.2999 20.8715L18.1245 24.6478C18.6913 24.9622 19.3526 25.0481 19.9783 24.8886L27.3496 23.0169C27.7883 22.9045 28.2482 22.9129 28.6826 23.0413L37.6384 25.6541C37.838 23.5823 37.8818 20.2204 37.8539 17.9833" fill="#1D1D1B"/>
</svg>
