<svg width="161" height="84" viewBox="0 0 161 84" fill="none" xmlns="http://www.w3.org/2000/svg">
<g style="mix-blend-mode:multiply" clip-path="url(#clip0_1934_4075)">
<path d="M15.3541 63.7414C15.1993 58.4322 15.3541 53.0919 15.7565 47.7207C16.1744 42.3494 16.8709 36.9936 18.0936 31.9173C18.4032 30.6443 18.7437 29.4024 19.1306 28.1915C19.3164 27.5861 19.5176 26.9962 19.7343 26.4063L19.8736 26.0182L19.9664 25.7698L20.1677 25.2886C20.7249 24.0156 21.4368 22.7582 22.4893 21.9044C23.0311 21.5007 23.6656 21.1592 24.3467 21.2058C25.0432 21.2523 25.6623 21.656 26.1576 22.1217C26.6683 22.5874 27.0862 23.1307 27.4732 23.6741C27.6589 23.9535 27.8446 24.2174 27.9994 24.4969L28.5257 25.3972C29.8877 27.5706 31.2343 29.8992 32.6582 32.2588C34.0822 34.634 35.5526 37.0557 37.2861 39.493C37.7195 40.1139 38.1838 40.7194 38.6636 41.3403C38.8958 41.6508 39.1589 41.9613 39.4066 42.2718C39.6078 42.5201 40.0566 43.048 40.4281 43.4361C41.9449 45.0816 43.6165 46.6029 45.4738 47.7828C47.3157 48.9781 49.3433 49.8319 51.4483 50.2355C53.5533 50.6547 55.7666 50.5926 57.8561 50.0648C59.9301 49.4749 61.9422 48.5745 63.7222 47.2705C65.5021 45.982 67.0035 44.2743 68.1952 42.3339C68.8298 41.3869 69.2632 40.2847 69.774 39.2291C70.1609 38.1113 70.6253 37.0091 70.9039 35.8293C71.0586 35.2549 71.2444 34.634 71.3527 34.1062L71.6468 32.7556C71.7397 32.3364 71.8016 31.9483 71.8635 31.5447C71.9254 31.1411 72.1266 30.2097 72.1576 30.0234L72.3588 29.0919C72.4671 28.5176 72.7148 28.3313 72.6993 28.3313C72.8695 28.145 73.0088 28.145 73.241 28.1915C73.4113 28.2381 73.5351 28.4089 73.6589 28.5641C73.7827 28.7349 74.2625 29.6042 74.2625 29.6042C75.3924 31.5602 76.8628 33.9044 78.5189 36.0777C80.1905 38.2511 82.1253 40.4399 84.5862 42.4891C87.0162 44.5227 90.0499 46.3856 93.486 47.5033C95.204 48.0622 96.9839 48.4348 98.7639 48.6055C99.2127 48.6521 99.6461 48.6831 100.095 48.6987C100.528 48.7142 100.977 48.7297 101.364 48.6987C102.169 48.6676 102.974 48.6366 103.794 48.59C107.075 48.2795 110.558 47.317 113.638 45.6249C116.734 43.9483 119.334 41.6197 121.315 39.1514C123.312 36.6831 124.751 34.0906 125.881 31.5292C128.11 26.4218 129.209 21.4386 129.983 16.5641C130.726 11.6896 131.082 6.89271 131.221 2.11134C131.221 1.66115 131.066 1.3041 130.849 1.28857C130.648 1.28857 130.478 1.6301 130.462 2.09582C130.339 6.02337 129.998 9.98198 129.41 13.9406C129.116 15.9276 128.744 17.9147 128.28 19.9173C127.831 21.9199 127.274 23.9225 126.593 25.9561C125.231 29.9923 123.343 34.1527 120.17 38.0648C118.591 40.0053 116.579 41.8371 114.273 43.3119C111.951 44.7711 109.32 45.8888 106.658 46.4477C105.729 46.665 104.816 46.7582 103.887 46.8979C102.974 46.991 102.076 47.0066 101.163 47.0531C99.2592 47.0686 97.2471 46.8358 95.3433 46.3235C93.424 45.8267 91.5822 45.0661 89.9106 44.1502C88.239 43.2342 86.7531 42.1476 85.4066 41.0143C82.7289 38.7323 80.6858 36.264 78.9368 33.8267C78.0701 32.6003 77.2652 31.3895 76.5223 30.1786C76.1508 29.5732 75.7948 28.9833 75.4389 28.3778L75.2376 28.0829C74.7733 27.4154 74.4947 26.7478 73.9839 25.9716C73.7363 25.5991 73.3184 25.1799 72.8231 25.1644C72.3123 25.1489 72.0802 25.5059 71.8944 25.8164C71.6932 26.1734 71.5539 26.6392 71.4146 27.198L71.1979 28.0984L70.9967 29.2472C70.9348 29.5732 70.6562 31.2808 70.5324 32.0725C70.4705 32.4606 70.3776 32.8798 70.3002 33.2834L70.1454 34.013C70.099 34.2614 70.0061 34.5564 69.9442 34.8203C69.4335 37.0557 68.5977 39.1359 67.5916 41.0764C66.5546 43.0014 65.1461 44.6314 63.5364 45.9664C61.9267 47.286 60.0539 48.2795 58.0728 48.8384C57.0977 49.1799 56.0607 49.3351 55.0391 49.3972C54.0176 49.4593 52.9806 49.4128 51.9745 49.242C50.9685 49.0557 49.9779 48.7763 49.0183 48.4192C48.0586 48.0467 47.13 47.5654 46.2477 47.0221C44.4833 45.9044 42.8581 44.5072 41.4032 42.9548L40.8615 42.3649L40.3507 41.775C40.0876 41.48 39.8554 41.1696 39.6078 40.8591C39.128 40.2536 38.6791 39.6482 38.2457 39.0428C36.4967 36.621 35.0263 34.1993 33.6024 31.8086C32.1784 29.4335 30.8319 27.0738 29.4543 24.8539L28.99 24.0777C28.8507 23.8604 28.7114 23.6275 28.5721 23.4102C28.278 22.96 27.9685 22.5253 27.628 22.0906C26.9469 21.2523 26.1421 20.4296 25.1206 20.0415C24.6098 19.8552 24.0371 19.8086 23.5263 19.9794C23.0156 20.1502 22.5512 20.4296 22.1333 20.7866C21.313 21.4852 20.7094 22.4166 20.1986 23.3791C19.951 23.8604 19.7343 24.3571 19.5485 24.8539C19.4557 25.1023 19.3628 25.3507 19.2699 25.5991L18.8985 26.7013C18.3722 28.3157 17.9389 30.0078 17.5519 31.731C16.7935 35.1928 16.2673 38.7944 15.8803 42.458C15.4934 46.0751 15.2302 49.6922 15.1064 53.2937C14.9826 56.8798 14.9826 60.3727 15.1838 63.85C15.1993 63.9276 15.2612 63.9742 15.3076 63.9276C15.3541 63.8966 15.385 63.8034 15.3695 63.6948" fill="#1D1D1B"/>
<path d="M10.3389 63.7412C10.1996 58.2302 10.3389 52.6571 10.7723 47.1306C11.2057 41.6041 11.9177 36.0776 13.2178 30.6597C13.8679 27.9741 14.6882 25.2574 15.7716 22.758C16.3134 21.5006 16.9325 20.2742 17.6599 19.141C18.3874 17.9922 19.2541 16.921 20.2912 16.0672C20.8174 15.6481 21.3901 15.2755 21.9937 14.9961C22.5973 14.7166 23.2784 14.5459 23.9594 14.5769C25.3214 14.639 26.5751 15.3842 27.5967 16.238C28.6337 17.1228 29.5314 18.1629 30.3517 19.2186C31.172 20.2897 31.8995 21.3764 32.596 22.4941C35.5058 27.0892 38.0287 31.8861 41.2171 36.4036C41.6195 36.9624 42.022 37.5368 42.4553 38.0802C42.8887 38.639 43.3066 39.1513 43.8638 39.7878C44.9318 40.9831 46.0926 42.1319 47.4082 43.0789C48.7084 44.0413 50.1633 44.802 51.7265 45.2056C53.2898 45.6248 54.9614 45.6403 56.5401 45.2522C58.1189 44.8331 59.6202 44.1345 60.9204 43.1099C62.236 42.1008 63.2885 40.7813 64.1397 39.3065C64.5886 38.5769 64.9136 37.7697 65.2696 36.9935C65.5482 36.1707 65.8887 35.3479 66.0899 34.4786C66.1983 34.0594 66.3531 33.6093 66.4304 33.1901L66.6781 32.0569C66.8174 31.3428 66.9567 30.5976 67.065 29.899C67.2198 28.921 67.3746 27.9275 67.5294 26.934C67.6377 26.1733 67.7461 25.3971 67.8544 24.6209C68.0556 23.1461 68.2568 21.7955 68.6128 20.5847C68.7521 20.0879 68.9533 19.6222 69.1855 19.172C69.4177 18.7373 69.7582 18.3182 70.2535 18.0698C70.7333 17.8214 71.3524 17.8059 71.9096 17.9301C72.4823 18.0698 72.9776 18.4113 73.3955 18.7994C74.2312 19.6067 74.8194 20.5536 75.3611 21.4695C75.9029 22.401 76.3827 23.3169 76.878 24.2173L77.6364 25.5834L78.596 27.1824C79.7878 29.1849 81.0879 31.1875 82.5893 33.1435C84.0906 35.0996 85.8086 37.009 87.8981 38.7322C89.9567 40.4398 92.4331 41.9146 95.1882 42.7839C96.5502 43.2186 97.9742 43.5135 99.3981 43.6222C99.7541 43.6532 100.11 43.6843 100.451 43.6843C100.807 43.6843 101.163 43.7153 101.488 43.6843L103.5 43.5756C106.193 43.3117 108.948 42.52 111.378 41.1539C113.823 39.8033 115.897 37.9404 117.523 35.8913C119.163 33.8421 120.386 31.6222 121.361 29.4023C123.311 24.9159 124.333 20.3363 125.045 15.7878C125.741 11.2393 126.082 6.67524 126.206 2.09568C126.206 1.66101 126.051 1.30396 125.834 1.30396C125.633 1.30396 125.463 1.62996 125.447 2.08015C125.323 5.83694 124.998 9.59373 124.441 13.304C123.869 17.0297 123.079 20.7399 121.841 24.3725C120.618 28.0051 118.931 31.6067 116.346 34.8046C115.062 36.4036 113.483 37.8318 111.672 38.9961C109.877 40.1448 107.849 41.0297 105.729 41.4954C105.001 41.6817 104.258 41.7593 103.515 41.8835C102.772 41.9611 102.029 41.9767 101.302 42.0232C99.7851 42.0543 98.2218 41.868 96.7205 41.4954C95.2191 41.1228 93.7642 40.5329 92.4177 39.8188C91.0866 39.0892 89.8483 38.2199 88.7185 37.2729C86.4587 35.379 84.6478 33.2056 83.0536 30.9857C82.2642 29.8835 81.5213 28.7503 80.8093 27.617C80.4533 27.0582 80.1283 26.4838 79.7878 25.9249L79.1687 24.8538C78.3638 23.4566 77.6364 22.0439 76.8625 20.6468C76.0886 19.2496 75.3147 17.8214 74.2777 16.5019C73.7514 15.8499 73.1633 15.2289 72.4204 14.7943C71.6929 14.3596 70.7797 14.1733 69.9749 14.3751C69.1391 14.5303 68.489 15.1203 68.102 15.8033C67.6996 16.4864 67.4675 17.247 67.2817 18.0232C66.8793 19.6843 66.74 21.4385 66.5697 23.2858C66.4769 24.2328 66.384 25.1798 66.3066 26.1267L66.1364 27.6015L65.9042 29.3247C65.8113 30.0077 65.6875 30.7218 65.5792 31.4204C65.5173 31.7774 65.4399 32.1345 65.3625 32.476C65.2851 32.8331 65.2077 33.2522 65.0839 33.6403C64.7124 35.2393 64.1397 36.7606 63.4278 38.1888C62.0193 40.9986 59.5893 43.2807 56.6175 44.0724C55.1781 44.5381 53.5839 44.5536 52.129 44.2121C50.6586 43.8551 49.2811 43.1565 48.0583 42.2716C46.8356 41.3867 45.7366 40.3466 44.7461 39.2289C44.4984 38.965 44.2508 38.6701 44.0186 38.3906L43.3685 37.5834C42.9506 37.04 42.5327 36.4812 42.1458 35.9223C38.9728 31.4514 36.45 26.639 33.5092 21.9508C32.4722 20.3208 31.3578 18.6597 30.0422 17.1694C29.3921 16.4243 28.6801 15.7257 27.9217 15.1047C27.1478 14.4993 26.312 13.9715 25.3833 13.661C24.4547 13.3505 23.4331 13.3195 22.5045 13.63C21.5758 13.9249 20.7245 14.4372 19.9816 15.0582C18.4802 16.3001 17.3504 17.9456 16.4062 19.6532C15.4776 21.3764 14.7501 23.2548 14.1619 25.0245C13.5738 26.8253 13.094 28.6416 12.6916 30.4889C11.8712 34.1681 11.3295 37.9249 10.9116 41.7127C10.1068 49.1953 9.81269 56.5536 10.1532 63.8809C10.1687 63.9741 10.2306 64.0206 10.277 63.9896C10.3235 63.943 10.3544 63.8344 10.3389 63.7102" fill="#1D1D1B"/>
<path d="M5.32421 63.5706C5.20039 57.8423 5.33969 52.2071 5.78855 46.5253C6.2374 40.8436 6.98034 35.1463 8.35786 29.3869C8.71385 27.9587 9.10079 26.515 9.56513 25.0712C9.7973 24.3571 10.0295 23.6275 10.3081 22.8979L10.5248 22.3235L10.8034 21.6094C10.9891 21.1437 11.2058 20.678 11.407 20.2122C13.0631 16.5176 15.3693 13.1644 18.4494 11.1307C19.9972 10.1527 21.7616 9.39207 23.6499 9.39207C25.5382 9.39207 27.3027 10.0596 28.8659 11.0376C30.4447 12.0001 31.8686 13.3351 33.1688 14.8099C33.8188 15.5551 34.4379 16.3313 35.0261 17.1385C35.6143 17.9302 36.2024 18.784 36.6822 19.5292C39.7468 24.3571 42.2388 29.0764 45.1486 33.2524C45.5046 33.7802 45.876 34.2769 46.2475 34.7737C46.619 35.2705 47.0369 35.7828 47.3 36.1088C47.9191 36.8539 48.6001 37.5991 49.374 38.2355C50.1479 38.8875 51.0301 39.4619 52.0207 39.8035C52.9958 40.1605 54.0793 40.2226 55.1163 40.0053C56.1378 39.7724 57.1284 39.3377 57.9797 38.6702C58.8309 38.0182 59.481 37.1333 60.0227 36.1709C60.5645 35.2084 60.9669 34.1527 61.2764 33.0505C61.6015 31.9949 61.8646 30.6443 62.0813 29.3558L62.2361 28.3778C62.2825 28.0518 62.3289 27.6482 62.3754 27.2912C62.4682 26.5615 62.5301 25.8319 62.6075 25.1023C62.7314 23.6896 62.8707 22.2769 62.9945 20.8643C63.2576 18.101 63.5207 15.5395 64.016 12.9936C64.4494 10.9445 64.9756 8.72454 66.8175 7.51367C67.7307 6.93929 68.8915 6.79957 69.975 6.98586C71.0739 7.17214 72.0645 7.77758 72.9003 8.49168C74.5564 9.96645 75.7327 11.8293 76.8316 13.6301C77.9151 15.4619 78.8902 17.3093 79.8653 19.1566C80.8559 21.004 81.8309 22.8203 82.9454 24.6676C84.0752 26.5615 85.2825 28.4089 86.6291 30.1631C87.9756 31.9018 89.477 33.5318 91.1795 34.9134C92.8666 36.295 94.7859 37.3972 96.8444 38.0182C97.8659 38.3287 98.9184 38.5305 99.9864 38.6081C101.039 38.7168 102.107 38.6081 103.159 38.546C105.264 38.3132 107.292 37.6922 109.087 36.6676C112.709 34.634 115.186 31.079 116.826 27.2446C118.482 23.3947 119.442 19.2032 120.092 14.9807C120.742 10.7426 121.067 6.427 121.191 2.06477C121.191 1.64562 121.036 1.3041 120.82 1.28857C120.618 1.28857 120.448 1.61458 120.433 2.04925C120.169 9.19026 119.241 16.3002 117.074 22.8047C115.99 26.0337 114.52 29.0919 112.523 31.5602C110.527 34.0285 107.927 35.7983 104.831 36.5589C104.289 36.6987 103.732 36.7608 103.175 36.8694C102.602 36.9315 102.029 36.947 101.457 36.9936C100.327 37.0402 99.2125 36.916 98.1291 36.6676C95.9467 36.1709 93.8882 35.0376 92.0773 33.5163C90.2509 32.0104 88.6567 30.1476 87.2017 28.145C86.4743 27.1514 85.7933 26.1113 85.1432 25.0557C84.8182 24.5279 84.4931 23.9846 84.1836 23.4568L83.1466 21.6249C81.7845 19.1566 80.4844 16.6573 79.1069 14.3132C77.7293 11.969 76.3209 9.76464 74.5719 7.8552C73.6896 6.92376 72.6991 6.05442 71.5073 5.48004C70.3155 4.92117 68.876 4.75041 67.5759 5.16956L67.0806 5.30927L66.6318 5.54213C66.3222 5.66632 66.0746 5.88366 65.8114 6.08547C65.3007 6.50462 64.9137 7.01691 64.5732 7.54472C63.9077 8.63139 63.5052 9.81121 63.1493 11.0066C62.7778 12.2795 62.5147 13.5991 62.2825 14.9962C62.0503 16.3778 61.8801 17.8526 61.7253 19.3895C61.586 20.9263 61.4777 22.5253 61.3693 24.1398C61.3074 24.947 61.2455 25.7698 61.1681 26.5771L61.0443 27.8035L61.0133 28.1139L60.9824 28.3623L60.9205 28.8436C60.8431 29.4956 60.7192 30.1165 60.6109 30.7375C60.5645 31.048 60.4871 31.3429 60.4252 31.6534C60.3633 31.9483 60.3013 32.1812 60.2394 32.4296C59.9918 33.4076 59.6358 34.3235 59.2024 35.1928C58.3511 36.916 56.8653 38.3132 55.0234 38.7168C54.1412 38.9652 53.1816 38.9186 52.2993 38.6547C51.4171 38.3908 50.6277 37.894 49.9467 37.3351C49.2502 36.7608 48.6466 36.1243 48.1048 35.4723L47.1452 34.2614C46.7737 33.7802 46.4178 33.2834 46.0618 32.7711C44.6223 30.722 43.2603 28.502 41.8982 26.189C40.5207 23.8759 39.1432 21.4697 37.5954 19.0169C37.4871 18.8306 37.2549 18.5046 37.0692 18.2252L36.4655 17.3558C36.0631 16.7659 35.6297 16.1915 35.1964 15.6327C34.3141 14.4994 33.3855 13.4283 32.3794 12.4813C31.3733 11.5188 30.3209 10.6961 29.191 10.0285C28.0611 9.36102 26.8848 8.84873 25.6156 8.60035C24.3464 8.33644 22.9999 8.33644 21.7307 8.64692C20.4615 8.9574 19.2852 9.51626 18.2017 10.2148C16.0194 11.612 14.2239 13.6611 12.769 16.0208C12.0261 17.2006 11.407 18.4736 10.8188 19.7621C10.5402 20.4141 10.2616 21.0661 10.014 21.7336L9.84373 22.2148L9.70443 22.5874L9.45678 23.3326C8.80672 25.3041 8.29595 27.2601 7.86257 29.2161C6.99581 33.1282 6.42314 37.0247 5.98976 40.9367C5.15396 48.6831 4.8444 56.1191 5.18491 63.7103C5.20039 63.819 5.2623 63.8655 5.30874 63.8345C5.35517 63.7879 5.38612 63.6482 5.37065 63.524" fill="#1D1D1B"/>
<path d="M0.325181 63.4151C0.26327 60.419 0.278747 57.5626 0.356136 54.6441C0.433525 51.7411 0.588303 48.8382 0.82047 45.9197C1.30028 40.0827 2.05869 34.2146 3.52908 28.1292C3.90055 26.6079 4.31845 25.071 4.81374 23.5031C5.06139 22.7269 5.32451 21.9352 5.61859 21.1435L5.86623 20.4759L6.2377 19.529C6.48534 18.908 6.77942 18.3026 7.05802 17.6816C9.27135 12.7761 12.5526 8.55356 16.6543 6.28706C18.7128 5.15382 20.9726 4.40867 23.3716 4.3621C25.7552 4.31553 28.0304 4.88991 30.1199 5.94554C32.2249 6.97012 34.1906 8.56908 35.9705 10.4475C36.8528 11.3944 37.7195 12.4035 38.5089 13.4591C39.2983 14.4992 40.1341 15.6635 40.7377 16.5794C42.3783 19.1254 43.7559 21.5316 45.1179 23.7981C46.4645 26.0646 49.7148 31.529 50.3804 32.181C51.2162 33.3453 52.6092 34.4785 53.9403 34.2457C54.4665 34.1525 55.2714 33.7334 55.7821 32.9572C56.0607 32.5691 56.2774 32.1344 56.4631 31.6532C56.5096 31.529 56.556 31.4358 56.6024 31.2651L56.6334 31.1409L56.6798 30.9391L56.7727 30.551C56.881 30.0076 57.0049 29.4643 57.0977 28.8589L57.237 27.9274C57.2525 27.8188 57.2835 27.4928 57.3144 27.2444L57.3918 26.4527C57.5002 25.397 57.5621 24.3414 57.6395 23.2858C57.7942 21.19 57.9181 19.0943 58.1502 17.1538C58.3514 15.1823 58.7229 13.4125 59.1563 11.8291L59.4968 10.6803L59.8837 9.62471C60.0076 9.26766 60.1469 8.94166 60.3016 8.61565C60.4409 8.28965 60.5802 7.94812 60.7505 7.65317C61.2458 6.62859 61.8185 5.71268 62.4995 4.81229C63.165 3.92743 64.0318 3.08913 65.1926 2.4837C65.4867 2.34399 65.7962 2.23532 66.1058 2.11113C66.4154 2.00246 66.7559 1.92484 67.0654 1.8317C67.7155 1.67646 68.3965 1.62988 69.0466 1.64541C70.3777 1.67646 71.5849 2.08008 72.6374 2.60789C74.7269 3.71009 76.3985 5.26248 78.0701 7.17193C79.7263 9.08137 81.336 11.5031 82.8528 14.2043C83.6112 15.5393 84.3541 16.9365 85.1125 18.3181L86.2579 20.3983L86.8461 21.4229L87.3259 22.2457C88.3938 24.0309 89.5237 25.7386 90.7155 27.2599C91.9073 28.7812 93.1765 30.1318 94.5076 31.1875C95.8387 32.2431 97.1852 32.9727 98.5473 33.3453C99.2283 33.5316 99.9093 33.6558 100.621 33.6868C100.792 33.6868 100.977 33.7023 101.148 33.6868C101.318 33.6868 101.504 33.6868 101.705 33.6713L102.881 33.5937C104.398 33.3918 105.698 32.9417 106.843 32.2586C107.989 31.5756 109.01 30.6286 109.923 29.4332C110.837 28.2379 111.641 26.7787 112.322 25.1797C113.7 21.9507 114.582 18.1784 115.186 14.2664C115.79 10.3388 116.099 6.27154 116.223 2.12665C116.223 1.72303 116.068 1.3815 115.851 1.36598C115.65 1.36598 115.48 1.69198 115.464 2.0956C115.341 5.51087 115.031 8.84851 114.536 12.093C114.025 15.322 113.329 18.4734 112.353 21.2832C111.409 24.1241 110.14 26.6079 108.732 28.3621C108.035 29.2625 107.292 29.9145 106.534 30.4423C105.76 30.9546 104.955 31.4048 103.949 31.6687C97.7734 33.4539 93.0217 29.3712 87.1092 18.4113C85.2054 14.8873 83.3171 11.2082 81.2276 8.3207C79.1381 5.41772 77.0331 3.39961 74.7888 1.90932C73.6435 1.17969 72.4207 0.574258 70.9968 0.232731C69.5728 -0.108795 67.8858 -0.139843 66.338 0.356922L65.7498 0.527686L65.1926 0.745021C64.8057 0.869212 64.4806 1.07102 64.1401 1.24179C63.4746 1.61436 62.9329 2.08008 62.4221 2.53027C61.447 3.49276 60.7041 4.51734 60.0076 5.66611C58.5681 8.07232 57.4537 11.2858 56.9584 15.5083L56.7882 17.1072C56.7263 17.6351 56.6953 18.2094 56.6644 18.7528C56.5715 19.855 56.5251 20.9882 56.4477 22.1215C56.3703 23.2547 56.3238 24.4035 56.231 25.5367L55.9524 28.3466C55.8286 29.4953 55.3178 32.6467 53.9248 32.9417C51.7579 33.7334 47.4086 25.6454 46.0621 23.3789C44.7155 21.0969 43.3225 18.6752 41.6818 16.0827C41.589 15.9274 41.2794 15.4617 41.0318 15.1047L40.2269 13.9714C39.6697 13.2107 39.0971 12.4501 38.5089 11.7204C37.3326 10.2612 36.0634 8.91061 34.7168 7.74631C33.3703 6.58202 31.9463 5.63506 30.4759 4.92096C29.0055 4.20686 27.4578 3.71009 25.8481 3.49276C24.2539 3.2599 22.5513 3.30647 20.9571 3.648C19.3629 3.974 17.8306 4.57943 16.4066 5.35563C14.9827 6.14735 13.6516 7.14088 12.4288 8.3207C11.2061 9.50052 10.1071 10.8821 9.10109 12.3724C8.09503 13.8627 7.24375 15.5238 6.46986 17.2004C6.0984 18.0542 5.71145 18.8925 5.38642 19.7774L5.15425 20.3983L4.99948 20.8175L4.72087 21.6247C4.0089 23.7825 3.4517 25.8783 2.98736 27.9429C2.05869 32.0878 1.45506 36.1241 1.0062 40.1758C0.557348 44.1655 0.278747 48.062 0.12397 51.9274C0.0465806 53.8524 0.015625 55.7774 0.015625 57.7023C0.015625 59.6428 0.0465806 61.5212 0.139447 63.5548C0.154925 63.6946 0.216836 63.7411 0.26327 63.6946C0.309703 63.6325 0.340659 63.4772 0.325181 63.353" fill="#1D1D1B"/>
<path d="M35.6764 82.7271C35.6764 82.7271 35.6764 82.6495 35.6764 82.6184C35.6764 82.6029 35.6764 82.5874 35.6764 82.5719V82.5408C35.6764 82.2614 35.5836 82.0751 35.5836 82.0751L30.1044 67.6378C29.8877 67.0169 29.1758 66.5356 28.5412 66.5356C27.8911 66.5356 27.1636 67.0014 26.947 67.6378L21.4369 81.9354C21.3285 82.1217 21.2666 82.339 21.2666 82.5719C21.2666 83.317 21.8702 83.9069 22.5977 83.9069C22.6132 83.9069 22.6286 83.9069 22.6441 83.9069H34.2834C34.2834 83.9069 34.3144 83.9069 34.3299 83.9069C34.3299 83.9069 34.3453 83.9069 34.3608 83.9069C34.3763 83.9069 34.5775 83.938 34.8406 83.8138C35.274 83.6275 35.5836 83.2239 35.6455 82.7426M30.383 80.6935H26.6219C26.0028 80.6935 25.6623 80.1967 25.879 79.6068L28.1233 73.8319C28.34 73.242 28.7114 73.242 28.9591 73.8319L31.1414 79.6068C31.3581 80.1967 31.0176 80.6935 30.3985 80.6935" fill="#1D1D1B"/>
<path d="M82.3883 82.7271C82.3883 82.7271 82.3883 82.6495 82.3883 82.6184C82.3883 82.6029 82.3883 82.5874 82.3883 82.5719V82.5408C82.3883 82.2614 82.2955 82.0751 82.2955 82.0751L76.8163 67.6378C76.5997 67.0169 75.8877 66.5356 75.2531 66.5356C74.603 66.5356 73.8756 67.0014 73.6589 67.6378L68.1488 81.9354C68.0404 82.1217 67.9785 82.339 67.9785 82.5719C67.9785 83.317 68.5822 83.9069 69.3096 83.9069C69.3251 83.9069 69.3406 83.9069 69.356 83.9069H80.9953C80.9953 83.9069 81.0263 83.9069 81.0418 83.9069C81.0418 83.9069 81.0573 83.9069 81.0727 83.9069C81.0882 83.9069 81.2894 83.938 81.5525 83.8138C81.9859 83.6275 82.2955 83.2239 82.3574 82.7426M77.0949 80.6935H73.3338C72.7147 80.6935 72.3742 80.1967 72.5909 79.6068L74.8352 73.8319C75.0519 73.242 75.4233 73.242 75.671 73.8319L77.8533 79.6068C78.07 80.1967 77.7295 80.6935 77.1104 80.6935" fill="#1D1D1B"/>
<path d="M160.984 82.7271C160.984 82.7271 160.984 82.6495 160.984 82.6184C160.984 82.6029 160.984 82.5874 160.984 82.5719V82.5408C160.984 82.2614 160.891 82.0751 160.891 82.0751L155.412 67.6378C155.195 67.0169 154.483 66.5356 153.849 66.5356C153.199 66.5356 152.471 67.0014 152.255 67.6378L146.744 81.9354C146.636 82.1217 146.574 82.339 146.574 82.5719C146.574 83.317 147.178 83.9069 147.905 83.9069C147.921 83.9069 147.936 83.9069 147.952 83.9069H159.591C159.591 83.9069 159.622 83.9069 159.637 83.9069C159.637 83.9069 159.653 83.9069 159.668 83.9069C159.684 83.9069 159.885 83.938 160.148 83.8138C160.582 83.6275 160.891 83.2239 160.953 82.7426M155.691 80.6935H151.93C151.31 80.6935 150.97 80.1967 151.187 79.6068L153.431 73.8319C153.648 73.242 154.019 73.242 154.267 73.8319L156.449 79.6068C156.666 80.1967 156.325 80.6935 155.706 80.6935" fill="#1D1D1B"/>
<path d="M40.9082 82.6184V67.6534C40.9082 66.9237 41.3261 66.5356 42.0536 66.5356H43.5085C44.2359 66.5356 44.6229 66.9393 44.6229 67.6534V80.6003H50.8914C51.6188 80.6003 52.0367 81.0039 52.0367 81.718V82.6029C52.0367 83.3325 51.6188 83.7206 50.8914 83.7206H42.0536C41.3261 83.7206 40.9082 83.317 40.9082 82.6029" fill="#1D1D1B"/>
<path d="M66.137 67.6534V68.5382C66.137 69.2679 65.7191 69.656 64.9917 69.656H61.2151V82.3545C61.2151 83.0842 60.8127 83.4723 60.1007 83.4723H58.6922C57.9647 83.4723 57.5778 83.0686 57.5778 82.3545V69.656H53.8322C53.1047 69.656 52.7178 69.2523 52.7178 68.5382V67.6534C52.7178 66.9237 53.1202 66.5356 53.8322 66.5356H64.9917C65.7191 66.5356 66.137 66.9393 66.137 67.6534Z" fill="#1D1D1B"/>
<path d="M144.687 67.6534V68.5382C144.687 69.2679 144.269 69.656 143.541 69.656H139.765V82.3545C139.765 83.0842 139.362 83.4723 138.65 83.4723H137.242C136.515 83.4723 136.128 83.0686 136.128 82.3545V69.656H132.382C131.655 69.656 131.268 69.2523 131.268 68.5382V67.6534C131.268 66.9237 131.67 66.5356 132.382 66.5356H143.541C144.269 66.5356 144.687 66.9393 144.687 67.6534Z" fill="#1D1D1B"/>
<path d="M100.729 77.2317H98.5623V82.6185C98.5623 83.3481 98.1599 83.7362 97.4479 83.7362H95.993C95.2656 83.7362 94.8477 83.3326 94.8477 82.6185V67.8086C94.8477 67.079 95.2656 66.6909 95.993 66.6909H102.277C105.76 66.6909 107.694 69.1747 107.694 72.1553C107.694 74.5616 106.363 76.471 104.072 77.0609C104.258 78.722 105.187 80.7866 106.549 80.7866C107.044 80.7866 107.323 80.7401 107.617 80.6004C108.298 80.3675 108.576 80.5072 108.886 81.1437L109.103 81.6094C109.412 82.2459 109.335 82.7737 108.747 83.1152C107.926 83.5344 106.967 83.7672 105.945 83.7672C101.906 83.7672 100.915 79.0945 100.729 77.2472M101.766 74.5771C103.097 74.5771 103.933 73.5525 103.933 72.233C103.933 70.9134 103.066 69.8423 101.766 69.8423H98.5623V74.5771H101.766Z" fill="#1D1D1B"/>
<path d="M113.282 77.5421V67.762C113.282 67.0324 113.7 66.6443 114.427 66.6443H115.867C116.594 66.6443 116.981 67.0479 116.981 67.762V77.5421C116.981 79.6689 118.374 80.7711 120.046 80.7711C121.717 80.7711 123.126 79.6689 123.126 77.5421V67.762C123.126 67.0324 123.544 66.6443 124.271 66.6443H125.726C126.454 66.6443 126.841 67.0479 126.841 67.762V77.5421C126.841 81.7646 123.73 84.0156 120.046 84.0156C116.362 84.0156 113.267 81.7646 113.267 77.5421" fill="#1D1D1B"/>
</g>
<defs>
<clipPath id="clip0_1934_4075">
<rect width="161" height="84" fill="white"/>
</clipPath>
</defs>
</svg>
