<?xml version="1.0" encoding="UTF-8"?><svg id="Layer_2" xmlns="http://www.w3.org/2000/svg" viewBox="0 0 424.67 60.89"><g id="Layer_1-2"><path d="M110.85,3.72c-.71-1.42-2.59-2.58-4.18-2.58h-3.23c-1.59,0-3.45,1.17-4.13,2.6l-25.63,53.54c-.71,1.42,.06,2.43,1.65,2.43h5.92c2.34,0,3.41-1.06,4.04-2.37,.64-1.3,2.05-4.14,2.32-4.71,.36-.78,1.49-1.26,3.08-1.26l27.58,.02c1.59,0,2.61,.31,3.08,1.24,.31,.61,1.72,3.16,2.41,4.55,.7,1.39,1.87,2.53,4.15,2.53h8.59c1.59,0,2.28-1.21,1.71-2.33-.57-1.12-27.36-53.67-27.36-53.67Zm-16.19,39.39c-1.59,0-2.34-1.18-1.67-2.62l10.1-21.64c.67-1.44,1.76-1.43,2.41,0l9.83,21.64c.66,1.44-.11,2.63-1.69,2.63h-18.99ZM308.89,4.14V57.25c0,1.46,1.3,2.46,2.89,2.46h7c1.59,0,2.89-1.01,2.89-2.6V4.03c0-1.59-1.03-2.89-2.61-2.89h-7.28c-1.59,0-2.89,.98-2.89,3Zm-117.36,33.27c-.91-1.3-.41-2.74,1.11-3.19,0,0,6.05-1.81,8.95-4.41,2.9-2.6,4.35-6.37,4.35-11.27,0-3.21-.56-5.9-1.68-8.09-1.12-2.19-2.72-3.98-4.8-5.35-2.08-1.38-4.57-2.39-7.47-3.02-2.91-.63-6.82-.81-6.82-.81-1.59-.07-4.19-.13-5.77-.13h-29.08c-1.59,0-2.89,1.3-2.89,2.89V57.12c0,1.59,1.3,2.6,2.89,2.6h6.88c1.59,0,2.89-1.01,2.89-2.6,0,0,0-21.12,.02-21.12,.01,0,.02-.01,.02-.03,0-.02,13.05-.03,13.05-.03,1.59,0,3.64,1.06,4.55,2.36l13.54,19.07c1.26,1.69,2.46,2.35,4.04,2.35h9c1.59,0,1.84-1.5,1.29-2.28-.55-.77-14.07-20.04-14.07-20.04Zm-5.48-10.78c-1.78,.41-3.79,.49-3.79,.49-1.59,.07-4.18,.13-5.77,.13h-13.48c-1.59,0-2.89-1.3-2.89-2.89V13.6c0-1.59,1.3-2.89,2.89-2.89h13.48c1.59,0,4.18,.06,5.77,.12,0,0,2.01,.08,3.79,.49,1.78,.41,3.2,.99,4.23,1.73,1.04,.75,1.78,1.62,2.23,2.63,.44,1.01,.67,2.1,.67,3.3s-.23,2.29-.67,3.3c-.45,1-1.19,1.88-2.23,2.63-1.03,.75-2.45,1.33-4.23,1.73ZM394.88,1.14c-1.59,0-2.87,1.05-2.87,2.58,0,.73,.02,33.96,.02,33.96,0,1.59-.9,1.95-2,.81L356.02,3.22c-1.1-1.14-2.72-2.08-4.9-2.08h-6.39c-2.01,0-2.89,1.07-2.89,2.16V57.6c0,1.08,1.03,2.12,2.62,2.12h6.4c1.58,0,2.7-.86,2.7-2.33,0-.73,.03-35.77,.03-35.77,0-1.59,.9-1.95,2-.8l35.45,36.86c1.13,1.13,2.49,2.05,4.93,2.05h4.81c1.59,0,2.89-1.3,2.89-2.89V4.03c0-1.59-1.3-2.89-2.89-2.89h-5.91Zm-138.63,33.11c-.77,1.39-2.04,1.38-2.8,0L236.83,3.72c-.71-1.42-2.16-2.58-4.17-2.58h-9.01c-1.59,0-2.89,1.3-2.89,2.89V57.05c0,1.59,1.04,2.67,2.89,2.67h5.6c1.59,0,2.74-1,2.74-2.53,0-.73,.02-38.56,.08-38.56s20.75,38.55,20.75,38.55c.75,1.4,2.59,1.4,3.35,.01,0,0,20.85-38.45,20.92-38.45,.06,0,.04,37.35,.04,38.45,0,1.53,1.22,2.53,2.82,2.53h6.45c1.59,0,2.89-.79,2.89-2.89V4.03c0-1.59-1.3-2.89-2.89-2.89h-8.64c-2.21,0-3.53,1.13-4.32,2.51l-17.17,30.6ZM0,30.38c0,28.61,29.26,30.06,35.12,30.06,19.42,0,27.62-5.25,27.96-5.47,1.21-.69,2.69-2.07,2.69-4.67V30.55c0-1.82-1.48-3.3-3.3-3.3h-24.39c-1.82,0-3.02,1.48-3.02,3.3v2.04c0,1.82,1.2,3.31,3.02,3.31h14.11c1.36,0,2.47,1.11,2.47,2.47,0,0-.01,8.65-.01,9.2-2.79,1.14-15.48,4.85-25.68,2.41-14.8-3.54-15.95-15.75-15.95-19.4,0-3.07,.92-18.44,19.09-20,14.71-1.26,24.4,4.68,24.49,4.74,1.73,.9,3.52,.26,4.48-1.57,0-.02,1.83-3.72,1.83-3.72,.76-1.52,.51-3.11-1.36-4.37-.12-.07-10.44-5.66-26.44-5.66C.98,0,0,27.27,0,30.38Zm417.99,17.16c3.68,0,6.68,3,6.68,6.68s-3,6.68-6.68,6.68-6.68-3-6.68-6.68,3-6.68,6.68-6.68Zm.02,12.36c3.07,0,5.39-2.48,5.39-5.68s-2.31-5.68-5.39-5.68-5.42,2.48-5.42,5.68,2.31,5.68,5.42,5.68Zm-2.57-9.6h3c1.8,0,2.68,.72,2.68,2.2,0,1.26-.8,2.17-2.02,2.17l2.22,3.46h-1.35l-2.18-3.46h-1.07v3.46h-1.28v-7.83Zm1.28,3.37h1.52c.98,0,1.61-.2,1.61-1.22,0-.89-.8-1.15-1.61-1.15h-1.52v2.37Z"/></g></svg>