<svg width="184" height="50" viewBox="0 0 184 50" fill="none" xmlns="http://www.w3.org/2000/svg">
<g clip-path="url(#clip0_1934_4088)">
<path fill-rule="evenodd" clip-rule="evenodd" d="M180.608 49.5829V46.1318H181.314L182.158 48.577C182.239 48.8059 182.296 48.9777 182.328 49.084C182.369 48.9613 182.434 48.7732 182.515 48.5279L183.367 46.1236H184V49.5747H183.545V46.6879L182.515 49.5747H182.093L181.062 46.6388V49.5747H180.608V49.5829ZM178.49 49.5829V46.5407H177.314V46.1318H180.137V46.5407H178.961V49.5829H178.49ZM147.601 25.5151C147.601 24.5992 148.128 24.1167 149.191 24.1167H151.487C152.591 24.1167 153.499 24.6483 154.246 25.4579L168.275 40.2927C168.729 40.767 169.33 40.857 169.322 40.3091V25.2862C169.322 24.5583 169.703 24.1167 170.62 24.1085H172.884C173.573 24.1085 174.182 24.4193 174.174 25.2616V48.0699C174.174 49.3866 174.068 49.6483 172.908 49.6483H170.79C169.881 49.6483 169.403 49.4684 168.786 48.8059L153.816 32.9162C153.175 32.2211 152.509 32.2211 152.509 33.1125V48.5197C152.509 49.223 152.193 49.6237 151.349 49.6319H148.753C147.998 49.6319 147.601 49.2884 147.592 48.5688V25.507L147.601 25.5151ZM134.334 24.1249H137.912C138.375 24.1249 138.756 24.5092 138.756 24.9836V48.7978C138.756 49.2721 138.375 49.6565 137.912 49.6565H134.334C133.872 49.6565 133.49 49.2721 133.49 48.7978V24.9754C133.49 24.5011 133.872 24.1167 134.334 24.1167V24.1249ZM95.2493 25.875C95.2493 24.6973 95.8335 24.1085 97.0101 24.1167H100.053C101.692 24.1167 101.935 24.591 102.852 26.2512L109.481 38.6489C109.83 39.2786 110.26 39.2868 110.625 38.6489L117.83 25.8586C118.366 24.8854 118.934 24.1167 119.689 24.1085H123.291C124.338 24.1085 124.841 24.2557 124.849 25.7032V48.2662C124.841 49.3539 124.5 49.6401 123.567 49.6483H120.987C120.013 49.6483 119.68 49.1494 119.68 48.258V31.7386L110.82 48.258C110.211 49.3866 109.676 49.3784 109.067 48.258L100.053 31.5014V48.258C100.037 49.1821 99.6471 49.6401 98.8681 49.6401H96.6368C95.7848 49.6401 95.2412 49.2639 95.2412 48.2417V25.8668L95.2493 25.875ZM69.0737 29.6941C69.0737 28.7045 69.7228 28.2466 70.8994 28.2466H77.7394C80.5874 28.2384 83.4598 29.367 83.4679 31.9839C83.4841 34.2247 81.5773 35.525 78.0883 35.5086L70.9156 35.525C69.8446 35.5331 69.0656 35.0588 69.0737 34.0775V29.7104V29.6941ZM63.7104 25.7114C63.7104 24.7301 64.3595 24.1167 65.5279 24.1167L78.6563 24.1004C84.4253 24.1004 88.9935 25.9567 89.0178 31.6977C88.9935 35.4841 87.2733 37.3732 83.5003 38.559C82.5672 38.8534 82.3887 39.434 82.9892 40.3091L88.7663 48.6342C89.2612 49.3457 89.0016 49.6401 88.2226 49.6401H84.7012C83.7275 49.6401 83.3462 49.5338 82.8593 48.855L76.9037 40.6689C76.2221 39.6793 75.2809 39.2623 73.9908 39.2705H69.1873L69.09 48.258C69.09 49.174 68.7005 49.6401 67.9297 49.6483H64.9843C64.0269 49.6483 63.7185 49.1167 63.7185 48.258V25.7114H63.7104ZM44.6994 31.8203C44.9266 31.3133 45.2268 31.2888 45.4784 31.8203L50.0384 41.2904C50.3711 41.9855 50.1439 42.3699 49.2189 42.3699H40.9021C40.2286 42.3699 39.9609 41.9283 40.2449 41.3558L44.6913 31.8122L44.6994 31.8203ZM42.5411 26.1775C43.1497 24.9263 43.5391 24.1085 45.4865 24.1167C47.3527 24.1167 47.7259 24.8364 48.3588 26.0876L59.5155 48.0127C60.2052 49.3784 59.8482 49.6401 58.6311 49.6401H55.2962C54.2658 49.6401 54.0061 49.5256 53.6329 48.7405L52.6998 46.8105C52.3833 46.1563 52.1156 46.0254 50.7606 46.0254H39.255C38.3624 46.0254 37.973 46.2381 37.6971 46.8351L36.8857 48.5524C36.4475 49.4929 36.1717 49.6319 35.1737 49.6319H32.6421C31.7496 49.6319 31.4331 49.2394 31.8713 48.3316L42.5249 26.1612L42.5411 26.1775ZM24.1955 30.2011C25.1205 30.6672 25.729 30.7327 26.086 30.0948L27.2544 27.8786C27.652 27.1916 27.4248 26.6764 26.8487 26.3329C21.5666 23.3643 11.8055 22.4893 6.10138 25.924C-1.02267 30.3074 -1.9152 40.9306 3.44 45.8373C8.99806 51.3248 18.9944 50.6623 26.7595 48.0209C28.1794 47.4566 28.3336 46.8841 28.3336 44.8069V37.3241C28.3336 36.2364 27.6439 35.5168 26.5566 35.5086L16.3736 35.525C15.6109 35.525 15.2539 35.9093 15.2458 36.6617V38.2073C15.2458 38.927 15.6758 39.2868 16.5116 39.2868H22.4185C23.3029 39.2868 23.6762 39.663 23.6843 40.3336V44.3571C17.2499 46.8187 10.3612 46.099 7.52943 42.5253C3.86193 37.4713 6.31234 30.0375 11.3917 28.9172C15.9355 27.7968 20.2034 28.2302 24.1955 30.2093V30.2011Z" fill="#1D1D1B"/>
<path fill-rule="evenodd" clip-rule="evenodd" d="M159.488 0.875143L151.593 14.7777C150.62 16.2824 151.033 17.8199 152.818 17.828L168.843 17.8117C171.018 17.8117 171.367 16.6013 170.15 14.565L162.369 0.875143C161.63 -0.286126 160.17 -0.302482 159.488 0.875143Z" fill="#A6A6A6"/>
</g>
<defs>
<clipPath id="clip0_1934_4088">
<rect width="184" height="50" fill="white"/>
</clipPath>
</defs>
</svg>
