<svg width="178" height="90" viewBox="0 0 178 90" fill="none" xmlns="http://www.w3.org/2000/svg">
<g clip-path="url(#clip0_1935_3458)">
<path d="M33.0282 25.0069C33.0282 25.4292 32.8641 25.7908 32.536 26.0916C32.2078 26.3924 31.8128 26.5443 31.351 26.5443C30.8891 26.5443 30.4972 26.3924 30.169 26.0916C29.8408 25.7908 29.6768 25.4292 29.6768 25.0069C29.6768 24.5845 29.8408 24.2229 30.169 23.9251C30.4972 23.6243 30.8922 23.4724 31.351 23.4724C31.8098 23.4724 32.2078 23.6243 32.536 23.9251C32.8641 24.226 33.0282 24.5875 33.0282 25.0069ZM39.7797 50.7854C40.0411 50.8462 40.2051 50.9677 40.272 51.147C40.3054 51.2382 40.3054 51.3141 40.272 51.3719C40.2386 51.5815 40.0927 51.6879 39.8284 51.6879C39.6977 51.6879 39.564 51.6575 39.4334 51.5967C38.2848 51.2655 37.2821 50.8614 36.4283 50.3783C35.5745 49.8951 34.8361 49.3695 34.2132 48.7983C33.5873 48.227 33.0708 47.6406 32.6606 47.039C32.2504 46.4343 31.9283 45.8479 31.7004 45.2766C31.1079 43.9215 30.8283 42.4934 30.8648 40.9893V30.3333C30.8648 30.1844 30.9286 30.0477 31.0593 29.9262C31.1261 29.8958 31.2082 29.8654 31.3054 29.835C31.5667 29.8654 31.7308 29.9566 31.7976 30.1054C31.828 30.1936 31.8462 30.2695 31.8462 30.3303V40.9863C31.8128 42.0406 31.904 42.9795 32.1167 43.806C32.3294 44.6355 32.6241 45.3708 33.0039 46.018C33.3807 46.6652 33.8091 47.2304 34.2862 47.7105C34.7602 48.1936 35.2463 48.6129 35.7386 48.9745C36.9205 49.7858 38.2666 50.3904 39.7797 50.7793" fill="#313131"/>
<path d="M39.7797 50.7854C40.0411 50.8462 40.2051 50.9677 40.272 51.147C40.3054 51.2382 40.3054 51.3141 40.272 51.3719C40.2386 51.5815 40.0927 51.6879 39.8284 51.6879C39.6977 51.6879 39.564 51.6575 39.4334 51.5967C38.2848 51.2655 37.2821 50.8614 36.4283 50.3783C35.5745 49.8951 34.8361 49.3695 34.2132 48.7983C33.5873 48.227 33.0708 47.6406 32.6606 47.039C32.2504 46.4343 31.9283 45.8479 31.7004 45.2766C31.1079 43.9215 30.8283 42.4934 30.8648 40.9893V30.3333C30.8648 30.1844 30.9286 30.0477 31.0593 29.9262C31.1261 29.8958 31.2082 29.8654 31.3054 29.835C31.5667 29.8654 31.7308 29.9566 31.7976 30.1054C31.828 30.1936 31.8462 30.2695 31.8462 30.3303V40.9863C31.8128 42.0406 31.904 42.9795 32.1167 43.806C32.3294 44.6355 32.6241 45.3708 33.0039 46.018C33.3807 46.6652 33.8091 47.2304 34.2862 47.7105C34.7602 48.1936 35.2463 48.6129 35.7386 48.9745C36.9205 49.7858 38.2666 50.3904 39.7797 50.7793M33.0282 25.0069C33.0282 25.4292 32.8641 25.7908 32.536 26.0916C32.2078 26.3924 31.8128 26.5443 31.351 26.5443C30.8891 26.5443 30.4972 26.3924 30.169 26.0916C29.8408 25.7908 29.6768 25.4292 29.6768 25.0069C29.6768 24.5845 29.8408 24.2229 30.169 23.9251C30.4972 23.6243 30.8922 23.4724 31.351 23.4724C31.8098 23.4724 32.2078 23.6243 32.536 23.9251C32.8641 24.226 33.0282 24.5875 33.0282 25.0069Z" stroke="#313131" stroke-width="1.3"/>
<path d="M33.0282 25.0069C33.0282 25.4292 32.8641 25.7908 32.536 26.0916C32.2078 26.3924 31.8128 26.5443 31.351 26.5443C30.8891 26.5443 30.4972 26.3924 30.169 26.0916C29.8408 25.7908 29.6768 25.4292 29.6768 25.0069C29.6768 24.5845 29.8408 24.2229 30.169 23.9251C30.4972 23.6243 30.8922 23.4724 31.351 23.4724C31.8098 23.4724 32.2078 23.6243 32.536 23.9251C32.8641 24.226 33.0282 24.5875 33.0282 25.0069ZM39.7797 50.7854C40.0411 50.8462 40.2051 50.9677 40.272 51.147C40.3054 51.2382 40.3054 51.3141 40.272 51.3719C40.2386 51.5815 40.0927 51.6879 39.8284 51.6879C39.6977 51.6879 39.564 51.6575 39.4334 51.5967C38.2848 51.2655 37.2821 50.8614 36.4283 50.3783C35.5745 49.8951 34.8361 49.3695 34.2132 48.7983C33.5873 48.227 33.0708 47.6406 32.6606 47.039C32.2504 46.4343 31.9283 45.8479 31.7004 45.2766C31.1079 43.9215 30.8283 42.4934 30.8648 40.9893V30.3333C30.8648 30.1844 30.9286 30.0477 31.0593 29.9262C31.1261 29.8958 31.2082 29.8654 31.3054 29.835C31.5667 29.8654 31.7308 29.9566 31.7976 30.1054C31.828 30.1936 31.8462 30.2695 31.8462 30.3303V40.9863C31.8128 42.0406 31.904 42.9795 32.1167 43.806C32.3294 44.6355 32.6241 45.3708 33.0039 46.018C33.3807 46.6652 33.8091 47.2304 34.2862 47.7105C34.7602 48.1936 35.2463 48.6129 35.7386 48.9745C36.9205 49.7858 38.2666 50.3904 39.7797 50.7793" fill="#313131"/>
<path d="M33.0282 25.0069C33.0282 25.4292 32.8641 25.7908 32.536 26.0916C32.2078 26.3924 31.8128 26.5443 31.351 26.5443C30.8891 26.5443 30.4972 26.3924 30.169 26.0916C29.8408 25.7908 29.6768 25.4292 29.6768 25.0069C29.6768 24.5845 29.8408 24.2229 30.169 23.9251C30.4972 23.6243 30.8922 23.4724 31.351 23.4724C31.8098 23.4724 32.2078 23.6243 32.536 23.9251C32.8641 24.226 33.0282 24.5875 33.0282 25.0069ZM39.7797 50.7854C40.0411 50.8462 40.2051 50.9677 40.272 51.147C40.3054 51.2382 40.3054 51.3141 40.272 51.3719C40.2386 51.5815 40.0927 51.6879 39.8284 51.6879C39.6977 51.6879 39.564 51.6575 39.4334 51.5967C38.2848 51.2655 37.2821 50.8614 36.4283 50.3783C35.5745 49.8951 34.8361 49.3695 34.2132 48.7983C33.5873 48.227 33.0708 47.6406 32.6606 47.039C32.2504 46.4343 31.9283 45.8479 31.7004 45.2766C31.1079 43.9215 30.8283 42.4934 30.8648 40.9893V30.3333C30.8648 30.1844 30.9286 30.0477 31.0593 29.9262C31.1261 29.8958 31.2082 29.8654 31.3054 29.835C31.5667 29.8654 31.7308 29.9566 31.7976 30.1054C31.828 30.1936 31.8462 30.2695 31.8462 30.3303V40.9863C31.8128 42.0406 31.904 42.9795 32.1167 43.806C32.3294 44.6355 32.6241 45.3708 33.0039 46.018C33.3807 46.6652 33.8091 47.2304 34.2862 47.7105C34.7602 48.1936 35.2463 48.6129 35.7386 48.9745C36.9205 49.7858 38.2666 50.3904 39.7797 50.7793V50.7854Z" stroke="#313131" stroke-width="1.3"/>
<path d="M86.4878 38.3245C86.2569 37.5436 85.8801 36.6928 85.3575 35.7752C84.8318 34.8576 84.06 34.022 83.0421 33.2715C82.5165 32.8188 81.8905 32.4298 81.1674 32.0986C80.5445 31.7978 79.7818 31.5183 78.8764 31.2631C77.9739 31.0078 76.9135 30.8498 75.6981 30.7891C74.2214 30.7891 72.8085 31.0291 71.4624 31.5122C70.873 31.7249 70.2713 32.0014 69.6636 32.3478C69.0559 32.6942 68.4634 33.1226 67.8892 33.6361C67.3149 34.1496 66.7801 34.7573 66.2879 35.4653C65.7956 36.1733 65.3672 36.9937 65.0056 37.9265C64.6106 36.7536 63.9877 35.6689 63.1339 34.6753C62.3773 33.8336 61.3442 33.0284 60.0316 32.2597C58.7159 31.4909 56.9901 31.0048 54.8571 30.7921C53.2467 30.7009 51.7365 30.8832 50.3236 31.336C49.1082 31.7279 47.8868 32.3964 46.6531 33.3444C45.4225 34.2924 44.4624 35.6993 43.7726 37.5649C43.642 38.0146 43.5265 38.4673 43.4293 38.9201C43.3624 39.312 43.2895 39.7101 43.2075 40.1172C43.1254 40.5244 43.0859 40.8769 43.0859 41.1777L43.1346 48.3576L43.0859 51.2928C43.0859 51.3536 43.1011 51.4295 43.1346 51.5177C43.1984 51.7 43.3624 51.7881 43.6268 51.7881C43.6936 51.7881 43.7757 51.7729 43.8729 51.7425C44.037 51.6817 44.119 51.5328 44.119 51.2898V48.309L44.0704 41.4025V40.9953C44.1038 39.4305 44.4806 37.9994 45.2007 36.705C45.4985 36.1641 45.8905 35.6142 46.3857 35.0581C46.878 34.5021 47.4948 33.9886 48.2331 33.5237C48.9715 33.0558 49.8344 32.6577 50.8189 32.3265C51.8034 31.9953 52.9702 31.7553 54.3162 31.6034C55.6957 31.573 57.0265 31.813 58.3088 32.3265C59.3935 32.7489 60.4904 33.4538 61.6086 34.4474C62.7207 35.4349 63.6018 36.8873 64.2582 38.7955H65.7136C65.7896 38.2425 66.0114 37.6378 66.3881 36.9754C66.7497 36.3738 67.2784 35.7053 67.9651 34.967C68.6549 34.2286 69.6728 33.4568 71.0188 32.6425C72.0367 32.1321 73.1701 31.8161 74.4189 31.6945C75.4702 31.573 76.6856 31.6581 78.0651 31.9437C79.4446 32.2293 80.9243 32.9008 82.5013 33.9521C83.1242 34.493 83.6984 35.128 84.2241 35.8481C84.6495 36.4498 85.0445 37.2094 85.4061 38.127C85.7677 39.0477 85.9469 40.0929 85.9469 41.2658L85.8983 48.4883V51.2867C85.8649 51.3475 85.8649 51.4235 85.8983 51.5116C85.9652 51.6939 86.1262 51.782 86.3905 51.782C86.4544 51.782 86.5364 51.7668 86.6367 51.7364C86.8007 51.6757 86.8828 51.5389 86.8828 51.3293V41.1716C86.8828 40.2388 86.7491 39.2908 86.4878 38.3276" fill="#313131"/>
<path d="M86.4878 38.3245C86.2569 37.5436 85.8801 36.6928 85.3575 35.7752C84.8318 34.8576 84.06 34.022 83.0421 33.2715C82.5165 32.8188 81.8905 32.4298 81.1674 32.0986C80.5445 31.7978 79.7818 31.5183 78.8763 31.2631C77.9739 31.0078 76.9135 30.8498 75.6981 30.7891C74.2214 30.7891 72.8085 31.0291 71.4624 31.5122C70.873 31.7249 70.2713 32.0014 69.6636 32.3478C69.0559 32.6942 68.4634 33.1226 67.8892 33.6361C67.3149 34.1496 66.7801 34.7573 66.2879 35.4653C65.7956 36.1733 65.3672 36.9937 65.0056 37.9265C64.6106 36.7536 63.9877 35.6689 63.1339 34.6753C62.3773 33.8336 61.3442 33.0284 60.0316 32.2597C58.7159 31.4909 56.9901 31.0048 54.8571 30.7921C53.2467 30.7009 51.7365 30.8832 50.3236 31.336C49.1082 31.7279 47.8868 32.3964 46.6531 33.3444C45.4225 34.2924 44.4624 35.6993 43.7726 37.5649C43.642 38.0146 43.5265 38.4673 43.4293 38.9201C43.3624 39.312 43.2895 39.7101 43.2075 40.1172C43.1254 40.5244 43.0859 40.8769 43.0859 41.1777L43.1346 48.3576L43.0859 51.2928C43.0859 51.3536 43.1011 51.4295 43.1346 51.5177C43.1984 51.7 43.3624 51.7881 43.6268 51.7881C43.6936 51.7881 43.7757 51.7729 43.8729 51.7425C44.037 51.6817 44.119 51.5328 44.119 51.2898V48.309L44.0704 41.4025V40.9954C44.1038 39.4305 44.4806 37.9994 45.2007 36.705C45.4985 36.1641 45.8905 35.6142 46.3857 35.0581C46.878 34.5021 47.4948 33.9886 48.2331 33.5237C48.9715 33.0558 49.8344 32.6577 50.8189 32.3265C51.8034 31.9953 52.9702 31.7553 54.3162 31.6034C55.6957 31.573 57.0265 31.813 58.3088 32.3265C59.3935 32.7489 60.4904 33.4538 61.6086 34.4474C62.7207 35.4349 63.6018 36.8873 64.2582 38.7955H65.7136C65.7896 38.2425 66.0114 37.6378 66.3881 36.9754C66.7497 36.3738 67.2784 35.7053 67.9651 34.967C68.6549 34.2286 69.6728 33.4568 71.0188 32.6425C72.0367 32.1321 73.1701 31.8161 74.4189 31.6945C75.4702 31.573 76.6856 31.6581 78.0651 31.9437C79.4446 32.2293 80.9243 32.9008 82.5013 33.9521C83.1242 34.493 83.6984 35.128 84.2241 35.8481C84.6495 36.4498 85.0445 37.2094 85.4061 38.127C85.7676 39.0477 85.9469 40.0929 85.9469 41.2658L85.8983 48.4883V51.2867C85.8649 51.3475 85.8649 51.4235 85.8983 51.5116C85.9652 51.6939 86.1262 51.782 86.3905 51.782C86.4544 51.782 86.5364 51.7668 86.6367 51.7364C86.8007 51.6757 86.8828 51.5389 86.8828 51.3293V41.1716C86.8828 40.2388 86.7491 39.2908 86.4878 38.3276" stroke="#313131" stroke-width="1.3"/>
<path d="M86.4878 38.3245C86.2569 37.5436 85.8801 36.6928 85.3575 35.7752C84.8318 34.8576 84.06 34.022 83.0421 33.2715C82.5165 32.8188 81.8905 32.4298 81.1674 32.0986C80.5445 31.7978 79.7818 31.5183 78.8764 31.2631C77.9739 31.0078 76.9135 30.8498 75.6981 30.7891C74.2214 30.7891 72.8085 31.0291 71.4624 31.5122C70.873 31.7249 70.2713 32.0014 69.6636 32.3478C69.0559 32.6942 68.4634 33.1226 67.8892 33.6361C67.3149 34.1496 66.7801 34.7573 66.2879 35.4653C65.7956 36.1733 65.3672 36.9937 65.0056 37.9265C64.6106 36.7536 63.9877 35.6689 63.1339 34.6753C62.3773 33.8336 61.3442 33.0284 60.0316 32.2597C58.7159 31.4909 56.9901 31.0048 54.8571 30.7921C53.2467 30.7009 51.7365 30.8832 50.3236 31.336C49.1082 31.7279 47.8868 32.3964 46.6531 33.3444C45.4225 34.2924 44.4624 35.6993 43.7726 37.5649C43.642 38.0146 43.5265 38.4673 43.4293 38.9201C43.3624 39.312 43.2895 39.7101 43.2075 40.1172C43.1254 40.5244 43.0859 40.8769 43.0859 41.1777L43.1346 48.3576L43.0859 51.2928C43.0859 51.3536 43.1011 51.4295 43.1346 51.5177C43.1984 51.7 43.3624 51.7881 43.6268 51.7881C43.6936 51.7881 43.7757 51.7729 43.8729 51.7425C44.037 51.6817 44.119 51.5328 44.119 51.2898V48.309L44.0704 41.4025V40.9953C44.1038 39.4305 44.4806 37.9994 45.2007 36.705C45.4985 36.1641 45.8905 35.6142 46.3857 35.0581C46.878 34.5021 47.4948 33.9886 48.2331 33.5237C48.9715 33.0558 49.8344 32.6577 50.8189 32.3265C51.8034 31.9953 52.9702 31.7553 54.3162 31.6034C55.6957 31.573 57.0265 31.813 58.3088 32.3265C59.3935 32.7489 60.4904 33.4538 61.6086 34.4474C62.7207 35.4349 63.6018 36.8873 64.2582 38.7955H65.7136C65.7896 38.2425 66.0114 37.6378 66.3881 36.9754C66.7497 36.3738 67.2784 35.7053 67.9651 34.967C68.6549 34.2286 69.6728 33.4568 71.0188 32.6425C72.0367 32.1321 73.1701 31.8161 74.4189 31.6945C75.4702 31.573 76.6856 31.6581 78.0651 31.9437C79.4446 32.2293 80.9243 32.9008 82.5013 33.9521C83.1242 34.493 83.6984 35.128 84.2241 35.8481C84.6495 36.4498 85.0445 37.2094 85.4061 38.127C85.7677 39.0477 85.9469 40.0929 85.9469 41.2658L85.8983 48.4883V51.2867C85.8649 51.3475 85.8649 51.4235 85.8983 51.5116C85.9652 51.6939 86.1262 51.782 86.3905 51.782C86.4544 51.782 86.5364 51.7668 86.6367 51.7364C86.8007 51.6757 86.8828 51.5389 86.8828 51.3293V41.1716C86.8828 40.2388 86.7491 39.2908 86.4878 38.3276" fill="#313131"/>
<path d="M86.4878 38.3245C86.2569 37.5436 85.8801 36.6928 85.3575 35.7752C84.8318 34.8576 84.06 34.022 83.0421 33.2715C82.5165 32.8188 81.8905 32.4298 81.1674 32.0986C80.5445 31.7978 79.7818 31.5183 78.8763 31.2631C77.9739 31.0078 76.9135 30.8498 75.6981 30.7891C74.2214 30.7891 72.8085 31.0291 71.4624 31.5122C70.873 31.7249 70.2713 32.0014 69.6636 32.3478C69.0559 32.6942 68.4634 33.1226 67.8892 33.6361C67.3149 34.1496 66.7801 34.7573 66.2879 35.4653C65.7956 36.1733 65.3672 36.9937 65.0056 37.9265C64.6106 36.7536 63.9877 35.6689 63.1339 34.6753C62.3773 33.8336 61.3442 33.0284 60.0316 32.2597C58.7159 31.4909 56.9901 31.0048 54.8571 30.7921C53.2467 30.7009 51.7365 30.8832 50.3236 31.336C49.1082 31.7279 47.8868 32.3964 46.6531 33.3444C45.4225 34.2924 44.4624 35.6993 43.7726 37.5649C43.642 38.0146 43.5265 38.4673 43.4293 38.9201C43.3624 39.312 43.2895 39.7101 43.2075 40.1172C43.1254 40.5244 43.0859 40.8769 43.0859 41.1777L43.1346 48.3576L43.0859 51.2928C43.0859 51.3536 43.1011 51.4295 43.1346 51.5177C43.1984 51.7 43.3624 51.7881 43.6268 51.7881C43.6936 51.7881 43.7757 51.7729 43.8729 51.7425C44.037 51.6817 44.119 51.5328 44.119 51.2898V48.309L44.0704 41.4025V40.9954C44.1038 39.4305 44.4806 37.9994 45.2007 36.705C45.4985 36.1641 45.8905 35.6142 46.3857 35.0581C46.878 34.5021 47.4948 33.9886 48.2331 33.5237C48.9715 33.0558 49.8344 32.6577 50.8189 32.3265C51.8034 31.9953 52.9702 31.7553 54.3162 31.6034C55.6957 31.573 57.0265 31.813 58.3088 32.3265C59.3935 32.7489 60.4904 33.4538 61.6086 34.4474C62.7207 35.4349 63.6018 36.8873 64.2582 38.7955H65.7136C65.7896 38.2425 66.0114 37.6378 66.3881 36.9754C66.7497 36.3738 67.2784 35.7053 67.9651 34.967C68.6549 34.2286 69.6728 33.4568 71.0188 32.6425C72.0367 32.1321 73.1701 31.8161 74.4189 31.6945C75.4702 31.573 76.6856 31.6581 78.0651 31.9437C79.4446 32.2293 80.9243 32.9008 82.5013 33.9521C83.1242 34.493 83.6984 35.128 84.2241 35.8481C84.6495 36.4498 85.0445 37.2094 85.4061 38.127C85.7676 39.0477 85.9469 40.0929 85.9469 41.2658L85.8983 48.4883V51.2867C85.8649 51.3475 85.8649 51.4235 85.8983 51.5116C85.9652 51.6939 86.1262 51.782 86.3905 51.782C86.4544 51.782 86.5364 51.7668 86.6367 51.7364C86.8007 51.6757 86.8828 51.5389 86.8828 51.3293V41.1716C86.8828 40.2388 86.7491 39.2908 86.4878 38.3276V38.3245Z" stroke="#313131" stroke-width="1.3"/>
<path d="M120.792 37.6409C120.561 36.857 120.184 36.0092 119.659 35.0916C119.133 34.174 118.361 33.3384 117.343 32.5849C116.818 32.1352 116.192 31.7432 115.472 31.412C114.846 31.1112 114.083 30.8316 113.181 30.5764C112.275 30.3212 111.218 30.1632 110.002 30.1024C108.523 30.1024 107.11 30.3424 105.764 30.8256C105.174 31.0352 104.573 31.3148 103.965 31.6581C103.357 32.0045 102.765 32.4329 102.19 32.9464C101.616 33.4599 101.081 34.0676 100.589 34.7756C100.097 35.4836 99.6715 36.304 99.3099 37.2368C98.9149 36.0639 98.292 34.9792 97.4382 33.9856C96.6816 33.1439 95.6486 32.3387 94.3359 31.57C93.0203 30.8013 91.2974 30.3121 89.1614 30.1024C87.551 30.0113 86.0408 30.1936 84.6279 30.6433C83.4125 31.0352 82.1911 31.7037 80.9574 32.6517C79.7268 33.5997 78.7667 35.0065 78.0739 36.8722C77.9433 37.3219 77.8278 37.7746 77.7306 38.2273C77.6637 38.6193 77.5908 39.0173 77.5087 39.4245C77.4267 39.8286 77.3872 40.1841 77.3872 40.4849L77.4389 47.6619L77.3872 50.597C77.3872 50.6578 77.4054 50.7338 77.4389 50.8249C77.5027 51.0072 77.6668 51.0954 77.9311 51.0954C77.9949 51.0954 78.0769 51.0802 78.1772 51.0498C78.3413 50.989 78.4233 50.8401 78.4233 50.597V47.6193L78.3747 40.7128V40.3057C78.4081 38.7408 78.7849 37.3097 79.505 36.0153C79.8028 35.4745 80.1948 34.9245 80.69 34.3685C81.1823 33.8124 81.7961 33.2989 82.5375 32.834C83.2758 32.3691 84.1387 31.9711 85.1232 31.6399C86.1077 31.3087 87.2745 31.0686 88.6205 30.9167C90 30.8863 91.3309 31.1294 92.6101 31.6399C93.6948 32.0592 94.7917 32.7672 95.9099 33.7608C97.0219 34.7483 97.9031 36.2007 98.5594 38.1088H100.015C100.091 37.5558 100.313 36.9512 100.689 36.2888C101.051 35.6872 101.577 35.0157 102.269 34.2803C102.959 33.542 103.974 32.7672 105.323 31.9559C106.341 31.4454 107.474 31.1294 108.723 31.0079C109.775 30.8894 110.99 30.9714 112.369 31.257C113.749 31.5427 115.226 32.2111 116.803 33.2655C117.425 33.8094 118.003 34.4414 118.528 35.1615C118.954 35.7631 119.349 36.5258 119.71 37.4404C120.072 38.361 120.254 39.4063 120.254 40.5791L120.206 47.8016V50.6001C120.172 50.6609 120.172 50.7368 120.206 50.828C120.269 51.0103 120.437 51.0984 120.698 51.0984C120.762 51.0984 120.847 51.0832 120.944 51.0528C121.108 50.9921 121.19 50.8584 121.19 50.6457V40.488C121.19 39.5552 121.056 38.6071 120.795 37.6439" fill="#313131"/>
<path d="M120.792 37.6409C120.561 36.857 120.184 36.0092 119.659 35.0916C119.133 34.174 118.361 33.3384 117.343 32.5849C116.818 32.1352 116.192 31.7432 115.472 31.412C114.846 31.1112 114.083 30.8316 113.181 30.5764C112.275 30.3212 111.218 30.1632 110.002 30.1024C108.523 30.1024 107.11 30.3424 105.764 30.8256C105.174 31.0352 104.573 31.3148 103.965 31.6581C103.357 32.0045 102.765 32.4329 102.19 32.9464C101.616 33.4599 101.081 34.0676 100.589 34.7756C100.097 35.4836 99.6715 36.304 99.3099 37.2368C98.9149 36.0639 98.292 34.9792 97.4382 33.9856C96.6816 33.1439 95.6486 32.3387 94.3359 31.57C93.0203 30.8013 91.2974 30.3121 89.1614 30.1024C87.551 30.0113 86.0408 30.1936 84.6279 30.6433C83.4125 31.0352 82.1911 31.7037 80.9574 32.6517C79.7268 33.5997 78.7667 35.0065 78.0739 36.8722C77.9433 37.3219 77.8278 37.7746 77.7306 38.2273C77.6637 38.6193 77.5908 39.0173 77.5087 39.4245C77.4267 39.8286 77.3872 40.1841 77.3872 40.4849L77.4389 47.6619L77.3872 50.597C77.3872 50.6578 77.4054 50.7338 77.4389 50.8249C77.5027 51.0072 77.6668 51.0954 77.9311 51.0954C77.9949 51.0954 78.0769 51.0802 78.1772 51.0498C78.3413 50.989 78.4233 50.8401 78.4233 50.597V47.6193L78.3747 40.7128V40.3057C78.4081 38.7408 78.7849 37.3097 79.505 36.0153C79.8028 35.4745 80.1948 34.9245 80.69 34.3685C81.1823 33.8124 81.7961 33.2989 82.5375 32.834C83.2758 32.3691 84.1387 31.9711 85.1232 31.6399C86.1077 31.3087 87.2745 31.0686 88.6205 30.9167C90 30.8863 91.3309 31.1294 92.6101 31.6399C93.6948 32.0592 94.7917 32.7672 95.9099 33.7608C97.0219 34.7483 97.9031 36.2007 98.5594 38.1088H100.015C100.091 37.5558 100.313 36.9512 100.689 36.2888C101.051 35.6872 101.577 35.0157 102.269 34.2803C102.959 33.542 103.974 32.7672 105.323 31.9559C106.341 31.4454 107.474 31.1294 108.723 31.0079C109.775 30.8894 110.99 30.9714 112.369 31.257C113.749 31.5427 115.226 32.2111 116.803 33.2655C117.425 33.8094 118.003 34.4414 118.528 35.1615C118.954 35.7631 119.349 36.5258 119.71 37.4404C120.072 38.361 120.254 39.4063 120.254 40.5791L120.206 47.8016V50.6001C120.172 50.6609 120.172 50.7368 120.206 50.828C120.269 51.0103 120.437 51.0984 120.698 51.0984C120.762 51.0984 120.847 51.0832 120.944 51.0528C121.108 50.9921 121.19 50.8584 121.19 50.6457V40.488C121.19 39.5552 121.056 38.6071 120.795 37.6439" stroke="#313131" stroke-width="1.3"/>
<path d="M120.792 37.6409C120.561 36.857 120.184 36.0092 119.659 35.0916C119.133 34.174 118.361 33.3384 117.343 32.5849C116.818 32.1352 116.192 31.7432 115.472 31.412C114.846 31.1112 114.083 30.8316 113.181 30.5764C112.275 30.3212 111.218 30.1632 110.002 30.1024C108.523 30.1024 107.11 30.3424 105.764 30.8256C105.174 31.0352 104.573 31.3148 103.965 31.6581C103.357 32.0045 102.765 32.4329 102.19 32.9464C101.616 33.4599 101.081 34.0676 100.589 34.7756C100.097 35.4836 99.6715 36.304 99.3099 37.2368C98.9149 36.0639 98.292 34.9792 97.4382 33.9856C96.6816 33.1439 95.6486 32.3387 94.3359 31.57C93.0203 30.8013 91.2974 30.3121 89.1614 30.1024C87.551 30.0113 86.0408 30.1936 84.6279 30.6433C83.4125 31.0352 82.1911 31.7037 80.9574 32.6517C79.7268 33.5997 78.7667 35.0065 78.0739 36.8722C77.9433 37.3219 77.8278 37.7746 77.7306 38.2273C77.6637 38.6193 77.5908 39.0173 77.5087 39.4245C77.4267 39.8286 77.3872 40.1841 77.3872 40.4849L77.4389 47.6619L77.3872 50.597C77.3872 50.6578 77.4054 50.7338 77.4389 50.8249C77.5027 51.0072 77.6668 51.0954 77.9311 51.0954C77.9949 51.0954 78.0769 51.0802 78.1772 51.0498C78.3413 50.989 78.4233 50.8401 78.4233 50.597V47.6193L78.3747 40.7128V40.3057C78.4081 38.7408 78.7849 37.3097 79.505 36.0153C79.8028 35.4745 80.1948 34.9245 80.69 34.3685C81.1823 33.8124 81.7961 33.2989 82.5375 32.834C83.2758 32.3691 84.1387 31.9711 85.1232 31.6399C86.1077 31.3087 87.2745 31.0686 88.6205 30.9167C90 30.8863 91.3309 31.1294 92.6101 31.6399C93.6948 32.0592 94.7917 32.7672 95.9099 33.7608C97.0219 34.7483 97.9031 36.2007 98.5594 38.1088H100.015C100.091 37.5558 100.313 36.9512 100.689 36.2888C101.051 35.6872 101.577 35.0157 102.269 34.2803C102.959 33.542 103.974 32.7672 105.323 31.9559C106.341 31.4454 107.474 31.1294 108.723 31.0079C109.775 30.8894 110.99 30.9714 112.369 31.257C113.749 31.5427 115.226 32.2111 116.803 33.2655C117.425 33.8094 118.003 34.4414 118.528 35.1615C118.954 35.7631 119.349 36.5258 119.71 37.4404C120.072 38.361 120.254 39.4063 120.254 40.5791L120.206 47.8016V50.6001C120.172 50.6609 120.172 50.7368 120.206 50.828C120.269 51.0103 120.437 51.0984 120.698 51.0984C120.762 51.0984 120.847 51.0832 120.944 51.0528C121.108 50.9921 121.19 50.8584 121.19 50.6457V40.488C121.19 39.5552 121.056 38.6071 120.795 37.6439" fill="#313131"/>
<path d="M120.792 37.6409C120.561 36.857 120.184 36.0092 119.659 35.0916C119.133 34.174 118.361 33.3384 117.343 32.5849C116.818 32.1352 116.192 31.7432 115.472 31.412C114.846 31.1112 114.083 30.8316 113.181 30.5764C112.275 30.3212 111.218 30.1632 110.002 30.1024C108.523 30.1024 107.11 30.3424 105.764 30.8256C105.174 31.0352 104.573 31.3148 103.965 31.6581C103.357 32.0045 102.765 32.4329 102.19 32.9464C101.616 33.4599 101.081 34.0676 100.589 34.7756C100.097 35.4836 99.6715 36.304 99.3099 37.2368C98.9149 36.0639 98.292 34.9792 97.4382 33.9856C96.6816 33.1439 95.6486 32.3387 94.3359 31.57C93.0203 30.8013 91.2974 30.3121 89.1614 30.1024C87.551 30.0113 86.0408 30.1936 84.6279 30.6433C83.4125 31.0352 82.1911 31.7037 80.9574 32.6517C79.7268 33.5997 78.7667 35.0065 78.0739 36.8722C77.9433 37.3219 77.8278 37.7746 77.7306 38.2273C77.6637 38.6193 77.5908 39.0173 77.5087 39.4245C77.4267 39.8286 77.3872 40.1841 77.3872 40.4849L77.4389 47.6619L77.3872 50.597C77.3872 50.6578 77.4054 50.7338 77.4389 50.8249C77.5027 51.0072 77.6668 51.0954 77.9311 51.0954C77.9949 51.0954 78.0769 51.0802 78.1772 51.0498C78.3413 50.989 78.4233 50.8401 78.4233 50.597V47.6193L78.3747 40.7128V40.3057C78.4081 38.7408 78.7849 37.3097 79.505 36.0153C79.8028 35.4745 80.1948 34.9245 80.69 34.3685C81.1823 33.8124 81.7961 33.2989 82.5375 32.834C83.2758 32.3691 84.1387 31.9711 85.1232 31.6399C86.1077 31.3087 87.2745 31.0686 88.6205 30.9167C90 30.8863 91.3309 31.1294 92.6101 31.6399C93.6948 32.0592 94.7917 32.7672 95.9099 33.7608C97.0219 34.7483 97.9031 36.2007 98.5594 38.1088H100.015C100.091 37.5558 100.313 36.9512 100.689 36.2888C101.051 35.6872 101.577 35.0157 102.269 34.2803C102.959 33.542 103.974 32.7672 105.323 31.9559C106.341 31.4454 107.474 31.1294 108.723 31.0079C109.775 30.8894 110.99 30.9714 112.369 31.257C113.749 31.5427 115.226 32.2111 116.803 33.2655C117.425 33.8094 118.003 34.4414 118.528 35.1615C118.954 35.7631 119.349 36.5258 119.71 37.4404C120.072 38.361 120.254 39.4063 120.254 40.5791L120.206 47.8016V50.6001C120.172 50.6609 120.172 50.7368 120.206 50.828C120.269 51.0103 120.437 51.0984 120.698 51.0984C120.762 51.0984 120.847 51.0832 120.944 51.0528C121.108 50.9921 121.19 50.8584 121.19 50.6457V40.488C121.19 39.5552 121.056 38.6071 120.795 37.6439L120.792 37.6409Z" stroke="#313131" stroke-width="1.3"/>
<path d="M138.431 30.7342C140.534 31.2174 142.183 31.9922 143.381 33.0587C144.581 34.1282 145.459 35.2191 146.018 36.3311C146.674 37.6255 147.066 39.0111 147.2 40.4848C147.2 40.664 147.1 40.7856 146.905 40.8463C146.805 40.8767 146.708 40.8919 146.611 40.8919H130.844C130.616 40.8919 130.449 40.816 130.352 40.664C130.285 40.6033 130.254 40.5303 130.254 40.4392C130.285 40.2295 130.385 40.0928 130.549 40.032C130.613 40.0016 130.698 39.9865 130.795 39.9865L145.283 39.9409C145.547 39.9713 145.735 39.9196 145.851 39.7829C145.963 39.6461 146.024 39.5064 146.024 39.3544C146.024 39.1752 145.988 38.9473 145.924 38.6769C145.562 37.3217 145.046 36.2157 144.371 35.3588C143.697 34.4989 142.992 33.8092 142.253 33.2805C141.515 32.7548 140.825 32.3781 140.184 32.1532C139.543 31.9284 139.109 31.7856 138.881 31.7248C138.814 31.7248 138.747 31.7096 138.68 31.6792L138.091 31.5425C137.696 31.4513 137.112 31.3845 136.34 31.3389C135.569 31.2933 134.675 31.3754 133.657 31.5881C132.245 31.9193 130.996 32.4297 129.911 33.1225C128.96 33.7241 128.064 34.5293 127.228 35.5381C126.389 36.5469 125.903 37.8473 125.776 39.4426C125.678 41.0104 125.873 42.4841 126.368 43.8666C126.566 44.4682 126.836 45.0638 127.179 45.6502C127.526 46.2366 127.966 46.7957 128.507 47.3183C129.051 47.847 129.707 48.3302 130.479 48.7647C131.251 49.2022 132.163 49.5395 133.214 49.7795C133.87 49.9314 134.526 50.0347 135.186 50.0955C135.742 50.1563 136.334 50.1654 136.96 50.1198C137.583 50.0742 138.142 49.9314 138.638 49.6884C138.704 49.658 138.783 49.6458 138.884 49.6458C139.048 49.6458 139.178 49.737 139.276 49.9162C139.342 50.0378 139.358 50.1593 139.324 50.2778C139.291 50.369 139.233 50.451 139.154 50.527C139.072 50.6029 138.899 50.6698 138.638 50.7306C137.453 50.9706 136.362 51.0769 135.359 51.0466C134.356 51.0162 133.451 50.8946 132.649 50.685C131.84 50.4753 131.117 50.2049 130.479 49.8737C129.838 49.5425 129.27 49.1961 128.781 48.8345C127.629 47.9625 126.708 46.8929 126.022 45.6289C125.56 44.848 125.25 44.0945 125.086 43.3713C124.922 42.6482 124.806 42.001 124.739 41.4297C124.673 40.7673 124.691 40.1505 124.788 39.5793C124.855 38.2849 125.198 37.0665 125.824 35.924C126.086 35.4409 126.423 34.9456 126.836 34.4351C127.246 33.9247 127.754 33.4415 128.364 32.9918C128.972 32.5391 129.686 32.1168 130.507 31.7278C131.327 31.3359 132.281 31.0229 133.363 30.7798C133.888 30.6887 134.447 30.6157 135.04 30.555C135.532 30.4942 136.064 30.4729 136.641 30.4881C137.216 30.5033 137.784 30.5732 138.34 30.6917C138.34 30.7221 138.373 30.7373 138.437 30.7373" fill="#313131"/>
<path d="M138.431 30.7342C140.534 31.2174 142.183 31.9922 143.381 33.0587C144.581 34.1282 145.459 35.2191 146.018 36.3311C146.674 37.6255 147.066 39.0111 147.2 40.4848C147.2 40.664 147.1 40.7856 146.905 40.8463C146.805 40.8767 146.708 40.8919 146.611 40.8919H130.844C130.616 40.8919 130.449 40.816 130.352 40.664C130.285 40.6033 130.254 40.5303 130.254 40.4392C130.285 40.2295 130.385 40.0928 130.549 40.032C130.613 40.0016 130.698 39.9865 130.795 39.9865L145.283 39.9409C145.547 39.9713 145.735 39.9196 145.851 39.7829C145.963 39.6461 146.024 39.5064 146.024 39.3544C146.024 39.1752 145.988 38.9473 145.924 38.6769C145.562 37.3217 145.046 36.2157 144.371 35.3588C143.697 34.4989 142.992 33.8092 142.253 33.2805C141.515 32.7548 140.825 32.3781 140.184 32.1532C139.543 31.9284 139.109 31.7856 138.881 31.7248C138.814 31.7248 138.747 31.7096 138.68 31.6792L138.091 31.5425C137.696 31.4513 137.112 31.3845 136.34 31.3389C135.569 31.2933 134.675 31.3754 133.657 31.5881C132.245 31.9193 130.996 32.4297 129.911 33.1225C128.96 33.7241 128.064 34.5293 127.228 35.5381C126.389 36.5469 125.903 37.8473 125.776 39.4426C125.678 41.0104 125.873 42.4841 126.368 43.8666C126.566 44.4682 126.836 45.0638 127.179 45.6502C127.526 46.2366 127.966 46.7957 128.507 47.3183C129.051 47.847 129.707 48.3302 130.479 48.7647C131.251 49.2022 132.163 49.5395 133.214 49.7795C133.87 49.9314 134.526 50.0347 135.186 50.0955C135.742 50.1563 136.334 50.1654 136.96 50.1198C137.583 50.0742 138.142 49.9314 138.638 49.6884C138.704 49.658 138.783 49.6458 138.884 49.6458C139.048 49.6458 139.178 49.737 139.276 49.9162C139.342 50.0378 139.358 50.1593 139.324 50.2778C139.291 50.369 139.233 50.451 139.154 50.527C139.072 50.6029 138.899 50.6698 138.638 50.7306C137.453 50.9706 136.362 51.0769 135.359 51.0466C134.356 51.0162 133.451 50.8946 132.649 50.685C131.84 50.4753 131.117 50.2049 130.479 49.8737C129.838 49.5425 129.27 49.1961 128.781 48.8345C127.629 47.9625 126.708 46.8929 126.022 45.6289C125.56 44.848 125.25 44.0945 125.086 43.3713C124.922 42.6482 124.806 42.001 124.739 41.4297C124.673 40.7673 124.691 40.1505 124.788 39.5793C124.855 38.2849 125.198 37.0665 125.824 35.924C126.086 35.4409 126.423 34.9456 126.836 34.4351C127.246 33.9247 127.754 33.4415 128.364 32.9918C128.972 32.5391 129.686 32.1168 130.507 31.7278C131.327 31.3359 132.281 31.0229 133.363 30.7798C133.888 30.6887 134.447 30.6157 135.04 30.555C135.532 30.4942 136.064 30.4729 136.641 30.4881C137.216 30.5033 137.784 30.5732 138.34 30.6917C138.34 30.7221 138.373 30.7373 138.437 30.7373" stroke="#313131" stroke-width="1.3"/>
<path d="M138.431 30.7342C140.534 31.2174 142.183 31.9922 143.381 33.0587C144.581 34.1282 145.459 35.2191 146.018 36.3311C146.674 37.6255 147.066 39.0111 147.2 40.4848C147.2 40.664 147.1 40.7856 146.905 40.8463C146.805 40.8767 146.708 40.8919 146.611 40.8919H130.844C130.616 40.8919 130.449 40.816 130.352 40.664C130.285 40.6033 130.254 40.5303 130.254 40.4392C130.285 40.2295 130.385 40.0928 130.549 40.032C130.613 40.0016 130.698 39.9865 130.795 39.9865L145.283 39.9409C145.547 39.9713 145.735 39.9196 145.851 39.7829C145.963 39.6461 146.024 39.5064 146.024 39.3544C146.024 39.1752 145.988 38.9473 145.924 38.6769C145.562 37.3217 145.046 36.2157 144.371 35.3588C143.697 34.4989 142.992 33.8092 142.253 33.2805C141.515 32.7548 140.825 32.3781 140.184 32.1532C139.543 31.9284 139.109 31.7856 138.881 31.7248C138.814 31.7248 138.747 31.7096 138.68 31.6792L138.091 31.5425C137.696 31.4513 137.112 31.3845 136.34 31.3389C135.569 31.2933 134.675 31.3754 133.657 31.5881C132.245 31.9193 130.996 32.4297 129.911 33.1225C128.96 33.7241 128.064 34.5293 127.228 35.5381C126.389 36.5469 125.903 37.8473 125.776 39.4426C125.678 41.0104 125.873 42.4841 126.368 43.8666C126.566 44.4682 126.836 45.0638 127.179 45.6502C127.526 46.2366 127.966 46.7957 128.507 47.3183C129.051 47.847 129.707 48.3302 130.479 48.7647C131.251 49.2022 132.163 49.5395 133.214 49.7795C133.87 49.9314 134.526 50.0347 135.186 50.0955C135.742 50.1563 136.334 50.1654 136.96 50.1198C137.583 50.0742 138.142 49.9314 138.638 49.6884C138.704 49.658 138.783 49.6458 138.884 49.6458C139.048 49.6458 139.178 49.737 139.276 49.9162C139.342 50.0378 139.358 50.1593 139.324 50.2778C139.291 50.369 139.233 50.451 139.154 50.527C139.072 50.6029 138.899 50.6698 138.638 50.7306C137.453 50.9706 136.362 51.0769 135.359 51.0466C134.356 51.0162 133.451 50.8946 132.649 50.685C131.84 50.4753 131.117 50.2049 130.479 49.8737C129.838 49.5425 129.27 49.1961 128.781 48.8345C127.629 47.9625 126.708 46.8929 126.022 45.6289C125.56 44.848 125.25 44.0945 125.086 43.3713C124.922 42.6482 124.806 42.001 124.739 41.4297C124.673 40.7673 124.691 40.1505 124.788 39.5793C124.855 38.2849 125.198 37.0665 125.824 35.924C126.086 35.4409 126.423 34.9456 126.836 34.4351C127.246 33.9247 127.754 33.4415 128.364 32.9918C128.972 32.5391 129.686 32.1168 130.507 31.7278C131.327 31.3359 132.281 31.0229 133.363 30.7798C133.888 30.6887 134.447 30.6157 135.04 30.555C135.532 30.4942 136.064 30.4729 136.641 30.4881C137.216 30.5033 137.784 30.5732 138.34 30.6917C138.34 30.7221 138.373 30.7373 138.437 30.7373" fill="#313131"/>
<path d="M138.431 30.7342C140.534 31.2174 142.183 31.9922 143.381 33.0587C144.581 34.1282 145.459 35.2191 146.018 36.3311C146.674 37.6255 147.066 39.0111 147.2 40.4848C147.2 40.664 147.1 40.7856 146.905 40.8463C146.805 40.8767 146.708 40.8919 146.611 40.8919H130.844C130.616 40.8919 130.449 40.816 130.352 40.664C130.285 40.6033 130.254 40.5303 130.254 40.4392C130.285 40.2295 130.385 40.0928 130.549 40.032C130.613 40.0016 130.698 39.9865 130.795 39.9865L145.283 39.9409C145.547 39.9713 145.735 39.9196 145.851 39.7829C145.963 39.6461 146.024 39.5064 146.024 39.3544C146.024 39.1752 145.988 38.9473 145.924 38.6769C145.562 37.3217 145.046 36.2157 144.371 35.3588C143.697 34.4989 142.992 33.8092 142.253 33.2805C141.515 32.7548 140.825 32.3781 140.184 32.1532C139.543 31.9284 139.109 31.7856 138.881 31.7248C138.814 31.7248 138.747 31.7096 138.68 31.6792L138.091 31.5425C137.696 31.4513 137.112 31.3845 136.34 31.3389C135.569 31.2933 134.675 31.3754 133.657 31.5881C132.245 31.9193 130.996 32.4297 129.911 33.1225C128.96 33.7241 128.064 34.5293 127.228 35.5381C126.389 36.5469 125.903 37.8473 125.776 39.4426C125.678 41.0104 125.873 42.4841 126.368 43.8666C126.566 44.4682 126.836 45.0638 127.179 45.6502C127.526 46.2366 127.966 46.7957 128.507 47.3183C129.051 47.847 129.707 48.3302 130.479 48.7647C131.251 49.2022 132.163 49.5395 133.214 49.7795C133.87 49.9314 134.526 50.0347 135.186 50.0955C135.742 50.1563 136.334 50.1654 136.96 50.1198C137.583 50.0742 138.142 49.9314 138.638 49.6884C138.704 49.658 138.783 49.6458 138.884 49.6458C139.048 49.6458 139.178 49.737 139.276 49.9162C139.342 50.0378 139.358 50.1593 139.324 50.2778C139.291 50.369 139.233 50.451 139.154 50.527C139.072 50.6029 138.899 50.6698 138.638 50.7306C137.453 50.9706 136.362 51.0769 135.359 51.0466C134.356 51.0162 133.451 50.8946 132.649 50.685C131.84 50.4753 131.117 50.2049 130.479 49.8737C129.838 49.5425 129.27 49.1961 128.781 48.8345C127.629 47.9625 126.708 46.8929 126.022 45.6289C125.56 44.848 125.25 44.0945 125.086 43.3713C124.922 42.6482 124.806 42.001 124.739 41.4297C124.673 40.7673 124.691 40.1505 124.788 39.5793C124.855 38.2849 125.198 37.0665 125.824 35.924C126.086 35.4409 126.423 34.9456 126.836 34.4351C127.246 33.9247 127.754 33.4415 128.364 32.9918C128.972 32.5391 129.686 32.1168 130.507 31.7278C131.327 31.3359 132.281 31.0229 133.363 30.7798C133.888 30.6887 134.447 30.6157 135.04 30.555C135.532 30.4942 136.064 30.4729 136.641 30.4881C137.216 30.5033 137.784 30.5732 138.34 30.6917C138.34 30.7221 138.373 30.7373 138.437 30.7373L138.431 30.7342Z" stroke="#313131" stroke-width="1.3"/>
<path d="M175.285 10.7136C175.579 10.7136 175.759 10.82 175.825 11.0296C175.856 11.1208 175.874 11.2089 175.874 11.3001L175.774 40.348C175.774 42.004 175.488 43.4109 174.914 44.5685C174.34 45.7292 173.689 46.6985 172.969 47.4824C172.116 48.3849 171.161 49.1232 170.11 49.6945C168.533 50.4784 167.062 50.9129 165.701 51.004C164.337 51.0952 163.131 51.0192 162.079 50.7792C160.864 50.5088 159.731 50.0712 158.679 49.4696C157.333 48.7464 156.3 47.8896 155.577 46.896C154.854 45.9024 154.328 44.9696 154 44.0976C153.605 43.0736 153.392 42.0223 153.359 40.9375C153.392 39.0719 153.836 37.3855 154.69 35.8815C155.051 35.2495 155.51 34.6174 156.069 33.9854C156.628 33.3534 157.327 32.7883 158.163 32.293C159.001 31.7947 159.986 31.3815 161.119 31.0533C162.253 30.7221 163.574 30.5276 165.087 30.4669C165.151 30.4669 165.236 30.4821 165.334 30.5124C165.531 30.5732 165.631 30.7099 165.631 30.9196C165.631 31.0108 165.598 31.0989 165.531 31.19C165.434 31.342 165.236 31.4149 164.942 31.4149C163.003 31.5364 161.262 31.9436 159.718 32.6333C159.062 32.9341 158.412 33.3109 157.774 33.7606C157.133 34.2133 156.568 34.7633 156.072 35.4075C155.58 36.0547 155.17 36.8234 154.842 37.7106C154.514 38.5979 154.349 39.6158 154.349 40.7582V40.895C154.38 42.2501 154.647 43.4139 155.139 44.3953C155.632 45.3737 156.176 46.1789 156.765 46.8079C157.455 47.5614 158.227 48.1934 159.08 48.7069C160.49 49.5182 161.845 49.9861 163.146 50.1047C164.443 50.2262 165.586 50.1958 166.57 50.0135C167.722 49.8038 168.804 49.4119 169.824 48.8406C171.14 48.1782 172.14 47.3579 172.83 46.3795C173.519 45.4011 174.012 44.447 174.309 43.5111C174.671 42.4264 174.85 41.2991 174.85 40.1262V11.2119C174.85 11.0631 174.917 10.9263 175.048 10.8078C175.111 10.7774 175.197 10.747 175.294 10.7167" fill="#313131"/>
<path d="M175.285 10.7136C175.579 10.7136 175.759 10.82 175.825 11.0296C175.856 11.1208 175.874 11.2089 175.874 11.3001L175.774 40.348C175.774 42.004 175.488 43.4108 174.914 44.5685C174.34 45.7292 173.689 46.6985 172.969 47.4824C172.116 48.3849 171.161 49.1232 170.11 49.6945C168.533 50.4784 167.062 50.9129 165.701 51.004C164.337 51.0952 163.131 51.0192 162.079 50.7792C160.864 50.5088 159.731 50.0712 158.679 49.4696C157.333 48.7464 156.3 47.8896 155.577 46.896C154.854 45.9024 154.328 44.9696 154 44.0976C153.605 43.0736 153.392 42.0223 153.359 40.9375C153.392 39.0719 153.836 37.3855 154.69 35.8815C155.051 35.2495 155.51 34.6174 156.069 33.9854C156.628 33.3534 157.327 32.7883 158.163 32.293C159.001 31.7947 159.986 31.3815 161.119 31.0533C162.253 30.7221 163.574 30.5276 165.087 30.4669C165.151 30.4669 165.236 30.4821 165.334 30.5124C165.531 30.5732 165.631 30.7099 165.631 30.9196C165.631 31.0108 165.598 31.0989 165.531 31.19C165.434 31.342 165.236 31.4149 164.942 31.4149C163.003 31.5364 161.262 31.9436 159.718 32.6333C159.062 32.9341 158.412 33.3109 157.774 33.7606C157.133 34.2133 156.568 34.7633 156.072 35.4075C155.58 36.0547 155.17 36.8234 154.842 37.7106C154.514 38.5979 154.349 39.6158 154.349 40.7582V40.895C154.38 42.2501 154.647 43.4139 155.139 44.3953C155.632 45.3737 156.176 46.1789 156.765 46.8079C157.455 47.5614 158.227 48.1934 159.08 48.7069C160.49 49.5182 161.845 49.9861 163.146 50.1047C164.443 50.2262 165.586 50.1958 166.57 50.0135C167.722 49.8038 168.804 49.4119 169.824 48.8406C171.14 48.1782 172.14 47.3579 172.83 46.3795C173.519 45.4011 174.012 44.447 174.309 43.5111C174.671 42.4264 174.85 41.2991 174.85 40.1262V11.2119C174.85 11.0631 174.917 10.9263 175.048 10.8078C175.111 10.7774 175.197 10.747 175.294 10.7167" stroke="#313131" stroke-width="1.3"/>
<path d="M175.285 10.7136C175.579 10.7136 175.759 10.82 175.825 11.0296C175.856 11.1208 175.874 11.2089 175.874 11.3001L175.774 40.348C175.774 42.004 175.488 43.4109 174.914 44.5685C174.34 45.7292 173.689 46.6985 172.969 47.4824C172.116 48.3849 171.161 49.1232 170.11 49.6945C168.533 50.4784 167.062 50.9129 165.701 51.004C164.337 51.0952 163.131 51.0192 162.079 50.7792C160.864 50.5088 159.731 50.0712 158.679 49.4696C157.333 48.7464 156.3 47.8896 155.577 46.896C154.854 45.9024 154.328 44.9696 154 44.0976C153.605 43.0736 153.392 42.0223 153.359 40.9375C153.392 39.0719 153.836 37.3855 154.69 35.8815C155.051 35.2495 155.51 34.6174 156.069 33.9854C156.628 33.3534 157.327 32.7883 158.163 32.293C159.001 31.7947 159.986 31.3815 161.119 31.0533C162.253 30.7221 163.574 30.5276 165.087 30.4669C165.151 30.4669 165.236 30.4821 165.334 30.5124C165.531 30.5732 165.631 30.7099 165.631 30.9196C165.631 31.0108 165.598 31.0989 165.531 31.19C165.434 31.342 165.236 31.4149 164.942 31.4149C163.003 31.5364 161.262 31.9436 159.718 32.6333C159.062 32.9341 158.412 33.3109 157.774 33.7606C157.133 34.2133 156.568 34.7633 156.072 35.4075C155.58 36.0547 155.17 36.8234 154.842 37.7106C154.514 38.5979 154.349 39.6158 154.349 40.7582V40.895C154.38 42.2501 154.647 43.4139 155.139 44.3953C155.632 45.3737 156.176 46.1789 156.765 46.8079C157.455 47.5614 158.227 48.1934 159.08 48.7069C160.49 49.5182 161.845 49.9861 163.146 50.1047C164.443 50.2262 165.586 50.1958 166.57 50.0135C167.722 49.8038 168.804 49.4119 169.824 48.8406C171.14 48.1782 172.14 47.3579 172.83 46.3795C173.519 45.4011 174.012 44.447 174.309 43.5111C174.671 42.4264 174.85 41.2991 174.85 40.1262V11.2119C174.85 11.0631 174.917 10.9263 175.048 10.8078C175.111 10.7774 175.197 10.747 175.294 10.7167" fill="#313131"/>
<path d="M175.285 10.7136C175.579 10.7136 175.759 10.82 175.825 11.0296C175.856 11.1208 175.874 11.2089 175.874 11.3001L175.774 40.348C175.774 42.004 175.488 43.4108 174.914 44.5685C174.34 45.7292 173.689 46.6985 172.969 47.4824C172.116 48.3849 171.161 49.1232 170.11 49.6945C168.533 50.4784 167.062 50.9129 165.701 51.004C164.337 51.0952 163.131 51.0192 162.079 50.7792C160.864 50.5088 159.731 50.0712 158.679 49.4696C157.333 48.7464 156.3 47.8896 155.577 46.896C154.854 45.9024 154.328 44.9696 154 44.0976C153.605 43.0736 153.392 42.0223 153.359 40.9375C153.392 39.0719 153.836 37.3855 154.69 35.8815C155.051 35.2495 155.51 34.6174 156.069 33.9854C156.628 33.3534 157.327 32.7883 158.163 32.293C159.001 31.7947 159.986 31.3815 161.119 31.0533C162.253 30.7221 163.574 30.5276 165.087 30.4669C165.151 30.4669 165.236 30.4821 165.334 30.5124C165.531 30.5732 165.631 30.7099 165.631 30.9196C165.631 31.0108 165.598 31.0989 165.531 31.19C165.434 31.342 165.236 31.4149 164.942 31.4149C163.003 31.5364 161.262 31.9436 159.718 32.6333C159.062 32.9341 158.412 33.3109 157.774 33.7606C157.133 34.2133 156.568 34.7633 156.072 35.4075C155.58 36.0547 155.17 36.8234 154.842 37.7106C154.514 38.5979 154.349 39.6158 154.349 40.7582V40.895C154.38 42.2501 154.647 43.4139 155.139 44.3953C155.632 45.3737 156.176 46.1789 156.765 46.8079C157.455 47.5614 158.227 48.1934 159.08 48.7069C160.49 49.5182 161.845 49.9861 163.146 50.1047C164.443 50.2262 165.586 50.1958 166.57 50.0135C167.722 49.8038 168.804 49.4119 169.824 48.8406C171.14 48.1782 172.14 47.3579 172.83 46.3795C173.519 45.4011 174.012 44.447 174.309 43.5111C174.671 42.4264 174.85 41.2991 174.85 40.1262V11.2119C174.85 11.0631 174.917 10.9263 175.048 10.8078C175.111 10.7774 175.197 10.747 175.294 10.7167L175.285 10.7136Z" stroke="#313131" stroke-width="1.3"/>
<path d="M29.2031 59.0349H177.555" stroke="#313131" stroke-width="2.61"/>
<path d="M163.027 38.5979L162.915 35.0489L166.974 35.0125L167.011 38.6343L170.812 38.5584L170.815 42.7667L166.974 42.7302L167.011 46.2366H162.915L162.951 42.7302H159.442L159.478 38.5584L163.027 38.5979Z" fill="#313131"/>
<path d="M163.027 38.5979L162.915 35.0489L166.974 35.0125L167.011 38.6343L170.812 38.5584L170.815 42.7667L166.974 42.7302L167.011 46.2366H162.915L162.951 42.7302H159.442L159.478 38.5584L163.027 38.5979Z" fill="#313131"/>
<path fill-rule="evenodd" clip-rule="evenodd" d="M170.411 24.9704C168.682 23.5302 166.822 23.7034 165.015 22.7736C163.708 22.1021 163.021 20.7166 161.818 19.7777C160.587 18.8175 159.01 18.064 157.622 17.1798C156.23 16.2955 154.586 15.8671 153.228 14.9829C151.995 14.1808 151.208 12.5157 149.831 11.7864C147.883 10.7564 145.507 11.1909 143.438 10.1882C141.734 9.4954 141.481 6.47818 139.242 5.99202C138.017 5.72463 136.383 6.65441 134.848 6.5906C133.147 6.51768 131.628 5.35393 130.455 5.3904C129.446 5.42382 128.161 6.18344 127.058 6.7881C124.94 7.95792 122.634 9.24624 120.865 10.5862C118.635 9.8266 116.405 8.62943 113.874 8.78743C111.282 8.94847 108.979 10.6956 106.682 10.9843C104.059 9.23105 102.175 6.95218 98.2892 6.5906C96.141 6.39006 93.5339 6.89141 91.6987 6.18952C90.8054 5.84921 89.8908 5.07743 88.9002 4.59127C87.7486 4.02004 86.3631 3.73442 85.7037 3.39411C83.6892 2.34583 82.8901 0.428536 80.7115 -0.00292969H79.1133C71.5383 1.52543 64.5163 4.26615 56.9383 5.3904C56.0085 5.53017 55.018 6.50856 53.9424 6.98864C52.6054 6.72429 51.7607 5.97379 50.9464 5.18986C49.6307 4.83131 48.3819 5.18986 46.9508 4.59127C45.942 4.16588 45.6199 3.04468 44.5534 2.99303C42.6058 2.89883 39.5916 6.0619 38.1604 6.98864C37.653 7.3168 36.9116 7.45353 36.3616 7.78473C34.5234 8.89986 32.9889 10.8627 30.9653 11.9809C30.2512 12.3789 29.4248 12.5734 28.7685 12.9806C26.684 14.2841 25.0676 16.7513 22.7765 17.9758C21.4882 18.6625 20.0237 18.8843 18.7809 19.5741C16.4322 20.8776 14.2809 22.7949 11.7894 23.9677C7.9882 25.7513 3.60061 27.2159 0 29.5616C3.48515 28.9843 12.0932 26.4593 15.0497 25.3503C17.7357 24.2655 25.0949 17.7571 28.7897 16.1679C30.2391 15.542 32.2232 14.5332 33.2138 13.9225C34.8272 12.9259 36.2614 11.4522 37.8384 10.0241C39.1084 8.87555 38.7803 9.08824 41.7367 6.52375C44.6932 3.95927 51.3414 9.94814 53.1645 9.6291C56.2942 10.41 69.5967 5.44509 75.1602 3.28776V3.22091C82.7321 1.60443 89.3013 8.42281 90.8145 8.89986C91.8202 9.21586 97.8304 7.09803 103.166 10.2884C105.293 11.3914 111.364 20.0846 115.672 21.9684C115.493 20.6132 111.087 16.0039 110.744 14.6426C110.316 13.5731 107.848 11.7196 114.199 10.884C116.31 11.437 120.27 13.1112 120.27 13.7766C122.667 12.3789 124.961 9.92079 128.401 8.89986C128.373 8.93328 128.562 9.00013 128.531 9.03355C129.409 8.65374 139.102 9.62302 139.297 10.4221C141.102 11.2182 152.511 18.5137 153.632 19.5376C159.311 17.5565 163.431 23.2415 166.017 27.3617C171.271 28.5194 171.204 28.1244 170.414 24.9644" fill="#313131"/>
<path d="M32.4602 66.6342H31.1719V65.4492H32.4602V66.6342ZM32.3873 74.5677H31.2448V67.7737H32.3873V74.5677Z" fill="#313131"/>
<path d="M41.129 74.5646H39.9866V70.6966C39.9866 70.3837 39.9683 70.092 39.9319 69.8185C39.8954 69.545 39.8286 69.3323 39.7313 69.1774C39.6311 69.0072 39.4852 68.8796 39.2938 68.7976C39.1024 68.7155 38.8562 68.673 38.5524 68.673C38.2485 68.673 37.9143 68.749 37.574 68.9039C37.2337 69.0589 36.9055 69.2564 36.5956 69.4934V74.5677H35.4531V67.7736H36.5956V68.5271C36.9511 68.2324 37.3218 67.9984 37.7016 67.8344C38.0814 67.6672 38.4734 67.5852 38.8745 67.5852C39.6098 67.5852 40.1689 67.807 40.5548 68.2476C40.9406 68.6912 41.1321 69.3263 41.1321 70.1588V74.5677L41.129 74.5646Z" fill="#313131"/>
<path d="M48.9957 72.6078C48.9957 73.2277 48.7405 73.7381 48.227 74.1332C47.7135 74.5312 47.0147 74.7287 46.1244 74.7287C45.62 74.7287 45.1612 74.6679 44.7419 74.5494C44.3225 74.4309 43.9701 74.3003 43.6875 74.1575V72.8752H43.7483C44.1098 73.1456 44.5109 73.3644 44.9515 73.5224C45.3921 73.6835 45.8175 73.7625 46.2216 73.7625C46.723 73.7625 47.118 73.6804 47.4005 73.5194C47.6831 73.3583 47.8259 73.1031 47.8259 72.7537C47.8259 72.4863 47.75 72.2827 47.595 72.146C47.44 72.0092 47.1453 71.8907 46.7078 71.7935C46.5467 71.7571 46.334 71.7145 46.0727 71.6659C45.8114 71.6173 45.5744 71.5656 45.3587 71.5079C44.7631 71.3499 44.3408 71.119 44.0916 70.8121C43.8425 70.5052 43.7179 70.1284 43.7179 69.6848C43.7179 69.4053 43.7756 69.1409 43.8911 68.8948C44.0065 68.6487 44.1828 68.4269 44.4167 68.2324C44.6446 68.041 44.9333 67.8921 45.2827 67.7797C45.6321 67.6672 46.0271 67.6125 46.4586 67.6125C46.8627 67.6125 47.276 67.6612 47.6892 67.7614C48.1055 67.8617 48.4519 67.9802 48.7253 68.123V69.3445H48.6646C48.3729 69.1288 48.0174 68.9495 47.6011 68.8006C47.1848 68.6517 46.7746 68.5788 46.3735 68.5788C45.9724 68.5788 45.6018 68.6578 45.3161 68.8188C45.0275 68.9799 44.8847 69.2169 44.8847 69.5329C44.8847 69.8124 44.9728 70.0251 45.146 70.1649C45.3161 70.3077 45.5926 70.4232 45.9724 70.5113C46.1821 70.5599 46.4191 70.6085 46.6804 70.6571C46.9417 70.7057 47.1605 70.7513 47.3337 70.7908C47.8654 70.9123 48.2756 71.122 48.5612 71.4167C48.8499 71.7175 48.9927 72.1156 48.9927 72.6078H48.9957Z" fill="#313131"/>
<path d="M54.9695 74.5037C54.7538 74.5614 54.5198 74.607 54.2676 74.6435C54.0154 74.6799 53.7875 74.6982 53.59 74.6982C52.8972 74.6982 52.3685 74.5128 52.007 74.1391C51.6454 73.7653 51.4661 73.1668 51.4661 72.3433V68.7306H50.6943V67.7704H51.4661V65.8167H52.6086V67.7704H54.9695V68.7306H52.6086V71.8268C52.6086 72.1823 52.6177 72.4618 52.6329 72.6624C52.6481 72.8629 52.7058 73.0513 52.8031 73.2245C52.8912 73.3855 53.0157 73.504 53.1707 73.58C53.3257 73.656 53.5657 73.6924 53.8848 73.6924C54.0701 73.6924 54.2646 73.6651 54.4681 73.6104C54.6717 73.5557 54.8176 73.5101 54.9057 73.4737H54.9665V74.5007L54.9695 74.5037Z" fill="#313131"/>
<path d="M58.3757 66.634H57.0874V65.449H58.3757V66.634ZM58.3028 74.5675H57.1603V67.7734H58.3028V74.5675Z" fill="#313131"/>
<path d="M64.8928 74.5037C64.6771 74.5614 64.4431 74.607 64.1909 74.6435C63.9387 74.6799 63.7109 74.6982 63.5134 74.6982C62.8206 74.6982 62.2919 74.5128 61.9303 74.1391C61.5687 73.7653 61.3895 73.1668 61.3895 72.3433V68.7306H60.6177V67.7704H61.3895V65.8167H62.5319V67.7704H64.8928V68.7306H62.5319V71.8268C62.5319 72.1823 62.541 72.4618 62.5562 72.6624C62.5714 72.8629 62.6292 73.0513 62.7264 73.2245C62.8145 73.3855 62.9391 73.504 63.094 73.58C63.249 73.656 63.4891 73.6924 63.8081 73.6924C63.9934 73.6924 64.1879 73.6651 64.3915 73.6104C64.5951 73.5557 64.7409 73.5101 64.829 73.4737H64.8898V74.5007L64.8928 74.5037Z" fill="#313131"/>
<path d="M72.7019 74.5644H71.5594V73.8109C71.1735 74.1147 70.8059 74.3487 70.4534 74.5098C70.1009 74.6708 69.712 74.7528 69.2866 74.7528C68.5726 74.7528 68.0165 74.5341 67.6185 74.0996C67.2204 73.665 67.0229 73.0239 67.0229 72.1792V67.7704H68.1654V71.6384C68.1654 71.9817 68.1806 72.2795 68.214 72.5226C68.2475 72.7687 68.3143 72.9784 68.4207 73.1515C68.53 73.3308 68.6729 73.4584 68.846 73.5405C69.0192 73.6225 69.2745 73.662 69.6057 73.662C69.9004 73.662 70.2255 73.586 70.5749 73.4311C70.9244 73.2761 71.2525 73.0817 71.5564 72.8416V67.7673H72.6989V74.5614L72.7019 74.5644Z" fill="#313131"/>
<path d="M79.2927 74.5037C79.077 74.5614 78.843 74.607 78.5908 74.6435C78.3386 74.6799 78.1108 74.6982 77.9133 74.6982C77.2205 74.6982 76.6918 74.5128 76.3302 74.1391C75.9686 73.7653 75.7894 73.1668 75.7894 72.3433V68.7306H75.0176V67.7704H75.7894V65.8167H76.9318V67.7704H79.2927V68.7306H76.9318V71.8268C76.9318 72.1823 76.9409 72.4618 76.9561 72.6624C76.9713 72.8629 77.0291 73.0513 77.1263 73.2245C77.2144 73.3855 77.339 73.504 77.4939 73.58C77.6489 73.656 77.889 73.6924 78.208 73.6924C78.3933 73.6924 78.5878 73.6651 78.7914 73.6104C78.995 73.5557 79.1408 73.5101 79.2289 73.4737H79.2897V74.5007L79.2927 74.5037Z" fill="#313131"/>
<path d="M87.2592 71.1705C87.2592 72.2765 86.9767 73.1516 86.4085 73.7927C85.8403 74.4338 85.0806 74.7529 84.1266 74.7529C83.1725 74.7529 82.4007 74.4338 81.8355 73.7927C81.2704 73.1516 80.9878 72.2795 80.9878 71.1705C80.9878 70.0614 81.2704 69.1894 81.8355 68.5452C82.4007 67.9011 83.1634 67.582 84.1266 67.582C85.0898 67.582 85.8403 67.9041 86.4085 68.5452C86.9767 69.1894 87.2592 70.0645 87.2592 71.1705ZM86.0803 71.1705C86.0803 70.2893 85.9071 69.6361 85.5638 69.2076C85.2204 68.7792 84.7403 68.5665 84.1296 68.5665C83.5189 68.5665 83.0266 68.7792 82.6863 69.2076C82.343 69.6361 82.1728 70.2893 82.1728 71.1705C82.1728 72.0517 82.346 72.6685 82.6894 73.1091C83.0327 73.5496 83.5158 73.7684 84.1296 73.7684C84.7434 73.7684 85.2143 73.5496 85.5607 73.1151C85.9071 72.6806 86.0803 72.0304 86.0803 71.1705Z" fill="#313131"/>
<path d="M100.541 74.5645H99.3982V73.8535C99.0701 74.1361 98.7267 74.3579 98.3712 74.5159C98.0157 74.6739 97.6268 74.7529 97.2105 74.7529C96.3992 74.7529 95.7551 74.4399 95.278 73.817C94.801 73.1942 94.564 72.3282 94.564 71.2191C94.564 70.6449 94.646 70.1314 94.8101 69.6786C94.9742 69.2289 95.196 68.8461 95.4755 68.5301C95.752 68.2232 96.0711 67.9862 96.4387 67.8251C96.8064 67.6641 97.1862 67.5821 97.5782 67.5821C97.9337 67.5821 98.2497 67.6185 98.5262 67.6945C98.8027 67.7704 99.0913 67.8859 99.3952 68.0439V65.0996H100.538V74.5645H100.541ZM99.3982 72.8903V68.9919C99.0913 68.8552 98.8148 68.758 98.5717 68.7063C98.3287 68.6546 98.0613 68.6273 97.7757 68.6273C97.1345 68.6273 96.6362 68.8491 96.2807 69.2958C95.9252 69.7424 95.7459 70.3744 95.7459 71.1948C95.7459 72.0152 95.8827 72.6138 96.1592 73.0362C96.4357 73.4555 96.8763 73.6651 97.484 73.6651C97.8091 73.6651 98.1372 73.5922 98.4684 73.4494C98.7996 73.3066 99.1126 73.1212 99.3982 72.8933V72.8903Z" fill="#313131"/>
<path d="M109.276 71.2861H104.269C104.269 71.7054 104.333 72.067 104.457 72.3769C104.582 72.6868 104.755 72.942 104.974 73.1395C105.183 73.334 105.436 73.4799 105.724 73.5771C106.013 73.6743 106.332 73.7229 106.681 73.7229C107.143 73.7229 107.608 73.6318 108.076 73.4464C108.544 73.2611 108.878 73.0818 109.076 72.9025H109.136V74.1483C108.751 74.3094 108.359 74.4461 107.957 74.5555C107.556 74.6649 107.134 74.7196 106.693 74.7196C105.566 74.7196 104.685 74.4157 104.053 73.805C103.421 73.1942 103.105 72.3283 103.105 71.204C103.105 70.0798 103.409 69.2108 104.013 68.5575C104.621 67.9042 105.417 67.5791 106.408 67.5791C107.325 67.5791 108.03 67.8465 108.529 68.3813C109.024 68.916 109.273 69.6757 109.273 70.6632V71.283L109.276 71.2861ZM108.164 70.411C108.161 69.8124 108.009 69.3475 107.711 69.0193C107.414 68.6912 106.961 68.5271 106.353 68.5271C105.745 68.5271 105.253 68.7064 104.889 69.068C104.527 69.4295 104.32 69.8762 104.272 70.411H108.164Z" fill="#313131"/>
<path d="M126.924 74.5646H125.782V70.6966C125.782 70.4049 125.769 70.1223 125.742 69.8519C125.715 69.5815 125.66 69.3627 125.575 69.2017C125.481 69.0285 125.347 68.8948 125.174 68.8067C125.001 68.7186 124.748 68.673 124.42 68.673C124.092 68.673 123.779 68.752 123.46 68.913C123.141 69.0741 122.819 69.2776 122.5 69.5238C122.512 69.618 122.521 69.7243 122.53 69.8489C122.54 69.9735 122.543 70.095 122.543 70.2165V74.5646H121.4V70.6966C121.4 70.3958 121.388 70.1132 121.361 69.8428C121.333 69.5724 121.279 69.3566 121.193 69.1956C121.099 69.0224 120.966 68.8918 120.792 68.8036C120.619 68.7155 120.367 68.673 120.039 68.673C119.711 68.673 119.413 68.749 119.1 68.9039C118.784 69.0589 118.471 69.2564 118.161 69.4934V74.5677H117.019V67.7736H118.161V68.5271C118.517 68.2324 118.875 67.9984 119.228 67.8344C119.583 67.6672 119.96 67.5852 120.361 67.5852C120.823 67.5852 121.215 67.6824 121.537 67.8769C121.859 68.0714 122.099 68.3418 122.257 68.6851C122.719 68.2962 123.141 68.0136 123.521 67.8435C123.901 67.6703 124.308 67.5852 124.742 67.5852C125.49 67.5852 126.04 67.8101 126.395 68.2628C126.751 68.7155 126.927 69.3475 126.927 70.1588V74.5677L126.924 74.5646Z" fill="#313131"/>
<path d="M135.623 71.2861H130.616C130.616 71.7054 130.68 72.067 130.804 72.3769C130.929 72.6868 131.102 72.942 131.321 73.1395C131.53 73.334 131.783 73.4799 132.071 73.5771C132.36 73.6743 132.679 73.7229 133.028 73.7229C133.49 73.7229 133.955 73.6318 134.423 73.4464C134.891 73.2611 135.225 73.0818 135.423 72.9025H135.484V74.1483C135.098 74.3094 134.706 74.4461 134.305 74.5555C133.904 74.6649 133.481 74.7196 133.041 74.7196C131.913 74.7196 131.032 74.4157 130.4 73.805C129.768 73.1942 129.452 72.3283 129.452 71.204C129.452 70.0798 129.756 69.2108 130.361 68.5575C130.968 67.9042 131.764 67.5791 132.755 67.5791C133.673 67.5791 134.378 67.8465 134.876 68.3813C135.371 68.916 135.62 69.6757 135.62 70.6632V71.283L135.623 71.2861ZM134.511 70.411C134.508 69.8124 134.356 69.3475 134.059 69.0193C133.761 68.6912 133.308 68.5271 132.7 68.5271C132.093 68.5271 131.6 68.7064 131.236 69.068C130.874 69.4295 130.668 69.8762 130.619 70.411H134.511Z" fill="#313131"/>
<path d="M143.678 74.5645H142.536V73.8535C142.208 74.1361 141.864 74.3579 141.509 74.5159C141.153 74.6739 140.764 74.7529 140.348 74.7529C139.537 74.7529 138.893 74.4399 138.416 73.817C137.939 73.1942 137.702 72.3282 137.702 71.2191C137.702 70.6449 137.784 70.1314 137.948 69.6786C138.112 69.2289 138.334 68.8461 138.613 68.5301C138.89 68.2232 139.209 67.9862 139.576 67.8251C139.944 67.6641 140.324 67.5821 140.716 67.5821C141.071 67.5821 141.387 67.6185 141.664 67.6945C141.94 67.7704 142.229 67.8859 142.533 68.0439V65.0996H143.675V74.5645H143.678ZM142.536 72.8903V68.9919C142.229 68.8552 141.953 68.758 141.709 68.7063C141.466 68.6546 141.199 68.6273 140.913 68.6273C140.272 68.6273 139.774 68.8491 139.418 69.2958C139.063 69.7424 138.884 70.3744 138.884 71.1948C138.884 72.0152 139.02 72.6138 139.297 73.0362C139.573 73.4555 140.014 73.6651 140.622 73.6651C140.947 73.6651 141.275 73.5922 141.606 73.4494C141.937 73.3066 142.25 73.1212 142.536 72.8933V72.8903Z" fill="#313131"/>
<path d="M147.956 66.634H146.668V65.449H147.956V66.634ZM147.883 74.5675H146.741V67.7734H147.883V74.5675Z" fill="#313131"/>
<path d="M155.966 74.1391C155.586 74.3214 155.221 74.4642 154.881 74.5645C154.538 74.6648 154.173 74.7164 153.79 74.7164C153.301 74.7164 152.848 74.6435 152.441 74.5007C152.031 74.3579 151.681 74.1391 151.39 73.8474C151.095 73.5557 150.864 73.1881 150.703 72.7414C150.542 72.2948 150.46 71.7752 150.46 71.1796C150.46 70.0675 150.764 69.1955 151.375 68.5635C151.985 67.9315 152.79 67.6155 153.793 67.6155C154.182 67.6155 154.565 67.6702 154.939 67.7796C155.312 67.8889 155.659 68.0226 155.969 68.1806V69.4507H155.908C155.559 69.1803 155.2 68.9706 154.829 68.8248C154.459 68.6789 154.097 68.606 153.745 68.606C153.097 68.606 152.584 68.8248 152.21 69.2593C151.836 69.6938 151.648 70.3349 151.648 71.1796C151.648 72.0243 151.83 72.629 152.198 73.0696C152.566 73.5102 153.082 73.7289 153.745 73.7289C153.975 73.7289 154.213 73.6985 154.45 73.6378C154.69 73.577 154.905 73.498 155.094 73.4008C155.261 73.3157 155.416 73.2245 155.562 73.1303C155.707 73.0361 155.823 72.9541 155.908 72.8842H155.969V74.1422L155.966 74.1391Z" fill="#313131"/>
<path d="M159.46 66.634H158.172V65.449H159.46V66.634ZM159.387 74.5675H158.245V67.7734H159.387V74.5675Z" fill="#313131"/>
<path d="M168.129 74.5646H166.987V70.6966C166.987 70.3837 166.968 70.092 166.932 69.8185C166.895 69.545 166.829 69.3323 166.731 69.1774C166.631 69.0072 166.485 68.8796 166.294 68.7976C166.102 68.7155 165.856 68.673 165.552 68.673C165.249 68.673 164.914 68.749 164.574 68.9039C164.234 69.0589 163.906 69.2564 163.596 69.4934V74.5677H162.453V67.7736H163.596V68.5271C163.951 68.2324 164.322 67.9984 164.702 67.8344C165.081 67.6672 165.473 67.5852 165.874 67.5852C166.607 67.5852 167.169 67.807 167.555 68.2476C167.941 68.6912 168.132 69.3263 168.132 70.1588V74.5677L168.129 74.5646Z" fill="#313131"/>
<path d="M176.418 74.5645H175.282V73.8413C175.181 73.9112 175.045 74.0054 174.871 74.13C174.698 74.2546 174.531 74.3518 174.37 74.4247C174.179 74.5189 173.96 74.5949 173.714 74.6587C173.468 74.7225 173.176 74.7529 172.845 74.7529C172.234 74.7529 171.714 74.5493 171.289 74.1452C170.864 73.7411 170.651 73.2215 170.651 72.5925C170.651 72.079 170.76 71.6597 170.982 71.3437C171.204 71.0246 171.517 70.7755 171.927 70.5932C172.34 70.4109 172.839 70.2863 173.419 70.2225C173.999 70.1587 174.622 70.1101 175.288 70.0766V69.9004C175.288 69.6421 175.242 69.4264 175.151 69.2562C175.06 69.0861 174.929 68.9524 174.759 68.8552C174.598 68.761 174.403 68.7002 174.176 68.6668C173.948 68.6334 173.711 68.6182 173.465 68.6182C173.164 68.6182 172.829 68.6577 172.462 68.7367C172.094 68.8157 171.711 68.9311 171.319 69.08H171.259V67.9193C171.48 67.8585 171.802 67.7917 172.225 67.7188C172.647 67.6458 173.063 67.6094 173.471 67.6094C173.948 67.6094 174.367 67.6489 174.719 67.7279C175.075 67.8069 175.382 67.9406 175.64 68.132C175.895 68.3173 176.09 68.5604 176.223 68.8552C176.357 69.1499 176.424 69.5175 176.424 69.9551V74.5645H176.418ZM175.282 72.8903V70.9973C174.932 71.0186 174.522 71.049 174.051 71.0885C173.577 71.128 173.203 71.1887 172.93 71.2647C172.602 71.3589 172.334 71.5017 172.134 71.6992C171.93 71.8967 171.83 72.1671 171.83 72.5105C171.83 72.8994 171.948 73.1941 172.182 73.3886C172.416 73.5861 172.778 73.6833 173.258 73.6833C173.659 73.6833 174.027 73.6043 174.358 73.4494C174.689 73.2944 174.999 73.106 175.282 72.8872V72.8903Z" fill="#313131"/>
<path d="M35.3651 86.962H34.4171V86.3725C34.1436 86.6065 33.861 86.7918 33.5632 86.9225C33.2685 87.0531 32.9464 87.12 32.6 87.12C31.9285 87.12 31.3938 86.8617 30.9988 86.3421C30.6038 85.8256 30.4062 85.1054 30.4062 84.1878C30.4062 83.7108 30.4731 83.2854 30.6098 82.9116C30.7466 82.5379 30.9289 82.2219 31.1628 81.9576C31.3907 81.7023 31.6581 81.5079 31.962 81.3711C32.2658 81.2374 32.5818 81.1706 32.9069 81.1706C33.2017 81.1706 33.466 81.201 33.6939 81.2648C33.9218 81.3286 34.1618 81.4228 34.414 81.5565V79.1135H35.362V86.962H35.3651ZM34.4171 85.5734V82.3404C34.1618 82.2249 33.9339 82.1459 33.7304 82.1034C33.5298 82.0609 33.308 82.0366 33.071 82.0366C32.5393 82.0366 32.126 82.2219 31.8313 82.5926C31.5366 82.9633 31.3877 83.4859 31.3877 84.1665C31.3877 84.8472 31.5031 85.3455 31.731 85.6919C31.9589 86.0413 32.3266 86.2145 32.831 86.2145C33.1014 86.2145 33.3718 86.1537 33.6483 86.0352C33.9248 85.9167 34.1801 85.7618 34.4201 85.5734H34.4171Z" fill="#313131"/>
<path d="M42.527 84.2424H38.3764C38.3764 84.5888 38.428 84.8896 38.5314 85.1479C38.6347 85.4062 38.7775 85.6158 38.9598 85.7799C39.136 85.941 39.3426 86.0625 39.5827 86.1445C39.8227 86.2266 40.0871 86.2661 40.3757 86.2661C40.7586 86.2661 41.1445 86.1901 41.5334 86.0351C41.9223 85.8832 42.1988 85.7313 42.3629 85.5824H42.4146V86.6155C42.0955 86.7492 41.7704 86.8616 41.4362 86.9528C41.1019 87.0439 40.7525 87.0895 40.3879 87.0895C39.452 87.0895 38.7228 86.8373 38.1971 86.3299C37.6715 85.8224 37.4102 85.1054 37.4102 84.1725C37.4102 83.2397 37.6623 82.5196 38.1637 81.9788C38.6651 81.4379 39.3274 81.1675 40.1478 81.1675C40.9075 81.1675 41.4939 81.3893 41.9071 81.8329C42.3204 82.2765 42.5239 82.9085 42.5239 83.7259V84.2394L42.527 84.2424ZM41.6033 83.5162C41.6002 83.0179 41.4757 82.632 41.2265 82.3616C40.9804 82.0881 40.6036 81.9544 40.0992 81.9544C39.5948 81.9544 39.1877 82.1033 38.8869 82.4041C38.5861 82.705 38.4159 83.0757 38.3734 83.5193H41.6002L41.6033 83.5162Z" fill="#313131"/>
<path d="M56.9962 86.9618H56.0482V83.7531C56.0482 83.5101 56.036 83.2761 56.0148 83.0512C55.9935 82.8264 55.9479 82.6471 55.875 82.5104C55.799 82.3645 55.6866 82.2551 55.5408 82.1822C55.3949 82.1093 55.1883 82.0698 54.9148 82.0698C54.6414 82.0698 54.3831 82.1366 54.1187 82.2703C53.8544 82.404 53.587 82.5711 53.3227 82.7778C53.3318 82.8537 53.3409 82.9449 53.347 83.0482C53.353 83.1515 53.3561 83.2518 53.3561 83.352V86.9587H52.4081V83.7501C52.4081 83.5009 52.3959 83.2639 52.3746 83.0421C52.3534 82.8173 52.3078 82.638 52.2349 82.5043C52.1589 82.3585 52.0465 82.2521 51.9006 82.1792C51.7548 82.1063 51.5482 82.0698 51.2747 82.0698C51.0013 82.0698 50.7551 82.1336 50.4969 82.2612C50.2356 82.3888 49.9773 82.5529 49.719 82.7504V86.9587H48.771V81.3254H49.719V81.9513C50.0137 81.7052 50.3085 81.5138 50.6032 81.377C50.8979 81.2403 51.2109 81.1704 51.5451 81.1704C51.928 81.1704 52.2531 81.2524 52.5205 81.4135C52.7879 81.5745 52.9884 81.7994 53.1191 82.085C53.5019 81.7629 53.8514 81.5289 54.1674 81.3861C54.4834 81.2433 54.8206 81.1734 55.1822 81.1734C55.8021 81.1734 56.2578 81.3618 56.5526 81.7356C56.8473 82.1093 56.9932 82.635 56.9932 83.3065V86.9648L56.9962 86.9618Z" fill="#313131"/>
<path d="M64.2126 84.148C64.2126 85.0657 63.9787 85.7919 63.5077 86.3236C63.0367 86.8553 62.4078 87.1197 61.6147 87.1197C60.8217 87.1197 60.1836 86.8553 59.7157 86.3236C59.2477 85.7919 59.0107 85.0687 59.0107 84.148C59.0107 83.2274 59.2447 82.5042 59.7157 81.9725C60.1836 81.4407 60.8186 81.1733 61.6147 81.1733C62.4108 81.1733 63.0367 81.4407 63.5077 81.9725C63.9787 82.5042 64.2126 83.2304 64.2126 84.148ZM63.2342 84.148C63.2342 83.4188 63.0914 82.8749 62.8058 82.5224C62.5202 82.1669 62.1222 81.9907 61.6147 81.9907C61.1073 81.9907 60.7001 82.1669 60.4176 82.5224C60.1319 82.8779 59.9922 83.4188 59.9922 84.148C59.9922 84.8773 60.135 85.3908 60.4206 85.7554C60.7062 86.12 61.1043 86.3023 61.6147 86.3023C62.1252 86.3023 62.5141 86.123 62.8028 85.7615C63.0914 85.3999 63.2342 84.8621 63.2342 84.1511V84.148Z" fill="#313131"/>
<path d="M70.9793 86.9617H70.0313V83.753C70.0313 83.4948 70.0161 83.2517 69.9857 83.0238C69.9553 82.7959 69.9006 82.6197 69.8186 82.492C69.7335 82.3523 69.612 82.2459 69.454 82.176C69.296 82.1062 69.0894 82.0727 68.8372 82.0727C68.585 82.0727 68.3085 82.1365 68.0259 82.2642C67.7433 82.3918 67.4729 82.5559 67.2146 82.7534V86.9617H66.2666V81.3283H67.2146V81.9542C67.5093 81.7081 67.8162 81.5167 68.1322 81.38C68.4482 81.2432 68.7734 81.1733 69.1046 81.1733C69.7123 81.1733 70.1771 81.3556 70.4962 81.7233C70.8152 82.091 70.9763 82.6166 70.9763 83.3064V86.9647L70.9793 86.9617Z" fill="#313131"/>
<path d="M76.3209 86.9133C76.1417 86.9619 75.9472 86.9983 75.7375 87.0287C75.5279 87.0591 75.3395 87.0743 75.1754 87.0743C74.6011 87.0743 74.1636 86.9193 73.8628 86.6094C73.562 86.2995 73.4131 85.8042 73.4131 85.1205V82.1246H72.772V81.3285H73.4131V79.709H74.3611V81.3285H76.3179V82.1246H74.3611V84.6921C74.3611 84.9869 74.3672 85.2178 74.3824 85.3849C74.3945 85.552 74.4431 85.707 74.5221 85.8528C74.5951 85.9865 74.6984 86.0868 74.826 86.1476C74.9566 86.2114 75.1542 86.2417 75.4185 86.2417C75.5735 86.2417 75.7345 86.2174 75.9016 86.1749C76.0687 86.1293 76.1903 86.0929 76.2662 86.0625H76.3179V86.9163L76.3209 86.9133Z" fill="#313131"/>
<path d="M82.4222 86.9619H81.4803V86.3603C81.3952 86.418 81.2828 86.497 81.14 86.6003C80.9972 86.7036 80.8574 86.7857 80.7237 86.8464C80.5657 86.9224 80.3834 86.9892 80.1798 87.0409C79.9732 87.0925 79.7332 87.1199 79.4597 87.1199C78.9523 87.1199 78.5208 86.9528 78.1683 86.6155C77.8159 86.2782 77.6396 85.8498 77.6396 85.3302C77.6396 84.9018 77.7308 84.5584 77.9131 84.2941C78.0954 84.0297 78.3567 83.8231 78.697 83.6712C79.0404 83.5193 79.4506 83.416 79.9337 83.3643C80.4138 83.3096 80.9303 83.2701 81.4833 83.2428V83.0969C81.4833 82.8812 81.4469 82.7019 81.3709 82.5621C81.295 82.4224 81.1856 82.3099 81.0458 82.2279C80.9121 82.1519 80.7511 82.0973 80.5627 82.0729C80.3743 82.0456 80.1768 82.0335 79.9732 82.0335C79.7241 82.0335 79.4475 82.0669 79.1407 82.1307C78.8338 82.1945 78.5178 82.2917 78.1927 82.4163H78.141V81.4531C78.3264 81.4014 78.5937 81.3467 78.9432 81.286C79.2926 81.2252 79.639 81.1948 79.9762 81.1948C80.3743 81.1948 80.7176 81.2282 81.0124 81.2921C81.3071 81.3559 81.5623 81.4683 81.7781 81.6263C81.9908 81.7813 82.1518 81.9818 82.2612 82.2279C82.3736 82.474 82.4283 82.7779 82.4283 83.1395V86.9619H82.4222ZM81.4803 85.5733V84.0054C81.1916 84.0237 80.8513 84.048 80.4594 84.0814C80.0674 84.1148 79.7575 84.1634 79.5296 84.2272C79.2561 84.3032 79.0374 84.4247 78.8702 84.5888C78.7031 84.7529 78.618 84.9777 78.618 85.2634C78.618 85.5854 78.7153 85.8285 78.9097 85.9926C79.1042 86.1567 79.402 86.2357 79.8031 86.2357C80.1373 86.2357 80.4411 86.1719 80.7146 86.0412C80.9911 85.9106 81.2463 85.7556 81.4803 85.5733Z" fill="#313131"/>
<path d="M89.5506 86.9618H88.6026V83.7531C88.6026 83.4949 88.5874 83.2518 88.557 83.0239C88.5266 82.796 88.4719 82.6198 88.3899 82.4921C88.3048 82.3524 88.1833 82.246 88.0253 82.1761C87.8673 82.1063 87.6607 82.0728 87.4085 82.0728C87.1563 82.0728 86.8798 82.1366 86.5972 82.2643C86.3146 82.3919 86.0442 82.556 85.7859 82.7535V86.9618H84.8379V81.3284H85.7859V81.9543C86.0806 81.7082 86.3875 81.5168 86.7035 81.3801C87.0195 81.2433 87.3446 81.1734 87.6758 81.1734C88.2835 81.1734 88.7484 81.3557 89.0675 81.7234C89.3865 82.0911 89.5476 82.6167 89.5476 83.3065V86.9648L89.5506 86.9618ZM89.3288 78.7943C89.2923 79.3048 89.1617 79.6907 88.9399 79.9489C88.718 80.2072 88.4203 80.3379 88.0465 80.3379C87.8642 80.3379 87.6971 80.3044 87.5421 80.2406C87.3872 80.1738 87.2413 80.0796 87.1046 79.955C86.9466 79.8092 86.8129 79.7028 86.7035 79.6299C86.5941 79.557 86.4726 79.5205 86.3419 79.5205C86.1657 79.5205 86.0351 79.5965 85.95 79.7484C85.8619 79.9003 85.8132 80.1039 85.7981 80.3591H85.1387C85.1661 79.8517 85.2997 79.4688 85.5367 79.2075C85.7768 78.9493 86.0685 78.8186 86.4149 78.8186C86.582 78.8186 86.7461 78.852 86.901 78.9158C87.056 78.9796 87.2049 79.0738 87.3477 79.1954C87.5057 79.3321 87.6455 79.4354 87.77 79.5053C87.8916 79.5752 88.0101 79.6086 88.1195 79.6086C88.2896 79.6086 88.4233 79.5326 88.5205 79.3777C88.6178 79.2227 88.6694 79.0283 88.6786 78.7913H89.3288V78.7943Z" fill="#313131"/>
<path d="M96.3417 86.9619H95.3997V86.3603C95.3147 86.418 95.2022 86.497 95.0594 86.6003C94.9166 86.7036 94.7769 86.7857 94.6432 86.8464C94.4852 86.9224 94.3028 86.9892 94.0993 87.0409C93.8957 87.0925 93.6526 87.1199 93.3791 87.1199C92.8717 87.1199 92.4403 86.9528 92.0878 86.6155C91.7353 86.2782 91.5591 85.8498 91.5591 85.3302C91.5591 84.9018 91.6502 84.5584 91.8326 84.2941C92.0149 84.0297 92.2762 83.8231 92.6165 83.6712C92.9598 83.5193 93.37 83.416 93.8532 83.3643C94.3332 83.3096 94.8498 83.2701 95.4028 83.2428V83.0969C95.4028 82.8812 95.3663 82.7019 95.2904 82.5621C95.2144 82.4224 95.105 82.3099 94.9652 82.2279C94.8315 82.1519 94.6705 82.0973 94.4821 82.0729C94.2937 82.0456 94.0962 82.0335 93.8927 82.0335C93.6435 82.0335 93.367 82.0669 93.0601 82.1307C92.7532 82.1945 92.4372 82.2917 92.1121 82.4163H92.0604V81.4531C92.2458 81.4014 92.5132 81.3467 92.8626 81.286C93.212 81.2252 93.5584 81.1948 93.8957 81.1948C94.2937 81.1948 94.6371 81.2282 94.9318 81.2921C95.2265 81.3559 95.4818 81.4683 95.6975 81.6263C95.9102 81.7813 96.0713 81.9818 96.1806 82.2279C96.2931 82.474 96.3478 82.7779 96.3478 83.1395V86.9619H96.3417ZM95.3997 85.5733V84.0054C95.1111 84.0237 94.7708 84.048 94.3788 84.0814C93.9868 84.1148 93.6769 84.1634 93.449 84.2272C93.1756 84.3032 92.9568 84.4247 92.7897 84.5888C92.6226 84.7529 92.5375 84.9777 92.5375 85.2634C92.5375 85.5854 92.6347 85.8285 92.8292 85.9926C93.0236 86.1567 93.3214 86.2357 93.7225 86.2357C94.0567 86.2357 94.3606 86.1719 94.634 86.0412C94.9105 85.9106 95.1658 85.7556 95.3997 85.5733Z" fill="#313131"/>
<path d="M107.851 81.3285L104.564 89.0402H103.549L104.597 86.6884L102.352 81.3254H103.382L105.111 85.5034L106.855 81.3254H107.848L107.851 81.3285Z" fill="#313131"/>
<path d="M118.474 86.9617H117.526V86.3722C117.252 86.6062 116.97 86.7916 116.672 86.9222C116.377 87.0529 116.055 87.1197 115.709 87.1197C115.037 87.1197 114.503 86.8614 114.108 86.3419C113.713 85.8253 113.515 85.1052 113.515 84.1876C113.515 83.7105 113.582 83.2851 113.719 82.9114C113.855 82.5377 114.038 82.2217 114.272 81.9573C114.5 81.7021 114.767 81.5076 115.071 81.3709C115.375 81.2372 115.691 81.1703 116.016 81.1703C116.311 81.1703 116.575 81.2007 116.803 81.2645C117.031 81.3283 117.271 81.4225 117.523 81.5562V79.1133H118.471V86.9617H118.474ZM117.526 85.5731V82.3402C117.271 82.2247 117.043 82.1457 116.839 82.1032C116.639 82.0606 116.417 82.0363 116.18 82.0363C115.648 82.0363 115.235 82.2217 114.94 82.5924C114.645 82.9631 114.497 83.4857 114.497 84.1663C114.497 84.8469 114.612 85.3452 114.84 85.6916C115.068 86.041 115.435 86.2142 115.94 86.2142C116.21 86.2142 116.481 86.1535 116.757 86.035C117.034 85.9165 117.289 85.7615 117.529 85.5731H117.526Z" fill="#313131"/>
<path d="M125.633 84.2424H121.482C121.482 84.5888 121.534 84.8896 121.637 85.1479C121.741 85.4062 121.883 85.6158 122.066 85.7799C122.242 85.941 122.448 86.0625 122.689 86.1445C122.929 86.2266 123.193 86.2661 123.485 86.2661C123.867 86.2661 124.253 86.1901 124.642 86.0351C125.031 85.8832 125.308 85.7313 125.472 85.5824H125.523V86.6155C125.204 86.7492 124.879 86.8616 124.545 86.9528C124.211 87.0439 123.861 87.0895 123.497 87.0895C122.561 87.0895 121.832 86.8373 121.306 86.3299C120.78 85.8224 120.519 85.1054 120.519 84.1725C120.519 83.2397 120.771 82.5196 121.273 81.9788C121.774 81.4379 122.436 81.1675 123.257 81.1675C124.016 81.1675 124.603 81.3893 125.016 81.8329C125.429 82.2765 125.633 82.9085 125.633 83.7259V84.2394V84.2424ZM124.709 83.5162C124.706 83.0179 124.582 82.632 124.332 82.3616C124.086 82.0881 123.709 81.9544 123.205 81.9544C122.701 81.9544 122.294 82.1033 121.993 82.4041C121.692 82.705 121.522 83.0757 121.482 83.5193H124.709V83.5162Z" fill="#313131"/>
<path d="M128.619 86.9617H127.671V79.1133H128.619V86.9617Z" fill="#313131"/>
<path d="M139.865 86.9617H138.917V86.3722C138.644 86.6062 138.361 86.7916 138.063 86.9222C137.769 87.0529 137.446 87.1197 137.1 87.1197C136.429 87.1197 135.894 86.8614 135.499 86.3419C135.104 85.8253 134.906 85.1052 134.906 84.1876C134.906 83.7105 134.973 83.2851 135.11 82.9114C135.247 82.5377 135.429 82.2217 135.663 81.9573C135.891 81.7021 136.158 81.5076 136.462 81.3709C136.766 81.2372 137.082 81.1703 137.407 81.1703C137.702 81.1703 137.966 81.2007 138.194 81.2645C138.422 81.3283 138.662 81.4225 138.914 81.5562V79.1133H139.862V86.9617H139.865ZM138.917 85.5731V82.3402C138.662 82.2247 138.434 82.1457 138.23 82.1032C138.03 82.0606 137.808 82.0363 137.571 82.0363C137.039 82.0363 136.626 82.2217 136.331 82.5924C136.037 82.9631 135.888 83.4857 135.888 84.1663C135.888 84.8469 136.003 85.3452 136.231 85.6916C136.459 86.041 136.827 86.2142 137.331 86.2142C137.601 86.2142 137.872 86.1535 138.148 86.035C138.425 85.9165 138.68 85.7615 138.92 85.5731H138.917Z" fill="#313131"/>
<path d="M147.027 84.2424H142.876C142.876 84.5888 142.928 84.8896 143.031 85.1479C143.134 85.4062 143.277 85.6158 143.46 85.7799C143.636 85.941 143.842 86.0625 144.082 86.1445C144.323 86.2266 144.587 86.2661 144.879 86.2661C145.261 86.2661 145.647 86.1901 146.036 86.0351C146.425 85.8832 146.702 85.7313 146.866 85.5824H146.917V86.6155C146.598 86.7492 146.273 86.8616 145.939 86.9528C145.605 87.0439 145.255 87.0895 144.891 87.0895C143.955 87.0895 143.226 86.8373 142.703 86.3299C142.177 85.8224 141.916 85.1054 141.916 84.1725C141.916 83.2397 142.168 82.5196 142.67 81.9788C143.171 81.4379 143.833 81.1675 144.654 81.1675C145.413 81.1675 146 81.3893 146.413 81.8329C146.826 82.2765 147.03 82.9085 147.03 83.7259V84.2394L147.027 84.2424ZM146.103 83.5162C146.1 83.0179 145.975 82.632 145.726 82.3616C145.48 82.0881 145.103 81.9544 144.599 81.9544C144.095 81.9544 143.687 82.1033 143.387 82.4041C143.086 82.705 142.916 83.0757 142.876 83.5193H146.103V83.5162Z" fill="#313131"/>
<path d="M154.012 84.0782C154.012 84.534 153.945 84.9533 153.815 85.3301C153.684 85.7099 153.499 86.029 153.259 86.2903C153.037 86.5394 152.775 86.7309 152.475 86.8676C152.174 87.0043 151.855 87.0712 151.518 87.0712C151.226 87.0712 150.962 87.0377 150.721 86.9739C150.484 86.9101 150.244 86.8099 149.998 86.6762V89.0371H149.05V81.3254H149.998V81.9148C150.25 81.7021 150.533 81.5259 150.849 81.3831C151.162 81.2403 151.499 81.1704 151.855 81.1704C152.535 81.1704 153.064 81.4256 153.441 81.9391C153.818 82.4527 154.009 83.1637 154.009 84.0752L154.012 84.0782ZM153.034 84.1026C153.034 83.4219 152.918 82.9145 152.684 82.5803C152.453 82.243 152.095 82.0759 151.615 82.0759C151.341 82.0759 151.068 82.1336 150.791 82.2521C150.515 82.3706 150.25 82.5256 149.998 82.717V85.9105C150.269 86.032 150.5 86.114 150.691 86.1566C150.886 86.1991 151.104 86.2234 151.35 86.2234C151.879 86.2234 152.289 86.0442 152.587 85.6886C152.882 85.3331 153.031 84.8044 153.031 84.1056L153.034 84.1026Z" fill="#313131"/>
<path d="M160.87 84.148C160.87 85.0657 160.636 85.7919 160.165 86.3236C159.694 86.8553 159.065 87.1197 158.272 87.1197C157.479 87.1197 156.841 86.8553 156.373 86.3236C155.905 85.7919 155.668 85.0687 155.668 84.148C155.668 83.2274 155.902 82.5042 156.373 81.9725C156.841 81.4407 157.476 81.1733 158.272 81.1733C159.068 81.1733 159.694 81.4407 160.165 81.9725C160.636 82.5042 160.87 83.2304 160.87 84.148ZM159.891 84.148C159.891 83.4188 159.749 82.8749 159.463 82.5224C159.177 82.1669 158.779 81.9907 158.272 81.9907C157.765 81.9907 157.357 82.1669 157.075 82.5224C156.792 82.8779 156.649 83.4188 156.649 84.148C156.649 84.8773 156.792 85.3908 157.078 85.7554C157.363 86.12 157.761 86.3023 158.272 86.3023C158.782 86.3023 159.171 86.123 159.46 85.7615C159.749 85.3999 159.891 84.8621 159.891 84.1511V84.148Z" fill="#313131"/>
<path d="M166.443 82.3615H166.391C166.251 82.328 166.112 82.3037 165.981 82.2885C165.847 82.2733 165.692 82.2642 165.51 82.2642C165.218 82.2642 164.936 82.328 164.662 82.4587C164.389 82.5893 164.127 82.7565 163.875 82.96V86.9617H162.927V81.3284H163.875V82.1609C164.252 81.8571 164.583 81.6444 164.872 81.5168C165.161 81.3922 165.452 81.3284 165.753 81.3284C165.917 81.3284 166.039 81.3314 166.112 81.3405C166.185 81.3496 166.297 81.3648 166.446 81.3891V82.3615H166.443Z" fill="#313131"/>
<path d="M170.852 86.9133C170.672 86.9619 170.478 86.9983 170.268 87.0287C170.059 87.0591 169.87 87.0743 169.706 87.0743C169.132 87.0743 168.694 86.9193 168.394 86.6094C168.093 86.2995 167.944 85.8042 167.944 85.1205V82.1246H167.303V81.3285H167.944V79.709H168.892V81.3285H170.849V82.1246H168.892V84.6921C168.892 84.9869 168.898 85.2178 168.913 85.3849C168.925 85.552 168.974 85.707 169.053 85.8528C169.126 85.9865 169.229 86.0868 169.357 86.1476C169.487 86.2114 169.685 86.2417 169.949 86.2417C170.104 86.2417 170.265 86.2174 170.432 86.1749C170.599 86.1293 170.721 86.0929 170.797 86.0625H170.849V86.9163L170.852 86.9133Z" fill="#313131"/>
<path d="M177.29 84.2424H173.139C173.139 84.5888 173.191 84.8896 173.294 85.1479C173.398 85.4062 173.541 85.6158 173.723 85.7799C173.899 85.941 174.106 86.0625 174.346 86.1445C174.586 86.2266 174.85 86.2661 175.142 86.2661C175.525 86.2661 175.911 86.1901 176.299 86.0351C176.688 85.8832 176.965 85.7313 177.129 85.5824H177.181V86.6155C176.862 86.7492 176.537 86.8616 176.202 86.9528C175.868 87.0439 175.519 87.0895 175.154 87.0895C174.218 87.0895 173.489 86.8373 172.963 86.3299C172.438 85.8224 172.176 85.1054 172.176 84.1725C172.176 83.2397 172.428 82.5196 172.93 81.9788C173.431 81.4379 174.094 81.1675 174.914 81.1675C175.674 81.1675 176.26 81.3893 176.673 81.8329C177.086 82.2765 177.29 82.9085 177.29 83.7259V84.2394V84.2424ZM176.366 83.5162C176.363 83.0179 176.239 82.632 175.99 82.3616C175.743 82.0881 175.367 81.9544 174.862 81.9544C174.358 81.9544 173.951 82.1033 173.65 82.4041C173.349 82.705 173.179 83.0757 173.139 83.5193H176.366V83.5162Z" fill="#313131"/>
</g>
<defs>
<clipPath id="clip0_1935_3458">
<rect width="177.554" height="89.04" fill="white"/>
</clipPath>
</defs>
</svg>
