<?xml version="1.0" encoding="utf-8"?>
<!-- Generator: Adobe Illustrator 15.0.0, SVG Export Plug-In . SVG Version: 6.00 Build 0)  -->
<!DOCTYPE svg PUBLIC "-//W3C//DTD SVG 1.1//EN" "http://www.w3.org/Graphics/SVG/1.1/DTD/svg11.dtd">
<svg version="1.1" id="Capa_1" xmlns="http://www.w3.org/2000/svg" xmlns:xlink="http://www.w3.org/1999/xlink" x="0px" y="0px"
	 width="759.576px" height="237.748px" viewBox="0 0 759.576 237.748" enable-background="new 0 0 759.576 237.748"
	 xml:space="preserve">
<g>
	<g>
		<path d="M282.363,129.91c0.586,0,1.066-0.48,1.066-1.066V99.607c0-0.587-0.48-1.066-1.066-1.066H179.312
			c-0.587,0-1.066,0.479-1.066,1.066v134.874c0,0.587,0.479,1.067,1.066,1.067h104.365c0.586,0,1.066-0.48,1.066-1.067v-30.198
			c0-0.586-0.479-1.066-1.066-1.066h-57.646c-0.586,0-1.067-0.479-1.07-1.066l-0.062-17.295c-0.002-0.586,0.476-1.067,1.063-1.067
			l54.843-0.005c0.586,0,1.067-0.479,1.067-1.067v-32.104c0-0.586-0.48-1.066-1.067-1.066h-54.774c-0.586,0-1.066-0.479-1.066-1.066
			v-17.504c0-0.586,0.479-1.066,1.066-1.066H282.363L282.363,129.91z"/>
		<path d="M350.626,150.967c0-13.839-8.193-21.368-22.365-23.361c-1.44-0.221-2.658-0.443-3.654-0.553
			c-9.964-1.661-14.061-3.765-14.061-8.857c0-4.096,2.435-6.975,10.186-6.975c5.757,0,10.851,4.317,12.4,8.747
			c0.221,0.554,0.553,0.775,1.329,0.443l12.953-5.204c0.665-0.222,1.108-0.664,0.776-1.882c-2.879-9.3-11.958-16.275-26.683-16.275
			c-19.597,0-29.451,10.075-29.451,24.469c0,13.728,9.3,21.257,22.697,22.585c0.775,0.111,1.882,0.222,2.657,0.332
			c10.186,1.218,13.396,4.097,13.396,8.637c0,5.092-3.542,7.417-11.183,7.417c-6.975,0-12.068-4.872-13.396-8.968
			c-0.222-0.886-0.222-0.886-1.219-0.554l-13.618,5.536c-0.774,0.333-0.885,0.886-0.443,2.104
			c3.765,10.851,13.175,16.939,28.232,16.939C336.564,175.546,350.626,168.018,350.626,150.967L350.626,150.967z"/>
		<path d="M496.366,172.024c-12.179-24.469-27.789-56.244-37.864-75.952c-0.111-0.332-0.666-0.222-1.329-0.222
			c-0.664,0-1.217,0-1.328,0.222c-8.636,16.164-26.129,51.482-37.645,75.952c-0.442,1.107-0.332,1.55,0.554,1.55
			c7.307,0,11.073,0,18.38,0c1.438,0,1.66-0.333,1.991-1.218c1.107-2.657,2.548-6.421,3.875-9.521h26.795
			c1.106,2.768,2.768,6.865,4.095,9.854c0.334,0.775,0.776,0.886,1.33,0.886c8.525,0,15.389,0,20.703,0
			C496.92,173.574,497.03,173.463,496.366,172.024z M448.537,148.441l7.527-16.829l7.862,16.829H448.537z"/>
		<path d="M570.613,152.663c0.223-0.664,0.111-1.218-0.997-1.439l-16.606-4.539c-0.886-0.221-0.996,0.222-1.328,0.775
			c-2.657,5.646-7.972,9.301-15.501,9.301c-9.3,0-18.488-6.312-18.488-20.151c0-11.847,7.084-20.593,18.156-20.593
			c7.64,0,12.953,3.433,16.165,10.075c0.222,0.554,0.331,0.775,0.996,0.554l16.497-6.422c0.443-0.221,0.886-0.664,0.332-1.993
			c-4.983-11.293-16.165-21.147-34.433-21.147c-21.7,0-38.751,16.718-38.751,39.415c0,21.257,15.722,39.083,39.304,39.083
			C553.23,175.581,565.631,164.73,570.613,152.663L570.613,152.663z"/>
		<path d="M600.636,172.61c0-17.382,0-55.912,0-73.072c0-0.886-0.111-0.997-1.108-0.997c-7.307,0-11.404,0-18.379,0
			c-0.997,0-0.997-0.11-0.997,0.997c0,26.461,0,44.507,0,73.072c0,1.108,0,0.997,0.997,0.997c6.975,0,11.072,0,18.379,0
			C600.525,173.607,600.636,173.496,600.636,172.61L600.636,172.61z"/>
		<path d="M652.229,97.049c-22.363,0-39.303,17.604-39.303,39.305c0,21.7,16.939,39.193,39.303,39.193
			c22.365,0,39.305-17.493,39.305-39.193C691.534,114.652,674.594,97.049,652.229,97.049z M652.229,156.614
			c-11.957,0-18.601-8.857-18.601-20.261c0-11.404,6.644-20.373,18.601-20.373c11.737,0,18.602,8.968,18.602,20.373
			C670.831,147.757,663.966,156.614,652.229,156.614z"/>
		<path d="M759.576,150.967c0-13.839-8.192-21.368-22.364-23.361c-1.438-0.221-2.657-0.443-3.653-0.553
			c-9.965-1.661-14.062-3.765-14.062-8.857c0-4.096,2.436-6.975,10.187-6.975c5.757,0,10.851,4.317,12.399,8.747
			c0.223,0.554,0.554,0.775,1.33,0.443l12.953-5.204c0.664-0.222,1.106-0.664,0.774-1.882c-2.878-9.3-11.958-16.275-26.683-16.275
			c-19.597,0-29.45,10.075-29.45,24.469c0,13.728,9.3,21.257,22.697,22.585c0.774,0.111,1.882,0.222,2.657,0.332
			c10.186,1.218,13.396,4.097,13.396,8.637c0,5.092-3.543,7.417-11.183,7.417c-6.975,0-12.068-4.872-13.396-8.968
			c-0.223-0.886-0.223-0.886-1.219-0.554l-13.618,5.536c-0.776,0.333-0.886,0.886-0.443,2.104
			c3.765,10.851,13.176,16.939,28.233,16.939C745.515,175.546,759.576,168.018,759.576,150.967L759.576,150.967z"/>
		<path d="M396.708,98.541h-33.214c-0.443,0-0.997-0.11-0.997,0.997c0,26.461,0,44.508,0,73.072c0,1.108,0,0.997,0.997,0.997
			c6.533,0,10.961,0,17.936,0c0.886,0,0.997-0.111,0.997-0.997c0-8.635,0-17.824,0-17.824s12.51-0.111,15.721-0.444
			c14.173-1.661,24.912-8.857,24.912-27.015C423.059,110.277,413.206,98.541,396.708,98.541z M391.726,138.177l-9.3,0.332v-23.472
			h9.079c6.753,0,11.07,4.208,11.07,11.625C402.576,132.974,399.477,137.846,391.726,138.177z"/>
	</g>
	<g>
		<path fill="#60A565" d="M281.587,129.134c0.586,0,1.067-0.479,1.067-1.066V98.832c0-0.586-0.48-1.066-1.067-1.066H178.536
			c-0.586,0-1.065,0.48-1.065,1.066v134.874c0,0.587,0.479,1.066,1.065,1.066h104.365c0.586,0,1.066-0.479,1.066-1.066v-30.198
			c0-0.587-0.48-1.066-1.066-1.066h-57.646c-0.586,0-1.068-0.479-1.07-1.065l-0.062-17.296c-0.002-0.586,0.476-1.066,1.063-1.066
			l54.843-0.006c0.586,0,1.066-0.479,1.066-1.066v-32.104c0-0.586-0.479-1.067-1.066-1.067h-54.775
			c-0.586,0-1.066-0.479-1.066-1.066v-17.503c0-0.586,0.479-1.067,1.066-1.067H281.587L281.587,129.134z"/>
		<path fill="#60A565" d="M349.85,150.192c0-13.839-8.193-21.368-22.365-23.361c-1.439-0.222-2.657-0.443-3.653-0.554
			c-9.965-1.661-14.062-3.765-14.062-8.857c0-4.096,2.436-6.975,10.186-6.975c5.757,0,10.851,4.318,12.4,8.747
			c0.221,0.554,0.554,0.775,1.329,0.443l12.954-5.204c0.665-0.222,1.107-0.665,0.775-1.882c-2.879-9.3-11.958-16.275-26.682-16.275
			c-19.597,0-29.451,10.075-29.451,24.468c0,13.729,9.3,21.257,22.697,22.585c0.775,0.111,1.883,0.222,2.657,0.333
			c10.187,1.217,13.397,4.096,13.397,8.636c0,5.093-3.543,7.417-11.183,7.417c-6.975,0-12.068-4.871-13.397-8.967
			c-0.221-0.886-0.221-0.886-1.218-0.554l-13.618,5.536c-0.775,0.333-0.886,0.886-0.443,2.104
			c3.764,10.85,13.175,16.939,28.233,16.939C335.789,174.771,349.85,167.242,349.85,150.192L349.85,150.192z"/>
		<path fill="#60A565" d="M495.591,171.249c-12.18-24.469-27.791-56.245-37.866-75.952c-0.109-0.332-0.664-0.222-1.328-0.222
			s-1.219,0-1.329,0.222c-8.635,16.165-26.129,51.483-37.644,75.952c-0.442,1.107-0.332,1.55,0.554,1.55c7.308,0,11.071,0,18.379,0
			c1.439,0,1.662-0.332,1.993-1.218c1.107-2.657,2.547-6.421,3.875-9.521h26.793c1.107,2.768,2.768,6.865,4.097,9.854
			c0.331,0.775,0.774,0.886,1.328,0.886c8.525,0,15.391,0,20.705,0C496.143,172.798,496.254,172.688,495.591,171.249z
			 M447.76,147.666l7.529-16.829l7.861,16.829H447.76z"/>
		<path fill="#60A565" d="M569.838,151.887c0.22-0.664,0.111-1.217-0.997-1.439l-16.608-4.54c-0.886-0.222-0.994,0.221-1.328,0.775
			c-2.657,5.647-7.972,9.3-15.499,9.3c-9.302,0-18.491-6.311-18.491-20.15c0-11.847,7.087-20.593,18.158-20.593
			c7.64,0,12.954,3.432,16.166,10.075c0.22,0.554,0.33,0.775,0.994,0.554l16.498-6.421c0.441-0.222,0.885-0.665,0.332-1.993
			c-4.982-11.293-16.164-21.147-34.435-21.147c-21.698,0-38.749,16.718-38.749,39.415c0,21.258,15.721,39.083,39.305,39.083
			C552.456,174.806,564.855,163.955,569.838,151.887L569.838,151.887z"/>
		<path fill="#60A565" d="M599.86,171.835c0-17.383,0-55.912,0-73.073c0-0.886-0.111-0.997-1.106-0.997c-7.307,0-11.404,0-18.379,0
			c-0.997,0-0.997-0.111-0.997,0.997c0,26.461,0,44.508,0,73.073c0,1.107,0,0.997,0.997,0.997c6.975,0,11.072,0,18.379,0
			C599.749,172.832,599.86,172.721,599.86,171.835L599.86,171.835z"/>
		<path fill="#60A565" d="M651.455,96.273c-22.365,0-39.304,17.604-39.304,39.304c0,21.701,16.938,39.194,39.304,39.194
			c22.364,0,39.305-17.493,39.305-39.194C690.759,113.877,673.819,96.273,651.455,96.273z M651.455,155.839
			c-11.957,0-18.601-8.857-18.601-20.261c0-11.403,6.644-20.372,18.601-20.372c11.736,0,18.6,8.968,18.6,20.372
			C670.054,146.981,663.191,155.839,651.455,155.839z"/>
		<path fill="#60A565" d="M758.8,150.192c0-13.839-8.192-21.368-22.363-23.361c-1.44-0.222-2.657-0.443-3.654-0.554
			c-9.964-1.661-14.061-3.765-14.061-8.857c0-4.096,2.435-6.975,10.185-6.975c5.759,0,10.851,4.318,12.4,8.747
			c0.222,0.554,0.554,0.775,1.329,0.443l12.954-5.204c0.665-0.222,1.107-0.665,0.775-1.882c-2.879-9.3-11.959-16.275-26.683-16.275
			c-19.598,0-29.45,10.075-29.45,24.468c0,13.729,9.3,21.257,22.695,22.585c0.776,0.111,1.883,0.222,2.658,0.333
			c10.186,1.217,13.396,4.096,13.396,8.636c0,5.093-3.542,7.417-11.182,7.417c-6.975,0-12.067-4.871-13.396-8.967
			c-0.221-0.886-0.221-0.886-1.218-0.554l-13.619,5.536c-0.774,0.333-0.886,0.886-0.442,2.104
			c3.766,10.85,13.176,16.939,28.233,16.939C744.74,174.771,758.8,167.242,758.8,150.192L758.8,150.192z"/>
		<path fill="#60A565" d="M395.933,97.766h-33.215c-0.443,0-0.997-0.111-0.997,0.997c0,26.461,0,44.508,0,73.073
			c0,1.107,0,0.997,0.997,0.997c6.532,0,10.96,0,17.936,0c0.886,0,0.997-0.111,0.997-0.997c0-8.636,0-17.825,0-17.825
			s12.51-0.111,15.722-0.443c14.171-1.661,24.91-8.857,24.91-27.015C422.283,109.501,412.43,97.766,395.933,97.766z
			 M390.951,137.402l-9.3,0.332v-23.472h9.078c6.754,0,11.071,4.207,11.071,11.625C401.8,132.198,398.701,137.07,390.951,137.402z"
			/>
	</g>
</g>
<g>
	<g>
		<path d="M143.361,154.061c-7.705,8.204-25.979,19.921-51.875,20.078C41.77,174.44,0.775,141.044,0.775,86.69
			c0-49.533,38.813-85.915,93.545-85.915c42.521,0,64.323,21.439,76.535,49.712c1.09,2.63,1.308,3.726-0.654,4.384L124.63,73.759
			c-1.962,0.876-1.745-0.658-2.617-2.411c-5.887-12.054-15.917-19.287-31.618-19.287c-21.151,0-33.362,16.219-33.362,34.629
			c0,22.574,15.045,36.382,34.452,36.382c5.385,0,10.76-1.873,15.694-5.108l-16.511-16.511c-1.626-1.626-0.536-2.912,1.729-2.912
			h66.876c2.265,0,3.377,1.231,3.377,3.497v67.279c0,2.265-1.515,2.603-2.912,1.207L143.361,154.061z"/>
		<path d="M256.786,79.989c-7.318-10.457-14.409-20.464-17.611-25.074c7.205-2.923,9.835-12.031,9.835-22.375
			c0-13.831-8.92-25.749-28.475-25.749h-41.054c-0.572,0-1.144-0.112-1.144,1.012v74.21c0,1.125,0,1.011,1.144,1.011h27.56
			c1.029,0,1.143-0.111,1.143-1.011V66.271l4.346-0.225c0,0,4.231,7.534,8.462,14.73c1.258,2.023,1.715,2.248,2.745,2.248h32.82
			c1.029,0,1.601-0.111,1.601-0.562C258.158,82.013,257.701,81.226,256.786,79.989z M210.585,40.635h-1.715V28.717h1.83
			c2.516,0,5.604,2.023,5.604,5.959C216.304,38.948,213.102,40.635,210.585,40.635z"/>
		<path d="M351.021,81.455c-14.212-24.682-29.111-51.833-42.405-75.617c-0.229-0.449-1.605-0.449-2.98-0.449
			c-1.261,0-2.521,0.112-2.75,0.561c-12.034,21.877-27.506,51.047-41.374,75.505c-0.688,1.122-0.458,1.57,0.458,1.57h28.079
			c1.604,0,1.719-0.224,2.292-1.233c1.375-2.692,1.833-3.926,3.324-7.068h18.223c1.375,2.805,2.177,4.375,3.553,7.405
			c0.458,0.785,1.032,0.896,1.605,0.896h31.517C351.823,83.024,351.823,83.024,351.021,81.455z M301.624,56.436
			c0,0,0.917-1.683,1.49-3.029c1.031-2.244,1.833-4.488,1.833-4.488s0.802,2.244,1.833,4.488c0.803,1.795,1.376,3.029,1.376,3.029
			H301.624z"/>
		<path d="M429.915,83.586c0.344-29.169,0.229-53.403,0-75.28c0-1.123,0-1.347-1.261-1.347h-27.62c-1.146,0-1.032,0.112-1.032,1.347
			V31.08c0,0-24.87-15.146-42.978-25.916c-0.458-0.337-0.802-0.449-1.031-0.337c-0.115,0.113-0.229,0.45-0.229,1.01
			c-0.229,29.731-0.343,46.448,0,76.065c0,0.449,0.229,1.122,1.261,1.122h27.391c1.146,0,1.146,0,1.146-1.009V59.128
			c0,0,23.609,14.136,42.863,25.581c0.573,0.336,1.032,0.448,1.262,0.336C429.915,84.932,429.915,84.372,429.915,83.586
			L429.915,83.586z"/>
		<path d="M480.228,6.959H446.65c-1.033,0-1.146,0.224-1.146,1.122v73.934c0,1.122,0.113,1.009,1.146,1.009h30.714
			c27.965,0,41.604-12.34,41.604-38.032C518.967,20.31,506.588,6.959,480.228,6.959z M478.051,57.445h-1.834V32.539h2.063
			c3.553,0,6.877,3.254,6.877,12.118C485.158,54.528,481.833,57.445,478.051,57.445z"/>
		<path d="M591.136,81.455V62.382c0-1.459,0-1.459-1.261-1.459h-28.424v-5.497h26.59c1.261,0,1.375-0.225,1.375-1.459V35.792
			c0-1.346-0.114-1.57-1.375-1.57h-26.59v-4.825h27.393c1.146,0,1.376-0.336,1.376-1.57V8.53c0-1.458-0.115-1.57-1.376-1.57h-57.19
			c-1.375,0-1.261,0.112-1.261,1.122v73.374c0,1.346,0.116,1.57,1.376,1.57h58.106C591.022,83.024,591.136,82.801,591.136,81.455
			L591.136,81.455z"/>
		<path d="M666.286,55.424c0-16.83-11.92-21.653-23.266-23.561c-1.604-0.225-2.979-0.449-4.127-0.673
			c-4.24-0.673-5.729-2.244-5.729-3.478c0-1.122,1.03-1.907,2.864-1.907c2.408,0,5.043,1.234,5.846,3.029
			c0.344,0.897,0.457,0.897,1.376,0.449l19.598-7.517c1.146-0.449,1.031-0.561,0.802-1.906c-2.178-9.761-11.805-16.493-27.85-16.493
			c-21.776,0-33.352,11.219-33.352,28.721c0,17.727,15.129,22.663,23.839,23.336c0.802,0.112,2.063,0.224,2.865,0.336
			c3.21,0.448,4.241,1.683,4.241,3.59c0,1.347-1.261,2.356-3.438,2.356c-2.637,0-5.502-1.458-6.304-4.039
			c-0.229-0.786-0.345-0.897-1.375-0.448l-20.516,7.965c-1.03,0.336-1.146,0.336-0.459,2.131
			c4.472,10.547,15.13,17.166,30.716,17.166C651.042,84.481,666.286,74.159,666.286,55.424L666.286,55.424z"/>
	</g>
	<g>
		<path fill="#434D53" d="M142.585,153.286c-7.706,8.204-25.979,19.921-51.875,20.077C40.994,173.665,0,140.269,0,85.915
			C0,36.382,38.814,0,93.545,0c42.521,0,64.323,21.439,76.535,49.713c1.09,2.63,1.308,3.726-0.654,4.383l-45.571,18.888
			c-1.962,0.876-1.745-0.658-2.617-2.411c-5.888-12.054-15.918-19.287-31.618-19.287c-21.151,0-33.362,16.218-33.362,34.628
			c0,22.575,15.046,36.383,34.453,36.383c5.385,0,10.759-1.873,15.694-5.109l-16.511-16.511c-1.627-1.626-0.537-2.912,1.729-2.912
			h66.876c2.265,0,3.376,1.231,3.376,3.497v67.279c0,2.265-1.514,2.603-2.912,1.206L142.585,153.286z"/>
		<path fill="#434D53" d="M256.011,79.214C248.692,68.757,241.602,58.75,238.4,54.14c7.204-2.923,9.834-12.031,9.834-22.375
			c0-13.83-8.92-25.749-28.475-25.749h-41.055c-0.571,0-1.143-0.112-1.143,1.012v74.21c0,1.125,0,1.012,1.143,1.012h27.56
			c1.029,0,1.144-0.112,1.144-1.012V65.496l4.346-0.225c0,0,4.231,7.533,8.461,14.729c1.258,2.024,1.716,2.249,2.745,2.249h32.82
			c1.029,0,1.601-0.112,1.601-0.562C257.383,81.237,256.925,80.451,256.011,79.214z M209.811,39.86h-1.715V27.941h1.83
			c2.516,0,5.604,2.024,5.604,5.959C215.528,38.173,212.326,39.86,209.811,39.86z"/>
		<path fill="#434D53" d="M350.245,80.679c-14.211-24.682-29.111-51.832-42.405-75.617c-0.229-0.449-1.604-0.449-2.979-0.449
			c-1.261,0-2.521,0.112-2.751,0.562c-12.034,21.877-27.506,51.046-41.374,75.504c-0.688,1.123-0.458,1.571,0.458,1.571h28.079
			c1.605,0,1.72-0.224,2.292-1.234c1.375-2.692,1.834-3.927,3.324-7.068h18.223c1.375,2.806,2.177,4.376,3.553,7.405
			c0.458,0.786,1.031,0.897,1.604,0.897h31.517C351.047,82.25,351.047,82.25,350.245,80.679z M300.849,55.66
			c0,0,0.917-1.683,1.49-3.029c1.031-2.244,1.833-4.488,1.833-4.488s0.802,2.244,1.834,4.488c0.803,1.795,1.375,3.029,1.375,3.029
			H300.849z"/>
		<path fill="#434D53" d="M429.138,82.811c0.346-29.17,0.23-53.403,0-75.281c0-1.122,0-1.346-1.261-1.346h-27.62
			c-1.146,0-1.03,0.112-1.03,1.346v22.775c0,0-24.871-15.146-42.979-25.917c-0.458-0.336-0.802-0.448-1.031-0.336
			c-0.115,0.112-0.23,0.449-0.23,1.01c-0.229,29.73-0.343,46.447,0,76.066c0,0.449,0.23,1.122,1.261,1.122h27.392
			c1.146,0,1.146,0,1.146-1.01V58.353c0,0,23.609,14.136,42.864,25.58c0.571,0.337,1.03,0.449,1.26,0.337
			C429.138,84.157,429.138,83.596,429.138,82.811L429.138,82.811z"/>
		<path fill="#434D53" d="M479.454,6.184h-33.581c-1.03,0-1.146,0.225-1.146,1.122V81.24c0,1.122,0.115,1.01,1.146,1.01h30.716
			c27.964,0,41.603-12.341,41.603-38.033C518.191,19.535,505.814,6.184,479.454,6.184z M477.277,56.67h-1.834V31.764h2.063
			c3.553,0,6.877,3.253,6.877,12.117C484.382,53.753,481.058,56.67,477.277,56.67z"/>
		<path fill="#434D53" d="M590.361,80.679V61.606c0-1.458,0-1.458-1.261-1.458h-28.423v-5.497h26.59c1.26,0,1.375-0.225,1.375-1.459
			V35.017c0-1.346-0.115-1.57-1.375-1.57h-26.59v-4.824h27.391c1.146,0,1.376-0.337,1.376-1.571V7.755
			c0-1.458-0.114-1.571-1.376-1.571h-57.189c-1.375,0-1.261,0.112-1.261,1.122v73.373c0,1.347,0.114,1.571,1.377,1.571H589.1
			C590.246,82.25,590.361,82.025,590.361,80.679L590.361,80.679z"/>
		<path fill="#434D53" d="M665.51,54.648c0-16.829-11.92-21.653-23.266-23.561c-1.605-0.224-2.979-0.448-4.127-0.673
			c-4.239-0.673-5.729-2.243-5.729-3.478c0-1.122,1.031-1.907,2.865-1.907c2.406,0,5.043,1.234,5.845,3.029
			c0.345,0.897,0.458,0.897,1.375,0.448l19.598-7.517c1.147-0.448,1.033-0.561,0.803-1.907c-2.177-9.76-11.805-16.492-27.85-16.492
			c-21.775,0-33.351,11.219-33.351,28.721c0,17.726,15.128,22.662,23.838,23.335c0.802,0.112,2.063,0.224,2.865,0.336
			c3.209,0.449,4.241,1.683,4.241,3.59c0,1.346-1.262,2.356-3.439,2.356c-2.636,0-5.5-1.458-6.303-4.039
			c-0.229-0.785-0.344-0.897-1.376-0.449l-20.514,7.965c-1.032,0.337-1.146,0.337-0.459,2.132
			c4.47,10.546,15.128,17.166,30.715,17.166C650.268,83.706,665.51,73.384,665.51,54.648L665.51,54.648z"/>
	</g>
</g>
<g>
	<g>
		<path fill="#FFFFFF" d="M331.345,207.613v27.68h-4.873v-27.68h-7.498v-4.572h19.848v4.572H331.345z"/>
		<path fill="#FFFFFF" d="M353.384,203.041v19.419c0,2.771,0.459,4.796,1.378,6.076c1.372,1.852,3.302,2.777,5.792,2.777
			c2.503,0,4.44-0.926,5.813-2.777c0.919-1.237,1.378-3.264,1.378-6.076v-19.419h4.873v20.768c0,3.4-1.068,6.198-3.205,8.399
			c-2.404,2.452-5.357,3.677-8.859,3.677c-3.502,0-6.447-1.225-8.837-3.677c-2.137-2.201-3.206-4.999-3.206-8.399v-20.768H353.384z"
			/>
		<path fill="#FFFFFF" d="M396.773,221.548l10.136,13.745h-6.038l-9.364-13.219h-0.893v13.219h-4.873v-32.252h5.774
			c4.314,0,7.43,0.802,9.348,2.402c2.114,1.783,3.173,4.138,3.173,7.061c0,2.284-0.667,4.248-1.997,5.891
			C400.708,220.037,398.953,221.089,396.773,221.548z M390.614,217.861h1.562c4.658,0,6.987-1.763,6.987-5.291
			c0-3.305-2.266-4.957-6.796-4.957h-1.753V217.861z"/>
		<path fill="#FFFFFF" d="M421.931,203.041v32.252h-4.873v-32.252H421.931z"/>
		<path fill="#FFFFFF" d="M453.567,207.771l-3.992,2.343c-0.747-1.282-1.458-2.118-2.134-2.509c-0.704-0.446-1.613-0.67-2.726-0.67
			c-1.366,0-2.499,0.385-3.4,1.152c-0.901,0.753-1.351,1.703-1.351,2.849c0,1.579,1.168,2.851,3.505,3.813l3.214,1.318
			c2.616,1.062,4.53,2.357,5.74,3.887s1.815,3.404,1.815,5.624c0,2.975-0.981,5.432-2.943,7.374
			c-1.989,1.955-4.477,2.932-7.462,2.932c-2.83,0-5.168-0.832-7.012-2.496c-1.816-1.661-2.95-3.999-3.401-7.011l4.985-1.087
			c0.225,1.896,0.619,3.206,1.182,3.931c1.016,1.396,2.493,2.092,4.437,2.092c1.533,0,2.809-0.508,3.822-1.525
			c1.014-1.019,1.521-2.309,1.521-3.87c0-0.627-0.088-1.202-0.263-1.727c-0.178-0.521-0.451-1.004-0.821-1.442
			c-0.374-0.439-0.855-0.851-1.443-1.235c-0.591-0.383-1.292-0.75-2.106-1.098l-3.139-1.297c-4.45-1.867-6.675-4.602-6.675-8.2
			c0-2.426,0.943-4.454,2.83-6.087c1.883-1.645,4.219-2.468,7.009-2.468C448.517,202.364,451.454,204.168,453.567,207.771z"/>
		<path fill="#FFFFFF" d="M464.417,235.293l6.866-34.706l11.193,25.089l11.595-25.089l6.168,34.706h-5.048l-3.147-19.492
			l-9.652,21.016l-9.378-21.037l-3.506,19.514H464.417z"/>
		<path fill="#FFFFFF" d="M510.904,218.988c0-4.55,1.671-8.458,5.014-11.725c3.328-3.266,7.326-4.899,11.996-4.899
			c4.614,0,8.572,1.648,11.872,4.941c3.313,3.295,4.972,7.252,4.972,11.872c0,4.647-1.665,8.592-4.992,11.828
			c-3.343,3.253-7.378,4.879-12.103,4.879c-4.181,0-7.937-1.444-11.264-4.334C512.735,228.355,510.904,224.168,510.904,218.988z
			 M515.778,219.041c0,3.575,1.206,6.513,3.624,8.817c2.401,2.304,5.176,3.455,8.323,3.455c3.414,0,6.294-1.171,8.64-3.518
			c2.346-2.374,3.519-5.265,3.519-8.671c0-3.448-1.158-6.338-3.477-8.671c-2.304-2.346-5.155-3.519-8.555-3.519
			c-3.386,0-6.244,1.173-8.577,3.519C516.944,212.771,515.778,215.635,515.778,219.041z"/>
		<path fill="#FFFFFF" d="M594.124,227.421h-13.961l-3.632,7.872h-5.302l16.136-34.283l15.567,34.283h-5.387L594.124,227.421z
			 M592.118,222.85l-4.836-10.979l-5.069,10.979H592.118z"/>
		<path fill="#FFFFFF" d="M634.881,204.712v5.758c-2.846-2.355-5.788-3.534-8.828-3.534c-3.353,0-6.174,1.194-8.47,3.582
			c-2.31,2.374-3.464,5.277-3.464,8.711c0,3.394,1.154,6.256,3.464,8.589c2.309,2.331,5.139,3.496,8.491,3.496
			c1.73,0,3.203-0.278,4.414-0.837c0.675-0.278,1.375-0.654,2.101-1.128s1.489-1.047,2.292-1.715v5.883
			c-2.816,1.578-5.772,2.368-8.871,2.368c-4.661,0-8.638-1.611-11.932-4.833c-3.223-3.25-4.831-7.17-4.831-11.76
			c0-4.113,1.347-7.782,4.044-11.007c3.367-3.945,7.733-5.921,13.1-5.921C629.319,202.364,632.149,203.147,634.881,204.712z"/>
		<path fill="#FFFFFF" d="M655.344,207.613v27.68h-4.873v-27.68h-7.497v-4.572h19.849v4.572H655.344z"/>
		<path fill="#FFFFFF" d="M677.383,203.041v32.252h-4.872v-32.252H677.383z"/>
		<path fill="#FFFFFF" d="M692.167,203.041l9.019,22.379l9.145-22.379h5.387l-14.637,34.707l-14.299-34.707H692.167z"/>
		<path fill="#FFFFFF" d="M722.095,218.988c0-4.55,1.67-8.458,5.012-11.725c3.327-3.266,7.327-4.899,11.999-4.899
			c4.613,0,8.57,1.648,11.87,4.941c3.313,3.295,4.972,7.252,4.972,11.872c0,4.647-1.664,8.592-4.992,11.828
			c-3.342,3.253-7.377,4.879-12.103,4.879c-4.181,0-7.936-1.444-11.263-4.334C723.925,228.355,722.095,224.168,722.095,218.988z
			 M726.967,219.041c0,3.575,1.208,6.513,3.625,8.817c2.401,2.304,5.176,3.455,8.323,3.455c3.414,0,6.294-1.171,8.64-3.518
			c2.346-2.374,3.52-5.265,3.52-8.671c0-3.448-1.159-6.338-3.478-8.671c-2.304-2.346-5.155-3.519-8.555-3.519
			c-3.387,0-6.244,1.173-8.577,3.519C728.133,212.771,726.967,215.635,726.967,219.041z"/>
	</g>
	<g>
		<path d="M330.763,207.037v27.68h-4.873v-27.68h-7.498v-4.571h19.848v4.571H330.763z"/>
		<path d="M352.802,202.466v19.418c0,2.771,0.46,4.796,1.379,6.077c1.372,1.851,3.302,2.777,5.792,2.777
			c2.503,0,4.44-0.927,5.813-2.777c0.918-1.239,1.378-3.265,1.378-6.077v-19.418h4.873v20.768c0,3.399-1.069,6.197-3.206,8.398
			c-2.404,2.452-5.358,3.677-8.859,3.677c-3.502,0-6.447-1.225-8.837-3.677c-2.137-2.201-3.206-4.999-3.206-8.398v-20.768H352.802z"
			/>
		<path d="M396.191,220.971l10.136,13.746h-6.037l-9.365-13.219h-0.893v13.219h-4.872v-32.251h5.774
			c4.314,0,7.429,0.802,9.347,2.401c2.114,1.783,3.173,4.138,3.173,7.061c0,2.284-0.666,4.248-1.997,5.891
			C400.126,219.462,398.371,220.513,396.191,220.971z M390.032,217.285h1.562c4.658,0,6.987-1.763,6.987-5.291
			c0-3.304-2.265-4.957-6.796-4.957h-1.753V217.285z"/>
		<path d="M421.349,202.466v32.251h-4.873v-32.251H421.349z"/>
		<path d="M452.985,207.195l-3.991,2.342c-0.748-1.281-1.458-2.117-2.135-2.509c-0.705-0.445-1.613-0.669-2.724-0.669
			c-1.367,0-2.502,0.386-3.401,1.152c-0.901,0.754-1.352,1.703-1.352,2.849c0,1.579,1.169,2.85,3.506,3.813l3.214,1.318
			c2.615,1.063,4.529,2.358,5.74,3.887c1.209,1.529,1.816,3.405,1.816,5.625c0,2.974-0.982,5.431-2.945,7.373
			c-1.989,1.954-4.477,2.932-7.462,2.932c-2.83,0-5.168-0.831-7.011-2.495c-1.816-1.662-2.951-3.999-3.401-7.011l4.985-1.088
			c0.225,1.896,0.618,3.206,1.183,3.93c1.014,1.396,2.492,2.094,4.436,2.094c1.533,0,2.808-0.509,3.821-1.527
			c1.014-1.018,1.521-2.308,1.521-3.869c0-0.627-0.088-1.202-0.263-1.726c-0.178-0.523-0.451-1.005-0.822-1.443
			c-0.372-0.438-0.853-0.851-1.442-1.234s-1.291-0.75-2.105-1.099l-3.139-1.297c-4.451-1.867-6.677-4.601-6.677-8.2
			c0-2.425,0.944-4.454,2.831-6.086c1.883-1.646,4.22-2.469,7.009-2.469C447.936,201.788,450.872,203.591,452.985,207.195z"/>
		<path d="M463.834,234.717l6.866-34.706l11.194,25.089l11.596-25.089l6.167,34.706h-5.048l-3.147-19.492l-9.652,21.016
			l-9.379-21.036l-3.505,19.513H463.834z"/>
		<path d="M510.323,218.412c0-4.549,1.671-8.458,5.012-11.725c3.327-3.266,7.327-4.899,11.999-4.899c4.613,0,8.57,1.648,11.87,4.941
			c3.313,3.295,4.971,7.252,4.971,11.872c0,4.647-1.664,8.592-4.991,11.829c-3.342,3.253-7.377,4.878-12.103,4.878
			c-4.181,0-7.936-1.444-11.263-4.333C512.155,227.779,510.323,223.592,510.323,218.412z M515.195,218.466
			c0,3.573,1.208,6.513,3.625,8.817c2.401,2.303,5.177,3.455,8.324,3.455c3.414,0,6.294-1.172,8.639-3.518
			c2.346-2.374,3.52-5.265,3.52-8.672c0-3.448-1.159-6.338-3.477-8.672c-2.305-2.344-5.156-3.518-8.555-3.518
			c-3.388,0-6.245,1.174-8.578,3.518C516.361,212.196,515.195,215.059,515.195,218.466z"/>
		<path d="M593.543,226.845h-13.962l-3.634,7.872h-5.3l16.136-34.283l15.566,34.283h-5.386L593.543,226.845z M591.536,222.273
			l-4.836-10.979l-5.069,10.979H591.536z"/>
		<path d="M634.298,204.137v5.757c-2.844-2.355-5.786-3.534-8.826-3.534c-3.354,0-6.177,1.194-8.471,3.581
			c-2.31,2.375-3.464,5.279-3.464,8.713c0,3.394,1.154,6.256,3.464,8.587c2.308,2.333,5.139,3.498,8.491,3.498
			c1.73,0,3.203-0.279,4.414-0.838c0.675-0.277,1.375-0.654,2.101-1.129c0.725-0.472,1.489-1.046,2.291-1.715v5.884
			c-2.815,1.579-5.771,2.368-8.869,2.368c-4.662,0-8.639-1.61-11.933-4.832c-3.222-3.252-4.83-7.171-4.83-11.76
			c0-4.115,1.347-7.784,4.041-11.007c3.37-3.947,7.736-5.922,13.103-5.922C628.737,201.788,631.568,202.571,634.298,204.137z"/>
		<path d="M654.762,207.037v27.68h-4.872v-27.68h-7.497v-4.571h19.848v4.571H654.762z"/>
		<path d="M676.802,202.466v32.251h-4.873v-32.251H676.802z"/>
		<path d="M691.585,202.466l9.018,22.379l9.146-22.379h5.386l-14.637,34.705l-14.299-34.705H691.585z"/>
		<path d="M721.513,218.412c0-4.549,1.671-8.458,5.013-11.725c3.328-3.266,7.327-4.899,11.998-4.899c4.613,0,8.57,1.648,11.87,4.941
			c3.313,3.295,4.972,7.252,4.972,11.872c0,4.647-1.664,8.592-4.992,11.829c-3.342,3.253-7.377,4.878-12.103,4.878
			c-4.181,0-7.936-1.444-11.263-4.333C723.345,227.779,721.513,223.592,721.513,218.412z M726.386,218.466
			c0,3.573,1.207,6.513,3.624,8.817c2.402,2.303,5.177,3.455,8.324,3.455c3.414,0,6.293-1.172,8.639-3.518
			c2.346-2.374,3.52-5.265,3.52-8.672c0-3.448-1.159-6.338-3.477-8.672c-2.305-2.344-5.156-3.518-8.555-3.518
			c-3.387,0-6.245,1.174-8.578,3.518C727.552,212.196,726.386,215.059,726.386,218.466z"/>
	</g>
</g>
</svg>
